<?xml version="1.0" encoding="utf-8"?>
<svg xmlns="http://www.w3.org/2000/svg" xmlns:xlink="http://www.w3.org/1999/xlink" width="600" height="400" viewBox="0 0 2400 1600">
<defs>
  <clipPath id="clip120">
    <rect x="0" y="0" width="2400" height="1600"/>
  </clipPath>
</defs>
<path clip-path="url(#clip120)" d="M0 1600 L2400 1600 L2400 0 L0 0  Z" fill="#ffffff" fill-rule="evenodd" fill-opacity="1"/>
<defs>
  <clipPath id="clip121">
    <rect x="480" y="0" width="1681" height="1600"/>
  </clipPath>
</defs>
<path clip-path="url(#clip120)" d="M249.542 1423.18 L2352.76 1423.18 L2352.76 47.2441 L249.542 47.2441  Z" fill="#ffffff" fill-rule="evenodd" fill-opacity="1"/>
<defs>
  <clipPath id="clip122">
    <rect x="249" y="47" width="2104" height="1377"/>
  </clipPath>
</defs>
<polyline clip-path="url(#clip122)" style="stroke:#000000; stroke-linecap:round; stroke-linejoin:round; stroke-width:2; stroke-opacity:0.1; fill:none" points="309.067,1423.18 309.067,47.2441 "/>
<polyline clip-path="url(#clip122)" style="stroke:#000000; stroke-linecap:round; stroke-linejoin:round; stroke-width:2; stroke-opacity:0.1; fill:none" points="805.108,1423.18 805.108,47.2441 "/>
<polyline clip-path="url(#clip122)" style="stroke:#000000; stroke-linecap:round; stroke-linejoin:round; stroke-width:2; stroke-opacity:0.1; fill:none" points="1301.15,1423.18 1301.15,47.2441 "/>
<polyline clip-path="url(#clip122)" style="stroke:#000000; stroke-linecap:round; stroke-linejoin:round; stroke-width:2; stroke-opacity:0.1; fill:none" points="1797.19,1423.18 1797.19,47.2441 "/>
<polyline clip-path="url(#clip122)" style="stroke:#000000; stroke-linecap:round; stroke-linejoin:round; stroke-width:2; stroke-opacity:0.1; fill:none" points="2293.23,1423.18 2293.23,47.2441 "/>
<polyline clip-path="url(#clip120)" style="stroke:#000000; stroke-linecap:round; stroke-linejoin:round; stroke-width:4; stroke-opacity:1; fill:none" points="249.542,1423.18 2352.76,1423.18 "/>
<polyline clip-path="url(#clip120)" style="stroke:#000000; stroke-linecap:round; stroke-linejoin:round; stroke-width:4; stroke-opacity:1; fill:none" points="309.067,1423.18 309.067,1404.28 "/>
<polyline clip-path="url(#clip120)" style="stroke:#000000; stroke-linecap:round; stroke-linejoin:round; stroke-width:4; stroke-opacity:1; fill:none" points="805.108,1423.18 805.108,1404.28 "/>
<polyline clip-path="url(#clip120)" style="stroke:#000000; stroke-linecap:round; stroke-linejoin:round; stroke-width:4; stroke-opacity:1; fill:none" points="1301.15,1423.18 1301.15,1404.28 "/>
<polyline clip-path="url(#clip120)" style="stroke:#000000; stroke-linecap:round; stroke-linejoin:round; stroke-width:4; stroke-opacity:1; fill:none" points="1797.19,1423.18 1797.19,1404.28 "/>
<polyline clip-path="url(#clip120)" style="stroke:#000000; stroke-linecap:round; stroke-linejoin:round; stroke-width:4; stroke-opacity:1; fill:none" points="2293.23,1423.18 2293.23,1404.28 "/>
<path clip-path="url(#clip120)" d="M271.37 1454.1 Q267.759 1454.1 265.931 1457.66 Q264.125 1461.2 264.125 1468.33 Q264.125 1475.44 265.931 1479.01 Q267.759 1482.55 271.37 1482.55 Q275.005 1482.55 276.81 1479.01 Q278.639 1475.44 278.639 1468.33 Q278.639 1461.2 276.81 1457.66 Q275.005 1454.1 271.37 1454.1 M271.37 1450.39 Q277.181 1450.39 280.236 1455 Q283.315 1459.58 283.315 1468.33 Q283.315 1477.06 280.236 1481.67 Q277.181 1486.25 271.37 1486.25 Q265.56 1486.25 262.482 1481.67 Q259.426 1477.06 259.426 1468.33 Q259.426 1459.58 262.482 1455 Q265.56 1450.39 271.37 1450.39 Z" fill="#000000" fill-rule="nonzero" fill-opacity="1" /><path clip-path="url(#clip120)" d="M291.532 1479.7 L296.417 1479.7 L296.417 1485.58 L291.532 1485.58 L291.532 1479.7 Z" fill="#000000" fill-rule="nonzero" fill-opacity="1" /><path clip-path="url(#clip120)" d="M316.602 1454.1 Q312.991 1454.1 311.162 1457.66 Q309.356 1461.2 309.356 1468.33 Q309.356 1475.44 311.162 1479.01 Q312.991 1482.55 316.602 1482.55 Q320.236 1482.55 322.041 1479.01 Q323.87 1475.44 323.87 1468.33 Q323.87 1461.2 322.041 1457.66 Q320.236 1454.1 316.602 1454.1 M316.602 1450.39 Q322.412 1450.39 325.467 1455 Q328.546 1459.58 328.546 1468.33 Q328.546 1477.06 325.467 1481.67 Q322.412 1486.25 316.602 1486.25 Q310.791 1486.25 307.713 1481.67 Q304.657 1477.06 304.657 1468.33 Q304.657 1459.58 307.713 1455 Q310.791 1450.39 316.602 1450.39 Z" fill="#000000" fill-rule="nonzero" fill-opacity="1" /><path clip-path="url(#clip120)" d="M346.764 1454.1 Q343.152 1454.1 341.324 1457.66 Q339.518 1461.2 339.518 1468.33 Q339.518 1475.44 341.324 1479.01 Q343.152 1482.55 346.764 1482.55 Q350.398 1482.55 352.203 1479.01 Q354.032 1475.44 354.032 1468.33 Q354.032 1461.2 352.203 1457.66 Q350.398 1454.1 346.764 1454.1 M346.764 1450.39 Q352.574 1450.39 355.629 1455 Q358.708 1459.58 358.708 1468.33 Q358.708 1477.06 355.629 1481.67 Q352.574 1486.25 346.764 1486.25 Q340.953 1486.25 337.875 1481.67 Q334.819 1477.06 334.819 1468.33 Q334.819 1459.58 337.875 1455 Q340.953 1450.39 346.764 1450.39 Z" fill="#000000" fill-rule="nonzero" fill-opacity="1" /><path clip-path="url(#clip120)" d="M767.909 1454.1 Q764.298 1454.1 762.469 1457.66 Q760.664 1461.2 760.664 1468.33 Q760.664 1475.44 762.469 1479.01 Q764.298 1482.55 767.909 1482.55 Q771.543 1482.55 773.349 1479.01 Q775.178 1475.44 775.178 1468.33 Q775.178 1461.2 773.349 1457.66 Q771.543 1454.1 767.909 1454.1 M767.909 1450.39 Q773.719 1450.39 776.775 1455 Q779.853 1459.58 779.853 1468.33 Q779.853 1477.06 776.775 1481.67 Q773.719 1486.25 767.909 1486.25 Q762.099 1486.25 759.02 1481.67 Q755.965 1477.06 755.965 1468.33 Q755.965 1459.58 759.02 1455 Q762.099 1450.39 767.909 1450.39 Z" fill="#000000" fill-rule="nonzero" fill-opacity="1" /><path clip-path="url(#clip120)" d="M788.071 1479.7 L792.955 1479.7 L792.955 1485.58 L788.071 1485.58 L788.071 1479.7 Z" fill="#000000" fill-rule="nonzero" fill-opacity="1" /><path clip-path="url(#clip120)" d="M807.168 1481.64 L823.487 1481.64 L823.487 1485.58 L801.543 1485.58 L801.543 1481.64 Q804.205 1478.89 808.788 1474.26 Q813.395 1469.61 814.576 1468.27 Q816.821 1465.74 817.7 1464.01 Q818.603 1462.25 818.603 1460.56 Q818.603 1457.8 816.659 1456.07 Q814.738 1454.33 811.636 1454.33 Q809.437 1454.33 806.983 1455.09 Q804.552 1455.86 801.775 1457.41 L801.775 1452.69 Q804.599 1451.55 807.052 1450.97 Q809.506 1450.39 811.543 1450.39 Q816.913 1450.39 820.108 1453.08 Q823.302 1455.77 823.302 1460.26 Q823.302 1462.39 822.492 1464.31 Q821.705 1466.2 819.599 1468.8 Q819.02 1469.47 815.918 1472.69 Q812.816 1475.88 807.168 1481.64 Z" fill="#000000" fill-rule="nonzero" fill-opacity="1" /><path clip-path="url(#clip120)" d="M833.349 1451.02 L851.705 1451.02 L851.705 1454.96 L837.631 1454.96 L837.631 1463.43 Q838.649 1463.08 839.668 1462.92 Q840.686 1462.73 841.705 1462.73 Q847.492 1462.73 850.872 1465.9 Q854.251 1469.08 854.251 1474.49 Q854.251 1480.07 850.779 1483.17 Q847.307 1486.25 840.987 1486.25 Q838.811 1486.25 836.543 1485.88 Q834.298 1485.51 831.89 1484.77 L831.89 1480.07 Q833.974 1481.2 836.196 1481.76 Q838.418 1482.32 840.895 1482.32 Q844.899 1482.32 847.237 1480.21 Q849.575 1478.1 849.575 1474.49 Q849.575 1470.88 847.237 1468.77 Q844.899 1466.67 840.895 1466.67 Q839.02 1466.67 837.145 1467.08 Q835.293 1467.5 833.349 1468.38 L833.349 1451.02 Z" fill="#000000" fill-rule="nonzero" fill-opacity="1" /><path clip-path="url(#clip120)" d="M1263.45 1454.1 Q1259.84 1454.1 1258.01 1457.66 Q1256.21 1461.2 1256.21 1468.33 Q1256.21 1475.44 1258.01 1479.01 Q1259.84 1482.55 1263.45 1482.55 Q1267.09 1482.55 1268.89 1479.01 Q1270.72 1475.44 1270.72 1468.33 Q1270.72 1461.2 1268.89 1457.66 Q1267.09 1454.1 1263.45 1454.1 M1263.45 1450.39 Q1269.26 1450.39 1272.32 1455 Q1275.4 1459.58 1275.4 1468.33 Q1275.4 1477.06 1272.32 1481.67 Q1269.26 1486.25 1263.45 1486.25 Q1257.64 1486.25 1254.56 1481.67 Q1251.51 1477.06 1251.51 1468.33 Q1251.51 1459.58 1254.56 1455 Q1257.64 1450.39 1263.45 1450.39 Z" fill="#000000" fill-rule="nonzero" fill-opacity="1" /><path clip-path="url(#clip120)" d="M1283.61 1479.7 L1288.5 1479.7 L1288.5 1485.58 L1283.61 1485.58 L1283.61 1479.7 Z" fill="#000000" fill-rule="nonzero" fill-opacity="1" /><path clip-path="url(#clip120)" d="M1298.73 1451.02 L1317.09 1451.02 L1317.09 1454.96 L1303.01 1454.96 L1303.01 1463.43 Q1304.03 1463.08 1305.05 1462.92 Q1306.07 1462.73 1307.09 1462.73 Q1312.87 1462.73 1316.25 1465.9 Q1319.63 1469.08 1319.63 1474.49 Q1319.63 1480.07 1316.16 1483.17 Q1312.69 1486.25 1306.37 1486.25 Q1304.19 1486.25 1301.92 1485.88 Q1299.68 1485.51 1297.27 1484.77 L1297.27 1480.07 Q1299.35 1481.2 1301.58 1481.76 Q1303.8 1482.32 1306.28 1482.32 Q1310.28 1482.32 1312.62 1480.21 Q1314.96 1478.1 1314.96 1474.49 Q1314.96 1470.88 1312.62 1468.77 Q1310.28 1466.67 1306.28 1466.67 Q1304.4 1466.67 1302.53 1467.08 Q1300.67 1467.5 1298.73 1468.38 L1298.73 1451.02 Z" fill="#000000" fill-rule="nonzero" fill-opacity="1" /><path clip-path="url(#clip120)" d="M1338.85 1454.1 Q1335.23 1454.1 1333.41 1457.66 Q1331.6 1461.2 1331.6 1468.33 Q1331.6 1475.44 1333.41 1479.01 Q1335.23 1482.55 1338.85 1482.55 Q1342.48 1482.55 1344.29 1479.01 Q1346.11 1475.44 1346.11 1468.33 Q1346.11 1461.2 1344.29 1457.66 Q1342.48 1454.1 1338.85 1454.1 M1338.85 1450.39 Q1344.66 1450.39 1347.71 1455 Q1350.79 1459.58 1350.79 1468.33 Q1350.79 1477.06 1347.71 1481.67 Q1344.66 1486.25 1338.85 1486.25 Q1333.04 1486.25 1329.96 1481.67 Q1326.9 1477.06 1326.9 1468.33 Q1326.9 1459.58 1329.96 1455 Q1333.04 1450.39 1338.85 1450.39 Z" fill="#000000" fill-rule="nonzero" fill-opacity="1" /><path clip-path="url(#clip120)" d="M1759.99 1454.1 Q1756.38 1454.1 1754.55 1457.66 Q1752.75 1461.2 1752.75 1468.33 Q1752.75 1475.44 1754.55 1479.01 Q1756.38 1482.55 1759.99 1482.55 Q1763.63 1482.55 1765.43 1479.01 Q1767.26 1475.44 1767.26 1468.33 Q1767.26 1461.2 1765.43 1457.66 Q1763.63 1454.1 1759.99 1454.1 M1759.99 1450.39 Q1765.8 1450.39 1768.86 1455 Q1771.94 1459.58 1771.94 1468.33 Q1771.94 1477.06 1768.86 1481.67 Q1765.8 1486.25 1759.99 1486.25 Q1754.18 1486.25 1751.1 1481.67 Q1748.05 1477.06 1748.05 1468.33 Q1748.05 1459.58 1751.1 1455 Q1754.18 1450.39 1759.99 1450.39 Z" fill="#000000" fill-rule="nonzero" fill-opacity="1" /><path clip-path="url(#clip120)" d="M1780.15 1479.7 L1785.04 1479.7 L1785.04 1485.58 L1780.15 1485.58 L1780.15 1479.7 Z" fill="#000000" fill-rule="nonzero" fill-opacity="1" /><path clip-path="url(#clip120)" d="M1794.04 1451.02 L1816.26 1451.02 L1816.26 1453.01 L1803.72 1485.58 L1798.83 1485.58 L1810.64 1454.96 L1794.04 1454.96 L1794.04 1451.02 Z" fill="#000000" fill-rule="nonzero" fill-opacity="1" /><path clip-path="url(#clip120)" d="M1825.43 1451.02 L1843.79 1451.02 L1843.79 1454.96 L1829.71 1454.96 L1829.71 1463.43 Q1830.73 1463.08 1831.75 1462.92 Q1832.77 1462.73 1833.79 1462.73 Q1839.57 1462.73 1842.95 1465.9 Q1846.33 1469.08 1846.33 1474.49 Q1846.33 1480.07 1842.86 1483.17 Q1839.39 1486.25 1833.07 1486.25 Q1830.89 1486.25 1828.62 1485.88 Q1826.38 1485.51 1823.97 1484.77 L1823.97 1480.07 Q1826.06 1481.2 1828.28 1481.76 Q1830.5 1482.32 1832.98 1482.32 Q1836.98 1482.32 1839.32 1480.21 Q1841.66 1478.1 1841.66 1474.49 Q1841.66 1470.88 1839.32 1468.77 Q1836.98 1466.67 1832.98 1466.67 Q1831.1 1466.67 1829.23 1467.08 Q1827.38 1467.5 1825.43 1468.38 L1825.43 1451.02 Z" fill="#000000" fill-rule="nonzero" fill-opacity="1" /><path clip-path="url(#clip120)" d="M2245.3 1481.64 L2252.94 1481.64 L2252.94 1455.28 L2244.63 1456.95 L2244.63 1452.69 L2252.9 1451.02 L2257.57 1451.02 L2257.57 1481.64 L2265.21 1481.64 L2265.21 1485.58 L2245.3 1485.58 L2245.3 1481.64 Z" fill="#000000" fill-rule="nonzero" fill-opacity="1" /><path clip-path="url(#clip120)" d="M2274.65 1479.7 L2279.54 1479.7 L2279.54 1485.58 L2274.65 1485.58 L2274.65 1479.7 Z" fill="#000000" fill-rule="nonzero" fill-opacity="1" /><path clip-path="url(#clip120)" d="M2299.72 1454.1 Q2296.11 1454.1 2294.28 1457.66 Q2292.48 1461.2 2292.48 1468.33 Q2292.48 1475.44 2294.28 1479.01 Q2296.11 1482.55 2299.72 1482.55 Q2303.36 1482.55 2305.16 1479.01 Q2306.99 1475.44 2306.99 1468.33 Q2306.99 1461.2 2305.16 1457.66 Q2303.36 1454.1 2299.72 1454.1 M2299.72 1450.39 Q2305.53 1450.39 2308.59 1455 Q2311.67 1459.58 2311.67 1468.33 Q2311.67 1477.06 2308.59 1481.67 Q2305.53 1486.25 2299.72 1486.25 Q2293.91 1486.25 2290.84 1481.67 Q2287.78 1477.06 2287.78 1468.33 Q2287.78 1459.58 2290.84 1455 Q2293.91 1450.39 2299.72 1450.39 Z" fill="#000000" fill-rule="nonzero" fill-opacity="1" /><path clip-path="url(#clip120)" d="M2329.89 1454.1 Q2326.27 1454.1 2324.45 1457.66 Q2322.64 1461.2 2322.64 1468.33 Q2322.64 1475.44 2324.45 1479.01 Q2326.27 1482.55 2329.89 1482.55 Q2333.52 1482.55 2335.33 1479.01 Q2337.15 1475.44 2337.15 1468.33 Q2337.15 1461.2 2335.33 1457.66 Q2333.52 1454.1 2329.89 1454.1 M2329.89 1450.39 Q2335.7 1450.39 2338.75 1455 Q2341.83 1459.58 2341.83 1468.33 Q2341.83 1477.06 2338.75 1481.67 Q2335.7 1486.25 2329.89 1486.25 Q2324.08 1486.25 2321 1481.67 Q2317.94 1477.06 2317.94 1468.33 Q2317.94 1459.58 2321 1455 Q2324.08 1450.39 2329.89 1450.39 Z" fill="#000000" fill-rule="nonzero" fill-opacity="1" /><path clip-path="url(#clip120)" d="M1154.47 1533.76 L1154.47 1539.24 Q1151.98 1537.87 1149.47 1537.2 Q1146.99 1536.5 1144.44 1536.5 Q1138.74 1536.5 1135.59 1540.13 Q1132.44 1543.73 1132.44 1550.25 Q1132.44 1556.78 1135.59 1560.4 Q1138.74 1564 1144.44 1564 Q1146.99 1564 1149.47 1563.33 Q1151.98 1562.63 1154.47 1561.26 L1154.47 1566.68 Q1152.02 1567.82 1149.37 1568.39 Q1146.76 1568.97 1143.8 1568.97 Q1135.75 1568.97 1131.01 1563.91 Q1126.27 1558.85 1126.27 1550.25 Q1126.27 1541.53 1131.04 1536.53 Q1135.85 1531.54 1144.19 1531.54 Q1146.89 1531.54 1149.47 1532.11 Q1152.05 1532.65 1154.47 1533.76 Z" fill="#000000" fill-rule="nonzero" fill-opacity="1" /><path clip-path="url(#clip120)" d="M1178.47 1536.5 Q1173.76 1536.5 1171.02 1540.19 Q1168.28 1543.85 1168.28 1550.25 Q1168.28 1556.65 1170.99 1560.34 Q1173.72 1564 1178.47 1564 Q1183.14 1564 1185.88 1560.31 Q1188.62 1556.62 1188.62 1550.25 Q1188.62 1543.92 1185.88 1540.23 Q1183.14 1536.5 1178.47 1536.5 M1178.47 1531.54 Q1186.1 1531.54 1190.47 1536.5 Q1194.83 1541.47 1194.83 1550.25 Q1194.83 1559 1190.47 1564 Q1186.1 1568.97 1178.47 1568.97 Q1170.8 1568.97 1166.43 1564 Q1162.11 1559 1162.11 1550.25 Q1162.11 1541.47 1166.43 1536.5 Q1170.8 1531.54 1178.47 1531.54 Z" fill="#000000" fill-rule="nonzero" fill-opacity="1" /><path clip-path="url(#clip120)" d="M1234.17 1546.53 L1234.17 1568.04 L1228.31 1568.04 L1228.31 1546.72 Q1228.31 1541.66 1226.34 1539.14 Q1224.36 1536.63 1220.42 1536.63 Q1215.67 1536.63 1212.94 1539.65 Q1210.2 1542.68 1210.2 1547.9 L1210.2 1568.04 L1204.31 1568.04 L1204.31 1532.4 L1210.2 1532.4 L1210.2 1537.93 Q1212.3 1534.72 1215.13 1533.13 Q1218 1531.54 1221.72 1531.54 Q1227.86 1531.54 1231.01 1535.36 Q1234.17 1539.14 1234.17 1546.53 Z" fill="#000000" fill-rule="nonzero" fill-opacity="1" /><path clip-path="url(#clip120)" d="M1263.89 1518.52 L1263.89 1523.39 L1258.29 1523.39 Q1255.14 1523.39 1253.9 1524.66 Q1252.69 1525.93 1252.69 1529.24 L1252.69 1532.4 L1262.33 1532.4 L1262.33 1536.95 L1252.69 1536.95 L1252.69 1568.04 L1246.8 1568.04 L1246.8 1536.95 L1241.2 1536.95 L1241.2 1532.4 L1246.8 1532.4 L1246.8 1529.91 Q1246.8 1523.96 1249.57 1521.26 Q1252.34 1518.52 1258.36 1518.52 L1263.89 1518.52 Z" fill="#000000" fill-rule="nonzero" fill-opacity="1" /><path clip-path="url(#clip120)" d="M1268.8 1532.4 L1274.65 1532.4 L1274.65 1568.04 L1268.8 1568.04 L1268.8 1532.4 M1268.8 1518.52 L1274.65 1518.52 L1274.65 1525.93 L1268.8 1525.93 L1268.8 1518.52 Z" fill="#000000" fill-rule="nonzero" fill-opacity="1" /><path clip-path="url(#clip120)" d="M1310.36 1537.81 L1310.36 1518.52 L1316.22 1518.52 L1316.22 1568.04 L1310.36 1568.04 L1310.36 1562.7 Q1308.52 1565.88 1305.68 1567.44 Q1302.88 1568.97 1298.94 1568.97 Q1292.48 1568.97 1288.4 1563.81 Q1284.36 1558.65 1284.36 1550.25 Q1284.36 1541.85 1288.4 1536.69 Q1292.48 1531.54 1298.94 1531.54 Q1302.88 1531.54 1305.68 1533.1 Q1308.52 1534.62 1310.36 1537.81 M1290.41 1550.25 Q1290.41 1556.71 1293.05 1560.4 Q1295.72 1564.07 1300.37 1564.07 Q1305.02 1564.07 1307.69 1560.4 Q1310.36 1556.71 1310.36 1550.25 Q1310.36 1543.79 1307.69 1540.13 Q1305.02 1536.44 1300.37 1536.44 Q1295.72 1536.44 1293.05 1540.13 Q1290.41 1543.79 1290.41 1550.25 Z" fill="#000000" fill-rule="nonzero" fill-opacity="1" /><path clip-path="url(#clip120)" d="M1358.77 1548.76 L1358.77 1551.62 L1331.85 1551.62 Q1332.23 1557.67 1335.48 1560.85 Q1338.75 1564 1344.58 1564 Q1347.95 1564 1351.1 1563.17 Q1354.29 1562.35 1357.41 1560.69 L1357.41 1566.23 Q1354.25 1567.57 1350.94 1568.27 Q1347.63 1568.97 1344.23 1568.97 Q1335.7 1568.97 1330.7 1564 Q1325.74 1559.04 1325.74 1550.57 Q1325.74 1541.82 1330.45 1536.69 Q1335.19 1531.54 1343.21 1531.54 Q1350.4 1531.54 1354.57 1536.18 Q1358.77 1540.8 1358.77 1548.76 M1352.92 1547.04 Q1352.85 1542.23 1350.21 1539.37 Q1347.6 1536.5 1343.27 1536.5 Q1338.37 1536.5 1335.41 1539.27 Q1332.48 1542.04 1332.04 1547.07 L1352.92 1547.04 Z" fill="#000000" fill-rule="nonzero" fill-opacity="1" /><path clip-path="url(#clip120)" d="M1398.02 1546.53 L1398.02 1568.04 L1392.16 1568.04 L1392.16 1546.72 Q1392.16 1541.66 1390.19 1539.14 Q1388.22 1536.63 1384.27 1536.63 Q1379.53 1536.63 1376.79 1539.65 Q1374.05 1542.68 1374.05 1547.9 L1374.05 1568.04 L1368.16 1568.04 L1368.16 1532.4 L1374.05 1532.4 L1374.05 1537.93 Q1376.15 1534.72 1378.99 1533.13 Q1381.85 1531.54 1385.57 1531.54 Q1391.72 1531.54 1394.87 1535.36 Q1398.02 1539.14 1398.02 1546.53 Z" fill="#000000" fill-rule="nonzero" fill-opacity="1" /><path clip-path="url(#clip120)" d="M1435.35 1533.76 L1435.35 1539.24 Q1432.87 1537.87 1430.36 1537.2 Q1427.87 1536.5 1425.33 1536.5 Q1419.63 1536.5 1416.48 1540.13 Q1413.33 1543.73 1413.33 1550.25 Q1413.33 1556.78 1416.48 1560.4 Q1419.63 1564 1425.33 1564 Q1427.87 1564 1430.36 1563.33 Q1432.87 1562.63 1435.35 1561.26 L1435.35 1566.68 Q1432.9 1567.82 1430.26 1568.39 Q1427.65 1568.97 1424.69 1568.97 Q1416.64 1568.97 1411.9 1563.91 Q1407.15 1558.85 1407.15 1550.25 Q1407.15 1541.53 1411.93 1536.53 Q1416.73 1531.54 1425.07 1531.54 Q1427.78 1531.54 1430.36 1532.11 Q1432.94 1532.65 1435.35 1533.76 Z" fill="#000000" fill-rule="nonzero" fill-opacity="1" /><path clip-path="url(#clip120)" d="M1476.03 1548.76 L1476.03 1551.62 L1449.1 1551.62 Q1449.49 1557.67 1452.73 1560.85 Q1456.01 1564 1461.84 1564 Q1465.21 1564 1468.36 1563.17 Q1471.54 1562.35 1474.66 1560.69 L1474.66 1566.23 Q1471.51 1567.57 1468.2 1568.27 Q1464.89 1568.97 1461.49 1568.97 Q1452.96 1568.97 1447.96 1564 Q1442.99 1559.04 1442.99 1550.57 Q1442.99 1541.82 1447.7 1536.69 Q1452.45 1531.54 1460.47 1531.54 Q1467.66 1531.54 1471.83 1536.18 Q1476.03 1540.8 1476.03 1548.76 M1470.17 1547.04 Q1470.11 1542.23 1467.47 1539.37 Q1464.86 1536.5 1460.53 1536.5 Q1455.63 1536.5 1452.67 1539.27 Q1449.74 1542.04 1449.29 1547.07 L1470.17 1547.04 Z" fill="#000000" fill-rule="nonzero" fill-opacity="1" /><polyline clip-path="url(#clip122)" style="stroke:#000000; stroke-linecap:round; stroke-linejoin:round; stroke-width:2; stroke-opacity:0.1; fill:none" points="249.542,1384.24 2352.76,1384.24 "/>
<polyline clip-path="url(#clip122)" style="stroke:#000000; stroke-linecap:round; stroke-linejoin:round; stroke-width:2; stroke-opacity:0.1; fill:none" points="249.542,1059.73 2352.76,1059.73 "/>
<polyline clip-path="url(#clip122)" style="stroke:#000000; stroke-linecap:round; stroke-linejoin:round; stroke-width:2; stroke-opacity:0.1; fill:none" points="249.542,735.212 2352.76,735.212 "/>
<polyline clip-path="url(#clip122)" style="stroke:#000000; stroke-linecap:round; stroke-linejoin:round; stroke-width:2; stroke-opacity:0.1; fill:none" points="249.542,410.699 2352.76,410.699 "/>
<polyline clip-path="url(#clip122)" style="stroke:#000000; stroke-linecap:round; stroke-linejoin:round; stroke-width:2; stroke-opacity:0.1; fill:none" points="249.542,86.1857 2352.76,86.1857 "/>
<polyline clip-path="url(#clip120)" style="stroke:#000000; stroke-linecap:round; stroke-linejoin:round; stroke-width:4; stroke-opacity:1; fill:none" points="249.542,1423.18 249.542,47.2441 "/>
<polyline clip-path="url(#clip120)" style="stroke:#000000; stroke-linecap:round; stroke-linejoin:round; stroke-width:4; stroke-opacity:1; fill:none" points="249.542,1384.24 268.44,1384.24 "/>
<polyline clip-path="url(#clip120)" style="stroke:#000000; stroke-linecap:round; stroke-linejoin:round; stroke-width:4; stroke-opacity:1; fill:none" points="249.542,1059.73 268.44,1059.73 "/>
<polyline clip-path="url(#clip120)" style="stroke:#000000; stroke-linecap:round; stroke-linejoin:round; stroke-width:4; stroke-opacity:1; fill:none" points="249.542,735.212 268.44,735.212 "/>
<polyline clip-path="url(#clip120)" style="stroke:#000000; stroke-linecap:round; stroke-linejoin:round; stroke-width:4; stroke-opacity:1; fill:none" points="249.542,410.699 268.44,410.699 "/>
<polyline clip-path="url(#clip120)" style="stroke:#000000; stroke-linecap:round; stroke-linejoin:round; stroke-width:4; stroke-opacity:1; fill:none" points="249.542,86.1857 268.44,86.1857 "/>
<path clip-path="url(#clip120)" d="M126.205 1370.04 Q122.593 1370.04 120.765 1373.6 Q118.959 1377.14 118.959 1384.27 Q118.959 1391.38 120.765 1394.94 Q122.593 1398.49 126.205 1398.49 Q129.839 1398.49 131.644 1394.94 Q133.473 1391.38 133.473 1384.27 Q133.473 1377.14 131.644 1373.6 Q129.839 1370.04 126.205 1370.04 M126.205 1366.33 Q132.015 1366.33 135.07 1370.94 Q138.149 1375.52 138.149 1384.27 Q138.149 1393 135.07 1397.61 Q132.015 1402.19 126.205 1402.19 Q120.394 1402.19 117.316 1397.61 Q114.26 1393 114.26 1384.27 Q114.26 1375.52 117.316 1370.94 Q120.394 1366.33 126.205 1366.33 Z" fill="#000000" fill-rule="nonzero" fill-opacity="1" /><path clip-path="url(#clip120)" d="M146.366 1395.64 L151.251 1395.64 L151.251 1401.52 L146.366 1401.52 L146.366 1395.64 Z" fill="#000000" fill-rule="nonzero" fill-opacity="1" /><path clip-path="url(#clip120)" d="M171.436 1370.04 Q167.825 1370.04 165.996 1373.6 Q164.19 1377.14 164.19 1384.27 Q164.19 1391.38 165.996 1394.94 Q167.825 1398.49 171.436 1398.49 Q175.07 1398.49 176.876 1394.94 Q178.704 1391.38 178.704 1384.27 Q178.704 1377.14 176.876 1373.6 Q175.07 1370.04 171.436 1370.04 M171.436 1366.33 Q177.246 1366.33 180.301 1370.94 Q183.38 1375.52 183.38 1384.27 Q183.38 1393 180.301 1397.61 Q177.246 1402.19 171.436 1402.19 Q165.626 1402.19 162.547 1397.61 Q159.491 1393 159.491 1384.27 Q159.491 1375.52 162.547 1370.94 Q165.626 1366.33 171.436 1366.33 Z" fill="#000000" fill-rule="nonzero" fill-opacity="1" /><path clip-path="url(#clip120)" d="M201.598 1370.04 Q197.987 1370.04 196.158 1373.6 Q194.352 1377.14 194.352 1384.27 Q194.352 1391.38 196.158 1394.94 Q197.987 1398.49 201.598 1398.49 Q205.232 1398.49 207.037 1394.94 Q208.866 1391.38 208.866 1384.27 Q208.866 1377.14 207.037 1373.6 Q205.232 1370.04 201.598 1370.04 M201.598 1366.33 Q207.408 1366.33 210.463 1370.94 Q213.542 1375.52 213.542 1384.27 Q213.542 1393 210.463 1397.61 Q207.408 1402.19 201.598 1402.19 Q195.787 1402.19 192.709 1397.61 Q189.653 1393 189.653 1384.27 Q189.653 1375.52 192.709 1370.94 Q195.787 1366.33 201.598 1366.33 Z" fill="#000000" fill-rule="nonzero" fill-opacity="1" /><path clip-path="url(#clip120)" d="M127.2 1045.52 Q123.589 1045.52 121.76 1049.09 Q119.955 1052.63 119.955 1059.76 Q119.955 1066.87 121.76 1070.43 Q123.589 1073.97 127.2 1073.97 Q130.834 1073.97 132.64 1070.43 Q134.468 1066.87 134.468 1059.76 Q134.468 1052.63 132.64 1049.09 Q130.834 1045.52 127.2 1045.52 M127.2 1041.82 Q133.01 1041.82 136.066 1046.43 Q139.144 1051.01 139.144 1059.76 Q139.144 1068.49 136.066 1073.09 Q133.01 1077.68 127.2 1077.68 Q121.39 1077.68 118.311 1073.09 Q115.256 1068.49 115.256 1059.76 Q115.256 1051.01 118.311 1046.43 Q121.39 1041.82 127.2 1041.82 Z" fill="#000000" fill-rule="nonzero" fill-opacity="1" /><path clip-path="url(#clip120)" d="M147.362 1071.13 L152.246 1071.13 L152.246 1077.01 L147.362 1077.01 L147.362 1071.13 Z" fill="#000000" fill-rule="nonzero" fill-opacity="1" /><path clip-path="url(#clip120)" d="M166.459 1073.07 L182.778 1073.07 L182.778 1077.01 L160.834 1077.01 L160.834 1073.07 Q163.496 1070.32 168.079 1065.69 Q172.686 1061.03 173.866 1059.69 Q176.112 1057.17 176.991 1055.43 Q177.894 1053.67 177.894 1051.98 Q177.894 1049.23 175.95 1047.49 Q174.028 1045.76 170.927 1045.76 Q168.727 1045.76 166.274 1046.52 Q163.843 1047.28 161.065 1048.83 L161.065 1044.11 Q163.89 1042.98 166.343 1042.4 Q168.797 1041.82 170.834 1041.82 Q176.204 1041.82 179.399 1044.51 Q182.593 1047.19 182.593 1051.68 Q182.593 1053.81 181.783 1055.73 Q180.996 1057.63 178.889 1060.22 Q178.311 1060.89 175.209 1064.11 Q172.107 1067.31 166.459 1073.07 Z" fill="#000000" fill-rule="nonzero" fill-opacity="1" /><path clip-path="url(#clip120)" d="M192.639 1042.45 L210.996 1042.45 L210.996 1046.38 L196.922 1046.38 L196.922 1054.85 Q197.94 1054.51 198.959 1054.34 Q199.977 1054.16 200.996 1054.16 Q206.783 1054.16 210.162 1057.33 Q213.542 1060.5 213.542 1065.92 Q213.542 1071.5 210.07 1074.6 Q206.598 1077.68 200.278 1077.68 Q198.102 1077.68 195.834 1077.31 Q193.588 1076.94 191.181 1076.19 L191.181 1071.5 Q193.264 1072.63 195.487 1073.19 Q197.709 1073.74 200.186 1073.74 Q204.19 1073.74 206.528 1071.63 Q208.866 1069.53 208.866 1065.92 Q208.866 1062.31 206.528 1060.2 Q204.19 1058.09 200.186 1058.09 Q198.311 1058.09 196.436 1058.51 Q194.584 1058.93 192.639 1059.81 L192.639 1042.45 Z" fill="#000000" fill-rule="nonzero" fill-opacity="1" /><path clip-path="url(#clip120)" d="M126.205 721.011 Q122.593 721.011 120.765 724.575 Q118.959 728.117 118.959 735.247 Q118.959 742.353 120.765 745.918 Q122.593 749.46 126.205 749.46 Q129.839 749.46 131.644 745.918 Q133.473 742.353 133.473 735.247 Q133.473 728.117 131.644 724.575 Q129.839 721.011 126.205 721.011 M126.205 717.307 Q132.015 717.307 135.07 721.913 Q138.149 726.497 138.149 735.247 Q138.149 743.973 135.07 748.58 Q132.015 753.163 126.205 753.163 Q120.394 753.163 117.316 748.58 Q114.26 743.973 114.26 735.247 Q114.26 726.497 117.316 721.913 Q120.394 717.307 126.205 717.307 Z" fill="#000000" fill-rule="nonzero" fill-opacity="1" /><path clip-path="url(#clip120)" d="M146.366 746.612 L151.251 746.612 L151.251 752.492 L146.366 752.492 L146.366 746.612 Z" fill="#000000" fill-rule="nonzero" fill-opacity="1" /><path clip-path="url(#clip120)" d="M161.482 717.932 L179.839 717.932 L179.839 721.867 L165.765 721.867 L165.765 730.339 Q166.783 729.992 167.802 729.83 Q168.82 729.645 169.839 729.645 Q175.626 729.645 179.005 732.816 Q182.385 735.987 182.385 741.404 Q182.385 746.983 178.913 750.085 Q175.44 753.163 169.121 753.163 Q166.945 753.163 164.677 752.793 Q162.431 752.423 160.024 751.682 L160.024 746.983 Q162.107 748.117 164.329 748.673 Q166.552 749.228 169.028 749.228 Q173.033 749.228 175.371 747.122 Q177.709 745.015 177.709 741.404 Q177.709 737.793 175.371 735.687 Q173.033 733.58 169.028 733.58 Q167.153 733.58 165.278 733.997 Q163.427 734.413 161.482 735.293 L161.482 717.932 Z" fill="#000000" fill-rule="nonzero" fill-opacity="1" /><path clip-path="url(#clip120)" d="M201.598 721.011 Q197.987 721.011 196.158 724.575 Q194.352 728.117 194.352 735.247 Q194.352 742.353 196.158 745.918 Q197.987 749.46 201.598 749.46 Q205.232 749.46 207.037 745.918 Q208.866 742.353 208.866 735.247 Q208.866 728.117 207.037 724.575 Q205.232 721.011 201.598 721.011 M201.598 717.307 Q207.408 717.307 210.463 721.913 Q213.542 726.497 213.542 735.247 Q213.542 743.973 210.463 748.58 Q207.408 753.163 201.598 753.163 Q195.787 753.163 192.709 748.58 Q189.653 743.973 189.653 735.247 Q189.653 726.497 192.709 721.913 Q195.787 717.307 201.598 717.307 Z" fill="#000000" fill-rule="nonzero" fill-opacity="1" /><path clip-path="url(#clip120)" d="M127.2 396.498 Q123.589 396.498 121.76 400.062 Q119.955 403.604 119.955 410.734 Q119.955 417.84 121.76 421.405 Q123.589 424.946 127.2 424.946 Q130.834 424.946 132.64 421.405 Q134.468 417.84 134.468 410.734 Q134.468 403.604 132.64 400.062 Q130.834 396.498 127.2 396.498 M127.2 392.794 Q133.01 392.794 136.066 397.4 Q139.144 401.984 139.144 410.734 Q139.144 419.46 136.066 424.067 Q133.01 428.65 127.2 428.65 Q121.39 428.65 118.311 424.067 Q115.256 419.46 115.256 410.734 Q115.256 401.984 118.311 397.4 Q121.39 392.794 127.2 392.794 Z" fill="#000000" fill-rule="nonzero" fill-opacity="1" /><path clip-path="url(#clip120)" d="M147.362 422.099 L152.246 422.099 L152.246 427.979 L147.362 427.979 L147.362 422.099 Z" fill="#000000" fill-rule="nonzero" fill-opacity="1" /><path clip-path="url(#clip120)" d="M161.251 393.419 L183.473 393.419 L183.473 395.41 L170.927 427.979 L166.042 427.979 L177.848 397.354 L161.251 397.354 L161.251 393.419 Z" fill="#000000" fill-rule="nonzero" fill-opacity="1" /><path clip-path="url(#clip120)" d="M192.639 393.419 L210.996 393.419 L210.996 397.354 L196.922 397.354 L196.922 405.826 Q197.94 405.479 198.959 405.317 Q199.977 405.132 200.996 405.132 Q206.783 405.132 210.162 408.303 Q213.542 411.474 213.542 416.891 Q213.542 422.47 210.07 425.571 Q206.598 428.65 200.278 428.65 Q198.102 428.65 195.834 428.28 Q193.588 427.909 191.181 427.169 L191.181 422.47 Q193.264 423.604 195.487 424.159 Q197.709 424.715 200.186 424.715 Q204.19 424.715 206.528 422.608 Q208.866 420.502 208.866 416.891 Q208.866 413.28 206.528 411.173 Q204.19 409.067 200.186 409.067 Q198.311 409.067 196.436 409.484 Q194.584 409.9 192.639 410.78 L192.639 393.419 Z" fill="#000000" fill-rule="nonzero" fill-opacity="1" /><path clip-path="url(#clip120)" d="M117.015 99.5305 L124.654 99.5305 L124.654 73.1649 L116.343 74.8316 L116.343 70.5723 L124.607 68.9057 L129.283 68.9057 L129.283 99.5305 L136.922 99.5305 L136.922 103.466 L117.015 103.466 L117.015 99.5305 Z" fill="#000000" fill-rule="nonzero" fill-opacity="1" /><path clip-path="url(#clip120)" d="M146.366 97.5861 L151.251 97.5861 L151.251 103.466 L146.366 103.466 L146.366 97.5861 Z" fill="#000000" fill-rule="nonzero" fill-opacity="1" /><path clip-path="url(#clip120)" d="M171.436 71.9844 Q167.825 71.9844 165.996 75.5492 Q164.19 79.0908 164.19 86.2204 Q164.19 93.3268 165.996 96.8916 Q167.825 100.433 171.436 100.433 Q175.07 100.433 176.876 96.8916 Q178.704 93.3268 178.704 86.2204 Q178.704 79.0908 176.876 75.5492 Q175.07 71.9844 171.436 71.9844 M171.436 68.2807 Q177.246 68.2807 180.301 72.8871 Q183.38 77.4704 183.38 86.2204 Q183.38 94.9472 180.301 99.5537 Q177.246 104.137 171.436 104.137 Q165.626 104.137 162.547 99.5537 Q159.491 94.9472 159.491 86.2204 Q159.491 77.4704 162.547 72.8871 Q165.626 68.2807 171.436 68.2807 Z" fill="#000000" fill-rule="nonzero" fill-opacity="1" /><path clip-path="url(#clip120)" d="M201.598 71.9844 Q197.987 71.9844 196.158 75.5492 Q194.352 79.0908 194.352 86.2204 Q194.352 93.3268 196.158 96.8916 Q197.987 100.433 201.598 100.433 Q205.232 100.433 207.037 96.8916 Q208.866 93.3268 208.866 86.2204 Q208.866 79.0908 207.037 75.5492 Q205.232 71.9844 201.598 71.9844 M201.598 68.2807 Q207.408 68.2807 210.463 72.8871 Q213.542 77.4704 213.542 86.2204 Q213.542 94.9472 210.463 99.5537 Q207.408 104.137 201.598 104.137 Q195.787 104.137 192.709 99.5537 Q189.653 94.9472 189.653 86.2204 Q189.653 77.4704 192.709 72.8871 Q195.787 68.2807 201.598 68.2807 Z" fill="#000000" fill-rule="nonzero" fill-opacity="1" /><path clip-path="url(#clip120)" d="M44.7161 1024.18 L47.5806 1024.18 L47.5806 1051.11 Q53.6281 1050.73 56.8109 1047.48 Q59.9619 1044.2 59.9619 1038.38 Q59.9619 1035 59.1344 1031.85 Q58.3069 1028.67 56.6518 1025.55 L62.1899 1025.55 Q63.5267 1028.7 64.227 1032.01 Q64.9272 1035.32 64.9272 1038.73 Q64.9272 1047.26 59.9619 1052.26 Q54.9967 1057.22 46.5303 1057.22 Q37.7774 1057.22 32.6531 1052.51 Q27.4968 1047.77 27.4968 1039.75 Q27.4968 1032.55 32.1438 1028.38 Q36.7589 1024.18 44.7161 1024.18 M42.9973 1030.04 Q38.1912 1030.1 35.3266 1032.75 Q32.4621 1035.36 32.4621 1039.68 Q32.4621 1044.59 35.2312 1047.55 Q38.0002 1050.47 43.0292 1050.92 L42.9973 1030.04 Z" fill="#000000" fill-rule="nonzero" fill-opacity="1" /><path clip-path="url(#clip120)" d="M35.1993 986.817 Q31.2526 984.62 29.3747 981.565 Q27.4968 978.509 27.4968 974.372 Q27.4968 968.802 31.4117 965.778 Q35.2948 962.754 42.4881 962.754 L64.0042 962.754 L64.0042 968.642 L42.679 968.642 Q37.5546 968.642 35.072 970.457 Q32.5894 972.271 32.5894 975.995 Q32.5894 980.546 35.6131 983.188 Q38.6368 985.83 43.8567 985.83 L64.0042 985.83 L64.0042 991.718 L42.679 991.718 Q37.5228 991.718 35.072 993.532 Q32.5894 995.347 32.5894 999.134 Q32.5894 1003.62 35.6449 1006.26 Q38.6686 1008.91 43.8567 1008.91 L64.0042 1008.91 L64.0042 1014.79 L28.3562 1014.79 L28.3562 1008.91 L33.8944 1008.91 Q30.616 1006.9 29.0564 1004.1 Q27.4968 1001.3 27.4968 997.447 Q27.4968 993.564 29.4702 990.859 Q31.4436 988.121 35.1993 986.817 Z" fill="#000000" fill-rule="nonzero" fill-opacity="1" /><path clip-path="url(#clip120)" d="M58.657 945.408 L77.5631 945.408 L77.5631 951.296 L28.3562 951.296 L28.3562 945.408 L33.7671 945.408 Q30.5842 943.562 29.0564 940.761 Q27.4968 937.928 27.4968 934.013 Q27.4968 927.52 32.6531 923.478 Q37.8093 919.404 46.212 919.404 Q54.6147 919.404 59.771 923.478 Q64.9272 927.52 64.9272 934.013 Q64.9272 937.928 63.3994 940.761 Q61.8398 943.562 58.657 945.408 M46.212 925.483 Q39.7508 925.483 36.0905 928.157 Q32.3984 930.798 32.3984 935.445 Q32.3984 940.092 36.0905 942.766 Q39.7508 945.408 46.212 945.408 Q52.6732 945.408 56.3653 942.766 Q60.0256 940.092 60.0256 935.445 Q60.0256 930.798 56.3653 928.157 Q52.6732 925.483 46.212 925.483 Z" fill="#000000" fill-rule="nonzero" fill-opacity="1" /><path clip-path="url(#clip120)" d="M28.3562 909.696 L28.3562 903.84 L64.0042 903.84 L64.0042 909.696 L28.3562 909.696 M14.479 909.696 L14.479 903.84 L21.895 903.84 L21.895 909.696 L14.479 909.696 Z" fill="#000000" fill-rule="nonzero" fill-opacity="1" /><path clip-path="url(#clip120)" d="M33.8307 870.929 Q33.2578 871.916 33.0032 873.093 Q32.7167 874.239 32.7167 875.639 Q32.7167 880.605 35.9632 883.278 Q39.1779 885.92 45.2253 885.92 L64.0042 885.92 L64.0042 891.808 L28.3562 891.808 L28.3562 885.92 L33.8944 885.92 Q30.6479 884.074 29.0883 881.114 Q27.4968 878.154 27.4968 873.921 Q27.4968 873.316 27.5923 872.584 Q27.656 871.852 27.8151 870.961 L33.8307 870.929 Z" fill="#000000" fill-rule="nonzero" fill-opacity="1" /><path clip-path="url(#clip120)" d="M28.3562 864.786 L28.3562 858.929 L64.0042 858.929 L64.0042 864.786 L28.3562 864.786 M14.479 864.786 L14.479 858.929 L21.895 858.929 L21.895 864.786 L14.479 864.786 Z" fill="#000000" fill-rule="nonzero" fill-opacity="1" /><path clip-path="url(#clip120)" d="M29.7248 821.022 L35.1993 821.022 Q33.8307 823.504 33.1623 826.019 Q32.4621 828.501 32.4621 831.048 Q32.4621 836.745 36.0905 839.896 Q39.6872 843.047 46.212 843.047 Q52.7369 843.047 56.3653 839.896 Q59.9619 836.745 59.9619 831.048 Q59.9619 828.501 59.2935 826.019 Q58.5933 823.504 57.2247 821.022 L62.6355 821.022 Q63.7814 823.472 64.3543 826.114 Q64.9272 828.724 64.9272 831.684 Q64.9272 839.737 59.8664 844.479 Q54.8057 849.222 46.212 849.222 Q37.491 849.222 32.4939 844.447 Q27.4968 839.641 27.4968 831.302 Q27.4968 828.597 28.0697 826.019 Q28.6108 823.441 29.7248 821.022 Z" fill="#000000" fill-rule="nonzero" fill-opacity="1" /><path clip-path="url(#clip120)" d="M46.0847 794.636 Q46.0847 801.734 47.7079 804.471 Q49.3312 807.208 53.2461 807.208 Q56.3653 807.208 58.2114 805.171 Q60.0256 803.102 60.0256 799.569 Q60.0256 794.699 56.5881 791.771 Q53.1188 788.811 47.3897 788.811 L46.0847 788.811 L46.0847 794.636 M43.6657 782.955 L64.0042 782.955 L64.0042 788.811 L58.5933 788.811 Q61.8398 790.816 63.3994 793.808 Q64.9272 796.8 64.9272 801.129 Q64.9272 806.603 61.8716 809.85 Q58.7843 813.065 53.6281 813.065 Q47.6125 813.065 44.5569 809.054 Q41.5014 805.012 41.5014 797.023 L41.5014 788.811 L40.9285 788.811 Q36.8862 788.811 34.6901 791.485 Q32.4621 794.127 32.4621 798.933 Q32.4621 801.988 33.1941 804.885 Q33.9262 807.781 35.3903 810.455 L29.9795 810.455 Q28.7381 807.24 28.1334 804.216 Q27.4968 801.193 27.4968 798.328 Q27.4968 790.594 31.5072 786.774 Q35.5176 782.955 43.6657 782.955 Z" fill="#000000" fill-rule="nonzero" fill-opacity="1" /><path clip-path="url(#clip120)" d="M14.479 770.892 L14.479 765.035 L64.0042 765.035 L64.0042 770.892 L14.479 770.892 Z" fill="#000000" fill-rule="nonzero" fill-opacity="1" /><path clip-path="url(#clip120)" d="M14.479 714.014 L19.3487 714.014 L19.3487 719.616 Q19.3487 722.767 20.6219 724.008 Q21.895 725.218 25.2052 725.218 L28.3562 725.218 L28.3562 715.574 L32.9077 715.574 L32.9077 725.218 L64.0042 725.218 L64.0042 731.106 L32.9077 731.106 L32.9077 736.708 L28.3562 736.708 L28.3562 731.106 L25.8736 731.106 Q19.9216 731.106 17.2162 728.337 Q14.479 725.568 14.479 719.552 L14.479 714.014 Z" fill="#000000" fill-rule="nonzero" fill-opacity="1" /><path clip-path="url(#clip120)" d="M33.8307 688.456 Q33.2578 689.443 33.0032 690.62 Q32.7167 691.766 32.7167 693.166 Q32.7167 698.132 35.9632 700.805 Q39.1779 703.447 45.2253 703.447 L64.0042 703.447 L64.0042 709.335 L28.3562 709.335 L28.3562 703.447 L33.8944 703.447 Q30.6479 701.601 29.0883 698.641 Q27.4968 695.681 27.4968 691.448 Q27.4968 690.843 27.5923 690.111 Q27.656 689.379 27.8151 688.488 L33.8307 688.456 Z" fill="#000000" fill-rule="nonzero" fill-opacity="1" /><path clip-path="url(#clip120)" d="M44.7161 653.253 L47.5806 653.253 L47.5806 680.18 Q53.6281 679.798 56.8109 676.552 Q59.9619 673.274 59.9619 667.449 Q59.9619 664.075 59.1344 660.924 Q58.3069 657.741 56.6518 654.622 L62.1899 654.622 Q63.5267 657.773 64.227 661.083 Q64.9272 664.393 64.9272 667.799 Q64.9272 676.329 59.9619 681.326 Q54.9967 686.292 46.5303 686.292 Q37.7774 686.292 32.6531 681.581 Q27.4968 676.838 27.4968 668.818 Q27.4968 661.624 32.1438 657.455 Q36.7589 653.253 44.7161 653.253 M42.9973 659.11 Q38.1912 659.174 35.3266 661.815 Q32.4621 664.425 32.4621 668.754 Q32.4621 673.656 35.2312 676.616 Q38.0002 679.544 43.0292 679.989 L42.9973 659.11 Z" fill="#000000" fill-rule="nonzero" fill-opacity="1" /><path clip-path="url(#clip120)" d="M46.212 640.14 Q52.6732 640.14 56.3653 637.498 Q60.0256 634.825 60.0256 630.178 Q60.0256 625.531 56.3653 622.857 Q52.6732 620.184 46.212 620.184 Q39.7508 620.184 36.0905 622.857 Q32.3984 625.531 32.3984 630.178 Q32.3984 634.825 36.0905 637.498 Q39.7508 640.14 46.212 640.14 M58.657 620.184 Q61.8398 622.03 63.3994 624.862 Q64.9272 627.663 64.9272 631.61 Q64.9272 638.071 59.771 642.145 Q54.6147 646.188 46.212 646.188 Q37.8093 646.188 32.6531 642.145 Q27.4968 638.071 27.4968 631.61 Q27.4968 627.663 29.0564 624.862 Q30.5842 622.03 33.7671 620.184 L28.3562 620.184 L28.3562 614.327 L77.5631 614.327 L77.5631 620.184 L58.657 620.184 Z" fill="#000000" fill-rule="nonzero" fill-opacity="1" /><path clip-path="url(#clip120)" d="M49.9359 602.869 L28.3562 602.869 L28.3562 597.012 L49.7131 597.012 Q54.7739 597.012 57.3202 595.039 Q59.8346 593.066 59.8346 589.119 Q59.8346 584.377 56.8109 581.639 Q53.7872 578.87 48.5673 578.87 L28.3562 578.87 L28.3562 573.014 L64.0042 573.014 L64.0042 578.87 L58.5296 578.87 Q61.7762 581.003 63.3676 583.835 Q64.9272 586.636 64.9272 590.36 Q64.9272 596.503 61.1078 599.686 Q57.2883 602.869 49.9359 602.869 M27.4968 588.132 L27.4968 588.132 Z" fill="#000000" fill-rule="nonzero" fill-opacity="1" /><path clip-path="url(#clip120)" d="M44.7161 530.459 L47.5806 530.459 L47.5806 557.386 Q53.6281 557.004 56.8109 553.758 Q59.9619 550.479 59.9619 544.655 Q59.9619 541.281 59.1344 538.13 Q58.3069 534.947 56.6518 531.828 L62.1899 531.828 Q63.5267 534.979 64.227 538.289 Q64.9272 541.599 64.9272 545.005 Q64.9272 553.535 59.9619 558.532 Q54.9967 563.497 46.5303 563.497 Q37.7774 563.497 32.6531 558.786 Q27.4968 554.044 27.4968 546.023 Q27.4968 538.83 32.1438 534.66 Q36.7589 530.459 44.7161 530.459 M42.9973 536.315 Q38.1912 536.379 35.3266 539.021 Q32.4621 541.631 32.4621 545.96 Q32.4621 550.861 35.2312 553.821 Q38.0002 556.749 43.0292 557.195 L42.9973 536.315 Z" fill="#000000" fill-rule="nonzero" fill-opacity="1" /><path clip-path="url(#clip120)" d="M42.4881 491.214 L64.0042 491.214 L64.0042 497.071 L42.679 497.071 Q37.6183 497.071 35.1038 499.044 Q32.5894 501.018 32.5894 504.964 Q32.5894 509.707 35.6131 512.444 Q38.6368 515.181 43.8567 515.181 L64.0042 515.181 L64.0042 521.07 L28.3562 521.07 L28.3562 515.181 L33.8944 515.181 Q30.6797 513.081 29.0883 510.248 Q27.4968 507.383 27.4968 503.659 Q27.4968 497.516 31.3163 494.365 Q35.1038 491.214 42.4881 491.214 Z" fill="#000000" fill-rule="nonzero" fill-opacity="1" /><path clip-path="url(#clip120)" d="M29.7248 453.88 L35.1993 453.88 Q33.8307 456.362 33.1623 458.877 Q32.4621 461.359 32.4621 463.906 Q32.4621 469.603 36.0905 472.754 Q39.6872 475.905 46.212 475.905 Q52.7369 475.905 56.3653 472.754 Q59.9619 469.603 59.9619 463.906 Q59.9619 461.359 59.2935 458.877 Q58.5933 456.362 57.2247 453.88 L62.6355 453.88 Q63.7814 456.33 64.3543 458.972 Q64.9272 461.582 64.9272 464.542 Q64.9272 472.595 59.8664 477.337 Q54.8057 482.08 46.212 482.08 Q37.491 482.08 32.4939 477.305 Q27.4968 472.499 27.4968 464.16 Q27.4968 461.455 28.0697 458.877 Q28.6108 456.299 29.7248 453.88 Z" fill="#000000" fill-rule="nonzero" fill-opacity="1" /><path clip-path="url(#clip120)" d="M67.3143 428.862 Q73.68 431.345 75.6216 433.7 Q77.5631 436.056 77.5631 440.002 L77.5631 444.681 L72.6615 444.681 L72.6615 441.244 Q72.6615 438.825 71.5157 437.488 Q70.3699 436.151 66.1048 434.528 L63.4312 433.477 L28.3562 447.896 L28.3562 441.689 L56.238 430.549 L28.3562 419.409 L28.3562 413.203 L67.3143 428.862 Z" fill="#000000" fill-rule="nonzero" fill-opacity="1" /><polyline clip-path="url(#clip122)" style="stroke:#009af9; stroke-linecap:round; stroke-linejoin:round; stroke-width:4; stroke-opacity:1; fill:none" points="309.067,1384.24 2293.23,86.1857 "/>
<polyline clip-path="url(#clip122)" style="stroke:#e26f46; stroke-linecap:round; stroke-linejoin:round; stroke-width:4; stroke-opacity:1; fill:none" points="420.995,1384.24 596.11,1254.43 815.826,1124.63 964.616,1124.63 1148.61,865.017 1411.21,605.407 1580.85,605.407 1768.07,865.017 1930.85,215.991 2177.15,86.1857 "/>
<circle clip-path="url(#clip122)" cx="420.995" cy="1384.24" r="14.4" fill="#e26f46" fill-rule="evenodd" fill-opacity="1" stroke="#000000" stroke-opacity="1" stroke-width="3.2"/>
<circle clip-path="url(#clip122)" cx="596.11" cy="1254.43" r="14.4" fill="#e26f46" fill-rule="evenodd" fill-opacity="1" stroke="#000000" stroke-opacity="1" stroke-width="3.2"/>
<circle clip-path="url(#clip122)" cx="815.826" cy="1124.63" r="14.4" fill="#e26f46" fill-rule="evenodd" fill-opacity="1" stroke="#000000" stroke-opacity="1" stroke-width="3.2"/>
<circle clip-path="url(#clip122)" cx="964.616" cy="1124.63" r="14.4" fill="#e26f46" fill-rule="evenodd" fill-opacity="1" stroke="#000000" stroke-opacity="1" stroke-width="3.2"/>
<circle clip-path="url(#clip122)" cx="1148.61" cy="865.017" r="14.4" fill="#e26f46" fill-rule="evenodd" fill-opacity="1" stroke="#000000" stroke-opacity="1" stroke-width="3.2"/>
<circle clip-path="url(#clip122)" cx="1411.21" cy="605.407" r="14.4" fill="#e26f46" fill-rule="evenodd" fill-opacity="1" stroke="#000000" stroke-opacity="1" stroke-width="3.2"/>
<circle clip-path="url(#clip122)" cx="1580.85" cy="605.407" r="14.4" fill="#e26f46" fill-rule="evenodd" fill-opacity="1" stroke="#000000" stroke-opacity="1" stroke-width="3.2"/>
<circle clip-path="url(#clip122)" cx="1768.07" cy="865.017" r="14.4" fill="#e26f46" fill-rule="evenodd" fill-opacity="1" stroke="#000000" stroke-opacity="1" stroke-width="3.2"/>
<circle clip-path="url(#clip122)" cx="1930.85" cy="215.991" r="14.4" fill="#e26f46" fill-rule="evenodd" fill-opacity="1" stroke="#000000" stroke-opacity="1" stroke-width="3.2"/>
<circle clip-path="url(#clip122)" cx="2177.15" cy="86.1857" r="14.4" fill="#e26f46" fill-rule="evenodd" fill-opacity="1" stroke="#000000" stroke-opacity="1" stroke-width="3.2"/>
<polyline clip-path="url(#clip122)" style="stroke:#000000; stroke-linecap:round; stroke-linejoin:round; stroke-width:4; stroke-opacity:1; fill:none" points="420.995,1384.24 420.995,1124.63 "/>
<polyline clip-path="url(#clip122)" style="stroke:#000000; stroke-linecap:round; stroke-linejoin:round; stroke-width:4; stroke-opacity:1; fill:none" points="596.11,1384.24 596.11,865.017 "/>
<polyline clip-path="url(#clip122)" style="stroke:#000000; stroke-linecap:round; stroke-linejoin:round; stroke-width:4; stroke-opacity:1; fill:none" points="815.826,1384.24 815.826,605.407 "/>
<polyline clip-path="url(#clip122)" style="stroke:#000000; stroke-linecap:round; stroke-linejoin:round; stroke-width:4; stroke-opacity:1; fill:none" points="964.616,1254.43 964.616,605.407 "/>
<polyline clip-path="url(#clip122)" style="stroke:#000000; stroke-linecap:round; stroke-linejoin:round; stroke-width:4; stroke-opacity:1; fill:none" points="1148.61,1254.43 1148.61,475.601 "/>
<polyline clip-path="url(#clip122)" style="stroke:#000000; stroke-linecap:round; stroke-linejoin:round; stroke-width:4; stroke-opacity:1; fill:none" points="1411.21,1124.63 1411.21,215.991 "/>
<polyline clip-path="url(#clip122)" style="stroke:#000000; stroke-linecap:round; stroke-linejoin:round; stroke-width:4; stroke-opacity:1; fill:none" points="1580.85,994.822 1580.85,215.991 "/>
<polyline clip-path="url(#clip122)" style="stroke:#000000; stroke-linecap:round; stroke-linejoin:round; stroke-width:4; stroke-opacity:1; fill:none" points="1768.07,865.017 1768.07,86.1857 "/>
<polyline clip-path="url(#clip122)" style="stroke:#000000; stroke-linecap:round; stroke-linejoin:round; stroke-width:4; stroke-opacity:1; fill:none" points="1930.85,605.407 1930.85,86.1857 "/>
<polyline clip-path="url(#clip122)" style="stroke:#000000; stroke-linecap:round; stroke-linejoin:round; stroke-width:4; stroke-opacity:1; fill:none" points="2177.15,345.796 2177.15,86.1857 "/>
<line clip-path="url(#clip122)" x1="436.995" y1="1384.24" x2="404.995" y2="1384.24" style="stroke:#000000; stroke-width:4; stroke-opacity:1"/>
<line clip-path="url(#clip122)" x1="436.995" y1="1124.63" x2="404.995" y2="1124.63" style="stroke:#000000; stroke-width:4; stroke-opacity:1"/>
<line clip-path="url(#clip122)" x1="612.11" y1="1384.24" x2="580.11" y2="1384.24" style="stroke:#000000; stroke-width:4; stroke-opacity:1"/>
<line clip-path="url(#clip122)" x1="612.11" y1="865.017" x2="580.11" y2="865.017" style="stroke:#000000; stroke-width:4; stroke-opacity:1"/>
<line clip-path="url(#clip122)" x1="831.826" y1="1384.24" x2="799.826" y2="1384.24" style="stroke:#000000; stroke-width:4; stroke-opacity:1"/>
<line clip-path="url(#clip122)" x1="831.826" y1="605.407" x2="799.826" y2="605.407" style="stroke:#000000; stroke-width:4; stroke-opacity:1"/>
<line clip-path="url(#clip122)" x1="980.616" y1="1254.43" x2="948.616" y2="1254.43" style="stroke:#000000; stroke-width:4; stroke-opacity:1"/>
<line clip-path="url(#clip122)" x1="980.616" y1="605.407" x2="948.616" y2="605.407" style="stroke:#000000; stroke-width:4; stroke-opacity:1"/>
<line clip-path="url(#clip122)" x1="1164.61" y1="1254.43" x2="1132.61" y2="1254.43" style="stroke:#000000; stroke-width:4; stroke-opacity:1"/>
<line clip-path="url(#clip122)" x1="1164.61" y1="475.601" x2="1132.61" y2="475.601" style="stroke:#000000; stroke-width:4; stroke-opacity:1"/>
<line clip-path="url(#clip122)" x1="1427.21" y1="1124.63" x2="1395.21" y2="1124.63" style="stroke:#000000; stroke-width:4; stroke-opacity:1"/>
<line clip-path="url(#clip122)" x1="1427.21" y1="215.991" x2="1395.21" y2="215.991" style="stroke:#000000; stroke-width:4; stroke-opacity:1"/>
<line clip-path="url(#clip122)" x1="1596.85" y1="994.822" x2="1564.85" y2="994.822" style="stroke:#000000; stroke-width:4; stroke-opacity:1"/>
<line clip-path="url(#clip122)" x1="1596.85" y1="215.991" x2="1564.85" y2="215.991" style="stroke:#000000; stroke-width:4; stroke-opacity:1"/>
<line clip-path="url(#clip122)" x1="1784.07" y1="865.017" x2="1752.07" y2="865.017" style="stroke:#000000; stroke-width:4; stroke-opacity:1"/>
<line clip-path="url(#clip122)" x1="1784.07" y1="86.1857" x2="1752.07" y2="86.1857" style="stroke:#000000; stroke-width:4; stroke-opacity:1"/>
<line clip-path="url(#clip122)" x1="1946.85" y1="605.407" x2="1914.85" y2="605.407" style="stroke:#000000; stroke-width:4; stroke-opacity:1"/>
<line clip-path="url(#clip122)" x1="1946.85" y1="86.1857" x2="1914.85" y2="86.1857" style="stroke:#000000; stroke-width:4; stroke-opacity:1"/>
<line clip-path="url(#clip122)" x1="2193.15" y1="345.796" x2="2161.15" y2="345.796" style="stroke:#000000; stroke-width:4; stroke-opacity:1"/>
<line clip-path="url(#clip122)" x1="2193.15" y1="86.1857" x2="2161.15" y2="86.1857" style="stroke:#000000; stroke-width:4; stroke-opacity:1"/>
<path clip-path="url(#clip120)" d="M319.649 248.629 L582.401 248.629 L582.401 93.1086 L319.649 93.1086  Z" fill="#ffffff" fill-rule="evenodd" fill-opacity="1"/>
<polyline clip-path="url(#clip120)" style="stroke:#000000; stroke-linecap:round; stroke-linejoin:round; stroke-width:4; stroke-opacity:1; fill:none" points="319.649,248.629 582.401,248.629 582.401,93.1086 319.649,93.1086 319.649,248.629 "/>
<polyline clip-path="url(#clip120)" style="stroke:#009af9; stroke-linecap:round; stroke-linejoin:round; stroke-width:4; stroke-opacity:1; fill:none" points="343.018,144.949 483.232,144.949 "/>
<path clip-path="url(#clip120)" d="M520.444 164.636 Q518.638 169.266 516.926 170.678 Q515.213 172.09 512.342 172.09 L508.939 172.09 L508.939 168.525 L511.439 168.525 Q513.199 168.525 514.171 167.692 Q515.143 166.858 516.324 163.756 L517.088 161.812 L506.602 136.303 L511.115 136.303 L519.217 156.581 L527.319 136.303 L531.833 136.303 L520.444 164.636 Z" fill="#000000" fill-rule="nonzero" fill-opacity="1" /><path clip-path="url(#clip120)" d="M539.124 158.293 L546.763 158.293 L546.763 131.928 L538.453 133.595 L538.453 129.335 L546.717 127.669 L551.393 127.669 L551.393 158.293 L559.032 158.293 L559.032 162.229 L539.124 162.229 L539.124 158.293 Z" fill="#000000" fill-rule="nonzero" fill-opacity="1" /><polyline clip-path="url(#clip120)" style="stroke:#e26f46; stroke-linecap:round; stroke-linejoin:round; stroke-width:4; stroke-opacity:1; fill:none" points="343.018,196.789 483.232,196.789 "/>
<circle clip-path="url(#clip120)" cx="413.125" cy="196.789" r="19.4742" fill="#e26f46" fill-rule="evenodd" fill-opacity="1" stroke="#000000" stroke-opacity="1" stroke-width="4.55111"/>
<path clip-path="url(#clip120)" d="M520.444 216.476 Q518.638 221.106 516.926 222.518 Q515.213 223.93 512.342 223.93 L508.939 223.93 L508.939 220.365 L511.439 220.365 Q513.199 220.365 514.171 219.532 Q515.143 218.698 516.324 215.596 L517.088 213.652 L506.602 188.143 L511.115 188.143 L519.217 208.421 L527.319 188.143 L531.833 188.143 L520.444 216.476 Z" fill="#000000" fill-rule="nonzero" fill-opacity="1" /><path clip-path="url(#clip120)" d="M542.342 210.133 L558.661 210.133 L558.661 214.069 L536.717 214.069 L536.717 210.133 Q539.379 207.379 543.962 202.749 Q548.569 198.096 549.749 196.754 Q551.995 194.231 552.874 192.495 Q553.777 190.735 553.777 189.046 Q553.777 186.291 551.833 184.555 Q549.911 182.819 546.81 182.819 Q544.611 182.819 542.157 183.583 Q539.726 184.347 536.949 185.897 L536.949 181.175 Q539.773 180.041 542.226 179.462 Q544.68 178.884 546.717 178.884 Q552.087 178.884 555.282 181.569 Q558.476 184.254 558.476 188.745 Q558.476 190.874 557.666 192.796 Q556.879 194.694 554.773 197.286 Q554.194 197.958 551.092 201.175 Q547.99 204.37 542.342 210.133 Z" fill="#000000" fill-rule="nonzero" fill-opacity="1" /></svg>
