<?xml version="1.0" encoding="utf-8"?>
<svg xmlns="http://www.w3.org/2000/svg" xmlns:xlink="http://www.w3.org/1999/xlink" width="600" height="400" viewBox="0 0 2400 1600">
<defs>
  <clipPath id="clip210">
    <rect x="0" y="0" width="2400" height="1600"/>
  </clipPath>
</defs>
<path clip-path="url(#clip210)" d="
M0 1600 L2400 1600 L2400 0 L0 0  Z
  " fill="#ffffff" fill-rule="evenodd" fill-opacity="1"/>
<defs>
  <clipPath id="clip211">
    <rect x="480" y="0" width="1681" height="1600"/>
  </clipPath>
</defs>
<path clip-path="url(#clip210)" d="
M193.288 1486.45 L2352.76 1486.45 L2352.76 47.2441 L193.288 47.2441  Z
  " fill="#ffffff" fill-rule="evenodd" fill-opacity="1"/>
<defs>
  <clipPath id="clip212">
    <rect x="193" y="47" width="2160" height="1440"/>
  </clipPath>
</defs>
<polyline clip-path="url(#clip212)" style="stroke:#000000; stroke-linecap:butt; stroke-linejoin:round; stroke-width:2; stroke-opacity:0.1; fill:none" points="
  584.91,1486.45 584.91,47.2441 
  "/>
<polyline clip-path="url(#clip212)" style="stroke:#000000; stroke-linecap:butt; stroke-linejoin:round; stroke-width:2; stroke-opacity:0.1; fill:none" points="
  1045.26,1486.45 1045.26,47.2441 
  "/>
<polyline clip-path="url(#clip212)" style="stroke:#000000; stroke-linecap:butt; stroke-linejoin:round; stroke-width:2; stroke-opacity:0.1; fill:none" points="
  1505.61,1486.45 1505.61,47.2441 
  "/>
<polyline clip-path="url(#clip212)" style="stroke:#000000; stroke-linecap:butt; stroke-linejoin:round; stroke-width:2; stroke-opacity:0.1; fill:none" points="
  1965.96,1486.45 1965.96,47.2441 
  "/>
<polyline clip-path="url(#clip210)" style="stroke:#000000; stroke-linecap:butt; stroke-linejoin:round; stroke-width:4; stroke-opacity:1; fill:none" points="
  193.288,1486.45 2352.76,1486.45 
  "/>
<polyline clip-path="url(#clip210)" style="stroke:#000000; stroke-linecap:butt; stroke-linejoin:round; stroke-width:4; stroke-opacity:1; fill:none" points="
  584.91,1486.45 584.91,1469.18 
  "/>
<polyline clip-path="url(#clip210)" style="stroke:#000000; stroke-linecap:butt; stroke-linejoin:round; stroke-width:4; stroke-opacity:1; fill:none" points="
  1045.26,1486.45 1045.26,1469.18 
  "/>
<polyline clip-path="url(#clip210)" style="stroke:#000000; stroke-linecap:butt; stroke-linejoin:round; stroke-width:4; stroke-opacity:1; fill:none" points="
  1505.61,1486.45 1505.61,1469.18 
  "/>
<polyline clip-path="url(#clip210)" style="stroke:#000000; stroke-linecap:butt; stroke-linejoin:round; stroke-width:4; stroke-opacity:1; fill:none" points="
  1965.96,1486.45 1965.96,1469.18 
  "/>
<path clip-path="url(#clip210)" d="M563.093 1515.64 Q559.482 1515.64 557.653 1519.2 Q555.848 1522.75 555.848 1529.87 Q555.848 1536.98 557.653 1540.55 Q559.482 1544.09 563.093 1544.09 Q566.727 1544.09 568.533 1540.55 Q570.362 1536.98 570.362 1529.87 Q570.362 1522.75 568.533 1519.2 Q566.727 1515.64 563.093 1515.64 M563.093 1511.93 Q568.903 1511.93 571.959 1516.54 Q575.037 1521.12 575.037 1529.87 Q575.037 1538.6 571.959 1543.21 Q568.903 1547.79 563.093 1547.79 Q557.283 1547.79 554.204 1543.21 Q551.149 1538.6 551.149 1529.87 Q551.149 1521.12 554.204 1516.54 Q557.283 1511.93 563.093 1511.93 Z" fill="#000000" fill-rule="evenodd" fill-opacity="1" /><path clip-path="url(#clip210)" d="M583.255 1541.24 L588.139 1541.24 L588.139 1547.12 L583.255 1547.12 L583.255 1541.24 Z" fill="#000000" fill-rule="evenodd" fill-opacity="1" /><path clip-path="url(#clip210)" d="M602.352 1543.18 L618.671 1543.18 L618.671 1547.12 L596.727 1547.12 L596.727 1543.18 Q599.389 1540.43 603.972 1535.8 Q608.579 1531.15 609.759 1529.81 Q612.005 1527.28 612.884 1525.55 Q613.787 1523.79 613.787 1522.1 Q613.787 1519.34 611.843 1517.61 Q609.922 1515.87 606.82 1515.87 Q604.621 1515.87 602.167 1516.63 Q599.736 1517.4 596.959 1518.95 L596.959 1514.23 Q599.783 1513.09 602.236 1512.51 Q604.69 1511.93 606.727 1511.93 Q612.097 1511.93 615.292 1514.62 Q618.486 1517.31 618.486 1521.8 Q618.486 1523.93 617.676 1525.85 Q616.889 1527.74 614.783 1530.34 Q614.204 1531.01 611.102 1534.23 Q608 1537.42 602.352 1543.18 Z" fill="#000000" fill-rule="evenodd" fill-opacity="1" /><path clip-path="url(#clip210)" d="M1022.4 1515.64 Q1018.79 1515.64 1016.96 1519.2 Q1015.15 1522.75 1015.15 1529.87 Q1015.15 1536.98 1016.96 1540.55 Q1018.79 1544.09 1022.4 1544.09 Q1026.03 1544.09 1027.84 1540.55 Q1029.67 1536.98 1029.67 1529.87 Q1029.67 1522.75 1027.84 1519.2 Q1026.03 1515.64 1022.4 1515.64 M1022.4 1511.93 Q1028.21 1511.93 1031.27 1516.54 Q1034.34 1521.12 1034.34 1529.87 Q1034.34 1538.6 1031.27 1543.21 Q1028.21 1547.79 1022.4 1547.79 Q1016.59 1547.79 1013.51 1543.21 Q1010.46 1538.6 1010.46 1529.87 Q1010.46 1521.12 1013.51 1516.54 Q1016.59 1511.93 1022.4 1511.93 Z" fill="#000000" fill-rule="evenodd" fill-opacity="1" /><path clip-path="url(#clip210)" d="M1042.56 1541.24 L1047.45 1541.24 L1047.45 1547.12 L1042.56 1547.12 L1042.56 1541.24 Z" fill="#000000" fill-rule="evenodd" fill-opacity="1" /><path clip-path="url(#clip210)" d="M1070.48 1516.63 L1058.67 1535.08 L1070.48 1535.08 L1070.48 1516.63 M1069.25 1512.56 L1075.13 1512.56 L1075.13 1535.08 L1080.06 1535.08 L1080.06 1538.97 L1075.13 1538.97 L1075.13 1547.12 L1070.48 1547.12 L1070.48 1538.97 L1054.88 1538.97 L1054.88 1534.46 L1069.25 1512.56 Z" fill="#000000" fill-rule="evenodd" fill-opacity="1" /><path clip-path="url(#clip210)" d="M1482.91 1515.64 Q1479.3 1515.64 1477.47 1519.2 Q1475.67 1522.75 1475.67 1529.87 Q1475.67 1536.98 1477.47 1540.55 Q1479.3 1544.09 1482.91 1544.09 Q1486.54 1544.09 1488.35 1540.55 Q1490.18 1536.98 1490.18 1529.87 Q1490.18 1522.75 1488.35 1519.2 Q1486.54 1515.64 1482.91 1515.64 M1482.91 1511.93 Q1488.72 1511.93 1491.78 1516.54 Q1494.86 1521.12 1494.86 1529.87 Q1494.86 1538.6 1491.78 1543.21 Q1488.72 1547.79 1482.91 1547.79 Q1477.1 1547.79 1474.02 1543.21 Q1470.97 1538.6 1470.97 1529.87 Q1470.97 1521.12 1474.02 1516.54 Q1477.1 1511.93 1482.91 1511.93 Z" fill="#000000" fill-rule="evenodd" fill-opacity="1" /><path clip-path="url(#clip210)" d="M1503.07 1541.24 L1507.96 1541.24 L1507.96 1547.12 L1503.07 1547.12 L1503.07 1541.24 Z" fill="#000000" fill-rule="evenodd" fill-opacity="1" /><path clip-path="url(#clip210)" d="M1528.72 1527.98 Q1525.57 1527.98 1523.72 1530.13 Q1521.89 1532.28 1521.89 1536.03 Q1521.89 1539.76 1523.72 1541.93 Q1525.57 1544.09 1528.72 1544.09 Q1531.87 1544.09 1533.7 1541.93 Q1535.55 1539.76 1535.55 1536.03 Q1535.55 1532.28 1533.7 1530.13 Q1531.87 1527.98 1528.72 1527.98 M1538 1513.32 L1538 1517.58 Q1536.24 1516.75 1534.44 1516.31 Q1532.66 1515.87 1530.9 1515.87 Q1526.27 1515.87 1523.81 1519 Q1521.38 1522.12 1521.04 1528.44 Q1522.4 1526.43 1524.46 1525.36 Q1526.52 1524.27 1529 1524.27 Q1534.21 1524.27 1537.22 1527.44 Q1540.25 1530.59 1540.25 1536.03 Q1540.25 1541.36 1537.1 1544.57 Q1533.95 1547.79 1528.72 1547.79 Q1522.73 1547.79 1519.55 1543.21 Q1516.38 1538.6 1516.38 1529.87 Q1516.38 1521.68 1520.27 1516.82 Q1524.16 1511.93 1530.71 1511.93 Q1532.47 1511.93 1534.25 1512.28 Q1536.06 1512.63 1538 1513.32 Z" fill="#000000" fill-rule="evenodd" fill-opacity="1" /><path clip-path="url(#clip210)" d="M1943.39 1515.64 Q1939.78 1515.64 1937.95 1519.2 Q1936.14 1522.75 1936.14 1529.87 Q1936.14 1536.98 1937.95 1540.55 Q1939.78 1544.09 1943.39 1544.09 Q1947.02 1544.09 1948.83 1540.55 Q1950.66 1536.98 1950.66 1529.87 Q1950.66 1522.75 1948.83 1519.2 Q1947.02 1515.64 1943.39 1515.64 M1943.39 1511.93 Q1949.2 1511.93 1952.25 1516.54 Q1955.33 1521.12 1955.33 1529.87 Q1955.33 1538.6 1952.25 1543.21 Q1949.2 1547.79 1943.39 1547.79 Q1937.58 1547.79 1934.5 1543.21 Q1931.44 1538.6 1931.44 1529.87 Q1931.44 1521.12 1934.5 1516.54 Q1937.58 1511.93 1943.39 1511.93 Z" fill="#000000" fill-rule="evenodd" fill-opacity="1" /><path clip-path="url(#clip210)" d="M1963.55 1541.24 L1968.43 1541.24 L1968.43 1547.12 L1963.55 1547.12 L1963.55 1541.24 Z" fill="#000000" fill-rule="evenodd" fill-opacity="1" /><path clip-path="url(#clip210)" d="M1988.62 1530.71 Q1985.28 1530.71 1983.36 1532.49 Q1981.47 1534.27 1981.47 1537.4 Q1981.47 1540.52 1983.36 1542.31 Q1985.28 1544.09 1988.62 1544.09 Q1991.95 1544.09 1993.87 1542.31 Q1995.79 1540.5 1995.79 1537.4 Q1995.79 1534.27 1993.87 1532.49 Q1991.97 1530.71 1988.62 1530.71 M1983.94 1528.72 Q1980.93 1527.98 1979.24 1525.92 Q1977.58 1523.86 1977.58 1520.89 Q1977.58 1516.75 1980.52 1514.34 Q1983.48 1511.93 1988.62 1511.93 Q1993.78 1511.93 1996.72 1514.34 Q1999.66 1516.75 1999.66 1520.89 Q1999.66 1523.86 1997.97 1525.92 Q1996.3 1527.98 1993.32 1528.72 Q1996.7 1529.5 1998.57 1531.8 Q2000.47 1534.09 2000.47 1537.4 Q2000.47 1542.42 1997.39 1545.11 Q1994.34 1547.79 1988.62 1547.79 Q1982.9 1547.79 1979.82 1545.11 Q1976.77 1542.42 1976.77 1537.4 Q1976.77 1534.09 1978.66 1531.8 Q1980.56 1529.5 1983.94 1528.72 M1982.23 1521.33 Q1982.23 1524.02 1983.9 1525.52 Q1985.59 1527.03 1988.62 1527.03 Q1991.63 1527.03 1993.32 1525.52 Q1995.03 1524.02 1995.03 1521.33 Q1995.03 1518.65 1993.32 1517.14 Q1991.63 1515.64 1988.62 1515.64 Q1985.59 1515.64 1983.9 1517.14 Q1982.23 1518.65 1982.23 1521.33 Z" fill="#000000" fill-rule="evenodd" fill-opacity="1" /><polyline clip-path="url(#clip212)" style="stroke:#000000; stroke-linecap:butt; stroke-linejoin:round; stroke-width:2; stroke-opacity:0.1; fill:none" points="
  193.288,1330.96 2352.76,1330.96 
  "/>
<polyline clip-path="url(#clip212)" style="stroke:#000000; stroke-linecap:butt; stroke-linejoin:round; stroke-width:2; stroke-opacity:0.1; fill:none" points="
  193.288,1006.11 2352.76,1006.11 
  "/>
<polyline clip-path="url(#clip212)" style="stroke:#000000; stroke-linecap:butt; stroke-linejoin:round; stroke-width:2; stroke-opacity:0.1; fill:none" points="
  193.288,681.264 2352.76,681.264 
  "/>
<polyline clip-path="url(#clip212)" style="stroke:#000000; stroke-linecap:butt; stroke-linejoin:round; stroke-width:2; stroke-opacity:0.1; fill:none" points="
  193.288,356.415 2352.76,356.415 
  "/>
<polyline clip-path="url(#clip210)" style="stroke:#000000; stroke-linecap:butt; stroke-linejoin:round; stroke-width:4; stroke-opacity:1; fill:none" points="
  193.288,1486.45 193.288,47.2441 
  "/>
<polyline clip-path="url(#clip210)" style="stroke:#000000; stroke-linecap:butt; stroke-linejoin:round; stroke-width:4; stroke-opacity:1; fill:none" points="
  193.288,1330.96 219.201,1330.96 
  "/>
<polyline clip-path="url(#clip210)" style="stroke:#000000; stroke-linecap:butt; stroke-linejoin:round; stroke-width:4; stroke-opacity:1; fill:none" points="
  193.288,1006.11 219.201,1006.11 
  "/>
<polyline clip-path="url(#clip210)" style="stroke:#000000; stroke-linecap:butt; stroke-linejoin:round; stroke-width:4; stroke-opacity:1; fill:none" points="
  193.288,681.264 219.201,681.264 
  "/>
<polyline clip-path="url(#clip210)" style="stroke:#000000; stroke-linecap:butt; stroke-linejoin:round; stroke-width:4; stroke-opacity:1; fill:none" points="
  193.288,356.415 219.201,356.415 
  "/>
<path clip-path="url(#clip210)" d="M50.9921 1331.41 L80.6679 1331.41 L80.6679 1335.35 L50.9921 1335.35 L50.9921 1331.41 Z" fill="#000000" fill-rule="evenodd" fill-opacity="1" /><path clip-path="url(#clip210)" d="M100.76 1316.76 Q97.1493 1316.76 95.3206 1320.33 Q93.515 1323.87 93.515 1331 Q93.515 1338.1 95.3206 1341.67 Q97.1493 1345.21 100.76 1345.21 Q104.395 1345.21 106.2 1341.67 Q108.029 1338.1 108.029 1331 Q108.029 1323.87 106.2 1320.33 Q104.395 1316.76 100.76 1316.76 M100.76 1313.06 Q106.571 1313.06 109.626 1317.66 Q112.705 1322.25 112.705 1331 Q112.705 1339.72 109.626 1344.33 Q106.571 1348.91 100.76 1348.91 Q94.9502 1348.91 91.8715 1344.33 Q88.816 1339.72 88.816 1331 Q88.816 1322.25 91.8715 1317.66 Q94.9502 1313.06 100.76 1313.06 Z" fill="#000000" fill-rule="evenodd" fill-opacity="1" /><path clip-path="url(#clip210)" d="M120.922 1342.36 L125.807 1342.36 L125.807 1348.24 L120.922 1348.24 L120.922 1342.36 Z" fill="#000000" fill-rule="evenodd" fill-opacity="1" /><path clip-path="url(#clip210)" d="M150.158 1329.61 Q153.515 1330.33 155.39 1332.59 Q157.288 1334.86 157.288 1338.2 Q157.288 1343.31 153.769 1346.11 Q150.251 1348.91 143.769 1348.91 Q141.593 1348.91 139.279 1348.47 Q136.987 1348.06 134.533 1347.2 L134.533 1342.69 Q136.478 1343.82 138.793 1344.4 Q141.107 1344.98 143.631 1344.98 Q148.029 1344.98 150.32 1343.24 Q152.635 1341.51 152.635 1338.2 Q152.635 1335.14 150.482 1333.43 Q148.353 1331.69 144.533 1331.69 L140.506 1331.69 L140.506 1327.85 L144.718 1327.85 Q148.168 1327.85 149.996 1326.48 Q151.825 1325.09 151.825 1322.5 Q151.825 1319.84 149.927 1318.43 Q148.052 1316.99 144.533 1316.99 Q142.612 1316.99 140.413 1317.41 Q138.214 1317.83 135.575 1318.71 L135.575 1314.54 Q138.237 1313.8 140.552 1313.43 Q142.89 1313.06 144.95 1313.06 Q150.274 1313.06 153.376 1315.49 Q156.478 1317.9 156.478 1322.02 Q156.478 1324.89 154.834 1326.88 Q153.191 1328.84 150.158 1329.61 Z" fill="#000000" fill-rule="evenodd" fill-opacity="1" /><path clip-path="url(#clip210)" d="M51.9412 1006.57 L81.617 1006.57 L81.617 1010.5 L51.9412 1010.5 L51.9412 1006.57 Z" fill="#000000" fill-rule="evenodd" fill-opacity="1" /><path clip-path="url(#clip210)" d="M101.709 991.912 Q98.0984 991.912 96.2697 995.477 Q94.4641 999.019 94.4641 1006.15 Q94.4641 1013.25 96.2697 1016.82 Q98.0984 1020.36 101.709 1020.36 Q105.344 1020.36 107.149 1016.82 Q108.978 1013.25 108.978 1006.15 Q108.978 999.019 107.149 995.477 Q105.344 991.912 101.709 991.912 M101.709 988.209 Q107.52 988.209 110.575 992.815 Q113.654 997.398 113.654 1006.15 Q113.654 1014.88 110.575 1019.48 Q107.52 1024.06 101.709 1024.06 Q95.8993 1024.06 92.8206 1019.48 Q89.7651 1014.88 89.7651 1006.15 Q89.7651 997.398 92.8206 992.815 Q95.8993 988.209 101.709 988.209 Z" fill="#000000" fill-rule="evenodd" fill-opacity="1" /><path clip-path="url(#clip210)" d="M121.871 1017.51 L126.756 1017.51 L126.756 1023.39 L121.871 1023.39 L121.871 1017.51 Z" fill="#000000" fill-rule="evenodd" fill-opacity="1" /><path clip-path="url(#clip210)" d="M140.968 1019.46 L157.288 1019.46 L157.288 1023.39 L135.344 1023.39 L135.344 1019.46 Q138.006 1016.7 142.589 1012.07 Q147.195 1007.42 148.376 1006.08 Q150.621 1003.56 151.501 1001.82 Q152.404 1000.06 152.404 998.371 Q152.404 995.616 150.459 993.88 Q148.538 992.144 145.436 992.144 Q143.237 992.144 140.783 992.908 Q138.353 993.672 135.575 995.222 L135.575 990.5 Q138.399 989.366 140.853 988.787 Q143.306 988.209 145.343 988.209 Q150.714 988.209 153.908 990.894 Q157.103 993.579 157.103 998.07 Q157.103 1000.2 156.292 1002.12 Q155.505 1004.02 153.399 1006.61 Q152.82 1007.28 149.718 1010.5 Q146.617 1013.69 140.968 1019.46 Z" fill="#000000" fill-rule="evenodd" fill-opacity="1" /><path clip-path="url(#clip210)" d="M51.5708 681.716 L81.2466 681.716 L81.2466 685.651 L51.5708 685.651 L51.5708 681.716 Z" fill="#000000" fill-rule="evenodd" fill-opacity="1" /><path clip-path="url(#clip210)" d="M101.339 667.063 Q97.728 667.063 95.8993 670.628 Q94.0937 674.169 94.0937 681.299 Q94.0937 688.405 95.8993 691.97 Q97.728 695.512 101.339 695.512 Q104.973 695.512 106.779 691.97 Q108.608 688.405 108.608 681.299 Q108.608 674.169 106.779 670.628 Q104.973 667.063 101.339 667.063 M101.339 663.359 Q107.149 663.359 110.205 667.966 Q113.283 672.549 113.283 681.299 Q113.283 690.026 110.205 694.632 Q107.149 699.216 101.339 699.216 Q95.5289 699.216 92.4502 694.632 Q89.3947 690.026 89.3947 681.299 Q89.3947 672.549 92.4502 667.966 Q95.5289 663.359 101.339 663.359 Z" fill="#000000" fill-rule="evenodd" fill-opacity="1" /><path clip-path="url(#clip210)" d="M121.501 692.665 L126.385 692.665 L126.385 698.544 L121.501 698.544 L121.501 692.665 Z" fill="#000000" fill-rule="evenodd" fill-opacity="1" /><path clip-path="url(#clip210)" d="M137.381 694.609 L145.019 694.609 L145.019 668.244 L136.709 669.91 L136.709 665.651 L144.973 663.984 L149.649 663.984 L149.649 694.609 L157.288 694.609 L157.288 698.544 L137.381 698.544 L137.381 694.609 Z" fill="#000000" fill-rule="evenodd" fill-opacity="1" /><path clip-path="url(#clip210)" d="M100.112 342.214 Q96.5011 342.214 94.6724 345.778 Q92.8669 349.32 92.8669 356.45 Q92.8669 363.556 94.6724 367.121 Q96.5011 370.663 100.112 370.663 Q103.746 370.663 105.552 367.121 Q107.381 363.556 107.381 356.45 Q107.381 349.32 105.552 345.778 Q103.746 342.214 100.112 342.214 M100.112 338.51 Q105.922 338.51 108.978 343.116 Q112.057 347.7 112.057 356.45 Q112.057 365.176 108.978 369.783 Q105.922 374.366 100.112 374.366 Q94.3021 374.366 91.2234 369.783 Q88.1679 365.176 88.1679 356.45 Q88.1679 347.7 91.2234 343.116 Q94.3021 338.51 100.112 338.51 Z" fill="#000000" fill-rule="evenodd" fill-opacity="1" /><path clip-path="url(#clip210)" d="M120.274 367.815 L125.158 367.815 L125.158 373.695 L120.274 373.695 L120.274 367.815 Z" fill="#000000" fill-rule="evenodd" fill-opacity="1" /><path clip-path="url(#clip210)" d="M145.343 342.214 Q141.732 342.214 139.904 345.778 Q138.098 349.32 138.098 356.45 Q138.098 363.556 139.904 367.121 Q141.732 370.663 145.343 370.663 Q148.978 370.663 150.783 367.121 Q152.612 363.556 152.612 356.45 Q152.612 349.32 150.783 345.778 Q148.978 342.214 145.343 342.214 M145.343 338.51 Q151.154 338.51 154.209 343.116 Q157.288 347.7 157.288 356.45 Q157.288 365.176 154.209 369.783 Q151.154 374.366 145.343 374.366 Q139.533 374.366 136.455 369.783 Q133.399 365.176 133.399 356.45 Q133.399 347.7 136.455 343.116 Q139.533 338.51 145.343 338.51 Z" fill="#000000" fill-rule="evenodd" fill-opacity="1" /><polyline clip-path="url(#clip212)" style="stroke:#009af9; stroke-linecap:butt; stroke-linejoin:round; stroke-width:4; stroke-opacity:1; fill:none" points="
  254.405,539.665 457.547,501.515 712.43,536.387 885.036,779.988 1098.48,431.524 1403.12,211.766 1599.91,489.501 1817.09,1445.72 2005.93,87.9763 2291.64,166.359 
  
  "/>
<circle clip-path="url(#clip212)" cx="254.405" cy="539.665" r="14" fill="#009af9" fill-rule="evenodd" fill-opacity="1" stroke="#000000" stroke-opacity="1" stroke-width="3.2"/>
<circle clip-path="url(#clip212)" cx="457.547" cy="501.515" r="14" fill="#009af9" fill-rule="evenodd" fill-opacity="1" stroke="#000000" stroke-opacity="1" stroke-width="3.2"/>
<circle clip-path="url(#clip212)" cx="712.43" cy="536.387" r="14" fill="#009af9" fill-rule="evenodd" fill-opacity="1" stroke="#000000" stroke-opacity="1" stroke-width="3.2"/>
<circle clip-path="url(#clip212)" cx="885.036" cy="779.988" r="14" fill="#009af9" fill-rule="evenodd" fill-opacity="1" stroke="#000000" stroke-opacity="1" stroke-width="3.2"/>
<circle clip-path="url(#clip212)" cx="1098.48" cy="431.524" r="14" fill="#009af9" fill-rule="evenodd" fill-opacity="1" stroke="#000000" stroke-opacity="1" stroke-width="3.2"/>
<circle clip-path="url(#clip212)" cx="1403.12" cy="211.766" r="14" fill="#009af9" fill-rule="evenodd" fill-opacity="1" stroke="#000000" stroke-opacity="1" stroke-width="3.2"/>
<circle clip-path="url(#clip212)" cx="1599.91" cy="489.501" r="14" fill="#009af9" fill-rule="evenodd" fill-opacity="1" stroke="#000000" stroke-opacity="1" stroke-width="3.2"/>
<circle clip-path="url(#clip212)" cx="1817.09" cy="1445.72" r="14" fill="#009af9" fill-rule="evenodd" fill-opacity="1" stroke="#000000" stroke-opacity="1" stroke-width="3.2"/>
<circle clip-path="url(#clip212)" cx="2005.93" cy="87.9763" r="14" fill="#009af9" fill-rule="evenodd" fill-opacity="1" stroke="#000000" stroke-opacity="1" stroke-width="3.2"/>
<circle clip-path="url(#clip212)" cx="2291.64" cy="166.359" r="14" fill="#009af9" fill-rule="evenodd" fill-opacity="1" stroke="#000000" stroke-opacity="1" stroke-width="3.2"/>
<path clip-path="url(#clip210)" d="
M1988.4 216.178 L2280.77 216.178 L2280.77 95.2176 L1988.4 95.2176  Z
  " fill="#ffffff" fill-rule="evenodd" fill-opacity="1"/>
<polyline clip-path="url(#clip210)" style="stroke:#000000; stroke-linecap:butt; stroke-linejoin:round; stroke-width:4; stroke-opacity:1; fill:none" points="
  1988.4,216.178 2280.77,216.178 2280.77,95.2176 1988.4,95.2176 1988.4,216.178 
  "/>
<polyline clip-path="url(#clip210)" style="stroke:#009af9; stroke-linecap:butt; stroke-linejoin:round; stroke-width:4; stroke-opacity:1; fill:none" points="
  2012.4,155.698 2156.36,155.698 
  "/>
<circle clip-path="url(#clip210)" cx="2084.38" cy="155.698" r="23" fill="#009af9" fill-rule="evenodd" fill-opacity="1" stroke="#000000" stroke-opacity="1" stroke-width="5.12"/>
<path clip-path="url(#clip210)" d="M2194.2 175.385 Q2192.39 180.015 2190.68 181.427 Q2188.97 182.839 2186.1 182.839 L2182.69 182.839 L2182.69 179.274 L2185.19 179.274 Q2186.95 179.274 2187.92 178.44 Q2188.9 177.607 2190.08 174.505 L2190.84 172.561 L2180.36 147.052 L2184.87 147.052 L2192.97 167.329 L2201.07 147.052 L2205.59 147.052 L2194.2 175.385 Z" fill="#000000" fill-rule="evenodd" fill-opacity="1" /><path clip-path="url(#clip210)" d="M2212.88 169.042 L2220.52 169.042 L2220.52 142.677 L2212.21 144.343 L2212.21 140.084 L2220.47 138.418 L2225.15 138.418 L2225.15 169.042 L2232.79 169.042 L2232.79 172.978 L2212.88 172.978 L2212.88 169.042 Z" fill="#000000" fill-rule="evenodd" fill-opacity="1" /></svg>
