<?xml version="1.0" encoding="utf-8"?>
<svg xmlns="http://www.w3.org/2000/svg" xmlns:xlink="http://www.w3.org/1999/xlink" width="600" height="400" viewBox="0 0 2400 1600">
<defs>
  <clipPath id="clip140">
    <rect x="0" y="0" width="2400" height="1600"/>
  </clipPath>
</defs>
<path clip-path="url(#clip140)" d="
M0 1600 L2400 1600 L2400 0 L0 0  Z
  " fill="#ffffff" fill-rule="evenodd" fill-opacity="1"/>
<defs>
  <clipPath id="clip141">
    <rect x="480" y="0" width="1681" height="1600"/>
  </clipPath>
</defs>
<path clip-path="url(#clip140)" d="
M224.098 1486.45 L2352.76 1486.45 L2352.76 47.2441 L224.098 47.2441  Z
  " fill="#ffffff" fill-rule="evenodd" fill-opacity="1"/>
<defs>
  <clipPath id="clip142">
    <rect x="224" y="47" width="2130" height="1440"/>
  </clipPath>
</defs>
<polyline clip-path="url(#clip142)" style="stroke:#000000; stroke-linecap:butt; stroke-linejoin:round; stroke-width:2; stroke-opacity:0.1; fill:none" points="
  588.381,1486.45 588.381,47.2441 
  "/>
<polyline clip-path="url(#clip142)" style="stroke:#000000; stroke-linecap:butt; stroke-linejoin:round; stroke-width:2; stroke-opacity:0.1; fill:none" points="
  1033.51,1486.45 1033.51,47.2441 
  "/>
<polyline clip-path="url(#clip142)" style="stroke:#000000; stroke-linecap:butt; stroke-linejoin:round; stroke-width:2; stroke-opacity:0.1; fill:none" points="
  1478.65,1486.45 1478.65,47.2441 
  "/>
<polyline clip-path="url(#clip142)" style="stroke:#000000; stroke-linecap:butt; stroke-linejoin:round; stroke-width:2; stroke-opacity:0.1; fill:none" points="
  1923.78,1486.45 1923.78,47.2441 
  "/>
<polyline clip-path="url(#clip140)" style="stroke:#000000; stroke-linecap:butt; stroke-linejoin:round; stroke-width:4; stroke-opacity:1; fill:none" points="
  224.098,1486.45 2352.76,1486.45 
  "/>
<polyline clip-path="url(#clip140)" style="stroke:#000000; stroke-linecap:butt; stroke-linejoin:round; stroke-width:4; stroke-opacity:1; fill:none" points="
  588.381,1486.45 588.381,1469.18 
  "/>
<polyline clip-path="url(#clip140)" style="stroke:#000000; stroke-linecap:butt; stroke-linejoin:round; stroke-width:4; stroke-opacity:1; fill:none" points="
  1033.51,1486.45 1033.51,1469.18 
  "/>
<polyline clip-path="url(#clip140)" style="stroke:#000000; stroke-linecap:butt; stroke-linejoin:round; stroke-width:4; stroke-opacity:1; fill:none" points="
  1478.65,1486.45 1478.65,1469.18 
  "/>
<polyline clip-path="url(#clip140)" style="stroke:#000000; stroke-linecap:butt; stroke-linejoin:round; stroke-width:4; stroke-opacity:1; fill:none" points="
  1923.78,1486.45 1923.78,1469.18 
  "/>
<path clip-path="url(#clip140)" d="M566.564 1515.64 Q562.953 1515.64 561.124 1519.2 Q559.318 1522.75 559.318 1529.87 Q559.318 1536.98 561.124 1540.55 Q562.953 1544.09 566.564 1544.09 Q570.198 1544.09 572.004 1540.55 Q573.832 1536.98 573.832 1529.87 Q573.832 1522.75 572.004 1519.2 Q570.198 1515.64 566.564 1515.64 M566.564 1511.93 Q572.374 1511.93 575.43 1516.54 Q578.508 1521.12 578.508 1529.87 Q578.508 1538.6 575.43 1543.21 Q572.374 1547.79 566.564 1547.79 Q560.754 1547.79 557.675 1543.21 Q554.619 1538.6 554.619 1529.87 Q554.619 1521.12 557.675 1516.54 Q560.754 1511.93 566.564 1511.93 Z" fill="#000000" fill-rule="evenodd" fill-opacity="1" /><path clip-path="url(#clip140)" d="M586.726 1541.24 L591.61 1541.24 L591.61 1547.12 L586.726 1547.12 L586.726 1541.24 Z" fill="#000000" fill-rule="evenodd" fill-opacity="1" /><path clip-path="url(#clip140)" d="M605.823 1543.18 L622.142 1543.18 L622.142 1547.12 L600.198 1547.12 L600.198 1543.18 Q602.86 1540.43 607.443 1535.8 Q612.05 1531.15 613.23 1529.81 Q615.476 1527.28 616.355 1525.55 Q617.258 1523.79 617.258 1522.1 Q617.258 1519.34 615.314 1517.61 Q613.392 1515.87 610.29 1515.87 Q608.091 1515.87 605.638 1516.63 Q603.207 1517.4 600.429 1518.95 L600.429 1514.23 Q603.253 1513.09 605.707 1512.51 Q608.161 1511.93 610.198 1511.93 Q615.568 1511.93 618.763 1514.62 Q621.957 1517.31 621.957 1521.8 Q621.957 1523.93 621.147 1525.85 Q620.36 1527.74 618.253 1530.34 Q617.675 1531.01 614.573 1534.23 Q611.471 1537.42 605.823 1543.18 Z" fill="#000000" fill-rule="evenodd" fill-opacity="1" /><path clip-path="url(#clip140)" d="M1010.66 1515.64 Q1007.04 1515.64 1005.22 1519.2 Q1003.41 1522.75 1003.41 1529.87 Q1003.41 1536.98 1005.22 1540.55 Q1007.04 1544.09 1010.66 1544.09 Q1014.29 1544.09 1016.1 1540.55 Q1017.92 1536.98 1017.92 1529.87 Q1017.92 1522.75 1016.1 1519.2 Q1014.29 1515.64 1010.66 1515.64 M1010.66 1511.93 Q1016.47 1511.93 1019.52 1516.54 Q1022.6 1521.12 1022.6 1529.87 Q1022.6 1538.6 1019.52 1543.21 Q1016.47 1547.79 1010.66 1547.79 Q1004.85 1547.79 1001.77 1543.21 Q998.711 1538.6 998.711 1529.87 Q998.711 1521.12 1001.77 1516.54 Q1004.85 1511.93 1010.66 1511.93 Z" fill="#000000" fill-rule="evenodd" fill-opacity="1" /><path clip-path="url(#clip140)" d="M1030.82 1541.24 L1035.7 1541.24 L1035.7 1547.12 L1030.82 1547.12 L1030.82 1541.24 Z" fill="#000000" fill-rule="evenodd" fill-opacity="1" /><path clip-path="url(#clip140)" d="M1058.73 1516.63 L1046.93 1535.08 L1058.73 1535.08 L1058.73 1516.63 M1057.51 1512.56 L1063.39 1512.56 L1063.39 1535.08 L1068.32 1535.08 L1068.32 1538.97 L1063.39 1538.97 L1063.39 1547.12 L1058.73 1547.12 L1058.73 1538.97 L1043.13 1538.97 L1043.13 1534.46 L1057.51 1512.56 Z" fill="#000000" fill-rule="evenodd" fill-opacity="1" /><path clip-path="url(#clip140)" d="M1455.95 1515.64 Q1452.34 1515.64 1450.51 1519.2 Q1448.71 1522.75 1448.71 1529.87 Q1448.71 1536.98 1450.51 1540.55 Q1452.34 1544.09 1455.95 1544.09 Q1459.59 1544.09 1461.39 1540.55 Q1463.22 1536.98 1463.22 1529.87 Q1463.22 1522.75 1461.39 1519.2 Q1459.59 1515.64 1455.95 1515.64 M1455.95 1511.93 Q1461.76 1511.93 1464.82 1516.54 Q1467.9 1521.12 1467.9 1529.87 Q1467.9 1538.6 1464.82 1543.21 Q1461.76 1547.79 1455.95 1547.79 Q1450.14 1547.79 1447.06 1543.21 Q1444.01 1538.6 1444.01 1529.87 Q1444.01 1521.12 1447.06 1516.54 Q1450.14 1511.93 1455.95 1511.93 Z" fill="#000000" fill-rule="evenodd" fill-opacity="1" /><path clip-path="url(#clip140)" d="M1476.11 1541.24 L1481 1541.24 L1481 1547.12 L1476.11 1547.12 L1476.11 1541.24 Z" fill="#000000" fill-rule="evenodd" fill-opacity="1" /><path clip-path="url(#clip140)" d="M1501.76 1527.98 Q1498.61 1527.98 1496.76 1530.13 Q1494.93 1532.28 1494.93 1536.03 Q1494.93 1539.76 1496.76 1541.93 Q1498.61 1544.09 1501.76 1544.09 Q1504.91 1544.09 1506.74 1541.93 Q1508.59 1539.76 1508.59 1536.03 Q1508.59 1532.28 1506.74 1530.13 Q1504.91 1527.98 1501.76 1527.98 M1511.04 1513.32 L1511.04 1517.58 Q1509.28 1516.75 1507.48 1516.31 Q1505.7 1515.87 1503.94 1515.87 Q1499.31 1515.87 1496.85 1519 Q1494.42 1522.12 1494.08 1528.44 Q1495.44 1526.43 1497.5 1525.36 Q1499.56 1524.27 1502.04 1524.27 Q1507.25 1524.27 1510.26 1527.44 Q1513.29 1530.59 1513.29 1536.03 Q1513.29 1541.36 1510.14 1544.57 Q1506.99 1547.79 1501.76 1547.79 Q1495.77 1547.79 1492.59 1543.21 Q1489.42 1538.6 1489.42 1529.87 Q1489.42 1521.68 1493.31 1516.82 Q1497.2 1511.93 1503.75 1511.93 Q1505.51 1511.93 1507.29 1512.28 Q1509.1 1512.63 1511.04 1513.32 Z" fill="#000000" fill-rule="evenodd" fill-opacity="1" /><path clip-path="url(#clip140)" d="M1901.21 1515.64 Q1897.6 1515.64 1895.77 1519.2 Q1893.97 1522.75 1893.97 1529.87 Q1893.97 1536.98 1895.77 1540.55 Q1897.6 1544.09 1901.21 1544.09 Q1904.85 1544.09 1906.65 1540.55 Q1908.48 1536.98 1908.48 1529.87 Q1908.48 1522.75 1906.65 1519.2 Q1904.85 1515.64 1901.21 1515.64 M1901.21 1511.93 Q1907.02 1511.93 1910.08 1516.54 Q1913.16 1521.12 1913.16 1529.87 Q1913.16 1538.6 1910.08 1543.21 Q1907.02 1547.79 1901.21 1547.79 Q1895.4 1547.79 1892.32 1543.21 Q1889.27 1538.6 1889.27 1529.87 Q1889.27 1521.12 1892.32 1516.54 Q1895.4 1511.93 1901.21 1511.93 Z" fill="#000000" fill-rule="evenodd" fill-opacity="1" /><path clip-path="url(#clip140)" d="M1921.37 1541.24 L1926.26 1541.24 L1926.26 1547.12 L1921.37 1547.12 L1921.37 1541.24 Z" fill="#000000" fill-rule="evenodd" fill-opacity="1" /><path clip-path="url(#clip140)" d="M1946.44 1530.71 Q1943.11 1530.71 1941.19 1532.49 Q1939.29 1534.27 1939.29 1537.4 Q1939.29 1540.52 1941.19 1542.31 Q1943.11 1544.09 1946.44 1544.09 Q1949.78 1544.09 1951.7 1542.31 Q1953.62 1540.5 1953.62 1537.4 Q1953.62 1534.27 1951.7 1532.49 Q1949.8 1530.71 1946.44 1530.71 M1941.77 1528.72 Q1938.76 1527.98 1937.07 1525.92 Q1935.4 1523.86 1935.4 1520.89 Q1935.4 1516.75 1938.34 1514.34 Q1941.3 1511.93 1946.44 1511.93 Q1951.61 1511.93 1954.55 1514.34 Q1957.48 1516.75 1957.48 1520.89 Q1957.48 1523.86 1955.8 1525.92 Q1954.13 1527.98 1951.14 1528.72 Q1954.52 1529.5 1956.4 1531.8 Q1958.3 1534.09 1958.3 1537.4 Q1958.3 1542.42 1955.22 1545.11 Q1952.16 1547.79 1946.44 1547.79 Q1940.73 1547.79 1937.65 1545.11 Q1934.59 1542.42 1934.59 1537.4 Q1934.59 1534.09 1936.49 1531.8 Q1938.39 1529.5 1941.77 1528.72 M1940.05 1521.33 Q1940.05 1524.02 1941.72 1525.52 Q1943.41 1527.03 1946.44 1527.03 Q1949.45 1527.03 1951.14 1525.52 Q1952.86 1524.02 1952.86 1521.33 Q1952.86 1518.65 1951.14 1517.14 Q1949.45 1515.64 1946.44 1515.64 Q1943.41 1515.64 1941.72 1517.14 Q1940.05 1518.65 1940.05 1521.33 Z" fill="#000000" fill-rule="evenodd" fill-opacity="1" /><polyline clip-path="url(#clip142)" style="stroke:#000000; stroke-linecap:butt; stroke-linejoin:round; stroke-width:2; stroke-opacity:0.1; fill:none" points="
  224.098,1287.81 2352.76,1287.81 
  "/>
<polyline clip-path="url(#clip142)" style="stroke:#000000; stroke-linecap:butt; stroke-linejoin:round; stroke-width:2; stroke-opacity:0.1; fill:none" points="
  224.098,1033.12 2352.76,1033.12 
  "/>
<polyline clip-path="url(#clip142)" style="stroke:#000000; stroke-linecap:butt; stroke-linejoin:round; stroke-width:2; stroke-opacity:0.1; fill:none" points="
  224.098,778.431 2352.76,778.431 
  "/>
<polyline clip-path="url(#clip142)" style="stroke:#000000; stroke-linecap:butt; stroke-linejoin:round; stroke-width:2; stroke-opacity:0.1; fill:none" points="
  224.098,523.742 2352.76,523.742 
  "/>
<polyline clip-path="url(#clip142)" style="stroke:#000000; stroke-linecap:butt; stroke-linejoin:round; stroke-width:2; stroke-opacity:0.1; fill:none" points="
  224.098,269.053 2352.76,269.053 
  "/>
<polyline clip-path="url(#clip140)" style="stroke:#000000; stroke-linecap:butt; stroke-linejoin:round; stroke-width:4; stroke-opacity:1; fill:none" points="
  224.098,1486.45 224.098,47.2441 
  "/>
<polyline clip-path="url(#clip140)" style="stroke:#000000; stroke-linecap:butt; stroke-linejoin:round; stroke-width:4; stroke-opacity:1; fill:none" points="
  224.098,1287.81 249.642,1287.81 
  "/>
<polyline clip-path="url(#clip140)" style="stroke:#000000; stroke-linecap:butt; stroke-linejoin:round; stroke-width:4; stroke-opacity:1; fill:none" points="
  224.098,1033.12 249.642,1033.12 
  "/>
<polyline clip-path="url(#clip140)" style="stroke:#000000; stroke-linecap:butt; stroke-linejoin:round; stroke-width:4; stroke-opacity:1; fill:none" points="
  224.098,778.431 249.642,778.431 
  "/>
<polyline clip-path="url(#clip140)" style="stroke:#000000; stroke-linecap:butt; stroke-linejoin:round; stroke-width:4; stroke-opacity:1; fill:none" points="
  224.098,523.742 249.642,523.742 
  "/>
<polyline clip-path="url(#clip140)" style="stroke:#000000; stroke-linecap:butt; stroke-linejoin:round; stroke-width:4; stroke-opacity:1; fill:none" points="
  224.098,269.053 249.642,269.053 
  "/>
<path clip-path="url(#clip140)" d="M50.9921 1288.26 L80.6679 1288.26 L80.6679 1292.2 L50.9921 1292.2 L50.9921 1288.26 Z" fill="#000000" fill-rule="evenodd" fill-opacity="1" /><path clip-path="url(#clip140)" d="M100.76 1273.61 Q97.1493 1273.61 95.3206 1277.17 Q93.515 1280.71 93.515 1287.84 Q93.515 1294.95 95.3206 1298.51 Q97.1493 1302.06 100.76 1302.06 Q104.395 1302.06 106.2 1298.51 Q108.029 1294.95 108.029 1287.84 Q108.029 1280.71 106.2 1277.17 Q104.395 1273.61 100.76 1273.61 M100.76 1269.9 Q106.571 1269.9 109.626 1274.51 Q112.705 1279.09 112.705 1287.84 Q112.705 1296.57 109.626 1301.18 Q106.571 1305.76 100.76 1305.76 Q94.9502 1305.76 91.8715 1301.18 Q88.816 1296.57 88.816 1287.84 Q88.816 1279.09 91.8715 1274.51 Q94.9502 1269.9 100.76 1269.9 Z" fill="#000000" fill-rule="evenodd" fill-opacity="1" /><path clip-path="url(#clip140)" d="M120.922 1299.21 L125.807 1299.21 L125.807 1305.09 L120.922 1305.09 L120.922 1299.21 Z" fill="#000000" fill-rule="evenodd" fill-opacity="1" /><path clip-path="url(#clip140)" d="M136.802 1301.15 L144.441 1301.15 L144.441 1274.79 L136.131 1276.45 L136.131 1272.2 L144.394 1270.53 L149.07 1270.53 L149.07 1301.15 L156.709 1301.15 L156.709 1305.09 L136.802 1305.09 L136.802 1301.15 Z" fill="#000000" fill-rule="evenodd" fill-opacity="1" /><path clip-path="url(#clip140)" d="M176.153 1273.61 Q172.542 1273.61 170.714 1277.17 Q168.908 1280.71 168.908 1287.84 Q168.908 1294.95 170.714 1298.51 Q172.542 1302.06 176.153 1302.06 Q179.788 1302.06 181.593 1298.51 Q183.422 1294.95 183.422 1287.84 Q183.422 1280.71 181.593 1277.17 Q179.788 1273.61 176.153 1273.61 M176.153 1269.9 Q181.964 1269.9 185.019 1274.51 Q188.098 1279.09 188.098 1287.84 Q188.098 1296.57 185.019 1301.18 Q181.964 1305.76 176.153 1305.76 Q170.343 1305.76 167.265 1301.18 Q164.209 1296.57 164.209 1287.84 Q164.209 1279.09 167.265 1274.51 Q170.343 1269.9 176.153 1269.9 Z" fill="#000000" fill-rule="evenodd" fill-opacity="1" /><path clip-path="url(#clip140)" d="M51.9875 1033.57 L81.6633 1033.57 L81.6633 1037.51 L51.9875 1037.51 L51.9875 1033.57 Z" fill="#000000" fill-rule="evenodd" fill-opacity="1" /><path clip-path="url(#clip140)" d="M101.756 1018.92 Q98.1447 1018.92 96.316 1022.48 Q94.5104 1026.02 94.5104 1033.15 Q94.5104 1040.26 96.316 1043.83 Q98.1447 1047.37 101.756 1047.37 Q105.39 1047.37 107.196 1043.83 Q109.024 1040.26 109.024 1033.15 Q109.024 1026.02 107.196 1022.48 Q105.39 1018.92 101.756 1018.92 M101.756 1015.21 Q107.566 1015.21 110.621 1019.82 Q113.7 1024.4 113.7 1033.15 Q113.7 1041.88 110.621 1046.49 Q107.566 1051.07 101.756 1051.07 Q95.9456 1051.07 92.8669 1046.49 Q89.8114 1041.88 89.8114 1033.15 Q89.8114 1024.4 92.8669 1019.82 Q95.9456 1015.21 101.756 1015.21 Z" fill="#000000" fill-rule="evenodd" fill-opacity="1" /><path clip-path="url(#clip140)" d="M121.918 1044.52 L126.802 1044.52 L126.802 1050.4 L121.918 1050.4 L121.918 1044.52 Z" fill="#000000" fill-rule="evenodd" fill-opacity="1" /><path clip-path="url(#clip140)" d="M146.987 1018.92 Q143.376 1018.92 141.547 1022.48 Q139.742 1026.02 139.742 1033.15 Q139.742 1040.26 141.547 1043.83 Q143.376 1047.37 146.987 1047.37 Q150.621 1047.37 152.427 1043.83 Q154.255 1040.26 154.255 1033.15 Q154.255 1026.02 152.427 1022.48 Q150.621 1018.92 146.987 1018.92 M146.987 1015.21 Q152.797 1015.21 155.853 1019.82 Q158.931 1024.4 158.931 1033.15 Q158.931 1041.88 155.853 1046.49 Q152.797 1051.07 146.987 1051.07 Q141.177 1051.07 138.098 1046.49 Q135.043 1041.88 135.043 1033.15 Q135.043 1024.4 138.098 1019.82 Q141.177 1015.21 146.987 1015.21 Z" fill="#000000" fill-rule="evenodd" fill-opacity="1" /><path clip-path="url(#clip140)" d="M167.195 1015.84 L185.552 1015.84 L185.552 1019.78 L171.478 1019.78 L171.478 1028.25 Q172.496 1027.9 173.515 1027.74 Q174.533 1027.55 175.552 1027.55 Q181.339 1027.55 184.718 1030.72 Q188.098 1033.9 188.098 1039.31 Q188.098 1044.89 184.626 1047.99 Q181.153 1051.07 174.834 1051.07 Q172.658 1051.07 170.39 1050.7 Q168.144 1050.33 165.737 1049.59 L165.737 1044.89 Q167.82 1046.02 170.042 1046.58 Q172.265 1047.14 174.741 1047.14 Q178.746 1047.14 181.084 1045.03 Q183.422 1042.92 183.422 1039.31 Q183.422 1035.7 181.084 1033.59 Q178.746 1031.49 174.741 1031.49 Q172.866 1031.49 170.991 1031.9 Q169.14 1032.32 167.195 1033.2 L167.195 1015.84 Z" fill="#000000" fill-rule="evenodd" fill-opacity="1" /><path clip-path="url(#clip140)" d="M100.76 764.23 Q97.1493 764.23 95.3206 767.794 Q93.515 771.336 93.515 778.466 Q93.515 785.572 95.3206 789.137 Q97.1493 792.679 100.76 792.679 Q104.395 792.679 106.2 789.137 Q108.029 785.572 108.029 778.466 Q108.029 771.336 106.2 767.794 Q104.395 764.23 100.76 764.23 M100.76 760.526 Q106.571 760.526 109.626 765.132 Q112.705 769.716 112.705 778.466 Q112.705 787.192 109.626 791.799 Q106.571 796.382 100.76 796.382 Q94.9502 796.382 91.8715 791.799 Q88.816 787.192 88.816 778.466 Q88.816 769.716 91.8715 765.132 Q94.9502 760.526 100.76 760.526 Z" fill="#000000" fill-rule="evenodd" fill-opacity="1" /><path clip-path="url(#clip140)" d="M120.922 789.831 L125.807 789.831 L125.807 795.711 L120.922 795.711 L120.922 789.831 Z" fill="#000000" fill-rule="evenodd" fill-opacity="1" /><path clip-path="url(#clip140)" d="M145.992 764.23 Q142.381 764.23 140.552 767.794 Q138.746 771.336 138.746 778.466 Q138.746 785.572 140.552 789.137 Q142.381 792.679 145.992 792.679 Q149.626 792.679 151.431 789.137 Q153.26 785.572 153.26 778.466 Q153.26 771.336 151.431 767.794 Q149.626 764.23 145.992 764.23 M145.992 760.526 Q151.802 760.526 154.857 765.132 Q157.936 769.716 157.936 778.466 Q157.936 787.192 154.857 791.799 Q151.802 796.382 145.992 796.382 Q140.181 796.382 137.103 791.799 Q134.047 787.192 134.047 778.466 Q134.047 769.716 137.103 765.132 Q140.181 760.526 145.992 760.526 Z" fill="#000000" fill-rule="evenodd" fill-opacity="1" /><path clip-path="url(#clip140)" d="M176.153 764.23 Q172.542 764.23 170.714 767.794 Q168.908 771.336 168.908 778.466 Q168.908 785.572 170.714 789.137 Q172.542 792.679 176.153 792.679 Q179.788 792.679 181.593 789.137 Q183.422 785.572 183.422 778.466 Q183.422 771.336 181.593 767.794 Q179.788 764.23 176.153 764.23 M176.153 760.526 Q181.964 760.526 185.019 765.132 Q188.098 769.716 188.098 778.466 Q188.098 787.192 185.019 791.799 Q181.964 796.382 176.153 796.382 Q170.343 796.382 167.265 791.799 Q164.209 787.192 164.209 778.466 Q164.209 769.716 167.265 765.132 Q170.343 760.526 176.153 760.526 Z" fill="#000000" fill-rule="evenodd" fill-opacity="1" /><path clip-path="url(#clip140)" d="M101.756 509.541 Q98.1447 509.541 96.316 513.106 Q94.5104 516.647 94.5104 523.777 Q94.5104 530.883 96.316 534.448 Q98.1447 537.99 101.756 537.99 Q105.39 537.99 107.196 534.448 Q109.024 530.883 109.024 523.777 Q109.024 516.647 107.196 513.106 Q105.39 509.541 101.756 509.541 M101.756 505.837 Q107.566 505.837 110.621 510.444 Q113.7 515.027 113.7 523.777 Q113.7 532.504 110.621 537.11 Q107.566 541.693 101.756 541.693 Q95.9456 541.693 92.8669 537.11 Q89.8114 532.504 89.8114 523.777 Q89.8114 515.027 92.8669 510.444 Q95.9456 505.837 101.756 505.837 Z" fill="#000000" fill-rule="evenodd" fill-opacity="1" /><path clip-path="url(#clip140)" d="M121.918 535.142 L126.802 535.142 L126.802 541.022 L121.918 541.022 L121.918 535.142 Z" fill="#000000" fill-rule="evenodd" fill-opacity="1" /><path clip-path="url(#clip140)" d="M146.987 509.541 Q143.376 509.541 141.547 513.106 Q139.742 516.647 139.742 523.777 Q139.742 530.883 141.547 534.448 Q143.376 537.99 146.987 537.99 Q150.621 537.99 152.427 534.448 Q154.255 530.883 154.255 523.777 Q154.255 516.647 152.427 513.106 Q150.621 509.541 146.987 509.541 M146.987 505.837 Q152.797 505.837 155.853 510.444 Q158.931 515.027 158.931 523.777 Q158.931 532.504 155.853 537.11 Q152.797 541.693 146.987 541.693 Q141.177 541.693 138.098 537.11 Q135.043 532.504 135.043 523.777 Q135.043 515.027 138.098 510.444 Q141.177 505.837 146.987 505.837 Z" fill="#000000" fill-rule="evenodd" fill-opacity="1" /><path clip-path="url(#clip140)" d="M167.195 506.462 L185.552 506.462 L185.552 510.397 L171.478 510.397 L171.478 518.869 Q172.496 518.522 173.515 518.36 Q174.533 518.175 175.552 518.175 Q181.339 518.175 184.718 521.346 Q188.098 524.518 188.098 529.934 Q188.098 535.513 184.626 538.615 Q181.153 541.693 174.834 541.693 Q172.658 541.693 170.39 541.323 Q168.144 540.953 165.737 540.212 L165.737 535.513 Q167.82 536.647 170.042 537.203 Q172.265 537.758 174.741 537.758 Q178.746 537.758 181.084 535.652 Q183.422 533.545 183.422 529.934 Q183.422 526.323 181.084 524.217 Q178.746 522.11 174.741 522.11 Q172.866 522.11 170.991 522.527 Q169.14 522.943 167.195 523.823 L167.195 506.462 Z" fill="#000000" fill-rule="evenodd" fill-opacity="1" /><path clip-path="url(#clip140)" d="M100.76 254.852 Q97.1493 254.852 95.3206 258.417 Q93.515 261.958 93.515 269.088 Q93.515 276.194 95.3206 279.759 Q97.1493 283.301 100.76 283.301 Q104.395 283.301 106.2 279.759 Q108.029 276.194 108.029 269.088 Q108.029 261.958 106.2 258.417 Q104.395 254.852 100.76 254.852 M100.76 251.148 Q106.571 251.148 109.626 255.755 Q112.705 260.338 112.705 269.088 Q112.705 277.815 109.626 282.421 Q106.571 287.004 100.76 287.004 Q94.9502 287.004 91.8715 282.421 Q88.816 277.815 88.816 269.088 Q88.816 260.338 91.8715 255.755 Q94.9502 251.148 100.76 251.148 Z" fill="#000000" fill-rule="evenodd" fill-opacity="1" /><path clip-path="url(#clip140)" d="M120.922 280.454 L125.807 280.454 L125.807 286.333 L120.922 286.333 L120.922 280.454 Z" fill="#000000" fill-rule="evenodd" fill-opacity="1" /><path clip-path="url(#clip140)" d="M136.802 282.398 L144.441 282.398 L144.441 256.032 L136.131 257.699 L136.131 253.44 L144.394 251.773 L149.07 251.773 L149.07 282.398 L156.709 282.398 L156.709 286.333 L136.802 286.333 L136.802 282.398 Z" fill="#000000" fill-rule="evenodd" fill-opacity="1" /><path clip-path="url(#clip140)" d="M176.153 254.852 Q172.542 254.852 170.714 258.417 Q168.908 261.958 168.908 269.088 Q168.908 276.194 170.714 279.759 Q172.542 283.301 176.153 283.301 Q179.788 283.301 181.593 279.759 Q183.422 276.194 183.422 269.088 Q183.422 261.958 181.593 258.417 Q179.788 254.852 176.153 254.852 M176.153 251.148 Q181.964 251.148 185.019 255.755 Q188.098 260.338 188.098 269.088 Q188.098 277.815 185.019 282.421 Q181.964 287.004 176.153 287.004 Q170.343 287.004 167.265 282.421 Q164.209 277.815 164.209 269.088 Q164.209 260.338 167.265 255.755 Q170.343 251.148 176.153 251.148 Z" fill="#000000" fill-rule="evenodd" fill-opacity="1" /><polyline clip-path="url(#clip142)" style="stroke:#009af9; stroke-linecap:butt; stroke-linejoin:round; stroke-width:4; stroke-opacity:1; fill:none" points="
  284.343,1101.35 565.325,1235.04 731.828,87.9763 869.411,402.857 1102.51,1445.72 1280.37,324.641 1443.39,697.728 1689.53,1261.06 2008.41,462.741 2292.51,603.569 
  
  "/>
<circle clip-path="url(#clip142)" cx="284.343" cy="1101.35" r="14" fill="#009af9" fill-rule="evenodd" fill-opacity="1" stroke="#000000" stroke-opacity="1" stroke-width="3.2"/>
<circle clip-path="url(#clip142)" cx="565.325" cy="1235.04" r="14" fill="#009af9" fill-rule="evenodd" fill-opacity="1" stroke="#000000" stroke-opacity="1" stroke-width="3.2"/>
<circle clip-path="url(#clip142)" cx="731.828" cy="87.9763" r="14" fill="#009af9" fill-rule="evenodd" fill-opacity="1" stroke="#000000" stroke-opacity="1" stroke-width="3.2"/>
<circle clip-path="url(#clip142)" cx="869.411" cy="402.857" r="14" fill="#009af9" fill-rule="evenodd" fill-opacity="1" stroke="#000000" stroke-opacity="1" stroke-width="3.2"/>
<circle clip-path="url(#clip142)" cx="1102.51" cy="1445.72" r="14" fill="#009af9" fill-rule="evenodd" fill-opacity="1" stroke="#000000" stroke-opacity="1" stroke-width="3.2"/>
<circle clip-path="url(#clip142)" cx="1280.37" cy="324.641" r="14" fill="#009af9" fill-rule="evenodd" fill-opacity="1" stroke="#000000" stroke-opacity="1" stroke-width="3.2"/>
<circle clip-path="url(#clip142)" cx="1443.39" cy="697.728" r="14" fill="#009af9" fill-rule="evenodd" fill-opacity="1" stroke="#000000" stroke-opacity="1" stroke-width="3.2"/>
<circle clip-path="url(#clip142)" cx="1689.53" cy="1261.06" r="14" fill="#009af9" fill-rule="evenodd" fill-opacity="1" stroke="#000000" stroke-opacity="1" stroke-width="3.2"/>
<circle clip-path="url(#clip142)" cx="2008.41" cy="462.741" r="14" fill="#009af9" fill-rule="evenodd" fill-opacity="1" stroke="#000000" stroke-opacity="1" stroke-width="3.2"/>
<circle clip-path="url(#clip142)" cx="2292.51" cy="603.569" r="14" fill="#009af9" fill-rule="evenodd" fill-opacity="1" stroke="#000000" stroke-opacity="1" stroke-width="3.2"/>
<path clip-path="url(#clip140)" d="
M1992.85 216.178 L2281.8 216.178 L2281.8 95.2176 L1992.85 95.2176  Z
  " fill="#ffffff" fill-rule="evenodd" fill-opacity="1"/>
<polyline clip-path="url(#clip140)" style="stroke:#000000; stroke-linecap:butt; stroke-linejoin:round; stroke-width:4; stroke-opacity:1; fill:none" points="
  1992.85,216.178 2281.8,216.178 2281.8,95.2176 1992.85,95.2176 1992.85,216.178 
  "/>
<polyline clip-path="url(#clip140)" style="stroke:#009af9; stroke-linecap:butt; stroke-linejoin:round; stroke-width:4; stroke-opacity:1; fill:none" points="
  2016.5,155.698 2158.42,155.698 
  "/>
<circle clip-path="url(#clip140)" cx="2087.46" cy="155.698" r="23" fill="#009af9" fill-rule="evenodd" fill-opacity="1" stroke="#000000" stroke-opacity="1" stroke-width="5.12"/>
<path clip-path="url(#clip140)" d="M2195.91 175.385 Q2194.1 180.015 2192.39 181.427 Q2190.68 182.839 2187.81 182.839 L2184.4 182.839 L2184.4 179.274 L2186.9 179.274 Q2188.66 179.274 2189.64 178.44 Q2190.61 177.607 2191.79 174.505 L2192.55 172.561 L2182.07 147.052 L2186.58 147.052 L2194.68 167.329 L2202.78 147.052 L2207.3 147.052 L2195.91 175.385 Z" fill="#000000" fill-rule="evenodd" fill-opacity="1" /><path clip-path="url(#clip140)" d="M2214.59 169.042 L2222.23 169.042 L2222.23 142.677 L2213.92 144.343 L2213.92 140.084 L2222.18 138.418 L2226.86 138.418 L2226.86 169.042 L2234.5 169.042 L2234.5 172.978 L2214.59 172.978 L2214.59 169.042 Z" fill="#000000" fill-rule="evenodd" fill-opacity="1" /></svg>
