<?xml version="1.0" encoding="utf-8"?>
<svg xmlns="http://www.w3.org/2000/svg" xmlns:xlink="http://www.w3.org/1999/xlink" width="600" height="400" viewBox="0 0 2400 1600">
<defs>
  <clipPath id="clip170">
    <rect x="0" y="0" width="2400" height="1600"/>
  </clipPath>
</defs>
<path clip-path="url(#clip170)" d="
M0 1600 L2400 1600 L2400 0 L0 0  Z
  " fill="#ffffff" fill-rule="evenodd" fill-opacity="1"/>
<defs>
  <clipPath id="clip171">
    <rect x="480" y="0" width="1681" height="1600"/>
  </clipPath>
</defs>
<path clip-path="url(#clip170)" d="
M194.422 1486.45 L2352.76 1486.45 L2352.76 47.2441 L194.422 47.2441  Z
  " fill="#ffffff" fill-rule="evenodd" fill-opacity="1"/>
<defs>
  <clipPath id="clip172">
    <rect x="194" y="47" width="2159" height="1440"/>
  </clipPath>
</defs>
<polyline clip-path="url(#clip172)" style="stroke:#000000; stroke-linecap:butt; stroke-linejoin:round; stroke-width:2; stroke-opacity:0.1; fill:none" points="
  571.296,1486.45 571.296,47.2441 
  "/>
<polyline clip-path="url(#clip172)" style="stroke:#000000; stroke-linecap:butt; stroke-linejoin:round; stroke-width:2; stroke-opacity:0.1; fill:none" points="
  1016.06,1486.45 1016.06,47.2441 
  "/>
<polyline clip-path="url(#clip172)" style="stroke:#000000; stroke-linecap:butt; stroke-linejoin:round; stroke-width:2; stroke-opacity:0.1; fill:none" points="
  1460.82,1486.45 1460.82,47.2441 
  "/>
<polyline clip-path="url(#clip172)" style="stroke:#000000; stroke-linecap:butt; stroke-linejoin:round; stroke-width:2; stroke-opacity:0.1; fill:none" points="
  1905.58,1486.45 1905.58,47.2441 
  "/>
<polyline clip-path="url(#clip172)" style="stroke:#000000; stroke-linecap:butt; stroke-linejoin:round; stroke-width:2; stroke-opacity:0.1; fill:none" points="
  2350.34,1486.45 2350.34,47.2441 
  "/>
<polyline clip-path="url(#clip170)" style="stroke:#000000; stroke-linecap:butt; stroke-linejoin:round; stroke-width:4; stroke-opacity:1; fill:none" points="
  194.422,1486.45 2352.76,1486.45 
  "/>
<polyline clip-path="url(#clip170)" style="stroke:#000000; stroke-linecap:butt; stroke-linejoin:round; stroke-width:4; stroke-opacity:1; fill:none" points="
  571.296,1486.45 571.296,1469.18 
  "/>
<polyline clip-path="url(#clip170)" style="stroke:#000000; stroke-linecap:butt; stroke-linejoin:round; stroke-width:4; stroke-opacity:1; fill:none" points="
  1016.06,1486.45 1016.06,1469.18 
  "/>
<polyline clip-path="url(#clip170)" style="stroke:#000000; stroke-linecap:butt; stroke-linejoin:round; stroke-width:4; stroke-opacity:1; fill:none" points="
  1460.82,1486.45 1460.82,1469.18 
  "/>
<polyline clip-path="url(#clip170)" style="stroke:#000000; stroke-linecap:butt; stroke-linejoin:round; stroke-width:4; stroke-opacity:1; fill:none" points="
  1905.58,1486.45 1905.58,1469.18 
  "/>
<polyline clip-path="url(#clip170)" style="stroke:#000000; stroke-linecap:butt; stroke-linejoin:round; stroke-width:4; stroke-opacity:1; fill:none" points="
  2350.34,1486.45 2350.34,1469.18 
  "/>
<path clip-path="url(#clip170)" d="M549.479 1515.64 Q545.868 1515.64 544.039 1519.2 Q542.234 1522.75 542.234 1529.87 Q542.234 1536.98 544.039 1540.55 Q545.868 1544.09 549.479 1544.09 Q553.113 1544.09 554.919 1540.55 Q556.748 1536.98 556.748 1529.87 Q556.748 1522.75 554.919 1519.2 Q553.113 1515.64 549.479 1515.64 M549.479 1511.93 Q555.289 1511.93 558.345 1516.54 Q561.424 1521.12 561.424 1529.87 Q561.424 1538.6 558.345 1543.21 Q555.289 1547.79 549.479 1547.79 Q543.669 1547.79 540.59 1543.21 Q537.535 1538.6 537.535 1529.87 Q537.535 1521.12 540.59 1516.54 Q543.669 1511.93 549.479 1511.93 Z" fill="#000000" fill-rule="evenodd" fill-opacity="1" /><path clip-path="url(#clip170)" d="M569.641 1541.24 L574.525 1541.24 L574.525 1547.12 L569.641 1547.12 L569.641 1541.24 Z" fill="#000000" fill-rule="evenodd" fill-opacity="1" /><path clip-path="url(#clip170)" d="M588.738 1543.18 L605.058 1543.18 L605.058 1547.12 L583.113 1547.12 L583.113 1543.18 Q585.775 1540.43 590.359 1535.8 Q594.965 1531.15 596.146 1529.81 Q598.391 1527.28 599.271 1525.55 Q600.173 1523.79 600.173 1522.1 Q600.173 1519.34 598.229 1517.61 Q596.308 1515.87 593.206 1515.87 Q591.007 1515.87 588.553 1516.63 Q586.122 1517.4 583.345 1518.95 L583.345 1514.23 Q586.169 1513.09 588.622 1512.51 Q591.076 1511.93 593.113 1511.93 Q598.483 1511.93 601.678 1514.62 Q604.872 1517.31 604.872 1521.8 Q604.872 1523.93 604.062 1525.85 Q603.275 1527.74 601.169 1530.34 Q600.59 1531.01 597.488 1534.23 Q594.386 1537.42 588.738 1543.18 Z" fill="#000000" fill-rule="evenodd" fill-opacity="1" /><path clip-path="url(#clip170)" d="M993.199 1515.64 Q989.588 1515.64 987.759 1519.2 Q985.954 1522.75 985.954 1529.87 Q985.954 1536.98 987.759 1540.55 Q989.588 1544.09 993.199 1544.09 Q996.833 1544.09 998.639 1540.55 Q1000.47 1536.98 1000.47 1529.87 Q1000.47 1522.75 998.639 1519.2 Q996.833 1515.64 993.199 1515.64 M993.199 1511.93 Q999.009 1511.93 1002.06 1516.54 Q1005.14 1521.12 1005.14 1529.87 Q1005.14 1538.6 1002.06 1543.21 Q999.009 1547.79 993.199 1547.79 Q987.389 1547.79 984.31 1543.21 Q981.255 1538.6 981.255 1529.87 Q981.255 1521.12 984.31 1516.54 Q987.389 1511.93 993.199 1511.93 Z" fill="#000000" fill-rule="evenodd" fill-opacity="1" /><path clip-path="url(#clip170)" d="M1013.36 1541.24 L1018.25 1541.24 L1018.25 1547.12 L1013.36 1547.12 L1013.36 1541.24 Z" fill="#000000" fill-rule="evenodd" fill-opacity="1" /><path clip-path="url(#clip170)" d="M1041.28 1516.63 L1029.47 1535.08 L1041.28 1535.08 L1041.28 1516.63 M1040.05 1512.56 L1045.93 1512.56 L1045.93 1535.08 L1050.86 1535.08 L1050.86 1538.97 L1045.93 1538.97 L1045.93 1547.12 L1041.28 1547.12 L1041.28 1538.97 L1025.68 1538.97 L1025.68 1534.46 L1040.05 1512.56 Z" fill="#000000" fill-rule="evenodd" fill-opacity="1" /><path clip-path="url(#clip170)" d="M1438.12 1515.64 Q1434.51 1515.64 1432.68 1519.2 Q1430.88 1522.75 1430.88 1529.87 Q1430.88 1536.98 1432.68 1540.55 Q1434.51 1544.09 1438.12 1544.09 Q1441.76 1544.09 1443.56 1540.55 Q1445.39 1536.98 1445.39 1529.87 Q1445.39 1522.75 1443.56 1519.2 Q1441.76 1515.64 1438.12 1515.64 M1438.12 1511.93 Q1443.93 1511.93 1446.99 1516.54 Q1450.07 1521.12 1450.07 1529.87 Q1450.07 1538.6 1446.99 1543.21 Q1443.93 1547.79 1438.12 1547.79 Q1432.31 1547.79 1429.23 1543.21 Q1426.18 1538.6 1426.18 1529.87 Q1426.18 1521.12 1429.23 1516.54 Q1432.31 1511.93 1438.12 1511.93 Z" fill="#000000" fill-rule="evenodd" fill-opacity="1" /><path clip-path="url(#clip170)" d="M1458.28 1541.24 L1463.17 1541.24 L1463.17 1547.12 L1458.28 1547.12 L1458.28 1541.24 Z" fill="#000000" fill-rule="evenodd" fill-opacity="1" /><path clip-path="url(#clip170)" d="M1483.93 1527.98 Q1480.78 1527.98 1478.93 1530.13 Q1477.1 1532.28 1477.1 1536.03 Q1477.1 1539.76 1478.93 1541.93 Q1480.78 1544.09 1483.93 1544.09 Q1487.08 1544.09 1488.91 1541.93 Q1490.76 1539.76 1490.76 1536.03 Q1490.76 1532.28 1488.91 1530.13 Q1487.08 1527.98 1483.93 1527.98 M1493.22 1513.32 L1493.22 1517.58 Q1491.46 1516.75 1489.65 1516.31 Q1487.87 1515.87 1486.11 1515.87 Q1481.48 1515.87 1479.03 1519 Q1476.59 1522.12 1476.25 1528.44 Q1477.61 1526.43 1479.67 1525.36 Q1481.73 1524.27 1484.21 1524.27 Q1489.42 1524.27 1492.43 1527.44 Q1495.46 1530.59 1495.46 1536.03 Q1495.46 1541.36 1492.31 1544.57 Q1489.16 1547.79 1483.93 1547.79 Q1477.94 1547.79 1474.77 1543.21 Q1471.59 1538.6 1471.59 1529.87 Q1471.59 1521.68 1475.48 1516.82 Q1479.37 1511.93 1485.92 1511.93 Q1487.68 1511.93 1489.47 1512.28 Q1491.27 1512.63 1493.22 1513.32 Z" fill="#000000" fill-rule="evenodd" fill-opacity="1" /><path clip-path="url(#clip170)" d="M1883.01 1515.64 Q1879.4 1515.64 1877.57 1519.2 Q1875.77 1522.75 1875.77 1529.87 Q1875.77 1536.98 1877.57 1540.55 Q1879.4 1544.09 1883.01 1544.09 Q1886.65 1544.09 1888.45 1540.55 Q1890.28 1536.98 1890.28 1529.87 Q1890.28 1522.75 1888.45 1519.2 Q1886.65 1515.64 1883.01 1515.64 M1883.01 1511.93 Q1888.82 1511.93 1891.88 1516.54 Q1894.96 1521.12 1894.96 1529.87 Q1894.96 1538.6 1891.88 1543.21 Q1888.82 1547.79 1883.01 1547.79 Q1877.2 1547.79 1874.12 1543.21 Q1871.07 1538.6 1871.07 1529.87 Q1871.07 1521.12 1874.12 1516.54 Q1877.2 1511.93 1883.01 1511.93 Z" fill="#000000" fill-rule="evenodd" fill-opacity="1" /><path clip-path="url(#clip170)" d="M1903.17 1541.24 L1908.06 1541.24 L1908.06 1547.12 L1903.17 1547.12 L1903.17 1541.24 Z" fill="#000000" fill-rule="evenodd" fill-opacity="1" /><path clip-path="url(#clip170)" d="M1928.24 1530.71 Q1924.91 1530.71 1922.99 1532.49 Q1921.09 1534.27 1921.09 1537.4 Q1921.09 1540.52 1922.99 1542.31 Q1924.91 1544.09 1928.24 1544.09 Q1931.58 1544.09 1933.5 1542.31 Q1935.42 1540.5 1935.42 1537.4 Q1935.42 1534.27 1933.5 1532.49 Q1931.6 1530.71 1928.24 1530.71 M1923.57 1528.72 Q1920.56 1527.98 1918.87 1525.92 Q1917.2 1523.86 1917.2 1520.89 Q1917.2 1516.75 1920.14 1514.34 Q1923.1 1511.93 1928.24 1511.93 Q1933.41 1511.93 1936.35 1514.34 Q1939.28 1516.75 1939.28 1520.89 Q1939.28 1523.86 1937.6 1525.92 Q1935.93 1527.98 1932.94 1528.72 Q1936.32 1529.5 1938.2 1531.8 Q1940.09 1534.09 1940.09 1537.4 Q1940.09 1542.42 1937.02 1545.11 Q1933.96 1547.79 1928.24 1547.79 Q1922.53 1547.79 1919.45 1545.11 Q1916.39 1542.42 1916.39 1537.4 Q1916.39 1534.09 1918.29 1531.8 Q1920.19 1529.5 1923.57 1528.72 M1921.85 1521.33 Q1921.85 1524.02 1923.52 1525.52 Q1925.21 1527.03 1928.24 1527.03 Q1931.25 1527.03 1932.94 1525.52 Q1934.66 1524.02 1934.66 1521.33 Q1934.66 1518.65 1932.94 1517.14 Q1931.25 1515.64 1928.24 1515.64 Q1925.21 1515.64 1923.52 1517.14 Q1921.85 1518.65 1921.85 1521.33 Z" fill="#000000" fill-rule="evenodd" fill-opacity="1" /><path clip-path="url(#clip170)" d="M2317.5 1543.18 L2325.13 1543.18 L2325.13 1516.82 L2316.82 1518.49 L2316.82 1514.23 L2325.09 1512.56 L2329.76 1512.56 L2329.76 1543.18 L2337.4 1543.18 L2337.4 1547.12 L2317.5 1547.12 L2317.5 1543.18 Z" fill="#000000" fill-rule="evenodd" fill-opacity="1" /><path clip-path="url(#clip170)" d="M2346.85 1541.24 L2351.73 1541.24 L2351.73 1547.12 L2346.85 1547.12 L2346.85 1541.24 Z" fill="#000000" fill-rule="evenodd" fill-opacity="1" /><path clip-path="url(#clip170)" d="M2371.92 1515.64 Q2368.31 1515.64 2366.48 1519.2 Q2364.67 1522.75 2364.67 1529.87 Q2364.67 1536.98 2366.48 1540.55 Q2368.31 1544.09 2371.92 1544.09 Q2375.55 1544.09 2377.36 1540.55 Q2379.19 1536.98 2379.19 1529.87 Q2379.19 1522.75 2377.36 1519.2 Q2375.55 1515.64 2371.92 1515.64 M2371.92 1511.93 Q2377.73 1511.93 2380.78 1516.54 Q2383.86 1521.12 2383.86 1529.87 Q2383.86 1538.6 2380.78 1543.21 Q2377.73 1547.79 2371.92 1547.79 Q2366.11 1547.79 2363.03 1543.21 Q2359.97 1538.6 2359.97 1529.87 Q2359.97 1521.12 2363.03 1516.54 Q2366.11 1511.93 2371.92 1511.93 Z" fill="#000000" fill-rule="evenodd" fill-opacity="1" /><polyline clip-path="url(#clip172)" style="stroke:#000000; stroke-linecap:butt; stroke-linejoin:round; stroke-width:2; stroke-opacity:0.1; fill:none" points="
  194.422,1459.68 2352.76,1459.68 
  "/>
<polyline clip-path="url(#clip172)" style="stroke:#000000; stroke-linecap:butt; stroke-linejoin:round; stroke-width:2; stroke-opacity:0.1; fill:none" points="
  194.422,1081.02 2352.76,1081.02 
  "/>
<polyline clip-path="url(#clip172)" style="stroke:#000000; stroke-linecap:butt; stroke-linejoin:round; stroke-width:2; stroke-opacity:0.1; fill:none" points="
  194.422,702.363 2352.76,702.363 
  "/>
<polyline clip-path="url(#clip172)" style="stroke:#000000; stroke-linecap:butt; stroke-linejoin:round; stroke-width:2; stroke-opacity:0.1; fill:none" points="
  194.422,323.705 2352.76,323.705 
  "/>
<polyline clip-path="url(#clip170)" style="stroke:#000000; stroke-linecap:butt; stroke-linejoin:round; stroke-width:4; stroke-opacity:1; fill:none" points="
  194.422,1486.45 194.422,47.2441 
  "/>
<polyline clip-path="url(#clip170)" style="stroke:#000000; stroke-linecap:butt; stroke-linejoin:round; stroke-width:4; stroke-opacity:1; fill:none" points="
  194.422,1459.68 220.322,1459.68 
  "/>
<polyline clip-path="url(#clip170)" style="stroke:#000000; stroke-linecap:butt; stroke-linejoin:round; stroke-width:4; stroke-opacity:1; fill:none" points="
  194.422,1081.02 220.322,1081.02 
  "/>
<polyline clip-path="url(#clip170)" style="stroke:#000000; stroke-linecap:butt; stroke-linejoin:round; stroke-width:4; stroke-opacity:1; fill:none" points="
  194.422,702.363 220.322,702.363 
  "/>
<polyline clip-path="url(#clip170)" style="stroke:#000000; stroke-linecap:butt; stroke-linejoin:round; stroke-width:4; stroke-opacity:1; fill:none" points="
  194.422,323.705 220.322,323.705 
  "/>
<path clip-path="url(#clip170)" d="M50.9921 1460.13 L80.6679 1460.13 L80.6679 1464.07 L50.9921 1464.07 L50.9921 1460.13 Z" fill="#000000" fill-rule="evenodd" fill-opacity="1" /><path clip-path="url(#clip170)" d="M100.76 1445.48 Q97.1493 1445.48 95.3206 1449.04 Q93.515 1452.58 93.515 1459.71 Q93.515 1466.82 95.3206 1470.38 Q97.1493 1473.93 100.76 1473.93 Q104.395 1473.93 106.2 1470.38 Q108.029 1466.82 108.029 1459.71 Q108.029 1452.58 106.2 1449.04 Q104.395 1445.48 100.76 1445.48 M100.76 1441.77 Q106.571 1441.77 109.626 1446.38 Q112.705 1450.96 112.705 1459.71 Q112.705 1468.44 109.626 1473.05 Q106.571 1477.63 100.76 1477.63 Q94.9502 1477.63 91.8715 1473.05 Q88.816 1468.44 88.816 1459.71 Q88.816 1450.96 91.8715 1446.38 Q94.9502 1441.77 100.76 1441.77 Z" fill="#000000" fill-rule="evenodd" fill-opacity="1" /><path clip-path="url(#clip170)" d="M120.922 1471.08 L125.807 1471.08 L125.807 1476.96 L120.922 1476.96 L120.922 1471.08 Z" fill="#000000" fill-rule="evenodd" fill-opacity="1" /><path clip-path="url(#clip170)" d="M148.839 1446.47 L137.033 1464.92 L148.839 1464.92 L148.839 1446.47 M147.612 1442.4 L153.492 1442.4 L153.492 1464.92 L158.422 1464.92 L158.422 1468.81 L153.492 1468.81 L153.492 1476.96 L148.839 1476.96 L148.839 1468.81 L133.237 1468.81 L133.237 1464.3 L147.612 1442.4 Z" fill="#000000" fill-rule="evenodd" fill-opacity="1" /><path clip-path="url(#clip170)" d="M53.0754 1081.47 L82.7512 1081.47 L82.7512 1085.41 L53.0754 1085.41 L53.0754 1081.47 Z" fill="#000000" fill-rule="evenodd" fill-opacity="1" /><path clip-path="url(#clip170)" d="M102.844 1066.82 Q99.2326 1066.82 97.4039 1070.38 Q95.5984 1073.93 95.5984 1081.06 Q95.5984 1088.16 97.4039 1091.73 Q99.2326 1095.27 102.844 1095.27 Q106.478 1095.27 108.283 1091.73 Q110.112 1088.16 110.112 1081.06 Q110.112 1073.93 108.283 1070.38 Q106.478 1066.82 102.844 1066.82 M102.844 1063.12 Q108.654 1063.12 111.709 1067.72 Q114.788 1072.31 114.788 1081.06 Q114.788 1089.78 111.709 1094.39 Q108.654 1098.97 102.844 1098.97 Q97.0335 1098.97 93.9549 1094.39 Q90.8993 1089.78 90.8993 1081.06 Q90.8993 1072.31 93.9549 1067.72 Q97.0335 1063.12 102.844 1063.12 Z" fill="#000000" fill-rule="evenodd" fill-opacity="1" /><path clip-path="url(#clip170)" d="M123.006 1092.42 L127.89 1092.42 L127.89 1098.3 L123.006 1098.3 L123.006 1092.42 Z" fill="#000000" fill-rule="evenodd" fill-opacity="1" /><path clip-path="url(#clip170)" d="M142.103 1094.37 L158.422 1094.37 L158.422 1098.3 L136.478 1098.3 L136.478 1094.37 Q139.14 1091.61 143.723 1086.98 Q148.33 1082.33 149.51 1080.99 Q151.755 1078.46 152.635 1076.73 Q153.538 1074.97 153.538 1073.28 Q153.538 1070.52 151.593 1068.79 Q149.672 1067.05 146.57 1067.05 Q144.371 1067.05 141.918 1067.81 Q139.487 1068.58 136.709 1070.13 L136.709 1065.41 Q139.533 1064.27 141.987 1063.69 Q144.441 1063.12 146.478 1063.12 Q151.848 1063.12 155.042 1065.8 Q158.237 1068.49 158.237 1072.98 Q158.237 1075.11 157.427 1077.03 Q156.64 1078.93 154.533 1081.52 Q153.955 1082.19 150.853 1085.41 Q147.751 1088.6 142.103 1094.37 Z" fill="#000000" fill-rule="evenodd" fill-opacity="1" /><path clip-path="url(#clip170)" d="M101.246 688.161 Q97.6354 688.161 95.8067 691.726 Q94.0012 695.268 94.0012 702.397 Q94.0012 709.504 95.8067 713.069 Q97.6354 716.61 101.246 716.61 Q104.881 716.61 106.686 713.069 Q108.515 709.504 108.515 702.397 Q108.515 695.268 106.686 691.726 Q104.881 688.161 101.246 688.161 M101.246 684.458 Q107.057 684.458 110.112 689.064 Q113.191 693.647 113.191 702.397 Q113.191 711.124 110.112 715.731 Q107.057 720.314 101.246 720.314 Q95.4363 720.314 92.3576 715.731 Q89.3021 711.124 89.3021 702.397 Q89.3021 693.647 92.3576 689.064 Q95.4363 684.458 101.246 684.458 Z" fill="#000000" fill-rule="evenodd" fill-opacity="1" /><path clip-path="url(#clip170)" d="M121.408 713.763 L126.293 713.763 L126.293 719.643 L121.408 719.643 L121.408 713.763 Z" fill="#000000" fill-rule="evenodd" fill-opacity="1" /><path clip-path="url(#clip170)" d="M146.478 688.161 Q142.867 688.161 141.038 691.726 Q139.232 695.268 139.232 702.397 Q139.232 709.504 141.038 713.069 Q142.867 716.61 146.478 716.61 Q150.112 716.61 151.918 713.069 Q153.746 709.504 153.746 702.397 Q153.746 695.268 151.918 691.726 Q150.112 688.161 146.478 688.161 M146.478 684.458 Q152.288 684.458 155.343 689.064 Q158.422 693.647 158.422 702.397 Q158.422 711.124 155.343 715.731 Q152.288 720.314 146.478 720.314 Q140.668 720.314 137.589 715.731 Q134.533 711.124 134.533 702.397 Q134.533 693.647 137.589 689.064 Q140.668 684.458 146.478 684.458 Z" fill="#000000" fill-rule="evenodd" fill-opacity="1" /><path clip-path="url(#clip170)" d="M102.844 309.503 Q99.2326 309.503 97.4039 313.068 Q95.5984 316.61 95.5984 323.739 Q95.5984 330.846 97.4039 334.411 Q99.2326 337.952 102.844 337.952 Q106.478 337.952 108.283 334.411 Q110.112 330.846 110.112 323.739 Q110.112 316.61 108.283 313.068 Q106.478 309.503 102.844 309.503 M102.844 305.8 Q108.654 305.8 111.709 310.406 Q114.788 314.989 114.788 323.739 Q114.788 332.466 111.709 337.073 Q108.654 341.656 102.844 341.656 Q97.0335 341.656 93.9549 337.073 Q90.8993 332.466 90.8993 323.739 Q90.8993 314.989 93.9549 310.406 Q97.0335 305.8 102.844 305.8 Z" fill="#000000" fill-rule="evenodd" fill-opacity="1" /><path clip-path="url(#clip170)" d="M123.006 335.105 L127.89 335.105 L127.89 340.985 L123.006 340.985 L123.006 335.105 Z" fill="#000000" fill-rule="evenodd" fill-opacity="1" /><path clip-path="url(#clip170)" d="M142.103 337.049 L158.422 337.049 L158.422 340.985 L136.478 340.985 L136.478 337.049 Q139.14 334.295 143.723 329.665 Q148.33 325.013 149.51 323.67 Q151.755 321.147 152.635 319.411 Q153.538 317.651 153.538 315.962 Q153.538 313.207 151.593 311.471 Q149.672 309.735 146.57 309.735 Q144.371 309.735 141.918 310.499 Q139.487 311.263 136.709 312.813 L136.709 308.091 Q139.533 306.957 141.987 306.378 Q144.441 305.8 146.478 305.8 Q151.848 305.8 155.042 308.485 Q158.237 311.17 158.237 315.661 Q158.237 317.79 157.427 319.712 Q156.64 321.61 154.533 324.202 Q153.955 324.874 150.853 328.091 Q147.751 331.286 142.103 337.049 Z" fill="#000000" fill-rule="evenodd" fill-opacity="1" /><polyline clip-path="url(#clip172)" style="stroke:#009af9; stroke-linecap:butt; stroke-linejoin:round; stroke-width:4; stroke-opacity:1; fill:none" points="
  255.507,812.166 486.389,738.263 695.914,595.464 887.431,508.707 1114.98,1070.57 1344.66,387.088 1555.61,1209.05 1787.55,459.874 2064.18,695.393 2291.67,652.411 
  
  "/>
<circle clip-path="url(#clip172)" cx="255.507" cy="812.166" r="14" fill="#009af9" fill-rule="evenodd" fill-opacity="1" stroke="#000000" stroke-opacity="1" stroke-width="3.2"/>
<circle clip-path="url(#clip172)" cx="486.389" cy="738.263" r="14" fill="#009af9" fill-rule="evenodd" fill-opacity="1" stroke="#000000" stroke-opacity="1" stroke-width="3.2"/>
<circle clip-path="url(#clip172)" cx="695.914" cy="595.464" r="14" fill="#009af9" fill-rule="evenodd" fill-opacity="1" stroke="#000000" stroke-opacity="1" stroke-width="3.2"/>
<circle clip-path="url(#clip172)" cx="887.431" cy="508.707" r="14" fill="#009af9" fill-rule="evenodd" fill-opacity="1" stroke="#000000" stroke-opacity="1" stroke-width="3.2"/>
<circle clip-path="url(#clip172)" cx="1114.98" cy="1070.57" r="14" fill="#009af9" fill-rule="evenodd" fill-opacity="1" stroke="#000000" stroke-opacity="1" stroke-width="3.2"/>
<circle clip-path="url(#clip172)" cx="1344.66" cy="387.088" r="14" fill="#009af9" fill-rule="evenodd" fill-opacity="1" stroke="#000000" stroke-opacity="1" stroke-width="3.2"/>
<circle clip-path="url(#clip172)" cx="1555.61" cy="1209.05" r="14" fill="#009af9" fill-rule="evenodd" fill-opacity="1" stroke="#000000" stroke-opacity="1" stroke-width="3.2"/>
<circle clip-path="url(#clip172)" cx="1787.55" cy="459.874" r="14" fill="#009af9" fill-rule="evenodd" fill-opacity="1" stroke="#000000" stroke-opacity="1" stroke-width="3.2"/>
<circle clip-path="url(#clip172)" cx="2064.18" cy="695.393" r="14" fill="#009af9" fill-rule="evenodd" fill-opacity="1" stroke="#000000" stroke-opacity="1" stroke-width="3.2"/>
<circle clip-path="url(#clip172)" cx="2291.67" cy="652.411" r="14" fill="#009af9" fill-rule="evenodd" fill-opacity="1" stroke="#000000" stroke-opacity="1" stroke-width="3.2"/>
<polyline clip-path="url(#clip172)" style="stroke:#000000; stroke-linecap:butt; stroke-linejoin:round; stroke-width:4; stroke-opacity:1; fill:none" points="
  255.507,812.166 255.507,391.435 
  "/>
<polyline clip-path="url(#clip172)" style="stroke:#000000; stroke-linecap:butt; stroke-linejoin:round; stroke-width:4; stroke-opacity:1; fill:none" points="
  486.389,1008.73 486.389,197.323 
  "/>
<polyline clip-path="url(#clip172)" style="stroke:#000000; stroke-linecap:butt; stroke-linejoin:round; stroke-width:4; stroke-opacity:1; fill:none" points="
  695.914,1068.79 695.914,240.472 
  "/>
<polyline clip-path="url(#clip172)" style="stroke:#000000; stroke-linecap:butt; stroke-linejoin:round; stroke-width:4; stroke-opacity:1; fill:none" points="
  887.431,1139.8 887.431,87.9763 
  "/>
<polyline clip-path="url(#clip172)" style="stroke:#000000; stroke-linecap:butt; stroke-linejoin:round; stroke-width:4; stroke-opacity:1; fill:none" points="
  1114.98,1228.35 1114.98,123.929 
  "/>
<polyline clip-path="url(#clip172)" style="stroke:#000000; stroke-linecap:butt; stroke-linejoin:round; stroke-width:4; stroke-opacity:1; fill:none" points="
  1344.66,1198.5 1344.66,251.853 
  "/>
<polyline clip-path="url(#clip172)" style="stroke:#000000; stroke-linecap:butt; stroke-linejoin:round; stroke-width:4; stroke-opacity:1; fill:none" points="
  1555.61,1445.72 1555.61,262.409 
  "/>
<polyline clip-path="url(#clip172)" style="stroke:#000000; stroke-linecap:butt; stroke-linejoin:round; stroke-width:4; stroke-opacity:1; fill:none" points="
  1787.55,1406.52 1787.55,223.212 
  "/>
<polyline clip-path="url(#clip172)" style="stroke:#000000; stroke-linecap:butt; stroke-linejoin:round; stroke-width:4; stroke-opacity:1; fill:none" points="
  2064.18,1168.72 2064.18,458.732 
  "/>
<polyline clip-path="url(#clip172)" style="stroke:#000000; stroke-linecap:butt; stroke-linejoin:round; stroke-width:4; stroke-opacity:1; fill:none" points="
  2291.67,862.776 2291.67,652.411 
  "/>
<line clip-path="url(#clip172)" x1="271.507" y1="812.166" x2="239.507" y2="812.166" style="stroke:#000000; stroke-width:3.2; stroke-opacity:1"/>
<line clip-path="url(#clip172)" x1="271.507" y1="391.435" x2="239.507" y2="391.435" style="stroke:#000000; stroke-width:3.2; stroke-opacity:1"/>
<line clip-path="url(#clip172)" x1="502.389" y1="1008.73" x2="470.389" y2="1008.73" style="stroke:#000000; stroke-width:3.2; stroke-opacity:1"/>
<line clip-path="url(#clip172)" x1="502.389" y1="197.323" x2="470.389" y2="197.323" style="stroke:#000000; stroke-width:3.2; stroke-opacity:1"/>
<line clip-path="url(#clip172)" x1="711.914" y1="1068.79" x2="679.914" y2="1068.79" style="stroke:#000000; stroke-width:3.2; stroke-opacity:1"/>
<line clip-path="url(#clip172)" x1="711.914" y1="240.472" x2="679.914" y2="240.472" style="stroke:#000000; stroke-width:3.2; stroke-opacity:1"/>
<line clip-path="url(#clip172)" x1="903.431" y1="1139.8" x2="871.431" y2="1139.8" style="stroke:#000000; stroke-width:3.2; stroke-opacity:1"/>
<line clip-path="url(#clip172)" x1="903.431" y1="87.9763" x2="871.431" y2="87.9763" style="stroke:#000000; stroke-width:3.2; stroke-opacity:1"/>
<line clip-path="url(#clip172)" x1="1130.98" y1="1228.35" x2="1098.98" y2="1228.35" style="stroke:#000000; stroke-width:3.2; stroke-opacity:1"/>
<line clip-path="url(#clip172)" x1="1130.98" y1="123.929" x2="1098.98" y2="123.929" style="stroke:#000000; stroke-width:3.2; stroke-opacity:1"/>
<line clip-path="url(#clip172)" x1="1360.66" y1="1198.5" x2="1328.66" y2="1198.5" style="stroke:#000000; stroke-width:3.2; stroke-opacity:1"/>
<line clip-path="url(#clip172)" x1="1360.66" y1="251.853" x2="1328.66" y2="251.853" style="stroke:#000000; stroke-width:3.2; stroke-opacity:1"/>
<line clip-path="url(#clip172)" x1="1571.61" y1="1445.72" x2="1539.61" y2="1445.72" style="stroke:#000000; stroke-width:3.2; stroke-opacity:1"/>
<line clip-path="url(#clip172)" x1="1571.61" y1="262.409" x2="1539.61" y2="262.409" style="stroke:#000000; stroke-width:3.2; stroke-opacity:1"/>
<line clip-path="url(#clip172)" x1="1803.55" y1="1406.52" x2="1771.55" y2="1406.52" style="stroke:#000000; stroke-width:3.2; stroke-opacity:1"/>
<line clip-path="url(#clip172)" x1="1803.55" y1="223.212" x2="1771.55" y2="223.212" style="stroke:#000000; stroke-width:3.2; stroke-opacity:1"/>
<line clip-path="url(#clip172)" x1="2080.18" y1="1168.72" x2="2048.18" y2="1168.72" style="stroke:#000000; stroke-width:3.2; stroke-opacity:1"/>
<line clip-path="url(#clip172)" x1="2080.18" y1="458.732" x2="2048.18" y2="458.732" style="stroke:#000000; stroke-width:3.2; stroke-opacity:1"/>
<line clip-path="url(#clip172)" x1="2307.67" y1="862.776" x2="2275.67" y2="862.776" style="stroke:#000000; stroke-width:3.2; stroke-opacity:1"/>
<line clip-path="url(#clip172)" x1="2307.67" y1="652.411" x2="2275.67" y2="652.411" style="stroke:#000000; stroke-width:3.2; stroke-opacity:1"/>
<path clip-path="url(#clip170)" d="
M1988.57 216.178 L2280.81 216.178 L2280.81 95.2176 L1988.57 95.2176  Z
  " fill="#ffffff" fill-rule="evenodd" fill-opacity="1"/>
<polyline clip-path="url(#clip170)" style="stroke:#000000; stroke-linecap:butt; stroke-linejoin:round; stroke-width:4; stroke-opacity:1; fill:none" points="
  1988.57,216.178 2280.81,216.178 2280.81,95.2176 1988.57,95.2176 1988.57,216.178 
  "/>
<polyline clip-path="url(#clip170)" style="stroke:#009af9; stroke-linecap:butt; stroke-linejoin:round; stroke-width:4; stroke-opacity:1; fill:none" points="
  2012.55,155.698 2156.44,155.698 
  "/>
<circle clip-path="url(#clip170)" cx="2084.49" cy="155.698" r="23" fill="#009af9" fill-rule="evenodd" fill-opacity="1" stroke="#000000" stroke-opacity="1" stroke-width="5.12"/>
<path clip-path="url(#clip170)" d="M2194.26 175.385 Q2192.46 180.015 2190.74 181.427 Q2189.03 182.839 2186.16 182.839 L2182.76 182.839 L2182.76 179.274 L2185.26 179.274 Q2187.02 179.274 2187.99 178.44 Q2188.96 177.607 2190.14 174.505 L2190.9 172.561 L2180.42 147.052 L2184.93 147.052 L2193.03 167.329 L2201.14 147.052 L2205.65 147.052 L2194.26 175.385 Z" fill="#000000" fill-rule="evenodd" fill-opacity="1" /><path clip-path="url(#clip170)" d="M2212.94 169.042 L2220.58 169.042 L2220.58 142.677 L2212.27 144.343 L2212.27 140.084 L2220.53 138.418 L2225.21 138.418 L2225.21 169.042 L2232.85 169.042 L2232.85 172.978 L2212.94 172.978 L2212.94 169.042 Z" fill="#000000" fill-rule="evenodd" fill-opacity="1" /></svg>
