<?xml version="1.0" encoding="utf-8"?>
<svg xmlns="http://www.w3.org/2000/svg" xmlns:xlink="http://www.w3.org/1999/xlink" width="600" height="400" viewBox="0 0 2400 1600">
<defs>
  <clipPath id="clip800">
    <rect x="0" y="0" width="2400" height="1600"/>
  </clipPath>
</defs>
<path clip-path="url(#clip800)" d="M0 1600 L2400 1600 L2400 0 L0 0  Z" fill="#ffffff" fill-rule="evenodd" fill-opacity="1"/>
<defs>
  <clipPath id="clip801">
    <rect x="480" y="0" width="1681" height="1600"/>
  </clipPath>
</defs>
<path clip-path="url(#clip800)" d="M256.556 1423.18 L2352.76 1423.18 L2352.76 47.2441 L256.556 47.2441  Z" fill="#ffffff" fill-rule="evenodd" fill-opacity="1"/>
<defs>
  <clipPath id="clip802">
    <rect x="256" y="47" width="2097" height="1377"/>
  </clipPath>
</defs>
<polyline clip-path="url(#clip802)" style="stroke:#000000; stroke-linecap:round; stroke-linejoin:round; stroke-width:2; stroke-opacity:0.1; fill:none" points="636.704,1423.18 636.704,47.2441 "/>
<polyline clip-path="url(#clip802)" style="stroke:#000000; stroke-linecap:round; stroke-linejoin:round; stroke-width:2; stroke-opacity:0.1; fill:none" points="1083.57,1423.18 1083.57,47.2441 "/>
<polyline clip-path="url(#clip802)" style="stroke:#000000; stroke-linecap:round; stroke-linejoin:round; stroke-width:2; stroke-opacity:0.1; fill:none" points="1530.43,1423.18 1530.43,47.2441 "/>
<polyline clip-path="url(#clip802)" style="stroke:#000000; stroke-linecap:round; stroke-linejoin:round; stroke-width:2; stroke-opacity:0.1; fill:none" points="1977.29,1423.18 1977.29,47.2441 "/>
<polyline clip-path="url(#clip800)" style="stroke:#000000; stroke-linecap:round; stroke-linejoin:round; stroke-width:4; stroke-opacity:1; fill:none" points="256.556,1423.18 2352.76,1423.18 "/>
<polyline clip-path="url(#clip800)" style="stroke:#000000; stroke-linecap:round; stroke-linejoin:round; stroke-width:4; stroke-opacity:1; fill:none" points="636.704,1423.18 636.704,1404.28 "/>
<polyline clip-path="url(#clip800)" style="stroke:#000000; stroke-linecap:round; stroke-linejoin:round; stroke-width:4; stroke-opacity:1; fill:none" points="1083.57,1423.18 1083.57,1404.28 "/>
<polyline clip-path="url(#clip800)" style="stroke:#000000; stroke-linecap:round; stroke-linejoin:round; stroke-width:4; stroke-opacity:1; fill:none" points="1530.43,1423.18 1530.43,1404.28 "/>
<polyline clip-path="url(#clip800)" style="stroke:#000000; stroke-linecap:round; stroke-linejoin:round; stroke-width:4; stroke-opacity:1; fill:none" points="1977.29,1423.18 1977.29,1404.28 "/>
<path clip-path="url(#clip800)" d="M614.887 1454.1 Q611.276 1454.1 609.448 1457.66 Q607.642 1461.2 607.642 1468.33 Q607.642 1475.44 609.448 1479.01 Q611.276 1482.55 614.887 1482.55 Q618.522 1482.55 620.327 1479.01 Q622.156 1475.44 622.156 1468.33 Q622.156 1461.2 620.327 1457.66 Q618.522 1454.1 614.887 1454.1 M614.887 1450.39 Q620.698 1450.39 623.753 1455 Q626.832 1459.58 626.832 1468.33 Q626.832 1477.06 623.753 1481.67 Q620.698 1486.25 614.887 1486.25 Q609.077 1486.25 605.999 1481.67 Q602.943 1477.06 602.943 1468.33 Q602.943 1459.58 605.999 1455 Q609.077 1450.39 614.887 1450.39 Z" fill="#000000" fill-rule="nonzero" fill-opacity="1" /><path clip-path="url(#clip800)" d="M635.049 1479.7 L639.934 1479.7 L639.934 1485.58 L635.049 1485.58 L635.049 1479.7 Z" fill="#000000" fill-rule="nonzero" fill-opacity="1" /><path clip-path="url(#clip800)" d="M654.146 1481.64 L670.466 1481.64 L670.466 1485.58 L648.521 1485.58 L648.521 1481.64 Q651.183 1478.89 655.767 1474.26 Q660.373 1469.61 661.554 1468.27 Q663.799 1465.74 664.679 1464.01 Q665.582 1462.25 665.582 1460.56 Q665.582 1457.8 663.637 1456.07 Q661.716 1454.33 658.614 1454.33 Q656.415 1454.33 653.961 1455.09 Q651.531 1455.86 648.753 1457.41 L648.753 1452.69 Q651.577 1451.55 654.031 1450.97 Q656.484 1450.39 658.521 1450.39 Q663.892 1450.39 667.086 1453.08 Q670.281 1455.77 670.281 1460.26 Q670.281 1462.39 669.47 1464.31 Q668.683 1466.2 666.577 1468.8 Q665.998 1469.47 662.896 1472.69 Q659.795 1475.88 654.146 1481.64 Z" fill="#000000" fill-rule="nonzero" fill-opacity="1" /><path clip-path="url(#clip800)" d="M1060.71 1454.1 Q1057.1 1454.1 1055.27 1457.66 Q1053.46 1461.2 1053.46 1468.33 Q1053.46 1475.44 1055.27 1479.01 Q1057.1 1482.55 1060.71 1482.55 Q1064.34 1482.55 1066.15 1479.01 Q1067.98 1475.44 1067.98 1468.33 Q1067.98 1461.2 1066.15 1457.66 Q1064.34 1454.1 1060.71 1454.1 M1060.71 1450.39 Q1066.52 1450.39 1069.57 1455 Q1072.65 1459.58 1072.65 1468.33 Q1072.65 1477.06 1069.57 1481.67 Q1066.52 1486.25 1060.71 1486.25 Q1054.9 1486.25 1051.82 1481.67 Q1048.76 1477.06 1048.76 1468.33 Q1048.76 1459.58 1051.82 1455 Q1054.9 1450.39 1060.71 1450.39 Z" fill="#000000" fill-rule="nonzero" fill-opacity="1" /><path clip-path="url(#clip800)" d="M1080.87 1479.7 L1085.75 1479.7 L1085.75 1485.58 L1080.87 1485.58 L1080.87 1479.7 Z" fill="#000000" fill-rule="nonzero" fill-opacity="1" /><path clip-path="url(#clip800)" d="M1108.79 1455.09 L1096.98 1473.54 L1108.79 1473.54 L1108.79 1455.09 M1107.56 1451.02 L1113.44 1451.02 L1113.44 1473.54 L1118.37 1473.54 L1118.37 1477.43 L1113.44 1477.43 L1113.44 1485.58 L1108.79 1485.58 L1108.79 1477.43 L1093.18 1477.43 L1093.18 1472.92 L1107.56 1451.02 Z" fill="#000000" fill-rule="nonzero" fill-opacity="1" /><path clip-path="url(#clip800)" d="M1507.73 1454.1 Q1504.12 1454.1 1502.29 1457.66 Q1500.49 1461.2 1500.49 1468.33 Q1500.49 1475.44 1502.29 1479.01 Q1504.12 1482.55 1507.73 1482.55 Q1511.36 1482.55 1513.17 1479.01 Q1515 1475.44 1515 1468.33 Q1515 1461.2 1513.17 1457.66 Q1511.36 1454.1 1507.73 1454.1 M1507.73 1450.39 Q1513.54 1450.39 1516.6 1455 Q1519.67 1459.58 1519.67 1468.33 Q1519.67 1477.06 1516.6 1481.67 Q1513.54 1486.25 1507.73 1486.25 Q1501.92 1486.25 1498.84 1481.67 Q1495.79 1477.06 1495.79 1468.33 Q1495.79 1459.58 1498.84 1455 Q1501.92 1450.39 1507.73 1450.39 Z" fill="#000000" fill-rule="nonzero" fill-opacity="1" /><path clip-path="url(#clip800)" d="M1527.89 1479.7 L1532.78 1479.7 L1532.78 1485.58 L1527.89 1485.58 L1527.89 1479.7 Z" fill="#000000" fill-rule="nonzero" fill-opacity="1" /><path clip-path="url(#clip800)" d="M1553.54 1466.44 Q1550.39 1466.44 1548.54 1468.59 Q1546.71 1470.74 1546.71 1474.49 Q1546.71 1478.22 1548.54 1480.39 Q1550.39 1482.55 1553.54 1482.55 Q1556.69 1482.55 1558.52 1480.39 Q1560.37 1478.22 1560.37 1474.49 Q1560.37 1470.74 1558.52 1468.59 Q1556.69 1466.44 1553.54 1466.44 M1562.82 1451.78 L1562.82 1456.04 Q1561.06 1455.21 1559.26 1454.77 Q1557.48 1454.33 1555.72 1454.33 Q1551.09 1454.33 1548.63 1457.45 Q1546.2 1460.58 1545.86 1466.9 Q1547.22 1464.89 1549.28 1463.82 Q1551.34 1462.73 1553.82 1462.73 Q1559.03 1462.73 1562.04 1465.9 Q1565.07 1469.05 1565.07 1474.49 Q1565.07 1479.82 1561.92 1483.03 Q1558.77 1486.25 1553.54 1486.25 Q1547.55 1486.25 1544.37 1481.67 Q1541.2 1477.06 1541.2 1468.33 Q1541.2 1460.14 1545.09 1455.28 Q1548.98 1450.39 1555.53 1450.39 Q1557.29 1450.39 1559.07 1450.74 Q1560.88 1451.09 1562.82 1451.78 Z" fill="#000000" fill-rule="nonzero" fill-opacity="1" /><path clip-path="url(#clip800)" d="M1954.72 1454.1 Q1951.11 1454.1 1949.28 1457.66 Q1947.47 1461.2 1947.47 1468.33 Q1947.47 1475.44 1949.28 1479.01 Q1951.11 1482.55 1954.72 1482.55 Q1958.35 1482.55 1960.16 1479.01 Q1961.99 1475.44 1961.99 1468.33 Q1961.99 1461.2 1960.16 1457.66 Q1958.35 1454.1 1954.72 1454.1 M1954.72 1450.39 Q1960.53 1450.39 1963.58 1455 Q1966.66 1459.58 1966.66 1468.33 Q1966.66 1477.06 1963.58 1481.67 Q1960.53 1486.25 1954.72 1486.25 Q1948.91 1486.25 1945.83 1481.67 Q1942.77 1477.06 1942.77 1468.33 Q1942.77 1459.58 1945.83 1455 Q1948.91 1450.39 1954.72 1450.39 Z" fill="#000000" fill-rule="nonzero" fill-opacity="1" /><path clip-path="url(#clip800)" d="M1974.88 1479.7 L1979.77 1479.7 L1979.77 1485.58 L1974.88 1485.58 L1974.88 1479.7 Z" fill="#000000" fill-rule="nonzero" fill-opacity="1" /><path clip-path="url(#clip800)" d="M1999.95 1469.17 Q1996.62 1469.17 1994.7 1470.95 Q1992.8 1472.73 1992.8 1475.86 Q1992.8 1478.98 1994.7 1480.77 Q1996.62 1482.55 1999.95 1482.55 Q2003.28 1482.55 2005.2 1480.77 Q2007.13 1478.96 2007.13 1475.86 Q2007.13 1472.73 2005.2 1470.95 Q2003.31 1469.17 1999.95 1469.17 M1995.27 1467.18 Q1992.27 1466.44 1990.58 1464.38 Q1988.91 1462.32 1988.91 1459.35 Q1988.91 1455.21 1991.85 1452.8 Q1994.81 1450.39 1999.95 1450.39 Q2005.11 1450.39 2008.05 1452.8 Q2010.99 1455.21 2010.99 1459.35 Q2010.99 1462.32 2009.3 1464.38 Q2007.64 1466.44 2004.65 1467.18 Q2008.03 1467.96 2009.9 1470.26 Q2011.8 1472.55 2011.8 1475.86 Q2011.8 1480.88 2008.72 1483.57 Q2005.67 1486.25 1999.95 1486.25 Q1994.23 1486.25 1991.15 1483.57 Q1988.1 1480.88 1988.1 1475.86 Q1988.1 1472.55 1990 1470.26 Q1991.89 1467.96 1995.27 1467.18 M1993.56 1459.79 Q1993.56 1462.48 1995.23 1463.98 Q1996.92 1465.49 1999.95 1465.49 Q2002.96 1465.49 2004.65 1463.98 Q2006.36 1462.48 2006.36 1459.79 Q2006.36 1457.11 2004.65 1455.6 Q2002.96 1454.1 1999.95 1454.1 Q1996.92 1454.1 1995.23 1455.6 Q1993.56 1457.11 1993.56 1459.79 Z" fill="#000000" fill-rule="nonzero" fill-opacity="1" /><path clip-path="url(#clip800)" d="M1157.97 1533.76 L1157.97 1539.24 Q1155.49 1537.87 1152.98 1537.2 Q1150.49 1536.5 1147.95 1536.5 Q1142.25 1536.5 1139.1 1540.13 Q1135.95 1543.73 1135.95 1550.25 Q1135.95 1556.78 1139.1 1560.4 Q1142.25 1564 1147.95 1564 Q1150.49 1564 1152.98 1563.33 Q1155.49 1562.63 1157.97 1561.26 L1157.97 1566.68 Q1155.52 1567.82 1152.88 1568.39 Q1150.27 1568.97 1147.31 1568.97 Q1139.26 1568.97 1134.52 1563.91 Q1129.77 1558.85 1129.77 1550.25 Q1129.77 1541.53 1134.55 1536.53 Q1139.35 1531.54 1147.69 1531.54 Q1150.4 1531.54 1152.98 1532.11 Q1155.56 1532.65 1157.97 1533.76 Z" fill="#000000" fill-rule="nonzero" fill-opacity="1" /><path clip-path="url(#clip800)" d="M1181.97 1536.5 Q1177.26 1536.5 1174.52 1540.19 Q1171.79 1543.85 1171.79 1550.25 Q1171.79 1556.65 1174.49 1560.34 Q1177.23 1564 1181.97 1564 Q1186.65 1564 1189.39 1560.31 Q1192.13 1556.62 1192.13 1550.25 Q1192.13 1543.92 1189.39 1540.23 Q1186.65 1536.5 1181.97 1536.5 M1181.97 1531.54 Q1189.61 1531.54 1193.97 1536.5 Q1198.33 1541.47 1198.33 1550.25 Q1198.33 1559 1193.97 1564 Q1189.61 1568.97 1181.97 1568.97 Q1174.3 1568.97 1169.94 1564 Q1165.61 1559 1165.61 1550.25 Q1165.61 1541.47 1169.94 1536.5 Q1174.3 1531.54 1181.97 1531.54 Z" fill="#000000" fill-rule="nonzero" fill-opacity="1" /><path clip-path="url(#clip800)" d="M1237.67 1546.53 L1237.67 1568.04 L1231.82 1568.04 L1231.82 1546.72 Q1231.82 1541.66 1229.84 1539.14 Q1227.87 1536.63 1223.92 1536.63 Q1219.18 1536.63 1216.44 1539.65 Q1213.71 1542.68 1213.71 1547.9 L1213.71 1568.04 L1207.82 1568.04 L1207.82 1532.4 L1213.71 1532.4 L1213.71 1537.93 Q1215.81 1534.72 1218.64 1533.13 Q1221.5 1531.54 1225.23 1531.54 Q1231.37 1531.54 1234.52 1535.36 Q1237.67 1539.14 1237.67 1546.53 Z" fill="#000000" fill-rule="nonzero" fill-opacity="1" /><path clip-path="url(#clip800)" d="M1267.4 1518.52 L1267.4 1523.39 L1261.8 1523.39 Q1258.65 1523.39 1257.41 1524.66 Q1256.2 1525.93 1256.2 1529.24 L1256.2 1532.4 L1265.84 1532.4 L1265.84 1536.95 L1256.2 1536.95 L1256.2 1568.04 L1250.31 1568.04 L1250.31 1536.95 L1244.71 1536.95 L1244.71 1532.4 L1250.31 1532.4 L1250.31 1529.91 Q1250.31 1523.96 1253.08 1521.26 Q1255.85 1518.52 1261.86 1518.52 L1267.4 1518.52 Z" fill="#000000" fill-rule="nonzero" fill-opacity="1" /><path clip-path="url(#clip800)" d="M1272.3 1532.4 L1278.16 1532.4 L1278.16 1568.04 L1272.3 1568.04 L1272.3 1532.4 M1272.3 1518.52 L1278.16 1518.52 L1278.16 1525.93 L1272.3 1525.93 L1272.3 1518.52 Z" fill="#000000" fill-rule="nonzero" fill-opacity="1" /><path clip-path="url(#clip800)" d="M1313.87 1537.81 L1313.87 1518.52 L1319.73 1518.52 L1319.73 1568.04 L1313.87 1568.04 L1313.87 1562.7 Q1312.02 1565.88 1309.19 1567.44 Q1306.39 1568.97 1302.44 1568.97 Q1295.98 1568.97 1291.91 1563.81 Q1287.87 1558.65 1287.87 1550.25 Q1287.87 1541.85 1291.91 1536.69 Q1295.98 1531.54 1302.44 1531.54 Q1306.39 1531.54 1309.19 1533.1 Q1312.02 1534.62 1313.87 1537.81 M1293.91 1550.25 Q1293.91 1556.71 1296.56 1560.4 Q1299.23 1564.07 1303.88 1564.07 Q1308.52 1564.07 1311.2 1560.4 Q1313.87 1556.71 1313.87 1550.25 Q1313.87 1543.79 1311.2 1540.13 Q1308.52 1536.44 1303.88 1536.44 Q1299.23 1536.44 1296.56 1540.13 Q1293.91 1543.79 1293.91 1550.25 Z" fill="#000000" fill-rule="nonzero" fill-opacity="1" /><path clip-path="url(#clip800)" d="M1362.28 1548.76 L1362.28 1551.62 L1335.35 1551.62 Q1335.74 1557.67 1338.98 1560.85 Q1342.26 1564 1348.09 1564 Q1351.46 1564 1354.61 1563.17 Q1357.79 1562.35 1360.91 1560.69 L1360.91 1566.23 Q1357.76 1567.57 1354.45 1568.27 Q1351.14 1568.97 1347.74 1568.97 Q1339.21 1568.97 1334.21 1564 Q1329.24 1559.04 1329.24 1550.57 Q1329.24 1541.82 1333.95 1536.69 Q1338.7 1531.54 1346.72 1531.54 Q1353.91 1531.54 1358.08 1536.18 Q1362.28 1540.8 1362.28 1548.76 M1356.43 1547.04 Q1356.36 1542.23 1353.72 1539.37 Q1351.11 1536.5 1346.78 1536.5 Q1341.88 1536.5 1338.92 1539.27 Q1335.99 1542.04 1335.55 1547.07 L1356.43 1547.04 Z" fill="#000000" fill-rule="nonzero" fill-opacity="1" /><path clip-path="url(#clip800)" d="M1401.53 1546.53 L1401.53 1568.04 L1395.67 1568.04 L1395.67 1546.72 Q1395.67 1541.66 1393.7 1539.14 Q1391.72 1536.63 1387.78 1536.63 Q1383.03 1536.63 1380.3 1539.65 Q1377.56 1542.68 1377.56 1547.9 L1377.56 1568.04 L1371.67 1568.04 L1371.67 1532.4 L1377.56 1532.4 L1377.56 1537.93 Q1379.66 1534.72 1382.49 1533.13 Q1385.36 1531.54 1389.08 1531.54 Q1395.22 1531.54 1398.38 1535.36 Q1401.53 1539.14 1401.53 1546.53 Z" fill="#000000" fill-rule="nonzero" fill-opacity="1" /><path clip-path="url(#clip800)" d="M1438.86 1533.76 L1438.86 1539.24 Q1436.38 1537.87 1433.86 1537.2 Q1431.38 1536.5 1428.83 1536.5 Q1423.14 1536.5 1419.99 1540.13 Q1416.84 1543.73 1416.84 1550.25 Q1416.84 1556.78 1419.99 1560.4 Q1423.14 1564 1428.83 1564 Q1431.38 1564 1433.86 1563.33 Q1436.38 1562.63 1438.86 1561.26 L1438.86 1566.68 Q1436.41 1567.82 1433.77 1568.39 Q1431.16 1568.97 1428.2 1568.97 Q1420.15 1568.97 1415.4 1563.91 Q1410.66 1558.85 1410.66 1550.25 Q1410.66 1541.53 1415.44 1536.53 Q1420.24 1531.54 1428.58 1531.54 Q1431.29 1531.54 1433.86 1532.11 Q1436.44 1532.65 1438.86 1533.76 Z" fill="#000000" fill-rule="nonzero" fill-opacity="1" /><path clip-path="url(#clip800)" d="M1479.54 1548.76 L1479.54 1551.62 L1452.61 1551.62 Q1452.99 1557.67 1456.24 1560.85 Q1459.52 1564 1465.34 1564 Q1468.72 1564 1471.87 1563.17 Q1475.05 1562.35 1478.17 1560.69 L1478.17 1566.23 Q1475.02 1567.57 1471.71 1568.27 Q1468.4 1568.97 1464.99 1568.97 Q1456.46 1568.97 1451.47 1564 Q1446.5 1559.04 1446.5 1550.57 Q1446.5 1541.82 1451.21 1536.69 Q1455.95 1531.54 1463.97 1531.54 Q1471.17 1531.54 1475.34 1536.18 Q1479.54 1540.8 1479.54 1548.76 M1473.68 1547.04 Q1473.62 1542.23 1470.98 1539.37 Q1468.37 1536.5 1464.04 1536.5 Q1459.14 1536.5 1456.18 1539.27 Q1453.25 1542.04 1452.8 1547.07 L1473.68 1547.04 Z" fill="#000000" fill-rule="nonzero" fill-opacity="1" /><polyline clip-path="url(#clip802)" style="stroke:#000000; stroke-linecap:round; stroke-linejoin:round; stroke-width:2; stroke-opacity:0.1; fill:none" points="256.556,1274.53 2352.76,1274.53 "/>
<polyline clip-path="url(#clip802)" style="stroke:#000000; stroke-linecap:round; stroke-linejoin:round; stroke-width:2; stroke-opacity:0.1; fill:none" points="256.556,963.961 2352.76,963.961 "/>
<polyline clip-path="url(#clip802)" style="stroke:#000000; stroke-linecap:round; stroke-linejoin:round; stroke-width:2; stroke-opacity:0.1; fill:none" points="256.556,653.392 2352.76,653.392 "/>
<polyline clip-path="url(#clip802)" style="stroke:#000000; stroke-linecap:round; stroke-linejoin:round; stroke-width:2; stroke-opacity:0.1; fill:none" points="256.556,342.824 2352.76,342.824 "/>
<polyline clip-path="url(#clip800)" style="stroke:#000000; stroke-linecap:round; stroke-linejoin:round; stroke-width:4; stroke-opacity:1; fill:none" points="256.556,1423.18 256.556,47.2441 "/>
<polyline clip-path="url(#clip800)" style="stroke:#000000; stroke-linecap:round; stroke-linejoin:round; stroke-width:4; stroke-opacity:1; fill:none" points="256.556,1274.53 275.454,1274.53 "/>
<polyline clip-path="url(#clip800)" style="stroke:#000000; stroke-linecap:round; stroke-linejoin:round; stroke-width:4; stroke-opacity:1; fill:none" points="256.556,963.961 275.454,963.961 "/>
<polyline clip-path="url(#clip800)" style="stroke:#000000; stroke-linecap:round; stroke-linejoin:round; stroke-width:4; stroke-opacity:1; fill:none" points="256.556,653.392 275.454,653.392 "/>
<polyline clip-path="url(#clip800)" style="stroke:#000000; stroke-linecap:round; stroke-linejoin:round; stroke-width:4; stroke-opacity:1; fill:none" points="256.556,342.824 275.454,342.824 "/>
<path clip-path="url(#clip800)" d="M114.26 1274.98 L143.936 1274.98 L143.936 1278.92 L114.26 1278.92 L114.26 1274.98 Z" fill="#000000" fill-rule="nonzero" fill-opacity="1" /><path clip-path="url(#clip800)" d="M164.028 1260.33 Q160.417 1260.33 158.589 1263.89 Q156.783 1267.44 156.783 1274.56 Q156.783 1281.67 158.589 1285.24 Q160.417 1288.78 164.028 1288.78 Q167.663 1288.78 169.468 1285.24 Q171.297 1281.67 171.297 1274.56 Q171.297 1267.44 169.468 1263.89 Q167.663 1260.33 164.028 1260.33 M164.028 1256.63 Q169.839 1256.63 172.894 1261.23 Q175.973 1265.81 175.973 1274.56 Q175.973 1283.29 172.894 1287.9 Q169.839 1292.48 164.028 1292.48 Q158.218 1292.48 155.14 1287.9 Q152.084 1283.29 152.084 1274.56 Q152.084 1265.81 155.14 1261.23 Q158.218 1256.63 164.028 1256.63 Z" fill="#000000" fill-rule="nonzero" fill-opacity="1" /><path clip-path="url(#clip800)" d="M184.19 1285.93 L189.075 1285.93 L189.075 1291.81 L184.19 1291.81 L184.19 1285.93 Z" fill="#000000" fill-rule="nonzero" fill-opacity="1" /><path clip-path="url(#clip800)" d="M213.426 1273.18 Q216.783 1273.89 218.658 1276.16 Q220.556 1278.43 220.556 1281.76 Q220.556 1286.88 217.037 1289.68 Q213.519 1292.48 207.037 1292.48 Q204.862 1292.48 202.547 1292.04 Q200.255 1291.62 197.801 1290.77 L197.801 1286.25 Q199.746 1287.39 202.061 1287.97 Q204.375 1288.55 206.899 1288.55 Q211.297 1288.55 213.588 1286.81 Q215.903 1285.07 215.903 1281.76 Q215.903 1278.71 213.75 1277 Q211.621 1275.26 207.801 1275.26 L203.774 1275.26 L203.774 1271.42 L207.987 1271.42 Q211.436 1271.42 213.264 1270.05 Q215.093 1268.66 215.093 1266.07 Q215.093 1263.41 213.195 1262 Q211.32 1260.56 207.801 1260.56 Q205.88 1260.56 203.681 1260.98 Q201.482 1261.39 198.843 1262.27 L198.843 1258.11 Q201.505 1257.37 203.82 1257 Q206.158 1256.63 208.218 1256.63 Q213.542 1256.63 216.644 1259.06 Q219.746 1261.46 219.746 1265.58 Q219.746 1268.45 218.102 1270.44 Q216.459 1272.41 213.426 1273.18 Z" fill="#000000" fill-rule="nonzero" fill-opacity="1" /><path clip-path="url(#clip800)" d="M115.209 964.413 L144.885 964.413 L144.885 968.348 L115.209 968.348 L115.209 964.413 Z" fill="#000000" fill-rule="nonzero" fill-opacity="1" /><path clip-path="url(#clip800)" d="M164.977 949.76 Q161.366 949.76 159.538 953.325 Q157.732 956.866 157.732 963.996 Q157.732 971.102 159.538 974.667 Q161.366 978.209 164.977 978.209 Q168.612 978.209 170.417 974.667 Q172.246 971.102 172.246 963.996 Q172.246 956.866 170.417 953.325 Q168.612 949.76 164.977 949.76 M164.977 946.056 Q170.788 946.056 173.843 950.663 Q176.922 955.246 176.922 963.996 Q176.922 972.723 173.843 977.329 Q170.788 981.913 164.977 981.913 Q159.167 981.913 156.089 977.329 Q153.033 972.723 153.033 963.996 Q153.033 955.246 156.089 950.663 Q159.167 946.056 164.977 946.056 Z" fill="#000000" fill-rule="nonzero" fill-opacity="1" /><path clip-path="url(#clip800)" d="M185.139 975.362 L190.024 975.362 L190.024 981.241 L185.139 981.241 L185.139 975.362 Z" fill="#000000" fill-rule="nonzero" fill-opacity="1" /><path clip-path="url(#clip800)" d="M204.237 977.306 L220.556 977.306 L220.556 981.241 L198.612 981.241 L198.612 977.306 Q201.274 974.552 205.857 969.922 Q210.463 965.269 211.644 963.927 Q213.889 961.403 214.769 959.667 Q215.672 957.908 215.672 956.218 Q215.672 953.464 213.727 951.728 Q211.806 949.991 208.704 949.991 Q206.505 949.991 204.051 950.755 Q201.621 951.519 198.843 953.07 L198.843 948.348 Q201.667 947.214 204.121 946.635 Q206.574 946.056 208.612 946.056 Q213.982 946.056 217.176 948.741 Q220.371 951.427 220.371 955.917 Q220.371 958.047 219.561 959.968 Q218.773 961.866 216.667 964.459 Q216.088 965.13 212.986 968.348 Q209.885 971.542 204.237 977.306 Z" fill="#000000" fill-rule="nonzero" fill-opacity="1" /><path clip-path="url(#clip800)" d="M114.839 653.844 L144.515 653.844 L144.515 657.779 L114.839 657.779 L114.839 653.844 Z" fill="#000000" fill-rule="nonzero" fill-opacity="1" /><path clip-path="url(#clip800)" d="M164.607 639.191 Q160.996 639.191 159.167 642.756 Q157.362 646.298 157.362 653.427 Q157.362 660.534 159.167 664.098 Q160.996 667.64 164.607 667.64 Q168.241 667.64 170.047 664.098 Q171.876 660.534 171.876 653.427 Q171.876 646.298 170.047 642.756 Q168.241 639.191 164.607 639.191 M164.607 635.487 Q170.417 635.487 173.473 640.094 Q176.551 644.677 176.551 653.427 Q176.551 662.154 173.473 666.76 Q170.417 671.344 164.607 671.344 Q158.797 671.344 155.718 666.76 Q152.663 662.154 152.663 653.427 Q152.663 644.677 155.718 640.094 Q158.797 635.487 164.607 635.487 Z" fill="#000000" fill-rule="nonzero" fill-opacity="1" /><path clip-path="url(#clip800)" d="M184.769 664.793 L189.653 664.793 L189.653 670.672 L184.769 670.672 L184.769 664.793 Z" fill="#000000" fill-rule="nonzero" fill-opacity="1" /><path clip-path="url(#clip800)" d="M200.649 666.737 L208.287 666.737 L208.287 640.372 L199.977 642.038 L199.977 637.779 L208.241 636.112 L212.917 636.112 L212.917 666.737 L220.556 666.737 L220.556 670.672 L200.649 670.672 L200.649 666.737 Z" fill="#000000" fill-rule="nonzero" fill-opacity="1" /><path clip-path="url(#clip800)" d="M163.38 328.622 Q159.769 328.622 157.94 332.187 Q156.135 335.729 156.135 342.858 Q156.135 349.965 157.94 353.53 Q159.769 357.071 163.38 357.071 Q167.015 357.071 168.82 353.53 Q170.649 349.965 170.649 342.858 Q170.649 335.729 168.82 332.187 Q167.015 328.622 163.38 328.622 M163.38 324.919 Q169.19 324.919 172.246 329.525 Q175.325 334.108 175.325 342.858 Q175.325 351.585 172.246 356.192 Q169.19 360.775 163.38 360.775 Q157.57 360.775 154.491 356.192 Q151.436 351.585 151.436 342.858 Q151.436 334.108 154.491 329.525 Q157.57 324.919 163.38 324.919 Z" fill="#000000" fill-rule="nonzero" fill-opacity="1" /><path clip-path="url(#clip800)" d="M183.542 354.224 L188.426 354.224 L188.426 360.104 L183.542 360.104 L183.542 354.224 Z" fill="#000000" fill-rule="nonzero" fill-opacity="1" /><path clip-path="url(#clip800)" d="M208.612 328.622 Q205 328.622 203.172 332.187 Q201.366 335.729 201.366 342.858 Q201.366 349.965 203.172 353.53 Q205 357.071 208.612 357.071 Q212.246 357.071 214.051 353.53 Q215.88 349.965 215.88 342.858 Q215.88 335.729 214.051 332.187 Q212.246 328.622 208.612 328.622 M208.612 324.919 Q214.422 324.919 217.477 329.525 Q220.556 334.108 220.556 342.858 Q220.556 351.585 217.477 356.192 Q214.422 360.775 208.612 360.775 Q202.801 360.775 199.723 356.192 Q196.667 351.585 196.667 342.858 Q196.667 334.108 199.723 329.525 Q202.801 324.919 208.612 324.919 Z" fill="#000000" fill-rule="nonzero" fill-opacity="1" /><path clip-path="url(#clip800)" d="M44.7161 1010.4 L47.5806 1010.4 L47.5806 1037.33 Q53.6281 1036.95 56.8109 1033.7 Q59.9619 1030.42 59.9619 1024.6 Q59.9619 1021.22 59.1344 1018.07 Q58.3069 1014.89 56.6518 1011.77 L62.1899 1011.77 Q63.5267 1014.92 64.227 1018.23 Q64.9272 1021.54 64.9272 1024.95 Q64.9272 1033.48 59.9619 1038.47 Q54.9967 1043.44 46.5303 1043.44 Q37.7774 1043.44 32.6531 1038.73 Q27.4968 1033.99 27.4968 1025.97 Q27.4968 1018.77 32.1438 1014.6 Q36.7589 1010.4 44.7161 1010.4 M42.9973 1016.26 Q38.1912 1016.32 35.3266 1018.96 Q32.4621 1021.57 32.4621 1025.9 Q32.4621 1030.8 35.2312 1033.76 Q38.0002 1036.69 43.0292 1037.14 L42.9973 1016.26 Z" fill="#000000" fill-rule="nonzero" fill-opacity="1" /><path clip-path="url(#clip800)" d="M35.1993 973.035 Q31.2526 970.839 29.3747 967.783 Q27.4968 964.728 27.4968 960.59 Q27.4968 955.02 31.4117 951.996 Q35.2948 948.972 42.4881 948.972 L64.0042 948.972 L64.0042 954.861 L42.679 954.861 Q37.5546 954.861 35.072 956.675 Q32.5894 958.489 32.5894 962.213 Q32.5894 966.765 35.6131 969.406 Q38.6368 972.048 43.8567 972.048 L64.0042 972.048 L64.0042 977.936 L42.679 977.936 Q37.5228 977.936 35.072 979.751 Q32.5894 981.565 32.5894 985.352 Q32.5894 989.84 35.6449 992.482 Q38.6686 995.124 43.8567 995.124 L64.0042 995.124 L64.0042 1001.01 L28.3562 1001.01 L28.3562 995.124 L33.8944 995.124 Q30.616 993.119 29.0564 990.318 Q27.4968 987.517 27.4968 983.665 Q27.4968 979.782 29.4702 977.077 Q31.4436 974.34 35.1993 973.035 Z" fill="#000000" fill-rule="nonzero" fill-opacity="1" /><path clip-path="url(#clip800)" d="M58.657 931.626 L77.5631 931.626 L77.5631 937.514 L28.3562 937.514 L28.3562 931.626 L33.7671 931.626 Q30.5842 929.78 29.0564 926.979 Q27.4968 924.146 27.4968 920.231 Q27.4968 913.738 32.6531 909.696 Q37.8093 905.622 46.212 905.622 Q54.6147 905.622 59.771 909.696 Q64.9272 913.738 64.9272 920.231 Q64.9272 924.146 63.3994 926.979 Q61.8398 929.78 58.657 931.626 M46.212 911.701 Q39.7508 911.701 36.0905 914.375 Q32.3984 917.017 32.3984 921.664 Q32.3984 926.31 36.0905 928.984 Q39.7508 931.626 46.212 931.626 Q52.6732 931.626 56.3653 928.984 Q60.0256 926.31 60.0256 921.664 Q60.0256 917.017 56.3653 914.375 Q52.6732 911.701 46.212 911.701 Z" fill="#000000" fill-rule="nonzero" fill-opacity="1" /><path clip-path="url(#clip800)" d="M28.3562 895.914 L28.3562 890.058 L64.0042 890.058 L64.0042 895.914 L28.3562 895.914 M14.479 895.914 L14.479 890.058 L21.895 890.058 L21.895 895.914 L14.479 895.914 Z" fill="#000000" fill-rule="nonzero" fill-opacity="1" /><path clip-path="url(#clip800)" d="M33.8307 857.147 Q33.2578 858.134 33.0032 859.311 Q32.7167 860.457 32.7167 861.858 Q32.7167 866.823 35.9632 869.497 Q39.1779 872.138 45.2253 872.138 L64.0042 872.138 L64.0042 878.027 L28.3562 878.027 L28.3562 872.138 L33.8944 872.138 Q30.6479 870.292 29.0883 867.332 Q27.4968 864.372 27.4968 860.139 Q27.4968 859.534 27.5923 858.802 Q27.656 858.07 27.8151 857.179 L33.8307 857.147 Z" fill="#000000" fill-rule="nonzero" fill-opacity="1" /><path clip-path="url(#clip800)" d="M28.3562 851.004 L28.3562 845.148 L64.0042 845.148 L64.0042 851.004 L28.3562 851.004 M14.479 851.004 L14.479 845.148 L21.895 845.148 L21.895 851.004 L14.479 851.004 Z" fill="#000000" fill-rule="nonzero" fill-opacity="1" /><path clip-path="url(#clip800)" d="M29.7248 807.24 L35.1993 807.24 Q33.8307 809.723 33.1623 812.237 Q32.4621 814.72 32.4621 817.266 Q32.4621 822.963 36.0905 826.114 Q39.6872 829.265 46.212 829.265 Q52.7369 829.265 56.3653 826.114 Q59.9619 822.963 59.9619 817.266 Q59.9619 814.72 59.2935 812.237 Q58.5933 809.723 57.2247 807.24 L62.6355 807.24 Q63.7814 809.691 64.3543 812.333 Q64.9272 814.942 64.9272 817.902 Q64.9272 825.955 59.8664 830.698 Q54.8057 835.44 46.212 835.44 Q37.491 835.44 32.4939 830.666 Q27.4968 825.86 27.4968 817.521 Q27.4968 814.815 28.0697 812.237 Q28.6108 809.659 29.7248 807.24 Z" fill="#000000" fill-rule="nonzero" fill-opacity="1" /><path clip-path="url(#clip800)" d="M46.0847 780.854 Q46.0847 787.952 47.7079 790.689 Q49.3312 793.426 53.2461 793.426 Q56.3653 793.426 58.2114 791.389 Q60.0256 789.32 60.0256 785.788 Q60.0256 780.918 56.5881 777.99 Q53.1188 775.029 47.3897 775.029 L46.0847 775.029 L46.0847 780.854 M43.6657 769.173 L64.0042 769.173 L64.0042 775.029 L58.5933 775.029 Q61.8398 777.035 63.3994 780.027 Q64.9272 783.018 64.9272 787.347 Q64.9272 792.822 61.8716 796.068 Q58.7843 799.283 53.6281 799.283 Q47.6125 799.283 44.5569 795.272 Q41.5014 791.23 41.5014 783.241 L41.5014 775.029 L40.9285 775.029 Q36.8862 775.029 34.6901 777.703 Q32.4621 780.345 32.4621 785.151 Q32.4621 788.206 33.1941 791.103 Q33.9262 793.999 35.3903 796.673 L29.9795 796.673 Q28.7381 793.458 28.1334 790.434 Q27.4968 787.411 27.4968 784.546 Q27.4968 776.812 31.5072 772.992 Q35.5176 769.173 43.6657 769.173 Z" fill="#000000" fill-rule="nonzero" fill-opacity="1" /><path clip-path="url(#clip800)" d="M14.479 757.11 L14.479 751.254 L64.0042 751.254 L64.0042 757.11 L14.479 757.11 Z" fill="#000000" fill-rule="nonzero" fill-opacity="1" /><path clip-path="url(#clip800)" d="M33.7671 694.822 L14.479 694.822 L14.479 688.965 L64.0042 688.965 L64.0042 694.822 L58.657 694.822 Q61.8398 696.668 63.3994 699.5 Q64.9272 702.301 64.9272 706.248 Q64.9272 712.709 59.771 716.783 Q54.6147 720.825 46.212 720.825 Q37.8093 720.825 32.6531 716.783 Q27.4968 712.709 27.4968 706.248 Q27.4968 702.301 29.0564 699.5 Q30.5842 696.668 33.7671 694.822 M46.212 714.778 Q52.6732 714.778 56.3653 712.136 Q60.0256 709.463 60.0256 704.816 Q60.0256 700.169 56.3653 697.495 Q52.6732 694.822 46.212 694.822 Q39.7508 694.822 36.0905 697.495 Q32.3984 700.169 32.3984 704.816 Q32.3984 709.463 36.0905 712.136 Q39.7508 714.778 46.212 714.778 Z" fill="#000000" fill-rule="nonzero" fill-opacity="1" /><path clip-path="url(#clip800)" d="M44.7161 646.41 L47.5806 646.41 L47.5806 673.337 Q53.6281 672.955 56.8109 669.709 Q59.9619 666.431 59.9619 660.606 Q59.9619 657.232 59.1344 654.081 Q58.3069 650.898 56.6518 647.779 L62.1899 647.779 Q63.5267 650.93 64.227 654.24 Q64.9272 657.55 64.9272 660.956 Q64.9272 669.486 59.9619 674.483 Q54.9967 679.448 46.5303 679.448 Q37.7774 679.448 32.6531 674.738 Q27.4968 669.995 27.4968 661.975 Q27.4968 654.781 32.1438 650.612 Q36.7589 646.41 44.7161 646.41 M42.9973 652.267 Q38.1912 652.33 35.3266 654.972 Q32.4621 657.582 32.4621 661.911 Q32.4621 666.812 35.2312 669.773 Q38.0002 672.701 43.0292 673.146 L42.9973 652.267 Z" fill="#000000" fill-rule="nonzero" fill-opacity="1" /><path clip-path="url(#clip800)" d="M28.3562 641 L28.3562 634.793 L58.275 623.653 L28.3562 612.513 L28.3562 606.306 L64.0042 619.674 L64.0042 627.632 L28.3562 641 Z" fill="#000000" fill-rule="nonzero" fill-opacity="1" /><path clip-path="url(#clip800)" d="M28.3562 598.222 L28.3562 592.366 L64.0042 592.366 L64.0042 598.222 L28.3562 598.222 M14.479 598.222 L14.479 592.366 L21.895 592.366 L21.895 598.222 L14.479 598.222 Z" fill="#000000" fill-rule="nonzero" fill-opacity="1" /><path clip-path="url(#clip800)" d="M46.0847 563.911 Q46.0847 571.009 47.7079 573.746 Q49.3312 576.483 53.2461 576.483 Q56.3653 576.483 58.2114 574.446 Q60.0256 572.377 60.0256 568.844 Q60.0256 563.974 56.5881 561.046 Q53.1188 558.086 47.3897 558.086 L46.0847 558.086 L46.0847 563.911 M43.6657 552.23 L64.0042 552.23 L64.0042 558.086 L58.5933 558.086 Q61.8398 560.091 63.3994 563.083 Q64.9272 566.075 64.9272 570.404 Q64.9272 575.878 61.8716 579.125 Q58.7843 582.34 53.6281 582.34 Q47.6125 582.34 44.5569 578.329 Q41.5014 574.287 41.5014 566.298 L41.5014 558.086 L40.9285 558.086 Q36.8862 558.086 34.6901 560.76 Q32.4621 563.402 32.4621 568.208 Q32.4621 571.263 33.1941 574.16 Q33.9262 577.056 35.3903 579.73 L29.9795 579.73 Q28.7381 576.515 28.1334 573.491 Q27.4968 570.467 27.4968 567.603 Q27.4968 559.869 31.5072 556.049 Q35.5176 552.23 43.6657 552.23 Z" fill="#000000" fill-rule="nonzero" fill-opacity="1" /><path clip-path="url(#clip800)" d="M18.2347 534.374 L28.3562 534.374 L28.3562 522.311 L32.9077 522.311 L32.9077 534.374 L52.2594 534.374 Q56.6199 534.374 57.8613 533.196 Q59.1026 531.987 59.1026 528.327 L59.1026 522.311 L64.0042 522.311 L64.0042 528.327 Q64.0042 535.106 61.4897 537.684 Q58.9434 540.262 52.2594 540.262 L32.9077 540.262 L32.9077 544.559 L28.3562 544.559 L28.3562 540.262 L18.2347 540.262 L18.2347 534.374 Z" fill="#000000" fill-rule="nonzero" fill-opacity="1" /><path clip-path="url(#clip800)" d="M28.3562 514.608 L28.3562 508.752 L64.0042 508.752 L64.0042 514.608 L28.3562 514.608 M14.479 514.608 L14.479 508.752 L21.895 508.752 L21.895 514.608 L14.479 514.608 Z" fill="#000000" fill-rule="nonzero" fill-opacity="1" /><path clip-path="url(#clip800)" d="M32.4621 482.684 Q32.4621 487.395 36.1542 490.132 Q39.8145 492.87 46.212 492.87 Q52.6095 492.87 56.3017 490.164 Q59.9619 487.427 59.9619 482.684 Q59.9619 478.006 56.2698 475.268 Q52.5777 472.531 46.212 472.531 Q39.8781 472.531 36.186 475.268 Q32.4621 478.006 32.4621 482.684 M27.4968 482.684 Q27.4968 475.046 32.4621 470.685 Q37.4273 466.325 46.212 466.325 Q54.9649 466.325 59.9619 470.685 Q64.9272 475.046 64.9272 482.684 Q64.9272 490.355 59.9619 494.716 Q54.9649 499.044 46.212 499.044 Q37.4273 499.044 32.4621 494.716 Q27.4968 490.355 27.4968 482.684 Z" fill="#000000" fill-rule="nonzero" fill-opacity="1" /><path clip-path="url(#clip800)" d="M42.4881 426.984 L64.0042 426.984 L64.0042 432.841 L42.679 432.841 Q37.6183 432.841 35.1038 434.814 Q32.5894 436.788 32.5894 440.734 Q32.5894 445.477 35.6131 448.214 Q38.6368 450.951 43.8567 450.951 L64.0042 450.951 L64.0042 456.84 L28.3562 456.84 L28.3562 450.951 L33.8944 450.951 Q30.6797 448.851 29.0883 446.018 Q27.4968 443.153 27.4968 439.429 Q27.4968 433.287 31.3163 430.135 Q35.1038 426.984 42.4881 426.984 Z" fill="#000000" fill-rule="nonzero" fill-opacity="1" /><polyline clip-path="url(#clip802)" style="stroke:#009af9; stroke-linecap:round; stroke-linejoin:round; stroke-width:4; stroke-opacity:1; fill:none" points="315.882,518.018 513.073,481.545 760.489,514.884 928.037,747.776 1135.23,414.631 1430.94,204.533 1621.96,470.059 1832.78,1384.24 2016.09,86.1857 2293.43,161.122 "/>
<circle clip-path="url(#clip802)" cx="315.882" cy="518.018" r="14.4" fill="#009af9" fill-rule="evenodd" fill-opacity="1" stroke="#000000" stroke-opacity="1" stroke-width="3.2"/>
<circle clip-path="url(#clip802)" cx="513.073" cy="481.545" r="14.4" fill="#009af9" fill-rule="evenodd" fill-opacity="1" stroke="#000000" stroke-opacity="1" stroke-width="3.2"/>
<circle clip-path="url(#clip802)" cx="760.489" cy="514.884" r="14.4" fill="#009af9" fill-rule="evenodd" fill-opacity="1" stroke="#000000" stroke-opacity="1" stroke-width="3.2"/>
<circle clip-path="url(#clip802)" cx="928.037" cy="747.776" r="14.4" fill="#009af9" fill-rule="evenodd" fill-opacity="1" stroke="#000000" stroke-opacity="1" stroke-width="3.2"/>
<circle clip-path="url(#clip802)" cx="1135.23" cy="414.631" r="14.4" fill="#009af9" fill-rule="evenodd" fill-opacity="1" stroke="#000000" stroke-opacity="1" stroke-width="3.2"/>
<circle clip-path="url(#clip802)" cx="1430.94" cy="204.533" r="14.4" fill="#009af9" fill-rule="evenodd" fill-opacity="1" stroke="#000000" stroke-opacity="1" stroke-width="3.2"/>
<circle clip-path="url(#clip802)" cx="1621.96" cy="470.059" r="14.4" fill="#009af9" fill-rule="evenodd" fill-opacity="1" stroke="#000000" stroke-opacity="1" stroke-width="3.2"/>
<circle clip-path="url(#clip802)" cx="1832.78" cy="1384.24" r="14.4" fill="#009af9" fill-rule="evenodd" fill-opacity="1" stroke="#000000" stroke-opacity="1" stroke-width="3.2"/>
<circle clip-path="url(#clip802)" cx="2016.09" cy="86.1857" r="14.4" fill="#009af9" fill-rule="evenodd" fill-opacity="1" stroke="#000000" stroke-opacity="1" stroke-width="3.2"/>
<circle clip-path="url(#clip802)" cx="2293.43" cy="161.122" r="14.4" fill="#009af9" fill-rule="evenodd" fill-opacity="1" stroke="#000000" stroke-opacity="1" stroke-width="3.2"/>
<path clip-path="url(#clip800)" d="M326.429 196.789 L588.479 196.789 L588.479 93.1086 L326.429 93.1086  Z" fill="#ffffff" fill-rule="evenodd" fill-opacity="1"/>
<polyline clip-path="url(#clip800)" style="stroke:#000000; stroke-linecap:round; stroke-linejoin:round; stroke-width:4; stroke-opacity:1; fill:none" points="326.429,196.789 588.479,196.789 588.479,93.1086 326.429,93.1086 326.429,196.789 "/>
<polyline clip-path="url(#clip800)" style="stroke:#009af9; stroke-linecap:round; stroke-linejoin:round; stroke-width:4; stroke-opacity:1; fill:none" points="349.72,144.949 489.467,144.949 "/>
<circle clip-path="url(#clip800)" cx="419.594" cy="144.949" r="19.4093" fill="#009af9" fill-rule="evenodd" fill-opacity="1" stroke="#000000" stroke-opacity="1" stroke-width="4.55111"/>
<path clip-path="url(#clip800)" d="M526.601 164.636 Q524.795 169.266 523.082 170.678 Q521.369 172.09 518.499 172.09 L515.096 172.09 L515.096 168.525 L517.596 168.525 Q519.355 168.525 520.328 167.692 Q521.3 166.858 522.48 163.756 L523.244 161.812 L512.758 136.303 L517.272 136.303 L525.374 156.581 L533.476 136.303 L537.989 136.303 L526.601 164.636 Z" fill="#000000" fill-rule="nonzero" fill-opacity="1" /><path clip-path="url(#clip800)" d="M545.281 158.293 L552.92 158.293 L552.92 131.928 L544.61 133.595 L544.61 129.335 L552.874 127.669 L557.55 127.669 L557.55 158.293 L565.188 158.293 L565.188 162.229 L545.281 162.229 L545.281 158.293 Z" fill="#000000" fill-rule="nonzero" fill-opacity="1" /></svg>
