<?xml version="1.0" encoding="utf-8"?>
<svg xmlns="http://www.w3.org/2000/svg" xmlns:xlink="http://www.w3.org/1999/xlink" width="600" height="400" viewBox="0 0 2400 1600">
<defs>
  <clipPath id="clip160">
    <rect x="0" y="0" width="2400" height="1600"/>
  </clipPath>
</defs>
<path clip-path="url(#clip160)" d="
M0 1600 L2400 1600 L2400 0 L0 0  Z
  " fill="#ffffff" fill-rule="evenodd" fill-opacity="1"/>
<defs>
  <clipPath id="clip161">
    <rect x="480" y="0" width="1681" height="1600"/>
  </clipPath>
</defs>
<path clip-path="url(#clip160)" d="
M193.288 1486.45 L2352.76 1486.45 L2352.76 47.2441 L193.288 47.2441  Z
  " fill="#ffffff" fill-rule="evenodd" fill-opacity="1"/>
<defs>
  <clipPath id="clip162">
    <rect x="193" y="47" width="2160" height="1440"/>
  </clipPath>
</defs>
<polyline clip-path="url(#clip162)" style="stroke:#000000; stroke-linecap:butt; stroke-linejoin:round; stroke-width:2; stroke-opacity:0.1; fill:none" points="
  584.91,1486.45 584.91,47.2441 
  "/>
<polyline clip-path="url(#clip162)" style="stroke:#000000; stroke-linecap:butt; stroke-linejoin:round; stroke-width:2; stroke-opacity:0.1; fill:none" points="
  1045.26,1486.45 1045.26,47.2441 
  "/>
<polyline clip-path="url(#clip162)" style="stroke:#000000; stroke-linecap:butt; stroke-linejoin:round; stroke-width:2; stroke-opacity:0.1; fill:none" points="
  1505.61,1486.45 1505.61,47.2441 
  "/>
<polyline clip-path="url(#clip162)" style="stroke:#000000; stroke-linecap:butt; stroke-linejoin:round; stroke-width:2; stroke-opacity:0.1; fill:none" points="
  1965.96,1486.45 1965.96,47.2441 
  "/>
<polyline clip-path="url(#clip160)" style="stroke:#000000; stroke-linecap:butt; stroke-linejoin:round; stroke-width:4; stroke-opacity:1; fill:none" points="
  193.288,1486.45 2352.76,1486.45 
  "/>
<polyline clip-path="url(#clip160)" style="stroke:#000000; stroke-linecap:butt; stroke-linejoin:round; stroke-width:4; stroke-opacity:1; fill:none" points="
  584.91,1486.45 584.91,1467.55 
  "/>
<polyline clip-path="url(#clip160)" style="stroke:#000000; stroke-linecap:butt; stroke-linejoin:round; stroke-width:4; stroke-opacity:1; fill:none" points="
  1045.26,1486.45 1045.26,1467.55 
  "/>
<polyline clip-path="url(#clip160)" style="stroke:#000000; stroke-linecap:butt; stroke-linejoin:round; stroke-width:4; stroke-opacity:1; fill:none" points="
  1505.61,1486.45 1505.61,1467.55 
  "/>
<polyline clip-path="url(#clip160)" style="stroke:#000000; stroke-linecap:butt; stroke-linejoin:round; stroke-width:4; stroke-opacity:1; fill:none" points="
  1965.96,1486.45 1965.96,1467.55 
  "/>
<path clip-path="url(#clip160)" d="M563.093 1517.37 Q559.482 1517.37 557.653 1520.93 Q555.848 1524.47 555.848 1531.6 Q555.848 1538.71 557.653 1542.27 Q559.482 1545.82 563.093 1545.82 Q566.727 1545.82 568.533 1542.27 Q570.362 1538.71 570.362 1531.6 Q570.362 1524.47 568.533 1520.93 Q566.727 1517.37 563.093 1517.37 M563.093 1513.66 Q568.903 1513.66 571.959 1518.27 Q575.037 1522.85 575.037 1531.6 Q575.037 1540.33 571.959 1544.94 Q568.903 1549.52 563.093 1549.52 Q557.283 1549.52 554.204 1544.94 Q551.149 1540.33 551.149 1531.6 Q551.149 1522.85 554.204 1518.27 Q557.283 1513.66 563.093 1513.66 Z" fill="#000000" fill-rule="evenodd" fill-opacity="1" /><path clip-path="url(#clip160)" d="M583.255 1542.97 L588.139 1542.97 L588.139 1548.85 L583.255 1548.85 L583.255 1542.97 Z" fill="#000000" fill-rule="evenodd" fill-opacity="1" /><path clip-path="url(#clip160)" d="M602.352 1544.91 L618.671 1544.91 L618.671 1548.85 L596.727 1548.85 L596.727 1544.91 Q599.389 1542.16 603.972 1537.53 Q608.579 1532.88 609.759 1531.53 Q612.005 1529.01 612.884 1527.27 Q613.787 1525.51 613.787 1523.82 Q613.787 1521.07 611.843 1519.33 Q609.922 1517.6 606.82 1517.6 Q604.621 1517.6 602.167 1518.36 Q599.736 1519.13 596.959 1520.68 L596.959 1515.95 Q599.783 1514.82 602.236 1514.24 Q604.69 1513.66 606.727 1513.66 Q612.097 1513.66 615.292 1516.35 Q618.486 1519.03 618.486 1523.52 Q618.486 1525.65 617.676 1527.57 Q616.889 1529.47 614.783 1532.07 Q614.204 1532.74 611.102 1535.95 Q608 1539.15 602.352 1544.91 Z" fill="#000000" fill-rule="evenodd" fill-opacity="1" /><path clip-path="url(#clip160)" d="M1022.4 1517.37 Q1018.79 1517.37 1016.96 1520.93 Q1015.15 1524.47 1015.15 1531.6 Q1015.15 1538.71 1016.96 1542.27 Q1018.79 1545.82 1022.4 1545.82 Q1026.03 1545.82 1027.84 1542.27 Q1029.67 1538.71 1029.67 1531.6 Q1029.67 1524.47 1027.84 1520.93 Q1026.03 1517.37 1022.4 1517.37 M1022.4 1513.66 Q1028.21 1513.66 1031.27 1518.27 Q1034.34 1522.85 1034.34 1531.6 Q1034.34 1540.33 1031.27 1544.94 Q1028.21 1549.52 1022.4 1549.52 Q1016.59 1549.52 1013.51 1544.94 Q1010.46 1540.33 1010.46 1531.6 Q1010.46 1522.85 1013.51 1518.27 Q1016.59 1513.66 1022.4 1513.66 Z" fill="#000000" fill-rule="evenodd" fill-opacity="1" /><path clip-path="url(#clip160)" d="M1042.56 1542.97 L1047.45 1542.97 L1047.45 1548.85 L1042.56 1548.85 L1042.56 1542.97 Z" fill="#000000" fill-rule="evenodd" fill-opacity="1" /><path clip-path="url(#clip160)" d="M1070.48 1518.36 L1058.67 1536.81 L1070.48 1536.81 L1070.48 1518.36 M1069.25 1514.29 L1075.13 1514.29 L1075.13 1536.81 L1080.06 1536.81 L1080.06 1540.7 L1075.13 1540.7 L1075.13 1548.85 L1070.48 1548.85 L1070.48 1540.7 L1054.88 1540.7 L1054.88 1536.19 L1069.25 1514.29 Z" fill="#000000" fill-rule="evenodd" fill-opacity="1" /><path clip-path="url(#clip160)" d="M1482.91 1517.37 Q1479.3 1517.37 1477.47 1520.93 Q1475.67 1524.47 1475.67 1531.6 Q1475.67 1538.71 1477.47 1542.27 Q1479.3 1545.82 1482.91 1545.82 Q1486.54 1545.82 1488.35 1542.27 Q1490.18 1538.71 1490.18 1531.6 Q1490.18 1524.47 1488.35 1520.93 Q1486.54 1517.37 1482.91 1517.37 M1482.91 1513.66 Q1488.72 1513.66 1491.78 1518.27 Q1494.86 1522.85 1494.86 1531.6 Q1494.86 1540.33 1491.78 1544.94 Q1488.72 1549.52 1482.91 1549.52 Q1477.1 1549.52 1474.02 1544.94 Q1470.97 1540.33 1470.97 1531.6 Q1470.97 1522.85 1474.02 1518.27 Q1477.1 1513.66 1482.91 1513.66 Z" fill="#000000" fill-rule="evenodd" fill-opacity="1" /><path clip-path="url(#clip160)" d="M1503.07 1542.97 L1507.96 1542.97 L1507.96 1548.85 L1503.07 1548.85 L1503.07 1542.97 Z" fill="#000000" fill-rule="evenodd" fill-opacity="1" /><path clip-path="url(#clip160)" d="M1528.72 1529.7 Q1525.57 1529.7 1523.72 1531.86 Q1521.89 1534.01 1521.89 1537.76 Q1521.89 1541.49 1523.72 1543.66 Q1525.57 1545.82 1528.72 1545.82 Q1531.87 1545.82 1533.7 1543.66 Q1535.55 1541.49 1535.55 1537.76 Q1535.55 1534.01 1533.7 1531.86 Q1531.87 1529.7 1528.72 1529.7 M1538 1515.05 L1538 1519.31 Q1536.24 1518.48 1534.44 1518.04 Q1532.66 1517.6 1530.9 1517.6 Q1526.27 1517.6 1523.81 1520.72 Q1521.38 1523.85 1521.04 1530.17 Q1522.4 1528.15 1524.46 1527.09 Q1526.52 1526 1529 1526 Q1534.21 1526 1537.22 1529.17 Q1540.25 1532.32 1540.25 1537.76 Q1540.25 1543.08 1537.1 1546.3 Q1533.95 1549.52 1528.72 1549.52 Q1522.73 1549.52 1519.55 1544.94 Q1516.38 1540.33 1516.38 1531.6 Q1516.38 1523.41 1520.27 1518.55 Q1524.16 1513.66 1530.71 1513.66 Q1532.47 1513.66 1534.25 1514.01 Q1536.06 1514.36 1538 1515.05 Z" fill="#000000" fill-rule="evenodd" fill-opacity="1" /><path clip-path="url(#clip160)" d="M1943.39 1517.37 Q1939.78 1517.37 1937.95 1520.93 Q1936.14 1524.47 1936.14 1531.6 Q1936.14 1538.71 1937.95 1542.27 Q1939.78 1545.82 1943.39 1545.82 Q1947.02 1545.82 1948.83 1542.27 Q1950.66 1538.71 1950.66 1531.6 Q1950.66 1524.47 1948.83 1520.93 Q1947.02 1517.37 1943.39 1517.37 M1943.39 1513.66 Q1949.2 1513.66 1952.25 1518.27 Q1955.33 1522.85 1955.33 1531.6 Q1955.33 1540.33 1952.25 1544.94 Q1949.2 1549.52 1943.39 1549.52 Q1937.58 1549.52 1934.5 1544.94 Q1931.44 1540.33 1931.44 1531.6 Q1931.44 1522.85 1934.5 1518.27 Q1937.58 1513.66 1943.39 1513.66 Z" fill="#000000" fill-rule="evenodd" fill-opacity="1" /><path clip-path="url(#clip160)" d="M1963.55 1542.97 L1968.43 1542.97 L1968.43 1548.85 L1963.55 1548.85 L1963.55 1542.97 Z" fill="#000000" fill-rule="evenodd" fill-opacity="1" /><path clip-path="url(#clip160)" d="M1988.62 1532.44 Q1985.28 1532.44 1983.36 1534.22 Q1981.47 1536 1981.47 1539.13 Q1981.47 1542.25 1983.36 1544.03 Q1985.28 1545.82 1988.62 1545.82 Q1991.95 1545.82 1993.87 1544.03 Q1995.79 1542.23 1995.79 1539.13 Q1995.79 1536 1993.87 1534.22 Q1991.97 1532.44 1988.62 1532.44 M1983.94 1530.45 Q1980.93 1529.7 1979.24 1527.64 Q1977.58 1525.58 1977.58 1522.62 Q1977.58 1518.48 1980.52 1516.07 Q1983.48 1513.66 1988.62 1513.66 Q1993.78 1513.66 1996.72 1516.07 Q1999.66 1518.48 1999.66 1522.62 Q1999.66 1525.58 1997.97 1527.64 Q1996.3 1529.7 1993.32 1530.45 Q1996.7 1531.23 1998.57 1533.52 Q2000.47 1535.82 2000.47 1539.13 Q2000.47 1544.15 1997.39 1546.83 Q1994.34 1549.52 1988.62 1549.52 Q1982.9 1549.52 1979.82 1546.83 Q1976.77 1544.15 1976.77 1539.13 Q1976.77 1535.82 1978.66 1533.52 Q1980.56 1531.23 1983.94 1530.45 M1982.23 1523.06 Q1982.23 1525.75 1983.9 1527.25 Q1985.59 1528.76 1988.62 1528.76 Q1991.63 1528.76 1993.32 1527.25 Q1995.03 1525.75 1995.03 1523.06 Q1995.03 1520.38 1993.32 1518.87 Q1991.63 1517.37 1988.62 1517.37 Q1985.59 1517.37 1983.9 1518.87 Q1982.23 1520.38 1982.23 1523.06 Z" fill="#000000" fill-rule="evenodd" fill-opacity="1" /><polyline clip-path="url(#clip162)" style="stroke:#000000; stroke-linecap:butt; stroke-linejoin:round; stroke-width:2; stroke-opacity:0.1; fill:none" points="
  193.288,1330.96 2352.76,1330.96 
  "/>
<polyline clip-path="url(#clip162)" style="stroke:#000000; stroke-linecap:butt; stroke-linejoin:round; stroke-width:2; stroke-opacity:0.1; fill:none" points="
  193.288,1006.11 2352.76,1006.11 
  "/>
<polyline clip-path="url(#clip162)" style="stroke:#000000; stroke-linecap:butt; stroke-linejoin:round; stroke-width:2; stroke-opacity:0.1; fill:none" points="
  193.288,681.264 2352.76,681.264 
  "/>
<polyline clip-path="url(#clip162)" style="stroke:#000000; stroke-linecap:butt; stroke-linejoin:round; stroke-width:2; stroke-opacity:0.1; fill:none" points="
  193.288,356.415 2352.76,356.415 
  "/>
<polyline clip-path="url(#clip160)" style="stroke:#000000; stroke-linecap:butt; stroke-linejoin:round; stroke-width:4; stroke-opacity:1; fill:none" points="
  193.288,1486.45 193.288,47.2441 
  "/>
<polyline clip-path="url(#clip160)" style="stroke:#000000; stroke-linecap:butt; stroke-linejoin:round; stroke-width:4; stroke-opacity:1; fill:none" points="
  193.288,1330.96 212.185,1330.96 
  "/>
<polyline clip-path="url(#clip160)" style="stroke:#000000; stroke-linecap:butt; stroke-linejoin:round; stroke-width:4; stroke-opacity:1; fill:none" points="
  193.288,1006.11 212.185,1006.11 
  "/>
<polyline clip-path="url(#clip160)" style="stroke:#000000; stroke-linecap:butt; stroke-linejoin:round; stroke-width:4; stroke-opacity:1; fill:none" points="
  193.288,681.264 212.185,681.264 
  "/>
<polyline clip-path="url(#clip160)" style="stroke:#000000; stroke-linecap:butt; stroke-linejoin:round; stroke-width:4; stroke-opacity:1; fill:none" points="
  193.288,356.415 212.185,356.415 
  "/>
<path clip-path="url(#clip160)" d="M50.9921 1331.41 L80.6679 1331.41 L80.6679 1335.35 L50.9921 1335.35 L50.9921 1331.41 Z" fill="#000000" fill-rule="evenodd" fill-opacity="1" /><path clip-path="url(#clip160)" d="M100.76 1316.76 Q97.1493 1316.76 95.3206 1320.33 Q93.515 1323.87 93.515 1331 Q93.515 1338.1 95.3206 1341.67 Q97.1493 1345.21 100.76 1345.21 Q104.395 1345.21 106.2 1341.67 Q108.029 1338.1 108.029 1331 Q108.029 1323.87 106.2 1320.33 Q104.395 1316.76 100.76 1316.76 M100.76 1313.06 Q106.571 1313.06 109.626 1317.66 Q112.705 1322.25 112.705 1331 Q112.705 1339.72 109.626 1344.33 Q106.571 1348.91 100.76 1348.91 Q94.9502 1348.91 91.8715 1344.33 Q88.816 1339.72 88.816 1331 Q88.816 1322.25 91.8715 1317.66 Q94.9502 1313.06 100.76 1313.06 Z" fill="#000000" fill-rule="evenodd" fill-opacity="1" /><path clip-path="url(#clip160)" d="M120.922 1342.36 L125.807 1342.36 L125.807 1348.24 L120.922 1348.24 L120.922 1342.36 Z" fill="#000000" fill-rule="evenodd" fill-opacity="1" /><path clip-path="url(#clip160)" d="M150.158 1329.61 Q153.515 1330.33 155.39 1332.59 Q157.288 1334.86 157.288 1338.2 Q157.288 1343.31 153.769 1346.11 Q150.251 1348.91 143.769 1348.91 Q141.593 1348.91 139.279 1348.47 Q136.987 1348.06 134.533 1347.2 L134.533 1342.69 Q136.478 1343.82 138.793 1344.4 Q141.107 1344.98 143.631 1344.98 Q148.029 1344.98 150.32 1343.24 Q152.635 1341.51 152.635 1338.2 Q152.635 1335.14 150.482 1333.43 Q148.353 1331.69 144.533 1331.69 L140.506 1331.69 L140.506 1327.85 L144.718 1327.85 Q148.168 1327.85 149.996 1326.48 Q151.825 1325.09 151.825 1322.5 Q151.825 1319.84 149.927 1318.43 Q148.052 1316.99 144.533 1316.99 Q142.612 1316.99 140.413 1317.41 Q138.214 1317.83 135.575 1318.71 L135.575 1314.54 Q138.237 1313.8 140.552 1313.43 Q142.89 1313.06 144.95 1313.06 Q150.274 1313.06 153.376 1315.49 Q156.478 1317.9 156.478 1322.02 Q156.478 1324.89 154.834 1326.88 Q153.191 1328.84 150.158 1329.61 Z" fill="#000000" fill-rule="evenodd" fill-opacity="1" /><path clip-path="url(#clip160)" d="M51.9412 1006.57 L81.617 1006.57 L81.617 1010.5 L51.9412 1010.5 L51.9412 1006.57 Z" fill="#000000" fill-rule="evenodd" fill-opacity="1" /><path clip-path="url(#clip160)" d="M101.709 991.912 Q98.0984 991.912 96.2697 995.477 Q94.4641 999.019 94.4641 1006.15 Q94.4641 1013.25 96.2697 1016.82 Q98.0984 1020.36 101.709 1020.36 Q105.344 1020.36 107.149 1016.82 Q108.978 1013.25 108.978 1006.15 Q108.978 999.019 107.149 995.477 Q105.344 991.912 101.709 991.912 M101.709 988.209 Q107.52 988.209 110.575 992.815 Q113.654 997.398 113.654 1006.15 Q113.654 1014.88 110.575 1019.48 Q107.52 1024.06 101.709 1024.06 Q95.8993 1024.06 92.8206 1019.48 Q89.7651 1014.88 89.7651 1006.15 Q89.7651 997.398 92.8206 992.815 Q95.8993 988.209 101.709 988.209 Z" fill="#000000" fill-rule="evenodd" fill-opacity="1" /><path clip-path="url(#clip160)" d="M121.871 1017.51 L126.756 1017.51 L126.756 1023.39 L121.871 1023.39 L121.871 1017.51 Z" fill="#000000" fill-rule="evenodd" fill-opacity="1" /><path clip-path="url(#clip160)" d="M140.968 1019.46 L157.288 1019.46 L157.288 1023.39 L135.344 1023.39 L135.344 1019.46 Q138.006 1016.7 142.589 1012.07 Q147.195 1007.42 148.376 1006.08 Q150.621 1003.56 151.501 1001.82 Q152.404 1000.06 152.404 998.371 Q152.404 995.616 150.459 993.88 Q148.538 992.144 145.436 992.144 Q143.237 992.144 140.783 992.908 Q138.353 993.672 135.575 995.222 L135.575 990.5 Q138.399 989.366 140.853 988.787 Q143.306 988.209 145.343 988.209 Q150.714 988.209 153.908 990.894 Q157.103 993.579 157.103 998.07 Q157.103 1000.2 156.292 1002.12 Q155.505 1004.02 153.399 1006.61 Q152.82 1007.28 149.718 1010.5 Q146.617 1013.69 140.968 1019.46 Z" fill="#000000" fill-rule="evenodd" fill-opacity="1" /><path clip-path="url(#clip160)" d="M51.5708 681.716 L81.2466 681.716 L81.2466 685.651 L51.5708 685.651 L51.5708 681.716 Z" fill="#000000" fill-rule="evenodd" fill-opacity="1" /><path clip-path="url(#clip160)" d="M101.339 667.063 Q97.728 667.063 95.8993 670.628 Q94.0937 674.169 94.0937 681.299 Q94.0937 688.405 95.8993 691.97 Q97.728 695.512 101.339 695.512 Q104.973 695.512 106.779 691.97 Q108.608 688.405 108.608 681.299 Q108.608 674.169 106.779 670.628 Q104.973 667.063 101.339 667.063 M101.339 663.359 Q107.149 663.359 110.205 667.966 Q113.283 672.549 113.283 681.299 Q113.283 690.026 110.205 694.632 Q107.149 699.216 101.339 699.216 Q95.5289 699.216 92.4502 694.632 Q89.3947 690.026 89.3947 681.299 Q89.3947 672.549 92.4502 667.966 Q95.5289 663.359 101.339 663.359 Z" fill="#000000" fill-rule="evenodd" fill-opacity="1" /><path clip-path="url(#clip160)" d="M121.501 692.665 L126.385 692.665 L126.385 698.544 L121.501 698.544 L121.501 692.665 Z" fill="#000000" fill-rule="evenodd" fill-opacity="1" /><path clip-path="url(#clip160)" d="M137.381 694.609 L145.019 694.609 L145.019 668.244 L136.709 669.91 L136.709 665.651 L144.973 663.984 L149.649 663.984 L149.649 694.609 L157.288 694.609 L157.288 698.544 L137.381 698.544 L137.381 694.609 Z" fill="#000000" fill-rule="evenodd" fill-opacity="1" /><path clip-path="url(#clip160)" d="M100.112 342.214 Q96.5011 342.214 94.6724 345.778 Q92.8669 349.32 92.8669 356.45 Q92.8669 363.556 94.6724 367.121 Q96.5011 370.663 100.112 370.663 Q103.746 370.663 105.552 367.121 Q107.381 363.556 107.381 356.45 Q107.381 349.32 105.552 345.778 Q103.746 342.214 100.112 342.214 M100.112 338.51 Q105.922 338.51 108.978 343.116 Q112.057 347.7 112.057 356.45 Q112.057 365.176 108.978 369.783 Q105.922 374.366 100.112 374.366 Q94.3021 374.366 91.2234 369.783 Q88.1679 365.176 88.1679 356.45 Q88.1679 347.7 91.2234 343.116 Q94.3021 338.51 100.112 338.51 Z" fill="#000000" fill-rule="evenodd" fill-opacity="1" /><path clip-path="url(#clip160)" d="M120.274 367.815 L125.158 367.815 L125.158 373.695 L120.274 373.695 L120.274 367.815 Z" fill="#000000" fill-rule="evenodd" fill-opacity="1" /><path clip-path="url(#clip160)" d="M145.343 342.214 Q141.732 342.214 139.904 345.778 Q138.098 349.32 138.098 356.45 Q138.098 363.556 139.904 367.121 Q141.732 370.663 145.343 370.663 Q148.978 370.663 150.783 367.121 Q152.612 363.556 152.612 356.45 Q152.612 349.32 150.783 345.778 Q148.978 342.214 145.343 342.214 M145.343 338.51 Q151.154 338.51 154.209 343.116 Q157.288 347.7 157.288 356.45 Q157.288 365.176 154.209 369.783 Q151.154 374.366 145.343 374.366 Q139.533 374.366 136.455 369.783 Q133.399 365.176 133.399 356.45 Q133.399 347.7 136.455 343.116 Q139.533 338.51 145.343 338.51 Z" fill="#000000" fill-rule="evenodd" fill-opacity="1" /><polyline clip-path="url(#clip162)" style="stroke:#009af9; stroke-linecap:butt; stroke-linejoin:round; stroke-width:4; stroke-opacity:1; fill:none" points="
  254.405,539.665 457.547,501.515 712.43,536.387 885.036,779.988 1098.48,431.524 1403.12,211.766 1599.91,489.501 1817.09,1445.72 2005.93,87.9763 2291.64,166.359 
  
  "/>
<circle clip-path="url(#clip162)" cx="254.405" cy="539.665" r="14" fill="#009af9" fill-rule="evenodd" fill-opacity="1" stroke="#000000" stroke-opacity="1" stroke-width="3.2"/>
<circle clip-path="url(#clip162)" cx="457.547" cy="501.515" r="14" fill="#009af9" fill-rule="evenodd" fill-opacity="1" stroke="#000000" stroke-opacity="1" stroke-width="3.2"/>
<circle clip-path="url(#clip162)" cx="712.43" cy="536.387" r="14" fill="#009af9" fill-rule="evenodd" fill-opacity="1" stroke="#000000" stroke-opacity="1" stroke-width="3.2"/>
<circle clip-path="url(#clip162)" cx="885.036" cy="779.988" r="14" fill="#009af9" fill-rule="evenodd" fill-opacity="1" stroke="#000000" stroke-opacity="1" stroke-width="3.2"/>
<circle clip-path="url(#clip162)" cx="1098.48" cy="431.524" r="14" fill="#009af9" fill-rule="evenodd" fill-opacity="1" stroke="#000000" stroke-opacity="1" stroke-width="3.2"/>
<circle clip-path="url(#clip162)" cx="1403.12" cy="211.766" r="14" fill="#009af9" fill-rule="evenodd" fill-opacity="1" stroke="#000000" stroke-opacity="1" stroke-width="3.2"/>
<circle clip-path="url(#clip162)" cx="1599.91" cy="489.501" r="14" fill="#009af9" fill-rule="evenodd" fill-opacity="1" stroke="#000000" stroke-opacity="1" stroke-width="3.2"/>
<circle clip-path="url(#clip162)" cx="1817.09" cy="1445.72" r="14" fill="#009af9" fill-rule="evenodd" fill-opacity="1" stroke="#000000" stroke-opacity="1" stroke-width="3.2"/>
<circle clip-path="url(#clip162)" cx="2005.93" cy="87.9763" r="14" fill="#009af9" fill-rule="evenodd" fill-opacity="1" stroke="#000000" stroke-opacity="1" stroke-width="3.2"/>
<circle clip-path="url(#clip162)" cx="2291.64" cy="166.359" r="14" fill="#009af9" fill-rule="evenodd" fill-opacity="1" stroke="#000000" stroke-opacity="1" stroke-width="3.2"/>
<path clip-path="url(#clip160)" d="
M1988.4 198.898 L2280.77 198.898 L2280.77 95.2176 L1988.4 95.2176  Z
  " fill="#ffffff" fill-rule="evenodd" fill-opacity="1"/>
<polyline clip-path="url(#clip160)" style="stroke:#000000; stroke-linecap:butt; stroke-linejoin:round; stroke-width:4; stroke-opacity:1; fill:none" points="
  1988.4,198.898 2280.77,198.898 2280.77,95.2176 1988.4,95.2176 1988.4,198.898 
  "/>
<polyline clip-path="url(#clip160)" style="stroke:#009af9; stroke-linecap:butt; stroke-linejoin:round; stroke-width:4; stroke-opacity:1; fill:none" points="
  2012.4,147.058 2156.36,147.058 
  "/>
<circle clip-path="url(#clip160)" cx="2084.38" cy="147.058" r="23" fill="#009af9" fill-rule="evenodd" fill-opacity="1" stroke="#000000" stroke-opacity="1" stroke-width="5.12"/>
<path clip-path="url(#clip160)" d="M2194.2 166.745 Q2192.39 171.375 2190.68 172.787 Q2188.97 174.199 2186.1 174.199 L2182.69 174.199 L2182.69 170.634 L2185.19 170.634 Q2186.95 170.634 2187.92 169.8 Q2188.9 168.967 2190.08 165.865 L2190.84 163.921 L2180.36 138.412 L2184.87 138.412 L2192.97 158.689 L2201.07 138.412 L2205.59 138.412 L2194.2 166.745 Z" fill="#000000" fill-rule="evenodd" fill-opacity="1" /><path clip-path="url(#clip160)" d="M2212.88 160.402 L2220.52 160.402 L2220.52 134.037 L2212.21 135.703 L2212.21 131.444 L2220.47 129.778 L2225.15 129.778 L2225.15 160.402 L2232.79 160.402 L2232.79 164.338 L2212.88 164.338 L2212.88 160.402 Z" fill="#000000" fill-rule="evenodd" fill-opacity="1" /></svg>
