<?xml version="1.0" encoding="utf-8"?>
<svg xmlns="http://www.w3.org/2000/svg" xmlns:xlink="http://www.w3.org/1999/xlink" width="600" height="400" viewBox="0 0 2400 1600">
<defs>
  <clipPath id="clip420">
    <rect x="0" y="0" width="2400" height="1600"/>
  </clipPath>
</defs>
<path clip-path="url(#clip420)" d="
M0 1600 L2400 1600 L2400 0 L0 0  Z
  " fill="#ffffff" fill-rule="evenodd" fill-opacity="1"/>
<defs>
  <clipPath id="clip421">
    <rect x="480" y="0" width="1681" height="1600"/>
  </clipPath>
</defs>
<path clip-path="url(#clip420)" d="
M193.288 1486.45 L2352.76 1486.45 L2352.76 47.2441 L193.288 47.2441  Z
  " fill="#ffffff" fill-rule="evenodd" fill-opacity="1"/>
<defs>
  <clipPath id="clip422">
    <rect x="193" y="47" width="2160" height="1440"/>
  </clipPath>
</defs>
<polyline clip-path="url(#clip422)" style="stroke:#000000; stroke-linecap:butt; stroke-linejoin:round; stroke-width:2; stroke-opacity:0.1; fill:none" points="
  562.843,1486.45 562.843,47.2441 
  "/>
<polyline clip-path="url(#clip422)" style="stroke:#000000; stroke-linecap:butt; stroke-linejoin:round; stroke-width:2; stroke-opacity:0.1; fill:none" points="
  1014.42,1486.45 1014.42,47.2441 
  "/>
<polyline clip-path="url(#clip422)" style="stroke:#000000; stroke-linecap:butt; stroke-linejoin:round; stroke-width:2; stroke-opacity:0.1; fill:none" points="
  1466,1486.45 1466,47.2441 
  "/>
<polyline clip-path="url(#clip422)" style="stroke:#000000; stroke-linecap:butt; stroke-linejoin:round; stroke-width:2; stroke-opacity:0.1; fill:none" points="
  1917.57,1486.45 1917.57,47.2441 
  "/>
<polyline clip-path="url(#clip420)" style="stroke:#000000; stroke-linecap:butt; stroke-linejoin:round; stroke-width:4; stroke-opacity:1; fill:none" points="
  193.288,1486.45 2352.76,1486.45 
  "/>
<polyline clip-path="url(#clip420)" style="stroke:#000000; stroke-linecap:butt; stroke-linejoin:round; stroke-width:4; stroke-opacity:1; fill:none" points="
  562.843,1486.45 562.843,1469.18 
  "/>
<polyline clip-path="url(#clip420)" style="stroke:#000000; stroke-linecap:butt; stroke-linejoin:round; stroke-width:4; stroke-opacity:1; fill:none" points="
  1014.42,1486.45 1014.42,1469.18 
  "/>
<polyline clip-path="url(#clip420)" style="stroke:#000000; stroke-linecap:butt; stroke-linejoin:round; stroke-width:4; stroke-opacity:1; fill:none" points="
  1466,1486.45 1466,1469.18 
  "/>
<polyline clip-path="url(#clip420)" style="stroke:#000000; stroke-linecap:butt; stroke-linejoin:round; stroke-width:4; stroke-opacity:1; fill:none" points="
  1917.57,1486.45 1917.57,1469.18 
  "/>
<path clip-path="url(#clip420)" d="M541.026 1515.64 Q537.415 1515.64 535.587 1519.2 Q533.781 1522.75 533.781 1529.87 Q533.781 1536.98 535.587 1540.55 Q537.415 1544.09 541.026 1544.09 Q544.661 1544.09 546.466 1540.55 Q548.295 1536.98 548.295 1529.87 Q548.295 1522.75 546.466 1519.2 Q544.661 1515.64 541.026 1515.64 M541.026 1511.93 Q546.837 1511.93 549.892 1516.54 Q552.971 1521.12 552.971 1529.87 Q552.971 1538.6 549.892 1543.21 Q546.837 1547.79 541.026 1547.79 Q535.216 1547.79 532.138 1543.21 Q529.082 1538.6 529.082 1529.87 Q529.082 1521.12 532.138 1516.54 Q535.216 1511.93 541.026 1511.93 Z" fill="#000000" fill-rule="evenodd" fill-opacity="1" /><path clip-path="url(#clip420)" d="M561.188 1541.24 L566.073 1541.24 L566.073 1547.12 L561.188 1547.12 L561.188 1541.24 Z" fill="#000000" fill-rule="evenodd" fill-opacity="1" /><path clip-path="url(#clip420)" d="M580.285 1543.18 L596.605 1543.18 L596.605 1547.12 L574.66 1547.12 L574.66 1543.18 Q577.323 1540.43 581.906 1535.8 Q586.512 1531.15 587.693 1529.81 Q589.938 1527.28 590.818 1525.55 Q591.721 1523.79 591.721 1522.1 Q591.721 1519.34 589.776 1517.61 Q587.855 1515.87 584.753 1515.87 Q582.554 1515.87 580.1 1516.63 Q577.67 1517.4 574.892 1518.95 L574.892 1514.23 Q577.716 1513.09 580.17 1512.51 Q582.623 1511.93 584.66 1511.93 Q590.031 1511.93 593.225 1514.62 Q596.42 1517.31 596.42 1521.8 Q596.42 1523.93 595.609 1525.85 Q594.822 1527.74 592.716 1530.34 Q592.137 1531.01 589.035 1534.23 Q585.934 1537.42 580.285 1543.18 Z" fill="#000000" fill-rule="evenodd" fill-opacity="1" /><path clip-path="url(#clip420)" d="M991.561 1515.64 Q987.95 1515.64 986.121 1519.2 Q984.316 1522.75 984.316 1529.87 Q984.316 1536.98 986.121 1540.55 Q987.95 1544.09 991.561 1544.09 Q995.195 1544.09 997.001 1540.55 Q998.83 1536.98 998.83 1529.87 Q998.83 1522.75 997.001 1519.2 Q995.195 1515.64 991.561 1515.64 M991.561 1511.93 Q997.371 1511.93 1000.43 1516.54 Q1003.51 1521.12 1003.51 1529.87 Q1003.51 1538.6 1000.43 1543.21 Q997.371 1547.79 991.561 1547.79 Q985.751 1547.79 982.672 1543.21 Q979.617 1538.6 979.617 1529.87 Q979.617 1521.12 982.672 1516.54 Q985.751 1511.93 991.561 1511.93 Z" fill="#000000" fill-rule="evenodd" fill-opacity="1" /><path clip-path="url(#clip420)" d="M1011.72 1541.24 L1016.61 1541.24 L1016.61 1547.12 L1011.72 1547.12 L1011.72 1541.24 Z" fill="#000000" fill-rule="evenodd" fill-opacity="1" /><path clip-path="url(#clip420)" d="M1039.64 1516.63 L1027.83 1535.08 L1039.64 1535.08 L1039.64 1516.63 M1038.41 1512.56 L1044.29 1512.56 L1044.29 1535.08 L1049.22 1535.08 L1049.22 1538.97 L1044.29 1538.97 L1044.29 1547.12 L1039.64 1547.12 L1039.64 1538.97 L1024.04 1538.97 L1024.04 1534.46 L1038.41 1512.56 Z" fill="#000000" fill-rule="evenodd" fill-opacity="1" /><path clip-path="url(#clip420)" d="M1443.3 1515.64 Q1439.69 1515.64 1437.86 1519.2 Q1436.05 1522.75 1436.05 1529.87 Q1436.05 1536.98 1437.86 1540.55 Q1439.69 1544.09 1443.3 1544.09 Q1446.93 1544.09 1448.74 1540.55 Q1450.57 1536.98 1450.57 1529.87 Q1450.57 1522.75 1448.74 1519.2 Q1446.93 1515.64 1443.3 1515.64 M1443.3 1511.93 Q1449.11 1511.93 1452.17 1516.54 Q1455.24 1521.12 1455.24 1529.87 Q1455.24 1538.6 1452.17 1543.21 Q1449.11 1547.79 1443.3 1547.79 Q1437.49 1547.79 1434.41 1543.21 Q1431.36 1538.6 1431.36 1529.87 Q1431.36 1521.12 1434.41 1516.54 Q1437.49 1511.93 1443.3 1511.93 Z" fill="#000000" fill-rule="evenodd" fill-opacity="1" /><path clip-path="url(#clip420)" d="M1463.46 1541.24 L1468.35 1541.24 L1468.35 1547.12 L1463.46 1547.12 L1463.46 1541.24 Z" fill="#000000" fill-rule="evenodd" fill-opacity="1" /><path clip-path="url(#clip420)" d="M1489.11 1527.98 Q1485.96 1527.98 1484.11 1530.13 Q1482.28 1532.28 1482.28 1536.03 Q1482.28 1539.76 1484.11 1541.93 Q1485.96 1544.09 1489.11 1544.09 Q1492.26 1544.09 1494.09 1541.93 Q1495.94 1539.76 1495.94 1536.03 Q1495.94 1532.28 1494.09 1530.13 Q1492.26 1527.98 1489.11 1527.98 M1498.39 1513.32 L1498.39 1517.58 Q1496.63 1516.75 1494.83 1516.31 Q1493.04 1515.87 1491.29 1515.87 Q1486.66 1515.87 1484.2 1519 Q1481.77 1522.12 1481.42 1528.44 Q1482.79 1526.43 1484.85 1525.36 Q1486.91 1524.27 1489.39 1524.27 Q1494.6 1524.27 1497.6 1527.44 Q1500.64 1530.59 1500.64 1536.03 Q1500.64 1541.36 1497.49 1544.57 Q1494.34 1547.79 1489.11 1547.79 Q1483.11 1547.79 1479.94 1543.21 Q1476.77 1538.6 1476.77 1529.87 Q1476.77 1521.68 1480.66 1516.82 Q1484.55 1511.93 1491.1 1511.93 Q1492.86 1511.93 1494.64 1512.28 Q1496.45 1512.63 1498.39 1513.32 Z" fill="#000000" fill-rule="evenodd" fill-opacity="1" /><path clip-path="url(#clip420)" d="M1895 1515.64 Q1891.39 1515.64 1889.56 1519.2 Q1887.76 1522.75 1887.76 1529.87 Q1887.76 1536.98 1889.56 1540.55 Q1891.39 1544.09 1895 1544.09 Q1898.64 1544.09 1900.44 1540.55 Q1902.27 1536.98 1902.27 1529.87 Q1902.27 1522.75 1900.44 1519.2 Q1898.64 1515.64 1895 1515.64 M1895 1511.93 Q1900.81 1511.93 1903.87 1516.54 Q1906.95 1521.12 1906.95 1529.87 Q1906.95 1538.6 1903.87 1543.21 Q1900.81 1547.79 1895 1547.79 Q1889.19 1547.79 1886.11 1543.21 Q1883.06 1538.6 1883.06 1529.87 Q1883.06 1521.12 1886.11 1516.54 Q1889.19 1511.93 1895 1511.93 Z" fill="#000000" fill-rule="evenodd" fill-opacity="1" /><path clip-path="url(#clip420)" d="M1915.17 1541.24 L1920.05 1541.24 L1920.05 1547.12 L1915.17 1547.12 L1915.17 1541.24 Z" fill="#000000" fill-rule="evenodd" fill-opacity="1" /><path clip-path="url(#clip420)" d="M1940.23 1530.71 Q1936.9 1530.71 1934.98 1532.49 Q1933.08 1534.27 1933.08 1537.4 Q1933.08 1540.52 1934.98 1542.31 Q1936.9 1544.09 1940.23 1544.09 Q1943.57 1544.09 1945.49 1542.31 Q1947.41 1540.5 1947.41 1537.4 Q1947.41 1534.27 1945.49 1532.49 Q1943.59 1530.71 1940.23 1530.71 M1935.56 1528.72 Q1932.55 1527.98 1930.86 1525.92 Q1929.19 1523.86 1929.19 1520.89 Q1929.19 1516.75 1932.13 1514.34 Q1935.1 1511.93 1940.23 1511.93 Q1945.4 1511.93 1948.34 1514.34 Q1951.28 1516.75 1951.28 1520.89 Q1951.28 1523.86 1949.59 1525.92 Q1947.92 1527.98 1944.93 1528.72 Q1948.31 1529.5 1950.19 1531.8 Q1952.09 1534.09 1952.09 1537.4 Q1952.09 1542.42 1949.01 1545.11 Q1945.95 1547.79 1940.23 1547.79 Q1934.52 1547.79 1931.44 1545.11 Q1928.38 1542.42 1928.38 1537.4 Q1928.38 1534.09 1930.28 1531.8 Q1932.18 1529.5 1935.56 1528.72 M1933.85 1521.33 Q1933.85 1524.02 1935.51 1525.52 Q1937.2 1527.03 1940.23 1527.03 Q1943.24 1527.03 1944.93 1525.52 Q1946.65 1524.02 1946.65 1521.33 Q1946.65 1518.65 1944.93 1517.14 Q1943.24 1515.64 1940.23 1515.64 Q1937.2 1515.64 1935.51 1517.14 Q1933.85 1518.65 1933.85 1521.33 Z" fill="#000000" fill-rule="evenodd" fill-opacity="1" /><polyline clip-path="url(#clip422)" style="stroke:#000000; stroke-linecap:butt; stroke-linejoin:round; stroke-width:2; stroke-opacity:0.1; fill:none" points="
  193.288,1385.59 2352.76,1385.59 
  "/>
<polyline clip-path="url(#clip422)" style="stroke:#000000; stroke-linecap:butt; stroke-linejoin:round; stroke-width:2; stroke-opacity:0.1; fill:none" points="
  193.288,1191.62 2352.76,1191.62 
  "/>
<polyline clip-path="url(#clip422)" style="stroke:#000000; stroke-linecap:butt; stroke-linejoin:round; stroke-width:2; stroke-opacity:0.1; fill:none" points="
  193.288,997.662 2352.76,997.662 
  "/>
<polyline clip-path="url(#clip422)" style="stroke:#000000; stroke-linecap:butt; stroke-linejoin:round; stroke-width:2; stroke-opacity:0.1; fill:none" points="
  193.288,803.699 2352.76,803.699 
  "/>
<polyline clip-path="url(#clip422)" style="stroke:#000000; stroke-linecap:butt; stroke-linejoin:round; stroke-width:2; stroke-opacity:0.1; fill:none" points="
  193.288,609.736 2352.76,609.736 
  "/>
<polyline clip-path="url(#clip422)" style="stroke:#000000; stroke-linecap:butt; stroke-linejoin:round; stroke-width:2; stroke-opacity:0.1; fill:none" points="
  193.288,415.773 2352.76,415.773 
  "/>
<polyline clip-path="url(#clip422)" style="stroke:#000000; stroke-linecap:butt; stroke-linejoin:round; stroke-width:2; stroke-opacity:0.1; fill:none" points="
  193.288,221.811 2352.76,221.811 
  "/>
<polyline clip-path="url(#clip420)" style="stroke:#000000; stroke-linecap:butt; stroke-linejoin:round; stroke-width:4; stroke-opacity:1; fill:none" points="
  193.288,1486.45 193.288,47.2441 
  "/>
<polyline clip-path="url(#clip420)" style="stroke:#000000; stroke-linecap:butt; stroke-linejoin:round; stroke-width:4; stroke-opacity:1; fill:none" points="
  193.288,1385.59 219.201,1385.59 
  "/>
<polyline clip-path="url(#clip420)" style="stroke:#000000; stroke-linecap:butt; stroke-linejoin:round; stroke-width:4; stroke-opacity:1; fill:none" points="
  193.288,1191.62 219.201,1191.62 
  "/>
<polyline clip-path="url(#clip420)" style="stroke:#000000; stroke-linecap:butt; stroke-linejoin:round; stroke-width:4; stroke-opacity:1; fill:none" points="
  193.288,997.662 219.201,997.662 
  "/>
<polyline clip-path="url(#clip420)" style="stroke:#000000; stroke-linecap:butt; stroke-linejoin:round; stroke-width:4; stroke-opacity:1; fill:none" points="
  193.288,803.699 219.201,803.699 
  "/>
<polyline clip-path="url(#clip420)" style="stroke:#000000; stroke-linecap:butt; stroke-linejoin:round; stroke-width:4; stroke-opacity:1; fill:none" points="
  193.288,609.736 219.201,609.736 
  "/>
<polyline clip-path="url(#clip420)" style="stroke:#000000; stroke-linecap:butt; stroke-linejoin:round; stroke-width:4; stroke-opacity:1; fill:none" points="
  193.288,415.773 219.201,415.773 
  "/>
<polyline clip-path="url(#clip420)" style="stroke:#000000; stroke-linecap:butt; stroke-linejoin:round; stroke-width:4; stroke-opacity:1; fill:none" points="
  193.288,221.811 219.201,221.811 
  "/>
<path clip-path="url(#clip420)" d="M50.9921 1386.04 L80.6679 1386.04 L80.6679 1389.97 L50.9921 1389.97 L50.9921 1386.04 Z" fill="#000000" fill-rule="evenodd" fill-opacity="1" /><path clip-path="url(#clip420)" d="M100.76 1371.39 Q97.1493 1371.39 95.3206 1374.95 Q93.515 1378.49 93.515 1385.62 Q93.515 1392.73 95.3206 1396.29 Q97.1493 1399.83 100.76 1399.83 Q104.395 1399.83 106.2 1396.29 Q108.029 1392.73 108.029 1385.62 Q108.029 1378.49 106.2 1374.95 Q104.395 1371.39 100.76 1371.39 M100.76 1367.68 Q106.571 1367.68 109.626 1372.29 Q112.705 1376.87 112.705 1385.62 Q112.705 1394.35 109.626 1398.96 Q106.571 1403.54 100.76 1403.54 Q94.9502 1403.54 91.8715 1398.96 Q88.816 1394.35 88.816 1385.62 Q88.816 1376.87 91.8715 1372.29 Q94.9502 1367.68 100.76 1367.68 Z" fill="#000000" fill-rule="evenodd" fill-opacity="1" /><path clip-path="url(#clip420)" d="M120.922 1396.99 L125.807 1396.99 L125.807 1402.87 L120.922 1402.87 L120.922 1396.99 Z" fill="#000000" fill-rule="evenodd" fill-opacity="1" /><path clip-path="url(#clip420)" d="M150.158 1384.23 Q153.515 1384.95 155.39 1387.22 Q157.288 1389.49 157.288 1392.82 Q157.288 1397.94 153.769 1400.74 Q150.251 1403.54 143.769 1403.54 Q141.593 1403.54 139.279 1403.1 Q136.987 1402.68 134.533 1401.83 L134.533 1397.31 Q136.478 1398.45 138.793 1399.02 Q141.107 1399.6 143.631 1399.6 Q148.029 1399.6 150.32 1397.87 Q152.635 1396.13 152.635 1392.82 Q152.635 1389.77 150.482 1388.05 Q148.353 1386.32 144.533 1386.32 L140.506 1386.32 L140.506 1382.47 L144.718 1382.47 Q148.168 1382.47 149.996 1381.11 Q151.825 1379.72 151.825 1377.13 Q151.825 1374.46 149.927 1373.05 Q148.052 1371.62 144.533 1371.62 Q142.612 1371.62 140.413 1372.03 Q138.214 1372.45 135.575 1373.33 L135.575 1369.16 Q138.237 1368.42 140.552 1368.05 Q142.89 1367.68 144.95 1367.68 Q150.274 1367.68 153.376 1370.11 Q156.478 1372.52 156.478 1376.64 Q156.478 1379.51 154.834 1381.5 Q153.191 1383.47 150.158 1384.23 Z" fill="#000000" fill-rule="evenodd" fill-opacity="1" /><path clip-path="url(#clip420)" d="M51.9412 1192.08 L81.617 1192.08 L81.617 1196.01 L51.9412 1196.01 L51.9412 1192.08 Z" fill="#000000" fill-rule="evenodd" fill-opacity="1" /><path clip-path="url(#clip420)" d="M101.709 1177.42 Q98.0984 1177.42 96.2697 1180.99 Q94.4641 1184.53 94.4641 1191.66 Q94.4641 1198.77 96.2697 1202.33 Q98.0984 1205.87 101.709 1205.87 Q105.344 1205.87 107.149 1202.33 Q108.978 1198.77 108.978 1191.66 Q108.978 1184.53 107.149 1180.99 Q105.344 1177.42 101.709 1177.42 M101.709 1173.72 Q107.52 1173.72 110.575 1178.33 Q113.654 1182.91 113.654 1191.66 Q113.654 1200.39 110.575 1204.99 Q107.52 1209.58 101.709 1209.58 Q95.8993 1209.58 92.8206 1204.99 Q89.7651 1200.39 89.7651 1191.66 Q89.7651 1182.91 92.8206 1178.33 Q95.8993 1173.72 101.709 1173.72 Z" fill="#000000" fill-rule="evenodd" fill-opacity="1" /><path clip-path="url(#clip420)" d="M121.871 1203.02 L126.756 1203.02 L126.756 1208.9 L121.871 1208.9 L121.871 1203.02 Z" fill="#000000" fill-rule="evenodd" fill-opacity="1" /><path clip-path="url(#clip420)" d="M140.968 1204.97 L157.288 1204.97 L157.288 1208.9 L135.344 1208.9 L135.344 1204.97 Q138.006 1202.21 142.589 1197.59 Q147.195 1192.93 148.376 1191.59 Q150.621 1189.07 151.501 1187.33 Q152.404 1185.57 152.404 1183.88 Q152.404 1181.13 150.459 1179.39 Q148.538 1177.65 145.436 1177.65 Q143.237 1177.65 140.783 1178.42 Q138.353 1179.18 135.575 1180.73 L135.575 1176.01 Q138.399 1174.88 140.853 1174.3 Q143.306 1173.72 145.343 1173.72 Q150.714 1173.72 153.908 1176.4 Q157.103 1179.09 157.103 1183.58 Q157.103 1185.71 156.292 1187.63 Q155.505 1189.53 153.399 1192.12 Q152.82 1192.79 149.718 1196.01 Q146.617 1199.21 140.968 1204.97 Z" fill="#000000" fill-rule="evenodd" fill-opacity="1" /><path clip-path="url(#clip420)" d="M51.5708 998.113 L81.2466 998.113 L81.2466 1002.05 L51.5708 1002.05 L51.5708 998.113 Z" fill="#000000" fill-rule="evenodd" fill-opacity="1" /><path clip-path="url(#clip420)" d="M101.339 983.46 Q97.728 983.46 95.8993 987.025 Q94.0937 990.567 94.0937 997.696 Q94.0937 1004.8 95.8993 1008.37 Q97.728 1011.91 101.339 1011.91 Q104.973 1011.91 106.779 1008.37 Q108.608 1004.8 108.608 997.696 Q108.608 990.567 106.779 987.025 Q104.973 983.46 101.339 983.46 M101.339 979.757 Q107.149 979.757 110.205 984.363 Q113.283 988.947 113.283 997.696 Q113.283 1006.42 110.205 1011.03 Q107.149 1015.61 101.339 1015.61 Q95.5289 1015.61 92.4502 1011.03 Q89.3947 1006.42 89.3947 997.696 Q89.3947 988.947 92.4502 984.363 Q95.5289 979.757 101.339 979.757 Z" fill="#000000" fill-rule="evenodd" fill-opacity="1" /><path clip-path="url(#clip420)" d="M121.501 1009.06 L126.385 1009.06 L126.385 1014.94 L121.501 1014.94 L121.501 1009.06 Z" fill="#000000" fill-rule="evenodd" fill-opacity="1" /><path clip-path="url(#clip420)" d="M137.381 1011.01 L145.019 1011.01 L145.019 984.641 L136.709 986.308 L136.709 982.048 L144.973 980.382 L149.649 980.382 L149.649 1011.01 L157.288 1011.01 L157.288 1014.94 L137.381 1014.94 L137.381 1011.01 Z" fill="#000000" fill-rule="evenodd" fill-opacity="1" /><path clip-path="url(#clip420)" d="M100.112 789.498 Q96.5011 789.498 94.6724 793.062 Q92.8669 796.604 92.8669 803.734 Q92.8669 810.84 94.6724 814.405 Q96.5011 817.947 100.112 817.947 Q103.746 817.947 105.552 814.405 Q107.381 810.84 107.381 803.734 Q107.381 796.604 105.552 793.062 Q103.746 789.498 100.112 789.498 M100.112 785.794 Q105.922 785.794 108.978 790.4 Q112.057 794.984 112.057 803.734 Q112.057 812.461 108.978 817.067 Q105.922 821.65 100.112 821.65 Q94.3021 821.65 91.2234 817.067 Q88.1679 812.461 88.1679 803.734 Q88.1679 794.984 91.2234 790.4 Q94.3021 785.794 100.112 785.794 Z" fill="#000000" fill-rule="evenodd" fill-opacity="1" /><path clip-path="url(#clip420)" d="M120.274 815.099 L125.158 815.099 L125.158 820.979 L120.274 820.979 L120.274 815.099 Z" fill="#000000" fill-rule="evenodd" fill-opacity="1" /><path clip-path="url(#clip420)" d="M145.343 789.498 Q141.732 789.498 139.904 793.062 Q138.098 796.604 138.098 803.734 Q138.098 810.84 139.904 814.405 Q141.732 817.947 145.343 817.947 Q148.978 817.947 150.783 814.405 Q152.612 810.84 152.612 803.734 Q152.612 796.604 150.783 793.062 Q148.978 789.498 145.343 789.498 M145.343 785.794 Q151.154 785.794 154.209 790.4 Q157.288 794.984 157.288 803.734 Q157.288 812.461 154.209 817.067 Q151.154 821.65 145.343 821.65 Q139.533 821.65 136.455 817.067 Q133.399 812.461 133.399 803.734 Q133.399 794.984 136.455 790.4 Q139.533 785.794 145.343 785.794 Z" fill="#000000" fill-rule="evenodd" fill-opacity="1" /><path clip-path="url(#clip420)" d="M101.339 595.535 Q97.728 595.535 95.8993 599.1 Q94.0937 602.641 94.0937 609.771 Q94.0937 616.877 95.8993 620.442 Q97.728 623.984 101.339 623.984 Q104.973 623.984 106.779 620.442 Q108.608 616.877 108.608 609.771 Q108.608 602.641 106.779 599.1 Q104.973 595.535 101.339 595.535 M101.339 591.831 Q107.149 591.831 110.205 596.438 Q113.283 601.021 113.283 609.771 Q113.283 618.498 110.205 623.104 Q107.149 627.687 101.339 627.687 Q95.5289 627.687 92.4502 623.104 Q89.3947 618.498 89.3947 609.771 Q89.3947 601.021 92.4502 596.438 Q95.5289 591.831 101.339 591.831 Z" fill="#000000" fill-rule="evenodd" fill-opacity="1" /><path clip-path="url(#clip420)" d="M121.501 621.137 L126.385 621.137 L126.385 627.016 L121.501 627.016 L121.501 621.137 Z" fill="#000000" fill-rule="evenodd" fill-opacity="1" /><path clip-path="url(#clip420)" d="M137.381 623.081 L145.019 623.081 L145.019 596.715 L136.709 598.382 L136.709 594.123 L144.973 592.456 L149.649 592.456 L149.649 623.081 L157.288 623.081 L157.288 627.016 L137.381 627.016 L137.381 623.081 Z" fill="#000000" fill-rule="evenodd" fill-opacity="1" /><path clip-path="url(#clip420)" d="M101.709 401.572 Q98.0984 401.572 96.2697 405.137 Q94.4641 408.679 94.4641 415.808 Q94.4641 422.915 96.2697 426.479 Q98.0984 430.021 101.709 430.021 Q105.344 430.021 107.149 426.479 Q108.978 422.915 108.978 415.808 Q108.978 408.679 107.149 405.137 Q105.344 401.572 101.709 401.572 M101.709 397.868 Q107.52 397.868 110.575 402.475 Q113.654 407.058 113.654 415.808 Q113.654 424.535 110.575 429.141 Q107.52 433.725 101.709 433.725 Q95.8993 433.725 92.8206 429.141 Q89.7651 424.535 89.7651 415.808 Q89.7651 407.058 92.8206 402.475 Q95.8993 397.868 101.709 397.868 Z" fill="#000000" fill-rule="evenodd" fill-opacity="1" /><path clip-path="url(#clip420)" d="M121.871 427.174 L126.756 427.174 L126.756 433.053 L121.871 433.053 L121.871 427.174 Z" fill="#000000" fill-rule="evenodd" fill-opacity="1" /><path clip-path="url(#clip420)" d="M140.968 429.118 L157.288 429.118 L157.288 433.053 L135.344 433.053 L135.344 429.118 Q138.006 426.364 142.589 421.734 Q147.195 417.081 148.376 415.739 Q150.621 413.216 151.501 411.479 Q152.404 409.72 152.404 408.03 Q152.404 405.276 150.459 403.54 Q148.538 401.804 145.436 401.804 Q143.237 401.804 140.783 402.567 Q138.353 403.331 135.575 404.882 L135.575 400.16 Q138.399 399.026 140.853 398.447 Q143.306 397.868 145.343 397.868 Q150.714 397.868 153.908 400.554 Q157.103 403.239 157.103 407.729 Q157.103 409.859 156.292 411.78 Q155.505 413.679 153.399 416.271 Q152.82 416.942 149.718 420.16 Q146.617 423.354 140.968 429.118 Z" fill="#000000" fill-rule="evenodd" fill-opacity="1" /><path clip-path="url(#clip420)" d="M100.76 207.609 Q97.1493 207.609 95.3206 211.174 Q93.515 214.716 93.515 221.845 Q93.515 228.952 95.3206 232.517 Q97.1493 236.058 100.76 236.058 Q104.395 236.058 106.2 232.517 Q108.029 228.952 108.029 221.845 Q108.029 214.716 106.2 211.174 Q104.395 207.609 100.76 207.609 M100.76 203.906 Q106.571 203.906 109.626 208.512 Q112.705 213.095 112.705 221.845 Q112.705 230.572 109.626 235.179 Q106.571 239.762 100.76 239.762 Q94.9502 239.762 91.8715 235.179 Q88.816 230.572 88.816 221.845 Q88.816 213.095 91.8715 208.512 Q94.9502 203.906 100.76 203.906 Z" fill="#000000" fill-rule="evenodd" fill-opacity="1" /><path clip-path="url(#clip420)" d="M120.922 233.211 L125.807 233.211 L125.807 239.091 L120.922 239.091 L120.922 233.211 Z" fill="#000000" fill-rule="evenodd" fill-opacity="1" /><path clip-path="url(#clip420)" d="M150.158 220.456 Q153.515 221.174 155.39 223.443 Q157.288 225.711 157.288 229.044 Q157.288 234.16 153.769 236.961 Q150.251 239.762 143.769 239.762 Q141.593 239.762 139.279 239.322 Q136.987 238.905 134.533 238.049 L134.533 233.535 Q136.478 234.669 138.793 235.248 Q141.107 235.827 143.631 235.827 Q148.029 235.827 150.32 234.091 Q152.635 232.355 152.635 229.044 Q152.635 225.989 150.482 224.276 Q148.353 222.54 144.533 222.54 L140.506 222.54 L140.506 218.697 L144.718 218.697 Q148.168 218.697 149.996 217.332 Q151.825 215.943 151.825 213.35 Q151.825 210.688 149.927 209.276 Q148.052 207.841 144.533 207.841 Q142.612 207.841 140.413 208.257 Q138.214 208.674 135.575 209.554 L135.575 205.387 Q138.237 204.646 140.552 204.276 Q142.89 203.906 144.95 203.906 Q150.274 203.906 153.376 206.336 Q156.478 208.744 156.478 212.864 Q156.478 215.734 154.834 217.725 Q153.191 219.693 150.158 220.456 Z" fill="#000000" fill-rule="evenodd" fill-opacity="1" /><polyline clip-path="url(#clip422)" style="stroke:#009af9; stroke-linecap:butt; stroke-linejoin:round; stroke-width:4; stroke-opacity:1; fill:none" points="
  254.405,926.661 539.454,977.569 708.367,540.785 847.942,660.686 1084.41,1057.79 1264.85,630.903 1430.22,772.969 1679.93,987.478 2003.43,683.489 2291.64,737.114 
  
  "/>
<circle clip-path="url(#clip422)" cx="254.405" cy="926.661" r="14" fill="#009af9" fill-rule="evenodd" fill-opacity="1" stroke="#000000" stroke-opacity="1" stroke-width="3.2"/>
<circle clip-path="url(#clip422)" cx="539.454" cy="977.569" r="14" fill="#009af9" fill-rule="evenodd" fill-opacity="1" stroke="#000000" stroke-opacity="1" stroke-width="3.2"/>
<circle clip-path="url(#clip422)" cx="708.367" cy="540.785" r="14" fill="#009af9" fill-rule="evenodd" fill-opacity="1" stroke="#000000" stroke-opacity="1" stroke-width="3.2"/>
<circle clip-path="url(#clip422)" cx="847.942" cy="660.686" r="14" fill="#009af9" fill-rule="evenodd" fill-opacity="1" stroke="#000000" stroke-opacity="1" stroke-width="3.2"/>
<circle clip-path="url(#clip422)" cx="1084.41" cy="1057.79" r="14" fill="#009af9" fill-rule="evenodd" fill-opacity="1" stroke="#000000" stroke-opacity="1" stroke-width="3.2"/>
<circle clip-path="url(#clip422)" cx="1264.85" cy="630.903" r="14" fill="#009af9" fill-rule="evenodd" fill-opacity="1" stroke="#000000" stroke-opacity="1" stroke-width="3.2"/>
<circle clip-path="url(#clip422)" cx="1430.22" cy="772.969" r="14" fill="#009af9" fill-rule="evenodd" fill-opacity="1" stroke="#000000" stroke-opacity="1" stroke-width="3.2"/>
<circle clip-path="url(#clip422)" cx="1679.93" cy="987.478" r="14" fill="#009af9" fill-rule="evenodd" fill-opacity="1" stroke="#000000" stroke-opacity="1" stroke-width="3.2"/>
<circle clip-path="url(#clip422)" cx="2003.43" cy="683.489" r="14" fill="#009af9" fill-rule="evenodd" fill-opacity="1" stroke="#000000" stroke-opacity="1" stroke-width="3.2"/>
<circle clip-path="url(#clip422)" cx="2291.64" cy="737.114" r="14" fill="#009af9" fill-rule="evenodd" fill-opacity="1" stroke="#000000" stroke-opacity="1" stroke-width="3.2"/>
<polyline clip-path="url(#clip422)" style="stroke:#000000; stroke-linecap:butt; stroke-linejoin:round; stroke-width:4; stroke-opacity:1; fill:none" points="
  254.405,926.661 254.405,538.736 
  "/>
<polyline clip-path="url(#clip422)" style="stroke:#000000; stroke-linecap:butt; stroke-linejoin:round; stroke-width:4; stroke-opacity:1; fill:none" points="
  539.454,1171.53 539.454,201.718 
  "/>
<polyline clip-path="url(#clip422)" style="stroke:#000000; stroke-linecap:butt; stroke-linejoin:round; stroke-width:4; stroke-opacity:1; fill:none" points="
  708.367,1316.64 708.367,152.86 
  "/>
<polyline clip-path="url(#clip422)" style="stroke:#000000; stroke-linecap:butt; stroke-linejoin:round; stroke-width:4; stroke-opacity:1; fill:none" points="
  847.942,1242.57 847.942,272.761 
  "/>
<polyline clip-path="url(#clip422)" style="stroke:#000000; stroke-linecap:butt; stroke-linejoin:round; stroke-width:4; stroke-opacity:1; fill:none" points="
  1084.41,1445.72 1084.41,87.9763 
  "/>
<polyline clip-path="url(#clip422)" style="stroke:#000000; stroke-linecap:butt; stroke-linejoin:round; stroke-width:4; stroke-opacity:1; fill:none" points="
  1264.85,1406.75 1264.85,242.977 
  "/>
<polyline clip-path="url(#clip422)" style="stroke:#000000; stroke-linecap:butt; stroke-linejoin:round; stroke-width:4; stroke-opacity:1; fill:none" points="
  1430.22,1354.86 1430.22,191.08 
  "/>
<polyline clip-path="url(#clip422)" style="stroke:#000000; stroke-linecap:butt; stroke-linejoin:round; stroke-width:4; stroke-opacity:1; fill:none" points="
  1679.93,1375.4 1679.93,211.627 
  "/>
<polyline clip-path="url(#clip422)" style="stroke:#000000; stroke-linecap:butt; stroke-linejoin:round; stroke-width:4; stroke-opacity:1; fill:none" points="
  2003.43,1265.38 2003.43,489.527 
  "/>
<polyline clip-path="url(#clip422)" style="stroke:#000000; stroke-linecap:butt; stroke-linejoin:round; stroke-width:4; stroke-opacity:1; fill:none" points="
  2291.64,1125.04 2291.64,737.114 
  "/>
<line clip-path="url(#clip422)" x1="270.405" y1="926.661" x2="238.405" y2="926.661" style="stroke:#000000; stroke-width:3.2; stroke-opacity:1"/>
<line clip-path="url(#clip422)" x1="270.405" y1="538.736" x2="238.405" y2="538.736" style="stroke:#000000; stroke-width:3.2; stroke-opacity:1"/>
<line clip-path="url(#clip422)" x1="555.454" y1="1171.53" x2="523.454" y2="1171.53" style="stroke:#000000; stroke-width:3.2; stroke-opacity:1"/>
<line clip-path="url(#clip422)" x1="555.454" y1="201.718" x2="523.454" y2="201.718" style="stroke:#000000; stroke-width:3.2; stroke-opacity:1"/>
<line clip-path="url(#clip422)" x1="724.367" y1="1316.64" x2="692.367" y2="1316.64" style="stroke:#000000; stroke-width:3.2; stroke-opacity:1"/>
<line clip-path="url(#clip422)" x1="724.367" y1="152.86" x2="692.367" y2="152.86" style="stroke:#000000; stroke-width:3.2; stroke-opacity:1"/>
<line clip-path="url(#clip422)" x1="863.942" y1="1242.57" x2="831.942" y2="1242.57" style="stroke:#000000; stroke-width:3.2; stroke-opacity:1"/>
<line clip-path="url(#clip422)" x1="863.942" y1="272.761" x2="831.942" y2="272.761" style="stroke:#000000; stroke-width:3.2; stroke-opacity:1"/>
<line clip-path="url(#clip422)" x1="1100.41" y1="1445.72" x2="1068.41" y2="1445.72" style="stroke:#000000; stroke-width:3.2; stroke-opacity:1"/>
<line clip-path="url(#clip422)" x1="1100.41" y1="87.9763" x2="1068.41" y2="87.9763" style="stroke:#000000; stroke-width:3.2; stroke-opacity:1"/>
<line clip-path="url(#clip422)" x1="1280.85" y1="1406.75" x2="1248.85" y2="1406.75" style="stroke:#000000; stroke-width:3.2; stroke-opacity:1"/>
<line clip-path="url(#clip422)" x1="1280.85" y1="242.977" x2="1248.85" y2="242.977" style="stroke:#000000; stroke-width:3.2; stroke-opacity:1"/>
<line clip-path="url(#clip422)" x1="1446.22" y1="1354.86" x2="1414.22" y2="1354.86" style="stroke:#000000; stroke-width:3.2; stroke-opacity:1"/>
<line clip-path="url(#clip422)" x1="1446.22" y1="191.08" x2="1414.22" y2="191.08" style="stroke:#000000; stroke-width:3.2; stroke-opacity:1"/>
<line clip-path="url(#clip422)" x1="1695.93" y1="1375.4" x2="1663.93" y2="1375.4" style="stroke:#000000; stroke-width:3.2; stroke-opacity:1"/>
<line clip-path="url(#clip422)" x1="1695.93" y1="211.627" x2="1663.93" y2="211.627" style="stroke:#000000; stroke-width:3.2; stroke-opacity:1"/>
<line clip-path="url(#clip422)" x1="2019.43" y1="1265.38" x2="1987.43" y2="1265.38" style="stroke:#000000; stroke-width:3.2; stroke-opacity:1"/>
<line clip-path="url(#clip422)" x1="2019.43" y1="489.527" x2="1987.43" y2="489.527" style="stroke:#000000; stroke-width:3.2; stroke-opacity:1"/>
<line clip-path="url(#clip422)" x1="2307.64" y1="1125.04" x2="2275.64" y2="1125.04" style="stroke:#000000; stroke-width:3.2; stroke-opacity:1"/>
<line clip-path="url(#clip422)" x1="2307.64" y1="737.114" x2="2275.64" y2="737.114" style="stroke:#000000; stroke-width:3.2; stroke-opacity:1"/>
<path clip-path="url(#clip420)" d="
M1988.4 216.178 L2280.77 216.178 L2280.77 95.2176 L1988.4 95.2176  Z
  " fill="#ffffff" fill-rule="evenodd" fill-opacity="1"/>
<polyline clip-path="url(#clip420)" style="stroke:#000000; stroke-linecap:butt; stroke-linejoin:round; stroke-width:4; stroke-opacity:1; fill:none" points="
  1988.4,216.178 2280.77,216.178 2280.77,95.2176 1988.4,95.2176 1988.4,216.178 
  "/>
<polyline clip-path="url(#clip420)" style="stroke:#009af9; stroke-linecap:butt; stroke-linejoin:round; stroke-width:4; stroke-opacity:1; fill:none" points="
  2012.4,155.698 2156.36,155.698 
  "/>
<circle clip-path="url(#clip420)" cx="2084.38" cy="155.698" r="23" fill="#009af9" fill-rule="evenodd" fill-opacity="1" stroke="#000000" stroke-opacity="1" stroke-width="5.12"/>
<path clip-path="url(#clip420)" d="M2194.2 175.385 Q2192.39 180.015 2190.68 181.427 Q2188.97 182.839 2186.1 182.839 L2182.69 182.839 L2182.69 179.274 L2185.19 179.274 Q2186.95 179.274 2187.92 178.44 Q2188.9 177.607 2190.08 174.505 L2190.84 172.561 L2180.36 147.052 L2184.87 147.052 L2192.97 167.329 L2201.07 147.052 L2205.59 147.052 L2194.2 175.385 Z" fill="#000000" fill-rule="evenodd" fill-opacity="1" /><path clip-path="url(#clip420)" d="M2212.88 169.042 L2220.52 169.042 L2220.52 142.677 L2212.21 144.343 L2212.21 140.084 L2220.47 138.418 L2225.15 138.418 L2225.15 169.042 L2232.79 169.042 L2232.79 172.978 L2212.88 172.978 L2212.88 169.042 Z" fill="#000000" fill-rule="evenodd" fill-opacity="1" /></svg>
