<?xml version="1.0" encoding="utf-8"?>
<svg xmlns="http://www.w3.org/2000/svg" xmlns:xlink="http://www.w3.org/1999/xlink" width="600" height="400" viewBox="0 0 2400 1600">
<defs>
  <clipPath id="clip730">
    <rect x="0" y="0" width="2400" height="1600"/>
  </clipPath>
</defs>
<path clip-path="url(#clip730)" d="
M0 1600 L2400 1600 L2400 0 L0 0  Z
  " fill="#ffffff" fill-rule="evenodd" fill-opacity="1"/>
<defs>
  <clipPath id="clip731">
    <rect x="480" y="0" width="1681" height="1600"/>
  </clipPath>
</defs>
<path clip-path="url(#clip730)" d="
M255.607 1423.18 L2352.76 1423.18 L2352.76 47.2441 L255.607 47.2441  Z
  " fill="#ffffff" fill-rule="evenodd" fill-opacity="1"/>
<defs>
  <clipPath id="clip732">
    <rect x="255" y="47" width="2098" height="1377"/>
  </clipPath>
</defs>
<polyline clip-path="url(#clip732)" style="stroke:#000000; stroke-linecap:round; stroke-linejoin:round; stroke-width:2; stroke-opacity:0.1; fill:none" points="
  629.857,1423.18 629.857,47.2441 
  "/>
<polyline clip-path="url(#clip732)" style="stroke:#000000; stroke-linecap:round; stroke-linejoin:round; stroke-width:2; stroke-opacity:0.1; fill:none" points="
  1068.47,1423.18 1068.47,47.2441 
  "/>
<polyline clip-path="url(#clip732)" style="stroke:#000000; stroke-linecap:round; stroke-linejoin:round; stroke-width:2; stroke-opacity:0.1; fill:none" points="
  1507.07,1423.18 1507.07,47.2441 
  "/>
<polyline clip-path="url(#clip732)" style="stroke:#000000; stroke-linecap:round; stroke-linejoin:round; stroke-width:2; stroke-opacity:0.1; fill:none" points="
  1945.68,1423.18 1945.68,47.2441 
  "/>
<polyline clip-path="url(#clip730)" style="stroke:#000000; stroke-linecap:round; stroke-linejoin:round; stroke-width:4; stroke-opacity:1; fill:none" points="
  255.607,1423.18 2352.76,1423.18 
  "/>
<polyline clip-path="url(#clip730)" style="stroke:#000000; stroke-linecap:round; stroke-linejoin:round; stroke-width:4; stroke-opacity:1; fill:none" points="
  629.857,1423.18 629.857,1404.28 
  "/>
<polyline clip-path="url(#clip730)" style="stroke:#000000; stroke-linecap:round; stroke-linejoin:round; stroke-width:4; stroke-opacity:1; fill:none" points="
  1068.47,1423.18 1068.47,1404.28 
  "/>
<polyline clip-path="url(#clip730)" style="stroke:#000000; stroke-linecap:round; stroke-linejoin:round; stroke-width:4; stroke-opacity:1; fill:none" points="
  1507.07,1423.18 1507.07,1404.28 
  "/>
<polyline clip-path="url(#clip730)" style="stroke:#000000; stroke-linecap:round; stroke-linejoin:round; stroke-width:4; stroke-opacity:1; fill:none" points="
  1945.68,1423.18 1945.68,1404.28 
  "/>
<path clip-path="url(#clip730)" d="M608.04 1454.1 Q604.429 1454.1 602.6 1457.66 Q600.795 1461.2 600.795 1468.33 Q600.795 1475.44 602.6 1479.01 Q604.429 1482.55 608.04 1482.55 Q611.674 1482.55 613.48 1479.01 Q615.308 1475.44 615.308 1468.33 Q615.308 1461.2 613.48 1457.66 Q611.674 1454.1 608.04 1454.1 M608.04 1450.39 Q613.85 1450.39 616.906 1455 Q619.984 1459.58 619.984 1468.33 Q619.984 1477.06 616.906 1481.67 Q613.85 1486.25 608.04 1486.25 Q602.23 1486.25 599.151 1481.67 Q596.095 1477.06 596.095 1468.33 Q596.095 1459.58 599.151 1455 Q602.23 1450.39 608.04 1450.39 Z" fill="#000000" fill-rule="evenodd" fill-opacity="1" /><path clip-path="url(#clip730)" d="M628.202 1479.7 L633.086 1479.7 L633.086 1485.58 L628.202 1485.58 L628.202 1479.7 Z" fill="#000000" fill-rule="evenodd" fill-opacity="1" /><path clip-path="url(#clip730)" d="M647.299 1481.64 L663.618 1481.64 L663.618 1485.58 L641.674 1485.58 L641.674 1481.64 Q644.336 1478.89 648.919 1474.26 Q653.526 1469.61 654.706 1468.27 Q656.952 1465.74 657.831 1464.01 Q658.734 1462.25 658.734 1460.56 Q658.734 1457.8 656.79 1456.07 Q654.868 1454.33 651.766 1454.33 Q649.567 1454.33 647.114 1455.09 Q644.683 1455.86 641.905 1457.41 L641.905 1452.69 Q644.729 1451.55 647.183 1450.97 Q649.637 1450.39 651.674 1450.39 Q657.044 1450.39 660.239 1453.08 Q663.433 1455.77 663.433 1460.26 Q663.433 1462.39 662.623 1464.31 Q661.836 1466.2 659.729 1468.8 Q659.151 1469.47 656.049 1472.69 Q652.947 1475.88 647.299 1481.64 Z" fill="#000000" fill-rule="evenodd" fill-opacity="1" /><path clip-path="url(#clip730)" d="M1045.61 1454.1 Q1042 1454.1 1040.17 1457.66 Q1038.36 1461.2 1038.36 1468.33 Q1038.36 1475.44 1040.17 1479.01 Q1042 1482.55 1045.61 1482.55 Q1049.24 1482.55 1051.05 1479.01 Q1052.87 1475.44 1052.87 1468.33 Q1052.87 1461.2 1051.05 1457.66 Q1049.24 1454.1 1045.61 1454.1 M1045.61 1450.39 Q1051.42 1450.39 1054.47 1455 Q1057.55 1459.58 1057.55 1468.33 Q1057.55 1477.06 1054.47 1481.67 Q1051.42 1486.25 1045.61 1486.25 Q1039.8 1486.25 1036.72 1481.67 Q1033.66 1477.06 1033.66 1468.33 Q1033.66 1459.58 1036.72 1455 Q1039.8 1450.39 1045.61 1450.39 Z" fill="#000000" fill-rule="evenodd" fill-opacity="1" /><path clip-path="url(#clip730)" d="M1065.77 1479.7 L1070.65 1479.7 L1070.65 1485.58 L1065.77 1485.58 L1065.77 1479.7 Z" fill="#000000" fill-rule="evenodd" fill-opacity="1" /><path clip-path="url(#clip730)" d="M1093.68 1455.09 L1081.88 1473.54 L1093.68 1473.54 L1093.68 1455.09 M1092.46 1451.02 L1098.34 1451.02 L1098.34 1473.54 L1103.27 1473.54 L1103.27 1477.43 L1098.34 1477.43 L1098.34 1485.58 L1093.68 1485.58 L1093.68 1477.43 L1078.08 1477.43 L1078.08 1472.92 L1092.46 1451.02 Z" fill="#000000" fill-rule="evenodd" fill-opacity="1" /><path clip-path="url(#clip730)" d="M1484.38 1454.1 Q1480.77 1454.1 1478.94 1457.66 Q1477.13 1461.2 1477.13 1468.33 Q1477.13 1475.44 1478.94 1479.01 Q1480.77 1482.55 1484.38 1482.55 Q1488.01 1482.55 1489.82 1479.01 Q1491.65 1475.44 1491.65 1468.33 Q1491.65 1461.2 1489.82 1457.66 Q1488.01 1454.1 1484.38 1454.1 M1484.38 1450.39 Q1490.19 1450.39 1493.24 1455 Q1496.32 1459.58 1496.32 1468.33 Q1496.32 1477.06 1493.24 1481.67 Q1490.19 1486.25 1484.38 1486.25 Q1478.57 1486.25 1475.49 1481.67 Q1472.43 1477.06 1472.43 1468.33 Q1472.43 1459.58 1475.49 1455 Q1478.57 1450.39 1484.38 1450.39 Z" fill="#000000" fill-rule="evenodd" fill-opacity="1" /><path clip-path="url(#clip730)" d="M1504.54 1479.7 L1509.42 1479.7 L1509.42 1485.58 L1504.54 1485.58 L1504.54 1479.7 Z" fill="#000000" fill-rule="evenodd" fill-opacity="1" /><path clip-path="url(#clip730)" d="M1530.19 1466.44 Q1527.04 1466.44 1525.19 1468.59 Q1523.36 1470.74 1523.36 1474.49 Q1523.36 1478.22 1525.19 1480.39 Q1527.04 1482.55 1530.19 1482.55 Q1533.33 1482.55 1535.16 1480.39 Q1537.02 1478.22 1537.02 1474.49 Q1537.02 1470.74 1535.16 1468.59 Q1533.33 1466.44 1530.19 1466.44 M1539.47 1451.78 L1539.47 1456.04 Q1537.71 1455.21 1535.9 1454.77 Q1534.12 1454.33 1532.36 1454.33 Q1527.73 1454.33 1525.28 1457.45 Q1522.85 1460.58 1522.5 1466.9 Q1523.87 1464.89 1525.93 1463.82 Q1527.99 1462.73 1530.46 1462.73 Q1535.67 1462.73 1538.68 1465.9 Q1541.71 1469.05 1541.71 1474.49 Q1541.71 1479.82 1538.57 1483.03 Q1535.42 1486.25 1530.19 1486.25 Q1524.19 1486.25 1521.02 1481.67 Q1517.85 1477.06 1517.85 1468.33 Q1517.85 1460.14 1521.74 1455.28 Q1525.63 1450.39 1532.18 1450.39 Q1533.94 1450.39 1535.72 1450.74 Q1537.52 1451.09 1539.47 1451.78 Z" fill="#000000" fill-rule="evenodd" fill-opacity="1" /><path clip-path="url(#clip730)" d="M1923.11 1454.1 Q1919.5 1454.1 1917.67 1457.66 Q1915.87 1461.2 1915.87 1468.33 Q1915.87 1475.44 1917.67 1479.01 Q1919.5 1482.55 1923.11 1482.55 Q1926.75 1482.55 1928.55 1479.01 Q1930.38 1475.44 1930.38 1468.33 Q1930.38 1461.2 1928.55 1457.66 Q1926.75 1454.1 1923.11 1454.1 M1923.11 1450.39 Q1928.92 1450.39 1931.98 1455 Q1935.06 1459.58 1935.06 1468.33 Q1935.06 1477.06 1931.98 1481.67 Q1928.92 1486.25 1923.11 1486.25 Q1917.3 1486.25 1914.22 1481.67 Q1911.17 1477.06 1911.17 1468.33 Q1911.17 1459.58 1914.22 1455 Q1917.3 1450.39 1923.11 1450.39 Z" fill="#000000" fill-rule="evenodd" fill-opacity="1" /><path clip-path="url(#clip730)" d="M1943.27 1479.7 L1948.16 1479.7 L1948.16 1485.58 L1943.27 1485.58 L1943.27 1479.7 Z" fill="#000000" fill-rule="evenodd" fill-opacity="1" /><path clip-path="url(#clip730)" d="M1968.34 1469.17 Q1965.01 1469.17 1963.09 1470.95 Q1961.19 1472.73 1961.19 1475.86 Q1961.19 1478.98 1963.09 1480.77 Q1965.01 1482.55 1968.34 1482.55 Q1971.68 1482.55 1973.6 1480.77 Q1975.52 1478.96 1975.52 1475.86 Q1975.52 1472.73 1973.6 1470.95 Q1971.7 1469.17 1968.34 1469.17 M1963.67 1467.18 Q1960.66 1466.44 1958.97 1464.38 Q1957.3 1462.32 1957.3 1459.35 Q1957.3 1455.21 1960.24 1452.8 Q1963.2 1450.39 1968.34 1450.39 Q1973.51 1450.39 1976.45 1452.8 Q1979.38 1455.21 1979.38 1459.35 Q1979.38 1462.32 1977.7 1464.38 Q1976.03 1466.44 1973.04 1467.18 Q1976.42 1467.96 1978.3 1470.26 Q1980.2 1472.55 1980.2 1475.86 Q1980.2 1480.88 1977.12 1483.57 Q1974.06 1486.25 1968.34 1486.25 Q1962.63 1486.25 1959.55 1483.57 Q1956.49 1480.88 1956.49 1475.86 Q1956.49 1472.55 1958.39 1470.26 Q1960.29 1467.96 1963.67 1467.18 M1961.95 1459.79 Q1961.95 1462.48 1963.62 1463.98 Q1965.31 1465.49 1968.34 1465.49 Q1971.35 1465.49 1973.04 1463.98 Q1974.76 1462.48 1974.76 1459.79 Q1974.76 1457.11 1973.04 1455.6 Q1971.35 1454.1 1968.34 1454.1 Q1965.31 1454.1 1963.62 1455.6 Q1961.95 1457.11 1961.95 1459.79 Z" fill="#000000" fill-rule="evenodd" fill-opacity="1" /><path clip-path="url(#clip730)" d="M1157.5 1533.76 L1157.5 1539.24 Q1155.02 1537.87 1152.5 1537.2 Q1150.02 1536.5 1147.47 1536.5 Q1141.78 1536.5 1138.63 1540.13 Q1135.47 1543.73 1135.47 1550.25 Q1135.47 1556.78 1138.63 1560.4 Q1141.78 1564 1147.47 1564 Q1150.02 1564 1152.5 1563.33 Q1155.02 1562.63 1157.5 1561.26 L1157.5 1566.68 Q1155.05 1567.82 1152.41 1568.39 Q1149.8 1568.97 1146.84 1568.97 Q1138.78 1568.97 1134.04 1563.91 Q1129.3 1558.85 1129.3 1550.25 Q1129.3 1541.53 1134.07 1536.53 Q1138.88 1531.54 1147.22 1531.54 Q1149.92 1531.54 1152.5 1532.11 Q1155.08 1532.65 1157.5 1533.76 Z" fill="#000000" fill-rule="evenodd" fill-opacity="1" /><path clip-path="url(#clip730)" d="M1181.5 1536.5 Q1176.79 1536.5 1174.05 1540.19 Q1171.31 1543.85 1171.31 1550.25 Q1171.31 1556.65 1174.02 1560.34 Q1176.76 1564 1181.5 1564 Q1186.18 1564 1188.91 1560.31 Q1191.65 1556.62 1191.65 1550.25 Q1191.65 1543.92 1188.91 1540.23 Q1186.18 1536.5 1181.5 1536.5 M1181.5 1531.54 Q1189.14 1531.54 1193.5 1536.5 Q1197.86 1541.47 1197.86 1550.25 Q1197.86 1559 1193.5 1564 Q1189.14 1568.97 1181.5 1568.97 Q1173.83 1568.97 1169.47 1564 Q1165.14 1559 1165.14 1550.25 Q1165.14 1541.47 1169.47 1536.5 Q1173.83 1531.54 1181.5 1531.54 Z" fill="#000000" fill-rule="evenodd" fill-opacity="1" /><path clip-path="url(#clip730)" d="M1237.2 1546.53 L1237.2 1568.04 L1231.34 1568.04 L1231.34 1546.72 Q1231.34 1541.66 1229.37 1539.14 Q1227.4 1536.63 1223.45 1536.63 Q1218.71 1536.63 1215.97 1539.65 Q1213.23 1542.68 1213.23 1547.9 L1213.23 1568.04 L1207.34 1568.04 L1207.34 1532.4 L1213.23 1532.4 L1213.23 1537.93 Q1215.33 1534.72 1218.16 1533.13 Q1221.03 1531.54 1224.75 1531.54 Q1230.9 1531.54 1234.05 1535.36 Q1237.2 1539.14 1237.2 1546.53 Z" fill="#000000" fill-rule="evenodd" fill-opacity="1" /><path clip-path="url(#clip730)" d="M1266.93 1518.52 L1266.93 1523.39 L1261.32 1523.39 Q1258.17 1523.39 1256.93 1524.66 Q1255.72 1525.93 1255.72 1529.24 L1255.72 1532.4 L1265.37 1532.4 L1265.37 1536.95 L1255.72 1536.95 L1255.72 1568.04 L1249.83 1568.04 L1249.83 1536.95 L1244.23 1536.95 L1244.23 1532.4 L1249.83 1532.4 L1249.83 1529.91 Q1249.83 1523.96 1252.6 1521.26 Q1255.37 1518.52 1261.39 1518.52 L1266.93 1518.52 Z" fill="#000000" fill-rule="evenodd" fill-opacity="1" /><path clip-path="url(#clip730)" d="M1271.83 1532.4 L1277.68 1532.4 L1277.68 1568.04 L1271.83 1568.04 L1271.83 1532.4 M1271.83 1518.52 L1277.68 1518.52 L1277.68 1525.93 L1271.83 1525.93 L1271.83 1518.52 Z" fill="#000000" fill-rule="evenodd" fill-opacity="1" /><path clip-path="url(#clip730)" d="M1313.4 1537.81 L1313.4 1518.52 L1319.25 1518.52 L1319.25 1568.04 L1313.4 1568.04 L1313.4 1562.7 Q1311.55 1565.88 1308.72 1567.44 Q1305.92 1568.97 1301.97 1568.97 Q1295.51 1568.97 1291.43 1563.81 Q1287.39 1558.65 1287.39 1550.25 Q1287.39 1541.85 1291.43 1536.69 Q1295.51 1531.54 1301.97 1531.54 Q1305.92 1531.54 1308.72 1533.1 Q1311.55 1534.62 1313.4 1537.81 M1293.44 1550.25 Q1293.44 1556.71 1296.08 1560.4 Q1298.75 1564.07 1303.4 1564.07 Q1308.05 1564.07 1310.72 1560.4 Q1313.4 1556.71 1313.4 1550.25 Q1313.4 1543.79 1310.72 1540.13 Q1308.05 1536.44 1303.4 1536.44 Q1298.75 1536.44 1296.08 1540.13 Q1293.44 1543.79 1293.44 1550.25 Z" fill="#000000" fill-rule="evenodd" fill-opacity="1" /><path clip-path="url(#clip730)" d="M1361.81 1548.76 L1361.81 1551.62 L1334.88 1551.62 Q1335.26 1557.67 1338.51 1560.85 Q1341.79 1564 1347.61 1564 Q1350.99 1564 1354.14 1563.17 Q1357.32 1562.35 1360.44 1560.69 L1360.44 1566.23 Q1357.29 1567.57 1353.98 1568.27 Q1350.67 1568.97 1347.26 1568.97 Q1338.73 1568.97 1333.73 1564 Q1328.77 1559.04 1328.77 1550.57 Q1328.77 1541.82 1333.48 1536.69 Q1338.22 1531.54 1346.24 1531.54 Q1353.44 1531.54 1357.61 1536.18 Q1361.81 1540.8 1361.81 1548.76 M1355.95 1547.04 Q1355.89 1542.23 1353.25 1539.37 Q1350.64 1536.5 1346.31 1536.5 Q1341.4 1536.5 1338.44 1539.27 Q1335.52 1542.04 1335.07 1547.07 L1355.95 1547.04 Z" fill="#000000" fill-rule="evenodd" fill-opacity="1" /><path clip-path="url(#clip730)" d="M1401.05 1546.53 L1401.05 1568.04 L1395.2 1568.04 L1395.2 1546.72 Q1395.2 1541.66 1393.22 1539.14 Q1391.25 1536.63 1387.3 1536.63 Q1382.56 1536.63 1379.82 1539.65 Q1377.08 1542.68 1377.08 1547.9 L1377.08 1568.04 L1371.2 1568.04 L1371.2 1532.4 L1377.08 1532.4 L1377.08 1537.93 Q1379.19 1534.72 1382.02 1533.13 Q1384.88 1531.54 1388.61 1531.54 Q1394.75 1531.54 1397.9 1535.36 Q1401.05 1539.14 1401.05 1546.53 Z" fill="#000000" fill-rule="evenodd" fill-opacity="1" /><path clip-path="url(#clip730)" d="M1438.39 1533.76 L1438.39 1539.24 Q1435.9 1537.87 1433.39 1537.2 Q1430.91 1536.5 1428.36 1536.5 Q1422.66 1536.5 1419.51 1540.13 Q1416.36 1543.73 1416.36 1550.25 Q1416.36 1556.78 1419.51 1560.4 Q1422.66 1564 1428.36 1564 Q1430.91 1564 1433.39 1563.33 Q1435.9 1562.63 1438.39 1561.26 L1438.39 1566.68 Q1435.94 1567.82 1433.29 1568.39 Q1430.68 1568.97 1427.72 1568.97 Q1419.67 1568.97 1414.93 1563.91 Q1410.19 1558.85 1410.19 1550.25 Q1410.19 1541.53 1414.96 1536.53 Q1419.77 1531.54 1428.11 1531.54 Q1430.81 1531.54 1433.39 1532.11 Q1435.97 1532.65 1438.39 1533.76 Z" fill="#000000" fill-rule="evenodd" fill-opacity="1" /><path clip-path="url(#clip730)" d="M1479.06 1548.76 L1479.06 1551.62 L1452.14 1551.62 Q1452.52 1557.67 1455.76 1560.85 Q1459.04 1564 1464.87 1564 Q1468.24 1564 1471.39 1563.17 Q1474.58 1562.35 1477.69 1560.69 L1477.69 1566.23 Q1474.54 1567.57 1471.23 1568.27 Q1467.92 1568.97 1464.52 1568.97 Q1455.99 1568.97 1450.99 1564 Q1446.03 1559.04 1446.03 1550.57 Q1446.03 1541.82 1450.74 1536.69 Q1455.48 1531.54 1463.5 1531.54 Q1470.69 1531.54 1474.86 1536.18 Q1479.06 1540.8 1479.06 1548.76 M1473.21 1547.04 Q1473.14 1542.23 1470.5 1539.37 Q1467.89 1536.5 1463.56 1536.5 Q1458.66 1536.5 1455.7 1539.27 Q1452.77 1542.04 1452.33 1547.07 L1473.21 1547.04 Z" fill="#000000" fill-rule="evenodd" fill-opacity="1" /><polyline clip-path="url(#clip732)" style="stroke:#000000; stroke-linecap:round; stroke-linejoin:round; stroke-width:2; stroke-opacity:0.1; fill:none" points="
  255.607,1161.36 2352.76,1161.36 
  "/>
<polyline clip-path="url(#clip732)" style="stroke:#000000; stroke-linecap:round; stroke-linejoin:round; stroke-width:2; stroke-opacity:0.1; fill:none" points="
  255.607,814.753 2352.76,814.753 
  "/>
<polyline clip-path="url(#clip732)" style="stroke:#000000; stroke-linecap:round; stroke-linejoin:round; stroke-width:2; stroke-opacity:0.1; fill:none" points="
  255.607,468.149 2352.76,468.149 
  "/>
<polyline clip-path="url(#clip732)" style="stroke:#000000; stroke-linecap:round; stroke-linejoin:round; stroke-width:2; stroke-opacity:0.1; fill:none" points="
  255.607,121.546 2352.76,121.546 
  "/>
<polyline clip-path="url(#clip730)" style="stroke:#000000; stroke-linecap:round; stroke-linejoin:round; stroke-width:4; stroke-opacity:1; fill:none" points="
  255.607,1423.18 255.607,47.2441 
  "/>
<polyline clip-path="url(#clip730)" style="stroke:#000000; stroke-linecap:round; stroke-linejoin:round; stroke-width:4; stroke-opacity:1; fill:none" points="
  255.607,1161.36 274.504,1161.36 
  "/>
<polyline clip-path="url(#clip730)" style="stroke:#000000; stroke-linecap:round; stroke-linejoin:round; stroke-width:4; stroke-opacity:1; fill:none" points="
  255.607,814.753 274.504,814.753 
  "/>
<polyline clip-path="url(#clip730)" style="stroke:#000000; stroke-linecap:round; stroke-linejoin:round; stroke-width:4; stroke-opacity:1; fill:none" points="
  255.607,468.149 274.504,468.149 
  "/>
<polyline clip-path="url(#clip730)" style="stroke:#000000; stroke-linecap:round; stroke-linejoin:round; stroke-width:4; stroke-opacity:1; fill:none" points="
  255.607,121.546 274.504,121.546 
  "/>
<path clip-path="url(#clip730)" d="M114.26 1161.81 L143.936 1161.81 L143.936 1165.74 L114.26 1165.74 L114.26 1161.81 Z" fill="#000000" fill-rule="evenodd" fill-opacity="1" /><path clip-path="url(#clip730)" d="M164.028 1147.16 Q160.417 1147.16 158.589 1150.72 Q156.783 1154.26 156.783 1161.39 Q156.783 1168.5 158.589 1172.06 Q160.417 1175.6 164.028 1175.6 Q167.663 1175.6 169.468 1172.06 Q171.297 1168.5 171.297 1161.39 Q171.297 1154.26 169.468 1150.72 Q167.663 1147.16 164.028 1147.16 M164.028 1143.45 Q169.839 1143.45 172.894 1148.06 Q175.973 1152.64 175.973 1161.39 Q175.973 1170.12 172.894 1174.73 Q169.839 1179.31 164.028 1179.31 Q158.218 1179.31 155.14 1174.73 Q152.084 1170.12 152.084 1161.39 Q152.084 1152.64 155.14 1148.06 Q158.218 1143.45 164.028 1143.45 Z" fill="#000000" fill-rule="evenodd" fill-opacity="1" /><path clip-path="url(#clip730)" d="M184.19 1172.76 L189.075 1172.76 L189.075 1178.64 L184.19 1178.64 L184.19 1172.76 Z" fill="#000000" fill-rule="evenodd" fill-opacity="1" /><path clip-path="url(#clip730)" d="M203.287 1174.7 L219.607 1174.7 L219.607 1178.64 L197.662 1178.64 L197.662 1174.7 Q200.325 1171.95 204.908 1167.32 Q209.514 1162.67 210.695 1161.32 Q212.94 1158.8 213.82 1157.06 Q214.723 1155.3 214.723 1153.61 Q214.723 1150.86 212.778 1149.12 Q210.857 1147.39 207.755 1147.39 Q205.556 1147.39 203.102 1148.15 Q200.672 1148.92 197.894 1150.47 L197.894 1145.74 Q200.718 1144.61 203.172 1144.03 Q205.625 1143.45 207.662 1143.45 Q213.033 1143.45 216.227 1146.14 Q219.422 1148.82 219.422 1153.31 Q219.422 1155.44 218.611 1157.36 Q217.824 1159.26 215.718 1161.85 Q215.139 1162.53 212.037 1165.74 Q208.936 1168.94 203.287 1174.7 Z" fill="#000000" fill-rule="evenodd" fill-opacity="1" /><path clip-path="url(#clip730)" d="M162.431 800.552 Q158.82 800.552 156.991 804.117 Q155.186 807.658 155.186 814.788 Q155.186 821.894 156.991 825.459 Q158.82 829.001 162.431 829.001 Q166.065 829.001 167.871 825.459 Q169.7 821.894 169.7 814.788 Q169.7 807.658 167.871 804.117 Q166.065 800.552 162.431 800.552 M162.431 796.848 Q168.241 796.848 171.297 801.455 Q174.376 806.038 174.376 814.788 Q174.376 823.515 171.297 828.121 Q168.241 832.705 162.431 832.705 Q156.621 832.705 153.542 828.121 Q150.487 823.515 150.487 814.788 Q150.487 806.038 153.542 801.455 Q156.621 796.848 162.431 796.848 Z" fill="#000000" fill-rule="evenodd" fill-opacity="1" /><path clip-path="url(#clip730)" d="M182.593 826.154 L187.477 826.154 L187.477 832.033 L182.593 832.033 L182.593 826.154 Z" fill="#000000" fill-rule="evenodd" fill-opacity="1" /><path clip-path="url(#clip730)" d="M207.662 800.552 Q204.051 800.552 202.223 804.117 Q200.417 807.658 200.417 814.788 Q200.417 821.894 202.223 825.459 Q204.051 829.001 207.662 829.001 Q211.297 829.001 213.102 825.459 Q214.931 821.894 214.931 814.788 Q214.931 807.658 213.102 804.117 Q211.297 800.552 207.662 800.552 M207.662 796.848 Q213.473 796.848 216.528 801.455 Q219.607 806.038 219.607 814.788 Q219.607 823.515 216.528 828.121 Q213.473 832.705 207.662 832.705 Q201.852 832.705 198.774 828.121 Q195.718 823.515 195.718 814.788 Q195.718 806.038 198.774 801.455 Q201.852 796.848 207.662 796.848 Z" fill="#000000" fill-rule="evenodd" fill-opacity="1" /><path clip-path="url(#clip730)" d="M164.028 453.948 Q160.417 453.948 158.589 457.513 Q156.783 461.055 156.783 468.184 Q156.783 475.291 158.589 478.855 Q160.417 482.397 164.028 482.397 Q167.663 482.397 169.468 478.855 Q171.297 475.291 171.297 468.184 Q171.297 461.055 169.468 457.513 Q167.663 453.948 164.028 453.948 M164.028 450.244 Q169.839 450.244 172.894 454.851 Q175.973 459.434 175.973 468.184 Q175.973 476.911 172.894 481.517 Q169.839 486.101 164.028 486.101 Q158.218 486.101 155.14 481.517 Q152.084 476.911 152.084 468.184 Q152.084 459.434 155.14 454.851 Q158.218 450.244 164.028 450.244 Z" fill="#000000" fill-rule="evenodd" fill-opacity="1" /><path clip-path="url(#clip730)" d="M184.19 479.55 L189.075 479.55 L189.075 485.429 L184.19 485.429 L184.19 479.55 Z" fill="#000000" fill-rule="evenodd" fill-opacity="1" /><path clip-path="url(#clip730)" d="M203.287 481.494 L219.607 481.494 L219.607 485.429 L197.662 485.429 L197.662 481.494 Q200.325 478.74 204.908 474.11 Q209.514 469.457 210.695 468.115 Q212.94 465.592 213.82 463.855 Q214.723 462.096 214.723 460.406 Q214.723 457.652 212.778 455.916 Q210.857 454.18 207.755 454.18 Q205.556 454.18 203.102 454.943 Q200.672 455.707 197.894 457.258 L197.894 452.536 Q200.718 451.402 203.172 450.823 Q205.625 450.244 207.662 450.244 Q213.033 450.244 216.227 452.93 Q219.422 455.615 219.422 460.105 Q219.422 462.235 218.611 464.156 Q217.824 466.055 215.718 468.647 Q215.139 469.318 212.037 472.536 Q208.936 475.73 203.287 481.494 Z" fill="#000000" fill-rule="evenodd" fill-opacity="1" /><path clip-path="url(#clip730)" d="M161.945 107.344 Q158.334 107.344 156.505 110.909 Q154.7 114.451 154.7 121.58 Q154.7 128.687 156.505 132.251 Q158.334 135.793 161.945 135.793 Q165.579 135.793 167.385 132.251 Q169.214 128.687 169.214 121.58 Q169.214 114.451 167.385 110.909 Q165.579 107.344 161.945 107.344 M161.945 103.641 Q167.755 103.641 170.811 108.247 Q173.889 112.83 173.889 121.58 Q173.889 130.307 170.811 134.913 Q167.755 139.497 161.945 139.497 Q156.135 139.497 153.056 134.913 Q150.001 130.307 150.001 121.58 Q150.001 112.83 153.056 108.247 Q156.135 103.641 161.945 103.641 Z" fill="#000000" fill-rule="evenodd" fill-opacity="1" /><path clip-path="url(#clip730)" d="M182.107 132.946 L186.991 132.946 L186.991 138.826 L182.107 138.826 L182.107 132.946 Z" fill="#000000" fill-rule="evenodd" fill-opacity="1" /><path clip-path="url(#clip730)" d="M210.024 108.34 L198.218 126.789 L210.024 126.789 L210.024 108.34 M208.797 104.266 L214.676 104.266 L214.676 126.789 L219.607 126.789 L219.607 130.677 L214.676 130.677 L214.676 138.826 L210.024 138.826 L210.024 130.677 L194.422 130.677 L194.422 126.164 L208.797 104.266 Z" fill="#000000" fill-rule="evenodd" fill-opacity="1" /><path clip-path="url(#clip730)" d="M44.7161 1010.4 L47.5806 1010.4 L47.5806 1037.33 Q53.6281 1036.95 56.8109 1033.7 Q59.9619 1030.42 59.9619 1024.6 Q59.9619 1021.22 59.1344 1018.07 Q58.3069 1014.89 56.6518 1011.77 L62.1899 1011.77 Q63.5267 1014.92 64.227 1018.23 Q64.9272 1021.54 64.9272 1024.95 Q64.9272 1033.48 59.9619 1038.47 Q54.9967 1043.44 46.5303 1043.44 Q37.7774 1043.44 32.6531 1038.73 Q27.4968 1033.99 27.4968 1025.97 Q27.4968 1018.77 32.1438 1014.6 Q36.7589 1010.4 44.7161 1010.4 M42.9973 1016.26 Q38.1912 1016.32 35.3266 1018.96 Q32.4621 1021.57 32.4621 1025.9 Q32.4621 1030.8 35.2312 1033.76 Q38.0002 1036.69 43.0292 1037.14 L42.9973 1016.26 Z" fill="#000000" fill-rule="evenodd" fill-opacity="1" /><path clip-path="url(#clip730)" d="M35.1993 973.035 Q31.2526 970.839 29.3747 967.783 Q27.4968 964.728 27.4968 960.59 Q27.4968 955.02 31.4117 951.996 Q35.2948 948.972 42.4881 948.972 L64.0042 948.972 L64.0042 954.861 L42.679 954.861 Q37.5546 954.861 35.072 956.675 Q32.5894 958.489 32.5894 962.213 Q32.5894 966.765 35.6131 969.406 Q38.6368 972.048 43.8567 972.048 L64.0042 972.048 L64.0042 977.936 L42.679 977.936 Q37.5228 977.936 35.072 979.751 Q32.5894 981.565 32.5894 985.352 Q32.5894 989.84 35.6449 992.482 Q38.6686 995.124 43.8567 995.124 L64.0042 995.124 L64.0042 1001.01 L28.3562 1001.01 L28.3562 995.124 L33.8944 995.124 Q30.616 993.119 29.0564 990.318 Q27.4968 987.517 27.4968 983.665 Q27.4968 979.782 29.4702 977.077 Q31.4436 974.34 35.1993 973.035 Z" fill="#000000" fill-rule="evenodd" fill-opacity="1" /><path clip-path="url(#clip730)" d="M58.657 931.626 L77.5631 931.626 L77.5631 937.514 L28.3562 937.514 L28.3562 931.626 L33.7671 931.626 Q30.5842 929.78 29.0564 926.979 Q27.4968 924.146 27.4968 920.231 Q27.4968 913.738 32.6531 909.696 Q37.8093 905.622 46.212 905.622 Q54.6147 905.622 59.771 909.696 Q64.9272 913.738 64.9272 920.231 Q64.9272 924.146 63.3994 926.979 Q61.8398 929.78 58.657 931.626 M46.212 911.701 Q39.7508 911.701 36.0905 914.375 Q32.3984 917.017 32.3984 921.664 Q32.3984 926.31 36.0905 928.984 Q39.7508 931.626 46.212 931.626 Q52.6732 931.626 56.3653 928.984 Q60.0256 926.31 60.0256 921.664 Q60.0256 917.017 56.3653 914.375 Q52.6732 911.701 46.212 911.701 Z" fill="#000000" fill-rule="evenodd" fill-opacity="1" /><path clip-path="url(#clip730)" d="M28.3562 895.914 L28.3562 890.058 L64.0042 890.058 L64.0042 895.914 L28.3562 895.914 M14.479 895.914 L14.479 890.058 L21.895 890.058 L21.895 895.914 L14.479 895.914 Z" fill="#000000" fill-rule="evenodd" fill-opacity="1" /><path clip-path="url(#clip730)" d="M33.8307 857.147 Q33.2578 858.134 33.0032 859.311 Q32.7167 860.457 32.7167 861.858 Q32.7167 866.823 35.9632 869.497 Q39.1779 872.138 45.2253 872.138 L64.0042 872.138 L64.0042 878.027 L28.3562 878.027 L28.3562 872.138 L33.8944 872.138 Q30.6479 870.292 29.0883 867.332 Q27.4968 864.372 27.4968 860.139 Q27.4968 859.534 27.5923 858.802 Q27.656 858.07 27.8151 857.179 L33.8307 857.147 Z" fill="#000000" fill-rule="evenodd" fill-opacity="1" /><path clip-path="url(#clip730)" d="M28.3562 851.004 L28.3562 845.148 L64.0042 845.148 L64.0042 851.004 L28.3562 851.004 M14.479 851.004 L14.479 845.148 L21.895 845.148 L21.895 851.004 L14.479 851.004 Z" fill="#000000" fill-rule="evenodd" fill-opacity="1" /><path clip-path="url(#clip730)" d="M29.7248 807.24 L35.1993 807.24 Q33.8307 809.723 33.1623 812.237 Q32.4621 814.72 32.4621 817.266 Q32.4621 822.963 36.0905 826.114 Q39.6872 829.265 46.212 829.265 Q52.7369 829.265 56.3653 826.114 Q59.9619 822.963 59.9619 817.266 Q59.9619 814.72 59.2935 812.237 Q58.5933 809.723 57.2247 807.24 L62.6355 807.24 Q63.7814 809.691 64.3543 812.333 Q64.9272 814.942 64.9272 817.902 Q64.9272 825.955 59.8664 830.698 Q54.8057 835.44 46.212 835.44 Q37.491 835.44 32.4939 830.666 Q27.4968 825.86 27.4968 817.521 Q27.4968 814.815 28.0697 812.237 Q28.6108 809.659 29.7248 807.24 Z" fill="#000000" fill-rule="evenodd" fill-opacity="1" /><path clip-path="url(#clip730)" d="M46.0847 780.854 Q46.0847 787.952 47.7079 790.689 Q49.3312 793.426 53.2461 793.426 Q56.3653 793.426 58.2114 791.389 Q60.0256 789.32 60.0256 785.788 Q60.0256 780.918 56.5881 777.99 Q53.1188 775.029 47.3897 775.029 L46.0847 775.029 L46.0847 780.854 M43.6657 769.173 L64.0042 769.173 L64.0042 775.029 L58.5933 775.029 Q61.8398 777.035 63.3994 780.027 Q64.9272 783.018 64.9272 787.347 Q64.9272 792.822 61.8716 796.068 Q58.7843 799.283 53.6281 799.283 Q47.6125 799.283 44.5569 795.272 Q41.5014 791.23 41.5014 783.241 L41.5014 775.029 L40.9285 775.029 Q36.8862 775.029 34.6901 777.703 Q32.4621 780.345 32.4621 785.151 Q32.4621 788.206 33.1941 791.103 Q33.9262 793.999 35.3903 796.673 L29.9795 796.673 Q28.7381 793.458 28.1334 790.434 Q27.4968 787.411 27.4968 784.546 Q27.4968 776.812 31.5072 772.992 Q35.5176 769.173 43.6657 769.173 Z" fill="#000000" fill-rule="evenodd" fill-opacity="1" /><path clip-path="url(#clip730)" d="M14.479 757.11 L14.479 751.254 L64.0042 751.254 L64.0042 757.11 L14.479 757.11 Z" fill="#000000" fill-rule="evenodd" fill-opacity="1" /><path clip-path="url(#clip730)" d="M33.7671 694.822 L14.479 694.822 L14.479 688.965 L64.0042 688.965 L64.0042 694.822 L58.657 694.822 Q61.8398 696.668 63.3994 699.5 Q64.9272 702.301 64.9272 706.248 Q64.9272 712.709 59.771 716.783 Q54.6147 720.825 46.212 720.825 Q37.8093 720.825 32.6531 716.783 Q27.4968 712.709 27.4968 706.248 Q27.4968 702.301 29.0564 699.5 Q30.5842 696.668 33.7671 694.822 M46.212 714.778 Q52.6732 714.778 56.3653 712.136 Q60.0256 709.463 60.0256 704.816 Q60.0256 700.169 56.3653 697.495 Q52.6732 694.822 46.212 694.822 Q39.7508 694.822 36.0905 697.495 Q32.3984 700.169 32.3984 704.816 Q32.3984 709.463 36.0905 712.136 Q39.7508 714.778 46.212 714.778 Z" fill="#000000" fill-rule="evenodd" fill-opacity="1" /><path clip-path="url(#clip730)" d="M44.7161 646.41 L47.5806 646.41 L47.5806 673.337 Q53.6281 672.955 56.8109 669.709 Q59.9619 666.431 59.9619 660.606 Q59.9619 657.232 59.1344 654.081 Q58.3069 650.898 56.6518 647.779 L62.1899 647.779 Q63.5267 650.93 64.227 654.24 Q64.9272 657.55 64.9272 660.956 Q64.9272 669.486 59.9619 674.483 Q54.9967 679.448 46.5303 679.448 Q37.7774 679.448 32.6531 674.738 Q27.4968 669.995 27.4968 661.975 Q27.4968 654.781 32.1438 650.612 Q36.7589 646.41 44.7161 646.41 M42.9973 652.267 Q38.1912 652.33 35.3266 654.972 Q32.4621 657.582 32.4621 661.911 Q32.4621 666.812 35.2312 669.773 Q38.0002 672.701 43.0292 673.146 L42.9973 652.267 Z" fill="#000000" fill-rule="evenodd" fill-opacity="1" /><path clip-path="url(#clip730)" d="M28.3562 641 L28.3562 634.793 L58.275 623.653 L28.3562 612.513 L28.3562 606.306 L64.0042 619.674 L64.0042 627.632 L28.3562 641 Z" fill="#000000" fill-rule="evenodd" fill-opacity="1" /><path clip-path="url(#clip730)" d="M28.3562 598.222 L28.3562 592.366 L64.0042 592.366 L64.0042 598.222 L28.3562 598.222 M14.479 598.222 L14.479 592.366 L21.895 592.366 L21.895 598.222 L14.479 598.222 Z" fill="#000000" fill-rule="evenodd" fill-opacity="1" /><path clip-path="url(#clip730)" d="M46.0847 563.911 Q46.0847 571.009 47.7079 573.746 Q49.3312 576.483 53.2461 576.483 Q56.3653 576.483 58.2114 574.446 Q60.0256 572.377 60.0256 568.844 Q60.0256 563.974 56.5881 561.046 Q53.1188 558.086 47.3897 558.086 L46.0847 558.086 L46.0847 563.911 M43.6657 552.23 L64.0042 552.23 L64.0042 558.086 L58.5933 558.086 Q61.8398 560.091 63.3994 563.083 Q64.9272 566.075 64.9272 570.404 Q64.9272 575.878 61.8716 579.125 Q58.7843 582.34 53.6281 582.34 Q47.6125 582.34 44.5569 578.329 Q41.5014 574.287 41.5014 566.298 L41.5014 558.086 L40.9285 558.086 Q36.8862 558.086 34.6901 560.76 Q32.4621 563.402 32.4621 568.208 Q32.4621 571.263 33.1941 574.16 Q33.9262 577.056 35.3903 579.73 L29.9795 579.73 Q28.7381 576.515 28.1334 573.491 Q27.4968 570.467 27.4968 567.603 Q27.4968 559.869 31.5072 556.049 Q35.5176 552.23 43.6657 552.23 Z" fill="#000000" fill-rule="evenodd" fill-opacity="1" /><path clip-path="url(#clip730)" d="M18.2347 534.374 L28.3562 534.374 L28.3562 522.311 L32.9077 522.311 L32.9077 534.374 L52.2594 534.374 Q56.6199 534.374 57.8613 533.196 Q59.1026 531.987 59.1026 528.327 L59.1026 522.311 L64.0042 522.311 L64.0042 528.327 Q64.0042 535.106 61.4897 537.684 Q58.9434 540.262 52.2594 540.262 L32.9077 540.262 L32.9077 544.559 L28.3562 544.559 L28.3562 540.262 L18.2347 540.262 L18.2347 534.374 Z" fill="#000000" fill-rule="evenodd" fill-opacity="1" /><path clip-path="url(#clip730)" d="M28.3562 514.608 L28.3562 508.752 L64.0042 508.752 L64.0042 514.608 L28.3562 514.608 M14.479 514.608 L14.479 508.752 L21.895 508.752 L21.895 514.608 L14.479 514.608 Z" fill="#000000" fill-rule="evenodd" fill-opacity="1" /><path clip-path="url(#clip730)" d="M32.4621 482.684 Q32.4621 487.395 36.1542 490.132 Q39.8145 492.87 46.212 492.87 Q52.6095 492.87 56.3017 490.164 Q59.9619 487.427 59.9619 482.684 Q59.9619 478.006 56.2698 475.268 Q52.5777 472.531 46.212 472.531 Q39.8781 472.531 36.186 475.268 Q32.4621 478.006 32.4621 482.684 M27.4968 482.684 Q27.4968 475.046 32.4621 470.685 Q37.4273 466.325 46.212 466.325 Q54.9649 466.325 59.9619 470.685 Q64.9272 475.046 64.9272 482.684 Q64.9272 490.355 59.9619 494.716 Q54.9649 499.044 46.212 499.044 Q37.4273 499.044 32.4621 494.716 Q27.4968 490.355 27.4968 482.684 Z" fill="#000000" fill-rule="evenodd" fill-opacity="1" /><path clip-path="url(#clip730)" d="M42.4881 426.984 L64.0042 426.984 L64.0042 432.841 L42.679 432.841 Q37.6183 432.841 35.1038 434.814 Q32.5894 436.788 32.5894 440.734 Q32.5894 445.477 35.6131 448.214 Q38.6368 450.951 43.8567 450.951 L64.0042 450.951 L64.0042 456.84 L28.3562 456.84 L28.3562 450.951 L33.8944 450.951 Q30.6797 448.851 29.0883 446.018 Q27.4968 443.153 27.4968 439.429 Q27.4968 433.287 31.3163 430.135 Q35.1038 426.984 42.4881 426.984 Z" fill="#000000" fill-rule="evenodd" fill-opacity="1" /><polyline clip-path="url(#clip732)" style="stroke:#009af9; stroke-linecap:round; stroke-linejoin:round; stroke-width:4; stroke-opacity:1; fill:none" points="
  314.96,912.515 519.405,916.527 772.997,927.868 955.147,840.74 1149.04,1076.48 1416.71,837.875 1629.63,940.489 1851.78,1384.24 2004.19,658.802 2293.4,742.931 
  
  "/>
<circle clip-path="url(#clip732)" cx="314.96" cy="912.515" r="14.4" fill="#009af9" fill-rule="evenodd" fill-opacity="1" stroke="#000000" stroke-opacity="1" stroke-width="3.2"/>
<circle clip-path="url(#clip732)" cx="519.405" cy="916.527" r="14.4" fill="#009af9" fill-rule="evenodd" fill-opacity="1" stroke="#000000" stroke-opacity="1" stroke-width="3.2"/>
<circle clip-path="url(#clip732)" cx="772.997" cy="927.868" r="14.4" fill="#009af9" fill-rule="evenodd" fill-opacity="1" stroke="#000000" stroke-opacity="1" stroke-width="3.2"/>
<circle clip-path="url(#clip732)" cx="955.147" cy="840.74" r="14.4" fill="#009af9" fill-rule="evenodd" fill-opacity="1" stroke="#000000" stroke-opacity="1" stroke-width="3.2"/>
<circle clip-path="url(#clip732)" cx="1149.04" cy="1076.48" r="14.4" fill="#009af9" fill-rule="evenodd" fill-opacity="1" stroke="#000000" stroke-opacity="1" stroke-width="3.2"/>
<circle clip-path="url(#clip732)" cx="1416.71" cy="837.875" r="14.4" fill="#009af9" fill-rule="evenodd" fill-opacity="1" stroke="#000000" stroke-opacity="1" stroke-width="3.2"/>
<circle clip-path="url(#clip732)" cx="1629.63" cy="940.489" r="14.4" fill="#009af9" fill-rule="evenodd" fill-opacity="1" stroke="#000000" stroke-opacity="1" stroke-width="3.2"/>
<circle clip-path="url(#clip732)" cx="1851.78" cy="1384.24" r="14.4" fill="#009af9" fill-rule="evenodd" fill-opacity="1" stroke="#000000" stroke-opacity="1" stroke-width="3.2"/>
<circle clip-path="url(#clip732)" cx="2004.19" cy="658.802" r="14.4" fill="#009af9" fill-rule="evenodd" fill-opacity="1" stroke="#000000" stroke-opacity="1" stroke-width="3.2"/>
<circle clip-path="url(#clip732)" cx="2293.4" cy="742.931" r="14.4" fill="#009af9" fill-rule="evenodd" fill-opacity="1" stroke="#000000" stroke-opacity="1" stroke-width="3.2"/>
<polyline clip-path="url(#clip732)" style="stroke:#000000; stroke-linecap:round; stroke-linejoin:round; stroke-width:4; stroke-opacity:1; fill:none" points="
  314.96,912.515 314.96,565.911 
  "/>
<polyline clip-path="url(#clip732)" style="stroke:#000000; stroke-linecap:round; stroke-linejoin:round; stroke-width:4; stroke-opacity:1; fill:none" points="
  519.405,1074.07 519.405,443.885 
  "/>
<polyline clip-path="url(#clip732)" style="stroke:#000000; stroke-linecap:round; stroke-linejoin:round; stroke-width:4; stroke-opacity:1; fill:none" points="
  772.997,1274.47 772.997,234.66 
  "/>
<polyline clip-path="url(#clip732)" style="stroke:#000000; stroke-linecap:round; stroke-linejoin:round; stroke-width:4; stroke-opacity:1; fill:none" points="
  955.147,1273.99 955.147,407.485 
  "/>
<polyline clip-path="url(#clip732)" style="stroke:#000000; stroke-linecap:round; stroke-linejoin:round; stroke-width:4; stroke-opacity:1; fill:none" points="
  1149.04,1324.06 1149.04,86.1857 
  "/>
<polyline clip-path="url(#clip732)" style="stroke:#000000; stroke-linecap:round; stroke-linejoin:round; stroke-width:4; stroke-opacity:1; fill:none" points="
  1416.71,1310.52 1416.71,365.233 
  "/>
<polyline clip-path="url(#clip732)" style="stroke:#000000; stroke-linecap:round; stroke-linejoin:round; stroke-width:4; stroke-opacity:1; fill:none" points="
  1629.63,1229.33 1629.63,362.816 
  "/>
<polyline clip-path="url(#clip732)" style="stroke:#000000; stroke-linecap:round; stroke-linejoin:round; stroke-width:4; stroke-opacity:1; fill:none" points="
  1851.78,1384.24 1851.78,393.941 
  "/>
<polyline clip-path="url(#clip732)" style="stroke:#000000; stroke-linecap:round; stroke-linejoin:round; stroke-width:4; stroke-opacity:1; fill:none" points="
  2004.19,1236.47 2004.19,514.383 
  "/>
<polyline clip-path="url(#clip732)" style="stroke:#000000; stroke-linecap:round; stroke-linejoin:round; stroke-width:4; stroke-opacity:1; fill:none" points="
  2293.4,1176.19 2293.4,742.931 
  "/>
<line clip-path="url(#clip732)" x1="330.96" y1="912.515" x2="298.96" y2="912.515" style="stroke:#000000; stroke-width:3.2; stroke-opacity:1"/>
<line clip-path="url(#clip732)" x1="330.96" y1="565.911" x2="298.96" y2="565.911" style="stroke:#000000; stroke-width:3.2; stroke-opacity:1"/>
<line clip-path="url(#clip732)" x1="535.405" y1="1074.07" x2="503.405" y2="1074.07" style="stroke:#000000; stroke-width:3.2; stroke-opacity:1"/>
<line clip-path="url(#clip732)" x1="535.405" y1="443.885" x2="503.405" y2="443.885" style="stroke:#000000; stroke-width:3.2; stroke-opacity:1"/>
<line clip-path="url(#clip732)" x1="788.997" y1="1274.47" x2="756.997" y2="1274.47" style="stroke:#000000; stroke-width:3.2; stroke-opacity:1"/>
<line clip-path="url(#clip732)" x1="788.997" y1="234.66" x2="756.997" y2="234.66" style="stroke:#000000; stroke-width:3.2; stroke-opacity:1"/>
<line clip-path="url(#clip732)" x1="971.147" y1="1273.99" x2="939.147" y2="1273.99" style="stroke:#000000; stroke-width:3.2; stroke-opacity:1"/>
<line clip-path="url(#clip732)" x1="971.147" y1="407.485" x2="939.147" y2="407.485" style="stroke:#000000; stroke-width:3.2; stroke-opacity:1"/>
<line clip-path="url(#clip732)" x1="1165.04" y1="1324.06" x2="1133.04" y2="1324.06" style="stroke:#000000; stroke-width:3.2; stroke-opacity:1"/>
<line clip-path="url(#clip732)" x1="1165.04" y1="86.1857" x2="1133.04" y2="86.1857" style="stroke:#000000; stroke-width:3.2; stroke-opacity:1"/>
<line clip-path="url(#clip732)" x1="1432.71" y1="1310.52" x2="1400.71" y2="1310.52" style="stroke:#000000; stroke-width:3.2; stroke-opacity:1"/>
<line clip-path="url(#clip732)" x1="1432.71" y1="365.233" x2="1400.71" y2="365.233" style="stroke:#000000; stroke-width:3.2; stroke-opacity:1"/>
<line clip-path="url(#clip732)" x1="1645.63" y1="1229.33" x2="1613.63" y2="1229.33" style="stroke:#000000; stroke-width:3.2; stroke-opacity:1"/>
<line clip-path="url(#clip732)" x1="1645.63" y1="362.816" x2="1613.63" y2="362.816" style="stroke:#000000; stroke-width:3.2; stroke-opacity:1"/>
<line clip-path="url(#clip732)" x1="1867.78" y1="1384.24" x2="1835.78" y2="1384.24" style="stroke:#000000; stroke-width:3.2; stroke-opacity:1"/>
<line clip-path="url(#clip732)" x1="1867.78" y1="393.941" x2="1835.78" y2="393.941" style="stroke:#000000; stroke-width:3.2; stroke-opacity:1"/>
<line clip-path="url(#clip732)" x1="2020.19" y1="1236.47" x2="1988.19" y2="1236.47" style="stroke:#000000; stroke-width:3.2; stroke-opacity:1"/>
<line clip-path="url(#clip732)" x1="2020.19" y1="514.383" x2="1988.19" y2="514.383" style="stroke:#000000; stroke-width:3.2; stroke-opacity:1"/>
<line clip-path="url(#clip732)" x1="2309.4" y1="1176.19" x2="2277.4" y2="1176.19" style="stroke:#000000; stroke-width:3.2; stroke-opacity:1"/>
<line clip-path="url(#clip732)" x1="2309.4" y1="742.931" x2="2277.4" y2="742.931" style="stroke:#000000; stroke-width:3.2; stroke-opacity:1"/>
<path clip-path="url(#clip730)" d="
M1997.4 196.789 L2282.85 196.789 L2282.85 93.1086 L1997.4 93.1086  Z
  " fill="#ffffff" fill-rule="evenodd" fill-opacity="1"/>
<polyline clip-path="url(#clip730)" style="stroke:#000000; stroke-linecap:round; stroke-linejoin:round; stroke-width:4; stroke-opacity:1; fill:none" points="
  1997.4,196.789 2282.85,196.789 2282.85,93.1086 1997.4,93.1086 1997.4,196.789 
  "/>
<polyline clip-path="url(#clip730)" style="stroke:#009af9; stroke-linecap:round; stroke-linejoin:round; stroke-width:4; stroke-opacity:1; fill:none" points="
  2020.71,144.949 2160.52,144.949 
  "/>
<circle clip-path="url(#clip730)" cx="2090.61" cy="144.949" r="19.418" fill="#009af9" fill-rule="evenodd" fill-opacity="1" stroke="#000000" stroke-opacity="1" stroke-width="5.12"/>
<path clip-path="url(#clip730)" d="M2197.66 164.636 Q2195.85 169.266 2194.14 170.678 Q2192.43 172.09 2189.56 172.09 L2186.16 172.09 L2186.16 168.525 L2188.66 168.525 Q2190.41 168.525 2191.39 167.692 Q2192.36 166.858 2193.54 163.756 L2194.3 161.812 L2183.82 136.303 L2188.33 136.303 L2196.43 156.581 L2204.53 136.303 L2209.05 136.303 L2197.66 164.636 Z" fill="#000000" fill-rule="evenodd" fill-opacity="1" /><path clip-path="url(#clip730)" d="M2216.34 158.293 L2223.98 158.293 L2223.98 131.928 L2215.67 133.595 L2215.67 129.335 L2223.93 127.669 L2228.61 127.669 L2228.61 158.293 L2236.25 158.293 L2236.25 162.229 L2216.34 162.229 L2216.34 158.293 Z" fill="#000000" fill-rule="evenodd" fill-opacity="1" /></svg>
