<?xml version="1.0" encoding="utf-8"?>
<svg xmlns="http://www.w3.org/2000/svg" xmlns:xlink="http://www.w3.org/1999/xlink" width="600" height="400" viewBox="0 0 2400 1600">
<defs>
  <clipPath id="clip110">
    <rect x="0" y="0" width="2400" height="1600"/>
  </clipPath>
</defs>
<path clip-path="url(#clip110)" d="
M0 1600 L2400 1600 L2400 0 L0 0  Z
  " fill="#ffffff" fill-rule="evenodd" fill-opacity="1"/>
<defs>
  <clipPath id="clip111">
    <rect x="480" y="0" width="1681" height="1600"/>
  </clipPath>
</defs>
<path clip-path="url(#clip110)" d="
M224.098 1486.45 L2352.76 1486.45 L2352.76 47.2441 L224.098 47.2441  Z
  " fill="#ffffff" fill-rule="evenodd" fill-opacity="1"/>
<defs>
  <clipPath id="clip112">
    <rect x="224" y="47" width="2130" height="1440"/>
  </clipPath>
</defs>
<polyline clip-path="url(#clip112)" style="stroke:#000000; stroke-linecap:butt; stroke-linejoin:round; stroke-width:2; stroke-opacity:0.1; fill:none" points="
  588.381,1486.45 588.381,47.2441 
  "/>
<polyline clip-path="url(#clip112)" style="stroke:#000000; stroke-linecap:butt; stroke-linejoin:round; stroke-width:2; stroke-opacity:0.1; fill:none" points="
  1033.51,1486.45 1033.51,47.2441 
  "/>
<polyline clip-path="url(#clip112)" style="stroke:#000000; stroke-linecap:butt; stroke-linejoin:round; stroke-width:2; stroke-opacity:0.1; fill:none" points="
  1478.65,1486.45 1478.65,47.2441 
  "/>
<polyline clip-path="url(#clip112)" style="stroke:#000000; stroke-linecap:butt; stroke-linejoin:round; stroke-width:2; stroke-opacity:0.1; fill:none" points="
  1923.78,1486.45 1923.78,47.2441 
  "/>
<polyline clip-path="url(#clip110)" style="stroke:#000000; stroke-linecap:butt; stroke-linejoin:round; stroke-width:4; stroke-opacity:1; fill:none" points="
  224.098,1486.45 2352.76,1486.45 
  "/>
<polyline clip-path="url(#clip110)" style="stroke:#000000; stroke-linecap:butt; stroke-linejoin:round; stroke-width:4; stroke-opacity:1; fill:none" points="
  588.381,1486.45 588.381,1469.18 
  "/>
<polyline clip-path="url(#clip110)" style="stroke:#000000; stroke-linecap:butt; stroke-linejoin:round; stroke-width:4; stroke-opacity:1; fill:none" points="
  1033.51,1486.45 1033.51,1469.18 
  "/>
<polyline clip-path="url(#clip110)" style="stroke:#000000; stroke-linecap:butt; stroke-linejoin:round; stroke-width:4; stroke-opacity:1; fill:none" points="
  1478.65,1486.45 1478.65,1469.18 
  "/>
<polyline clip-path="url(#clip110)" style="stroke:#000000; stroke-linecap:butt; stroke-linejoin:round; stroke-width:4; stroke-opacity:1; fill:none" points="
  1923.78,1486.45 1923.78,1469.18 
  "/>
<path clip-path="url(#clip110)" d="M566.564 1515.64 Q562.953 1515.64 561.124 1519.2 Q559.318 1522.75 559.318 1529.87 Q559.318 1536.98 561.124 1540.55 Q562.953 1544.09 566.564 1544.09 Q570.198 1544.09 572.004 1540.55 Q573.832 1536.98 573.832 1529.87 Q573.832 1522.75 572.004 1519.2 Q570.198 1515.64 566.564 1515.64 M566.564 1511.93 Q572.374 1511.93 575.43 1516.54 Q578.508 1521.12 578.508 1529.87 Q578.508 1538.6 575.43 1543.21 Q572.374 1547.79 566.564 1547.79 Q560.754 1547.79 557.675 1543.21 Q554.619 1538.6 554.619 1529.87 Q554.619 1521.12 557.675 1516.54 Q560.754 1511.93 566.564 1511.93 Z" fill="#000000" fill-rule="evenodd" fill-opacity="1" /><path clip-path="url(#clip110)" d="M586.726 1541.24 L591.61 1541.24 L591.61 1547.12 L586.726 1547.12 L586.726 1541.24 Z" fill="#000000" fill-rule="evenodd" fill-opacity="1" /><path clip-path="url(#clip110)" d="M605.823 1543.18 L622.142 1543.18 L622.142 1547.12 L600.198 1547.12 L600.198 1543.18 Q602.86 1540.43 607.443 1535.8 Q612.05 1531.15 613.23 1529.81 Q615.476 1527.28 616.355 1525.55 Q617.258 1523.79 617.258 1522.1 Q617.258 1519.34 615.314 1517.61 Q613.392 1515.87 610.29 1515.87 Q608.091 1515.87 605.638 1516.63 Q603.207 1517.4 600.429 1518.95 L600.429 1514.23 Q603.253 1513.09 605.707 1512.51 Q608.161 1511.93 610.198 1511.93 Q615.568 1511.93 618.763 1514.62 Q621.957 1517.31 621.957 1521.8 Q621.957 1523.93 621.147 1525.85 Q620.36 1527.74 618.253 1530.34 Q617.675 1531.01 614.573 1534.23 Q611.471 1537.42 605.823 1543.18 Z" fill="#000000" fill-rule="evenodd" fill-opacity="1" /><path clip-path="url(#clip110)" d="M1010.66 1515.64 Q1007.04 1515.64 1005.22 1519.2 Q1003.41 1522.75 1003.41 1529.87 Q1003.41 1536.98 1005.22 1540.55 Q1007.04 1544.09 1010.66 1544.09 Q1014.29 1544.09 1016.1 1540.55 Q1017.92 1536.98 1017.92 1529.87 Q1017.92 1522.75 1016.1 1519.2 Q1014.29 1515.64 1010.66 1515.64 M1010.66 1511.93 Q1016.47 1511.93 1019.52 1516.54 Q1022.6 1521.12 1022.6 1529.87 Q1022.6 1538.6 1019.52 1543.21 Q1016.47 1547.79 1010.66 1547.79 Q1004.85 1547.79 1001.77 1543.21 Q998.711 1538.6 998.711 1529.87 Q998.711 1521.12 1001.77 1516.54 Q1004.85 1511.93 1010.66 1511.93 Z" fill="#000000" fill-rule="evenodd" fill-opacity="1" /><path clip-path="url(#clip110)" d="M1030.82 1541.24 L1035.7 1541.24 L1035.7 1547.12 L1030.82 1547.12 L1030.82 1541.24 Z" fill="#000000" fill-rule="evenodd" fill-opacity="1" /><path clip-path="url(#clip110)" d="M1058.73 1516.63 L1046.93 1535.08 L1058.73 1535.08 L1058.73 1516.63 M1057.51 1512.56 L1063.39 1512.56 L1063.39 1535.08 L1068.32 1535.08 L1068.32 1538.97 L1063.39 1538.97 L1063.39 1547.12 L1058.73 1547.12 L1058.73 1538.97 L1043.13 1538.97 L1043.13 1534.46 L1057.51 1512.56 Z" fill="#000000" fill-rule="evenodd" fill-opacity="1" /><path clip-path="url(#clip110)" d="M1455.95 1515.64 Q1452.34 1515.64 1450.51 1519.2 Q1448.71 1522.75 1448.71 1529.87 Q1448.71 1536.98 1450.51 1540.55 Q1452.34 1544.09 1455.95 1544.09 Q1459.59 1544.09 1461.39 1540.55 Q1463.22 1536.98 1463.22 1529.87 Q1463.22 1522.75 1461.39 1519.2 Q1459.59 1515.64 1455.95 1515.64 M1455.95 1511.93 Q1461.76 1511.93 1464.82 1516.54 Q1467.9 1521.12 1467.9 1529.87 Q1467.9 1538.6 1464.82 1543.21 Q1461.76 1547.79 1455.95 1547.79 Q1450.14 1547.79 1447.06 1543.21 Q1444.01 1538.6 1444.01 1529.87 Q1444.01 1521.12 1447.06 1516.54 Q1450.14 1511.93 1455.95 1511.93 Z" fill="#000000" fill-rule="evenodd" fill-opacity="1" /><path clip-path="url(#clip110)" d="M1476.11 1541.24 L1481 1541.24 L1481 1547.12 L1476.11 1547.12 L1476.11 1541.24 Z" fill="#000000" fill-rule="evenodd" fill-opacity="1" /><path clip-path="url(#clip110)" d="M1501.76 1527.98 Q1498.61 1527.98 1496.76 1530.13 Q1494.93 1532.28 1494.93 1536.03 Q1494.93 1539.76 1496.76 1541.93 Q1498.61 1544.09 1501.76 1544.09 Q1504.91 1544.09 1506.74 1541.93 Q1508.59 1539.76 1508.59 1536.03 Q1508.59 1532.28 1506.74 1530.13 Q1504.91 1527.98 1501.76 1527.98 M1511.04 1513.32 L1511.04 1517.58 Q1509.28 1516.75 1507.48 1516.31 Q1505.7 1515.87 1503.94 1515.87 Q1499.31 1515.87 1496.85 1519 Q1494.42 1522.12 1494.08 1528.44 Q1495.44 1526.43 1497.5 1525.36 Q1499.56 1524.27 1502.04 1524.27 Q1507.25 1524.27 1510.26 1527.44 Q1513.29 1530.59 1513.29 1536.03 Q1513.29 1541.36 1510.14 1544.57 Q1506.99 1547.79 1501.76 1547.79 Q1495.77 1547.79 1492.59 1543.21 Q1489.42 1538.6 1489.42 1529.87 Q1489.42 1521.68 1493.31 1516.82 Q1497.2 1511.93 1503.75 1511.93 Q1505.51 1511.93 1507.29 1512.28 Q1509.1 1512.63 1511.04 1513.32 Z" fill="#000000" fill-rule="evenodd" fill-opacity="1" /><path clip-path="url(#clip110)" d="M1901.21 1515.64 Q1897.6 1515.64 1895.77 1519.2 Q1893.97 1522.75 1893.97 1529.87 Q1893.97 1536.98 1895.77 1540.55 Q1897.6 1544.09 1901.21 1544.09 Q1904.85 1544.09 1906.65 1540.55 Q1908.48 1536.98 1908.48 1529.87 Q1908.48 1522.75 1906.65 1519.2 Q1904.85 1515.64 1901.21 1515.64 M1901.21 1511.93 Q1907.02 1511.93 1910.08 1516.54 Q1913.16 1521.12 1913.16 1529.87 Q1913.16 1538.6 1910.08 1543.21 Q1907.02 1547.79 1901.21 1547.79 Q1895.4 1547.79 1892.32 1543.21 Q1889.27 1538.6 1889.27 1529.87 Q1889.27 1521.12 1892.32 1516.54 Q1895.4 1511.93 1901.21 1511.93 Z" fill="#000000" fill-rule="evenodd" fill-opacity="1" /><path clip-path="url(#clip110)" d="M1921.37 1541.24 L1926.26 1541.24 L1926.26 1547.12 L1921.37 1547.12 L1921.37 1541.24 Z" fill="#000000" fill-rule="evenodd" fill-opacity="1" /><path clip-path="url(#clip110)" d="M1946.44 1530.71 Q1943.11 1530.71 1941.19 1532.49 Q1939.29 1534.27 1939.29 1537.4 Q1939.29 1540.52 1941.19 1542.31 Q1943.11 1544.09 1946.44 1544.09 Q1949.78 1544.09 1951.7 1542.31 Q1953.62 1540.5 1953.62 1537.4 Q1953.62 1534.27 1951.7 1532.49 Q1949.8 1530.71 1946.44 1530.71 M1941.77 1528.72 Q1938.76 1527.98 1937.07 1525.92 Q1935.4 1523.86 1935.4 1520.89 Q1935.4 1516.75 1938.34 1514.34 Q1941.3 1511.93 1946.44 1511.93 Q1951.61 1511.93 1954.55 1514.34 Q1957.48 1516.75 1957.48 1520.89 Q1957.48 1523.86 1955.8 1525.92 Q1954.13 1527.98 1951.14 1528.72 Q1954.52 1529.5 1956.4 1531.8 Q1958.3 1534.09 1958.3 1537.4 Q1958.3 1542.42 1955.22 1545.11 Q1952.16 1547.79 1946.44 1547.79 Q1940.73 1547.79 1937.65 1545.11 Q1934.59 1542.42 1934.59 1537.4 Q1934.59 1534.09 1936.49 1531.8 Q1938.39 1529.5 1941.77 1528.72 M1940.05 1521.33 Q1940.05 1524.02 1941.72 1525.52 Q1943.41 1527.03 1946.44 1527.03 Q1949.45 1527.03 1951.14 1525.52 Q1952.86 1524.02 1952.86 1521.33 Q1952.86 1518.65 1951.14 1517.14 Q1949.45 1515.64 1946.44 1515.64 Q1943.41 1515.64 1941.72 1517.14 Q1940.05 1518.65 1940.05 1521.33 Z" fill="#000000" fill-rule="evenodd" fill-opacity="1" /><polyline clip-path="url(#clip112)" style="stroke:#000000; stroke-linecap:butt; stroke-linejoin:round; stroke-width:2; stroke-opacity:0.1; fill:none" points="
  224.098,1332.01 2352.76,1332.01 
  "/>
<polyline clip-path="url(#clip112)" style="stroke:#000000; stroke-linecap:butt; stroke-linejoin:round; stroke-width:2; stroke-opacity:0.1; fill:none" points="
  224.098,1031.98 2352.76,1031.98 
  "/>
<polyline clip-path="url(#clip112)" style="stroke:#000000; stroke-linecap:butt; stroke-linejoin:round; stroke-width:2; stroke-opacity:0.1; fill:none" points="
  224.098,731.956 2352.76,731.956 
  "/>
<polyline clip-path="url(#clip112)" style="stroke:#000000; stroke-linecap:butt; stroke-linejoin:round; stroke-width:2; stroke-opacity:0.1; fill:none" points="
  224.098,431.931 2352.76,431.931 
  "/>
<polyline clip-path="url(#clip112)" style="stroke:#000000; stroke-linecap:butt; stroke-linejoin:round; stroke-width:2; stroke-opacity:0.1; fill:none" points="
  224.098,131.906 2352.76,131.906 
  "/>
<polyline clip-path="url(#clip110)" style="stroke:#000000; stroke-linecap:butt; stroke-linejoin:round; stroke-width:4; stroke-opacity:1; fill:none" points="
  224.098,1486.45 224.098,47.2441 
  "/>
<polyline clip-path="url(#clip110)" style="stroke:#000000; stroke-linecap:butt; stroke-linejoin:round; stroke-width:4; stroke-opacity:1; fill:none" points="
  224.098,1332.01 249.642,1332.01 
  "/>
<polyline clip-path="url(#clip110)" style="stroke:#000000; stroke-linecap:butt; stroke-linejoin:round; stroke-width:4; stroke-opacity:1; fill:none" points="
  224.098,1031.98 249.642,1031.98 
  "/>
<polyline clip-path="url(#clip110)" style="stroke:#000000; stroke-linecap:butt; stroke-linejoin:round; stroke-width:4; stroke-opacity:1; fill:none" points="
  224.098,731.956 249.642,731.956 
  "/>
<polyline clip-path="url(#clip110)" style="stroke:#000000; stroke-linecap:butt; stroke-linejoin:round; stroke-width:4; stroke-opacity:1; fill:none" points="
  224.098,431.931 249.642,431.931 
  "/>
<polyline clip-path="url(#clip110)" style="stroke:#000000; stroke-linecap:butt; stroke-linejoin:round; stroke-width:4; stroke-opacity:1; fill:none" points="
  224.098,131.906 249.642,131.906 
  "/>
<path clip-path="url(#clip110)" d="M50.9921 1332.46 L80.6679 1332.46 L80.6679 1336.39 L50.9921 1336.39 L50.9921 1332.46 Z" fill="#000000" fill-rule="evenodd" fill-opacity="1" /><path clip-path="url(#clip110)" d="M100.76 1317.81 Q97.1493 1317.81 95.3206 1321.37 Q93.515 1324.91 93.515 1332.04 Q93.515 1339.15 95.3206 1342.71 Q97.1493 1346.25 100.76 1346.25 Q104.395 1346.25 106.2 1342.71 Q108.029 1339.15 108.029 1332.04 Q108.029 1324.91 106.2 1321.37 Q104.395 1317.81 100.76 1317.81 M100.76 1314.1 Q106.571 1314.1 109.626 1318.71 Q112.705 1323.29 112.705 1332.04 Q112.705 1340.77 109.626 1345.37 Q106.571 1349.96 100.76 1349.96 Q94.9502 1349.96 91.8715 1345.37 Q88.816 1340.77 88.816 1332.04 Q88.816 1323.29 91.8715 1318.71 Q94.9502 1314.1 100.76 1314.1 Z" fill="#000000" fill-rule="evenodd" fill-opacity="1" /><path clip-path="url(#clip110)" d="M120.922 1343.41 L125.807 1343.41 L125.807 1349.29 L120.922 1349.29 L120.922 1343.41 Z" fill="#000000" fill-rule="evenodd" fill-opacity="1" /><path clip-path="url(#clip110)" d="M136.038 1314.73 L154.394 1314.73 L154.394 1318.66 L140.32 1318.66 L140.32 1327.13 Q141.339 1326.79 142.357 1326.62 Q143.376 1326.44 144.394 1326.44 Q150.181 1326.44 153.561 1329.61 Q156.941 1332.78 156.941 1338.2 Q156.941 1343.78 153.468 1346.88 Q149.996 1349.96 143.677 1349.96 Q141.501 1349.96 139.232 1349.59 Q136.987 1349.22 134.58 1348.48 L134.58 1343.78 Q136.663 1344.91 138.885 1345.47 Q141.107 1346.02 143.584 1346.02 Q147.589 1346.02 149.927 1343.92 Q152.265 1341.81 152.265 1338.2 Q152.265 1334.59 149.927 1332.48 Q147.589 1330.37 143.584 1330.37 Q141.709 1330.37 139.834 1330.79 Q137.982 1331.21 136.038 1332.09 L136.038 1314.73 Z" fill="#000000" fill-rule="evenodd" fill-opacity="1" /><path clip-path="url(#clip110)" d="M176.153 1317.81 Q172.542 1317.81 170.714 1321.37 Q168.908 1324.91 168.908 1332.04 Q168.908 1339.15 170.714 1342.71 Q172.542 1346.25 176.153 1346.25 Q179.788 1346.25 181.593 1342.71 Q183.422 1339.15 183.422 1332.04 Q183.422 1324.91 181.593 1321.37 Q179.788 1317.81 176.153 1317.81 M176.153 1314.1 Q181.964 1314.1 185.019 1318.71 Q188.098 1323.29 188.098 1332.04 Q188.098 1340.77 185.019 1345.37 Q181.964 1349.96 176.153 1349.96 Q170.343 1349.96 167.265 1345.37 Q164.209 1340.77 164.209 1332.04 Q164.209 1323.29 167.265 1318.71 Q170.343 1314.1 176.153 1314.1 Z" fill="#000000" fill-rule="evenodd" fill-opacity="1" /><path clip-path="url(#clip110)" d="M51.9875 1032.43 L81.6633 1032.43 L81.6633 1036.37 L51.9875 1036.37 L51.9875 1032.43 Z" fill="#000000" fill-rule="evenodd" fill-opacity="1" /><path clip-path="url(#clip110)" d="M101.756 1017.78 Q98.1447 1017.78 96.316 1021.34 Q94.5104 1024.89 94.5104 1032.02 Q94.5104 1039.12 96.316 1042.69 Q98.1447 1046.23 101.756 1046.23 Q105.39 1046.23 107.196 1042.69 Q109.024 1039.12 109.024 1032.02 Q109.024 1024.89 107.196 1021.34 Q105.39 1017.78 101.756 1017.78 M101.756 1014.08 Q107.566 1014.08 110.621 1018.68 Q113.7 1023.27 113.7 1032.02 Q113.7 1040.74 110.621 1045.35 Q107.566 1049.93 101.756 1049.93 Q95.9456 1049.93 92.8669 1045.35 Q89.8114 1040.74 89.8114 1032.02 Q89.8114 1023.27 92.8669 1018.68 Q95.9456 1014.08 101.756 1014.08 Z" fill="#000000" fill-rule="evenodd" fill-opacity="1" /><path clip-path="url(#clip110)" d="M121.918 1043.38 L126.802 1043.38 L126.802 1049.26 L121.918 1049.26 L121.918 1043.38 Z" fill="#000000" fill-rule="evenodd" fill-opacity="1" /><path clip-path="url(#clip110)" d="M141.015 1045.33 L157.334 1045.33 L157.334 1049.26 L135.39 1049.26 L135.39 1045.33 Q138.052 1042.57 142.635 1037.94 Q147.242 1033.29 148.422 1031.95 Q150.668 1029.42 151.547 1027.69 Q152.45 1025.93 152.45 1024.24 Q152.45 1021.48 150.505 1019.75 Q148.584 1018.01 145.482 1018.01 Q143.283 1018.01 140.83 1018.78 Q138.399 1019.54 135.621 1021.09 L135.621 1016.37 Q138.445 1015.23 140.899 1014.66 Q143.353 1014.08 145.39 1014.08 Q150.76 1014.08 153.955 1016.76 Q157.149 1019.45 157.149 1023.94 Q157.149 1026.07 156.339 1027.99 Q155.552 1029.89 153.445 1032.48 Q152.867 1033.15 149.765 1036.37 Q146.663 1039.56 141.015 1045.33 Z" fill="#000000" fill-rule="evenodd" fill-opacity="1" /><path clip-path="url(#clip110)" d="M167.195 1014.7 L185.552 1014.7 L185.552 1018.64 L171.478 1018.64 L171.478 1027.11 Q172.496 1026.76 173.515 1026.6 Q174.533 1026.41 175.552 1026.41 Q181.339 1026.41 184.718 1029.59 Q188.098 1032.76 188.098 1038.17 Q188.098 1043.75 184.626 1046.85 Q181.153 1049.93 174.834 1049.93 Q172.658 1049.93 170.39 1049.56 Q168.144 1049.19 165.737 1048.45 L165.737 1043.75 Q167.82 1044.89 170.042 1045.44 Q172.265 1046 174.741 1046 Q178.746 1046 181.084 1043.89 Q183.422 1041.78 183.422 1038.17 Q183.422 1034.56 181.084 1032.46 Q178.746 1030.35 174.741 1030.35 Q172.866 1030.35 170.991 1030.77 Q169.14 1031.18 167.195 1032.06 L167.195 1014.7 Z" fill="#000000" fill-rule="evenodd" fill-opacity="1" /><path clip-path="url(#clip110)" d="M100.76 717.755 Q97.1493 717.755 95.3206 721.32 Q93.515 724.862 93.515 731.991 Q93.515 739.098 95.3206 742.662 Q97.1493 746.204 100.76 746.204 Q104.395 746.204 106.2 742.662 Q108.029 739.098 108.029 731.991 Q108.029 724.862 106.2 721.32 Q104.395 717.755 100.76 717.755 M100.76 714.051 Q106.571 714.051 109.626 718.658 Q112.705 723.241 112.705 731.991 Q112.705 740.718 109.626 745.324 Q106.571 749.908 100.76 749.908 Q94.9502 749.908 91.8715 745.324 Q88.816 740.718 88.816 731.991 Q88.816 723.241 91.8715 718.658 Q94.9502 714.051 100.76 714.051 Z" fill="#000000" fill-rule="evenodd" fill-opacity="1" /><path clip-path="url(#clip110)" d="M120.922 743.357 L125.807 743.357 L125.807 749.236 L120.922 749.236 L120.922 743.357 Z" fill="#000000" fill-rule="evenodd" fill-opacity="1" /><path clip-path="url(#clip110)" d="M145.992 717.755 Q142.381 717.755 140.552 721.32 Q138.746 724.862 138.746 731.991 Q138.746 739.098 140.552 742.662 Q142.381 746.204 145.992 746.204 Q149.626 746.204 151.431 742.662 Q153.26 739.098 153.26 731.991 Q153.26 724.862 151.431 721.32 Q149.626 717.755 145.992 717.755 M145.992 714.051 Q151.802 714.051 154.857 718.658 Q157.936 723.241 157.936 731.991 Q157.936 740.718 154.857 745.324 Q151.802 749.908 145.992 749.908 Q140.181 749.908 137.103 745.324 Q134.047 740.718 134.047 731.991 Q134.047 723.241 137.103 718.658 Q140.181 714.051 145.992 714.051 Z" fill="#000000" fill-rule="evenodd" fill-opacity="1" /><path clip-path="url(#clip110)" d="M176.153 717.755 Q172.542 717.755 170.714 721.32 Q168.908 724.862 168.908 731.991 Q168.908 739.098 170.714 742.662 Q172.542 746.204 176.153 746.204 Q179.788 746.204 181.593 742.662 Q183.422 739.098 183.422 731.991 Q183.422 724.862 181.593 721.32 Q179.788 717.755 176.153 717.755 M176.153 714.051 Q181.964 714.051 185.019 718.658 Q188.098 723.241 188.098 731.991 Q188.098 740.718 185.019 745.324 Q181.964 749.908 176.153 749.908 Q170.343 749.908 167.265 745.324 Q164.209 740.718 164.209 731.991 Q164.209 723.241 167.265 718.658 Q170.343 714.051 176.153 714.051 Z" fill="#000000" fill-rule="evenodd" fill-opacity="1" /><path clip-path="url(#clip110)" d="M101.756 417.73 Q98.1447 417.73 96.316 421.295 Q94.5104 424.836 94.5104 431.966 Q94.5104 439.073 96.316 442.637 Q98.1447 446.179 101.756 446.179 Q105.39 446.179 107.196 442.637 Q109.024 439.073 109.024 431.966 Q109.024 424.836 107.196 421.295 Q105.39 417.73 101.756 417.73 M101.756 414.026 Q107.566 414.026 110.621 418.633 Q113.7 423.216 113.7 431.966 Q113.7 440.693 110.621 445.299 Q107.566 449.883 101.756 449.883 Q95.9456 449.883 92.8669 445.299 Q89.8114 440.693 89.8114 431.966 Q89.8114 423.216 92.8669 418.633 Q95.9456 414.026 101.756 414.026 Z" fill="#000000" fill-rule="evenodd" fill-opacity="1" /><path clip-path="url(#clip110)" d="M121.918 443.332 L126.802 443.332 L126.802 449.211 L121.918 449.211 L121.918 443.332 Z" fill="#000000" fill-rule="evenodd" fill-opacity="1" /><path clip-path="url(#clip110)" d="M141.015 445.276 L157.334 445.276 L157.334 449.211 L135.39 449.211 L135.39 445.276 Q138.052 442.522 142.635 437.892 Q147.242 433.239 148.422 431.897 Q150.668 429.373 151.547 427.637 Q152.45 425.878 152.45 424.188 Q152.45 421.434 150.505 419.698 Q148.584 417.962 145.482 417.962 Q143.283 417.962 140.83 418.725 Q138.399 419.489 135.621 421.04 L135.621 416.318 Q138.445 415.184 140.899 414.605 Q143.353 414.026 145.39 414.026 Q150.76 414.026 153.955 416.712 Q157.149 419.397 157.149 423.887 Q157.149 426.017 156.339 427.938 Q155.552 429.836 153.445 432.429 Q152.867 433.1 149.765 436.318 Q146.663 439.512 141.015 445.276 Z" fill="#000000" fill-rule="evenodd" fill-opacity="1" /><path clip-path="url(#clip110)" d="M167.195 414.651 L185.552 414.651 L185.552 418.586 L171.478 418.586 L171.478 427.059 Q172.496 426.711 173.515 426.549 Q174.533 426.364 175.552 426.364 Q181.339 426.364 184.718 429.536 Q188.098 432.707 188.098 438.123 Q188.098 443.702 184.626 446.804 Q181.153 449.883 174.834 449.883 Q172.658 449.883 170.39 449.512 Q168.144 449.142 165.737 448.401 L165.737 443.702 Q167.82 444.836 170.042 445.392 Q172.265 445.947 174.741 445.947 Q178.746 445.947 181.084 443.841 Q183.422 441.735 183.422 438.123 Q183.422 434.512 181.084 432.406 Q178.746 430.299 174.741 430.299 Q172.866 430.299 170.991 430.716 Q169.14 431.133 167.195 432.012 L167.195 414.651 Z" fill="#000000" fill-rule="evenodd" fill-opacity="1" /><path clip-path="url(#clip110)" d="M100.76 117.705 Q97.1493 117.705 95.3206 121.27 Q93.515 124.811 93.515 131.941 Q93.515 139.047 95.3206 142.612 Q97.1493 146.154 100.76 146.154 Q104.395 146.154 106.2 142.612 Q108.029 139.047 108.029 131.941 Q108.029 124.811 106.2 121.27 Q104.395 117.705 100.76 117.705 M100.76 114.001 Q106.571 114.001 109.626 118.608 Q112.705 123.191 112.705 131.941 Q112.705 140.668 109.626 145.274 Q106.571 149.858 100.76 149.858 Q94.9502 149.858 91.8715 145.274 Q88.816 140.668 88.816 131.941 Q88.816 123.191 91.8715 118.608 Q94.9502 114.001 100.76 114.001 Z" fill="#000000" fill-rule="evenodd" fill-opacity="1" /><path clip-path="url(#clip110)" d="M120.922 143.307 L125.807 143.307 L125.807 149.186 L120.922 149.186 L120.922 143.307 Z" fill="#000000" fill-rule="evenodd" fill-opacity="1" /><path clip-path="url(#clip110)" d="M136.038 114.626 L154.394 114.626 L154.394 118.561 L140.32 118.561 L140.32 127.034 Q141.339 126.686 142.357 126.524 Q143.376 126.339 144.394 126.339 Q150.181 126.339 153.561 129.51 Q156.941 132.682 156.941 138.098 Q156.941 143.677 153.468 146.779 Q149.996 149.858 143.677 149.858 Q141.501 149.858 139.232 149.487 Q136.987 149.117 134.58 148.376 L134.58 143.677 Q136.663 144.811 138.885 145.367 Q141.107 145.922 143.584 145.922 Q147.589 145.922 149.927 143.816 Q152.265 141.709 152.265 138.098 Q152.265 134.487 149.927 132.381 Q147.589 130.274 143.584 130.274 Q141.709 130.274 139.834 130.691 Q137.982 131.108 136.038 131.987 L136.038 114.626 Z" fill="#000000" fill-rule="evenodd" fill-opacity="1" /><path clip-path="url(#clip110)" d="M176.153 117.705 Q172.542 117.705 170.714 121.27 Q168.908 124.811 168.908 131.941 Q168.908 139.047 170.714 142.612 Q172.542 146.154 176.153 146.154 Q179.788 146.154 181.593 142.612 Q183.422 139.047 183.422 131.941 Q183.422 124.811 181.593 121.27 Q179.788 117.705 176.153 117.705 M176.153 114.001 Q181.964 114.001 185.019 118.608 Q188.098 123.191 188.098 131.941 Q188.098 140.668 185.019 145.274 Q181.964 149.858 176.153 149.858 Q170.343 149.858 167.265 145.274 Q164.209 140.668 164.209 131.941 Q164.209 123.191 167.265 118.608 Q170.343 114.001 176.153 114.001 Z" fill="#000000" fill-rule="evenodd" fill-opacity="1" /><polyline clip-path="url(#clip112)" style="stroke:#009af9; stroke-linecap:butt; stroke-linejoin:round; stroke-width:4; stroke-opacity:1; fill:none" points="
  284.343,808.036 565.325,839.534 731.828,569.284 869.411,643.471 1102.51,889.169 1280.37,625.043 1443.39,712.943 1689.53,845.666 2008.41,657.579 2292.51,690.759 
  
  "/>
<circle clip-path="url(#clip112)" cx="284.343" cy="808.036" r="14" fill="#009af9" fill-rule="evenodd" fill-opacity="1" stroke="#000000" stroke-opacity="1" stroke-width="3.2"/>
<circle clip-path="url(#clip112)" cx="565.325" cy="839.534" r="14" fill="#009af9" fill-rule="evenodd" fill-opacity="1" stroke="#000000" stroke-opacity="1" stroke-width="3.2"/>
<circle clip-path="url(#clip112)" cx="731.828" cy="569.284" r="14" fill="#009af9" fill-rule="evenodd" fill-opacity="1" stroke="#000000" stroke-opacity="1" stroke-width="3.2"/>
<circle clip-path="url(#clip112)" cx="869.411" cy="643.471" r="14" fill="#009af9" fill-rule="evenodd" fill-opacity="1" stroke="#000000" stroke-opacity="1" stroke-width="3.2"/>
<circle clip-path="url(#clip112)" cx="1102.51" cy="889.169" r="14" fill="#009af9" fill-rule="evenodd" fill-opacity="1" stroke="#000000" stroke-opacity="1" stroke-width="3.2"/>
<circle clip-path="url(#clip112)" cx="1280.37" cy="625.043" r="14" fill="#009af9" fill-rule="evenodd" fill-opacity="1" stroke="#000000" stroke-opacity="1" stroke-width="3.2"/>
<circle clip-path="url(#clip112)" cx="1443.39" cy="712.943" r="14" fill="#009af9" fill-rule="evenodd" fill-opacity="1" stroke="#000000" stroke-opacity="1" stroke-width="3.2"/>
<circle clip-path="url(#clip112)" cx="1689.53" cy="845.666" r="14" fill="#009af9" fill-rule="evenodd" fill-opacity="1" stroke="#000000" stroke-opacity="1" stroke-width="3.2"/>
<circle clip-path="url(#clip112)" cx="2008.41" cy="657.579" r="14" fill="#009af9" fill-rule="evenodd" fill-opacity="1" stroke="#000000" stroke-opacity="1" stroke-width="3.2"/>
<circle clip-path="url(#clip112)" cx="2292.51" cy="690.759" r="14" fill="#009af9" fill-rule="evenodd" fill-opacity="1" stroke="#000000" stroke-opacity="1" stroke-width="3.2"/>
<polyline clip-path="url(#clip112)" style="stroke:#000000; stroke-linecap:butt; stroke-linejoin:round; stroke-width:4; stroke-opacity:1; fill:none" points="
  284.343,808.036 284.343,87.9763 
  "/>
<polyline clip-path="url(#clip112)" style="stroke:#000000; stroke-linecap:butt; stroke-linejoin:round; stroke-width:4; stroke-opacity:1; fill:none" points="
  565.325,839.534 565.325,239.484 
  "/>
<polyline clip-path="url(#clip112)" style="stroke:#000000; stroke-linecap:butt; stroke-linejoin:round; stroke-width:4; stroke-opacity:1; fill:none" points="
  731.828,1049.32 731.828,809.304 
  "/>
<polyline clip-path="url(#clip112)" style="stroke:#000000; stroke-linecap:butt; stroke-linejoin:round; stroke-width:4; stroke-opacity:1; fill:none" points="
  869.411,883.491 869.411,163.431 
  "/>
<polyline clip-path="url(#clip112)" style="stroke:#000000; stroke-linecap:butt; stroke-linejoin:round; stroke-width:4; stroke-opacity:1; fill:none" points="
  1102.51,1249.2 1102.51,649.149 
  "/>
<polyline clip-path="url(#clip112)" style="stroke:#000000; stroke-linecap:butt; stroke-linejoin:round; stroke-width:4; stroke-opacity:1; fill:none" points="
  1280.37,385.023 1280.37,145.003 
  "/>
<polyline clip-path="url(#clip112)" style="stroke:#000000; stroke-linecap:butt; stroke-linejoin:round; stroke-width:4; stroke-opacity:1; fill:none" points="
  1443.39,1072.97 1443.39,352.913 
  "/>
<polyline clip-path="url(#clip112)" style="stroke:#000000; stroke-linecap:butt; stroke-linejoin:round; stroke-width:4; stroke-opacity:1; fill:none" points="
  1689.53,1445.72 1689.53,605.646 
  "/>
<polyline clip-path="url(#clip112)" style="stroke:#000000; stroke-linecap:butt; stroke-linejoin:round; stroke-width:4; stroke-opacity:1; fill:none" points="
  2008.41,1017.61 2008.41,537.569 
  "/>
<polyline clip-path="url(#clip112)" style="stroke:#000000; stroke-linecap:butt; stroke-linejoin:round; stroke-width:4; stroke-opacity:1; fill:none" points="
  2292.51,1410.82 2292.51,690.759 
  "/>
<line clip-path="url(#clip112)" x1="300.343" y1="808.036" x2="268.343" y2="808.036" style="stroke:#000000; stroke-width:3.2; stroke-opacity:1"/>
<line clip-path="url(#clip112)" x1="300.343" y1="87.9763" x2="268.343" y2="87.9763" style="stroke:#000000; stroke-width:3.2; stroke-opacity:1"/>
<line clip-path="url(#clip112)" x1="581.325" y1="839.534" x2="549.325" y2="839.534" style="stroke:#000000; stroke-width:3.2; stroke-opacity:1"/>
<line clip-path="url(#clip112)" x1="581.325" y1="239.484" x2="549.325" y2="239.484" style="stroke:#000000; stroke-width:3.2; stroke-opacity:1"/>
<line clip-path="url(#clip112)" x1="747.828" y1="1049.32" x2="715.828" y2="1049.32" style="stroke:#000000; stroke-width:3.2; stroke-opacity:1"/>
<line clip-path="url(#clip112)" x1="747.828" y1="809.304" x2="715.828" y2="809.304" style="stroke:#000000; stroke-width:3.2; stroke-opacity:1"/>
<line clip-path="url(#clip112)" x1="885.411" y1="883.491" x2="853.411" y2="883.491" style="stroke:#000000; stroke-width:3.2; stroke-opacity:1"/>
<line clip-path="url(#clip112)" x1="885.411" y1="163.431" x2="853.411" y2="163.431" style="stroke:#000000; stroke-width:3.2; stroke-opacity:1"/>
<line clip-path="url(#clip112)" x1="1118.51" y1="1249.2" x2="1086.51" y2="1249.2" style="stroke:#000000; stroke-width:3.2; stroke-opacity:1"/>
<line clip-path="url(#clip112)" x1="1118.51" y1="649.149" x2="1086.51" y2="649.149" style="stroke:#000000; stroke-width:3.2; stroke-opacity:1"/>
<line clip-path="url(#clip112)" x1="1296.37" y1="385.023" x2="1264.37" y2="385.023" style="stroke:#000000; stroke-width:3.2; stroke-opacity:1"/>
<line clip-path="url(#clip112)" x1="1296.37" y1="145.003" x2="1264.37" y2="145.003" style="stroke:#000000; stroke-width:3.2; stroke-opacity:1"/>
<line clip-path="url(#clip112)" x1="1459.39" y1="1072.97" x2="1427.39" y2="1072.97" style="stroke:#000000; stroke-width:3.2; stroke-opacity:1"/>
<line clip-path="url(#clip112)" x1="1459.39" y1="352.913" x2="1427.39" y2="352.913" style="stroke:#000000; stroke-width:3.2; stroke-opacity:1"/>
<line clip-path="url(#clip112)" x1="1705.53" y1="1445.72" x2="1673.53" y2="1445.72" style="stroke:#000000; stroke-width:3.2; stroke-opacity:1"/>
<line clip-path="url(#clip112)" x1="1705.53" y1="605.646" x2="1673.53" y2="605.646" style="stroke:#000000; stroke-width:3.2; stroke-opacity:1"/>
<line clip-path="url(#clip112)" x1="2024.41" y1="1017.61" x2="1992.41" y2="1017.61" style="stroke:#000000; stroke-width:3.2; stroke-opacity:1"/>
<line clip-path="url(#clip112)" x1="2024.41" y1="537.569" x2="1992.41" y2="537.569" style="stroke:#000000; stroke-width:3.2; stroke-opacity:1"/>
<line clip-path="url(#clip112)" x1="2308.51" y1="1410.82" x2="2276.51" y2="1410.82" style="stroke:#000000; stroke-width:3.2; stroke-opacity:1"/>
<line clip-path="url(#clip112)" x1="2308.51" y1="690.759" x2="2276.51" y2="690.759" style="stroke:#000000; stroke-width:3.2; stroke-opacity:1"/>
<path clip-path="url(#clip110)" d="
M1992.85 216.178 L2281.8 216.178 L2281.8 95.2176 L1992.85 95.2176  Z
  " fill="#ffffff" fill-rule="evenodd" fill-opacity="1"/>
<polyline clip-path="url(#clip110)" style="stroke:#000000; stroke-linecap:butt; stroke-linejoin:round; stroke-width:4; stroke-opacity:1; fill:none" points="
  1992.85,216.178 2281.8,216.178 2281.8,95.2176 1992.85,95.2176 1992.85,216.178 
  "/>
<polyline clip-path="url(#clip110)" style="stroke:#009af9; stroke-linecap:butt; stroke-linejoin:round; stroke-width:4; stroke-opacity:1; fill:none" points="
  2016.5,155.698 2158.42,155.698 
  "/>
<circle clip-path="url(#clip110)" cx="2087.46" cy="155.698" r="23" fill="#009af9" fill-rule="evenodd" fill-opacity="1" stroke="#000000" stroke-opacity="1" stroke-width="5.12"/>
<path clip-path="url(#clip110)" d="M2195.91 175.385 Q2194.1 180.015 2192.39 181.427 Q2190.68 182.839 2187.81 182.839 L2184.4 182.839 L2184.4 179.274 L2186.9 179.274 Q2188.66 179.274 2189.64 178.44 Q2190.61 177.607 2191.79 174.505 L2192.55 172.561 L2182.07 147.052 L2186.58 147.052 L2194.68 167.329 L2202.78 147.052 L2207.3 147.052 L2195.91 175.385 Z" fill="#000000" fill-rule="evenodd" fill-opacity="1" /><path clip-path="url(#clip110)" d="M2214.59 169.042 L2222.23 169.042 L2222.23 142.677 L2213.92 144.343 L2213.92 140.084 L2222.18 138.418 L2226.86 138.418 L2226.86 169.042 L2234.5 169.042 L2234.5 172.978 L2214.59 172.978 L2214.59 169.042 Z" fill="#000000" fill-rule="evenodd" fill-opacity="1" /></svg>
