<?xml version="1.0" encoding="utf-8"?>
<svg xmlns="http://www.w3.org/2000/svg" xmlns:xlink="http://www.w3.org/1999/xlink" width="600" height="400" viewBox="0 0 2400 1600">
<defs>
  <clipPath id="clip910">
    <rect x="0" y="0" width="2400" height="1600"/>
  </clipPath>
</defs>
<path clip-path="url(#clip910)" d="
M0 1600 L2400 1600 L2400 0 L0 0  Z
  " fill="#ffffff" fill-rule="evenodd" fill-opacity="1"/>
<defs>
  <clipPath id="clip911">
    <rect x="480" y="0" width="1681" height="1600"/>
  </clipPath>
</defs>
<path clip-path="url(#clip910)" d="
M192.709 1486.45 L2352.76 1486.45 L2352.76 47.2441 L192.709 47.2441  Z
  " fill="#ffffff" fill-rule="evenodd" fill-opacity="1"/>
<defs>
  <clipPath id="clip912">
    <rect x="192" y="47" width="2161" height="1440"/>
  </clipPath>
</defs>
<polyline clip-path="url(#clip912)" style="stroke:#000000; stroke-width:2; stroke-opacity:0.1; fill:none" points="
  569.882,1486.45 569.882,47.2441 
  "/>
<polyline clip-path="url(#clip912)" style="stroke:#000000; stroke-width:2; stroke-opacity:0.1; fill:none" points="
  1015,1486.45 1015,47.2441 
  "/>
<polyline clip-path="url(#clip912)" style="stroke:#000000; stroke-width:2; stroke-opacity:0.1; fill:none" points="
  1460.11,1486.45 1460.11,47.2441 
  "/>
<polyline clip-path="url(#clip912)" style="stroke:#000000; stroke-width:2; stroke-opacity:0.1; fill:none" points="
  1905.23,1486.45 1905.23,47.2441 
  "/>
<polyline clip-path="url(#clip912)" style="stroke:#000000; stroke-width:2; stroke-opacity:0.1; fill:none" points="
  2350.34,1486.45 2350.34,47.2441 
  "/>
<polyline clip-path="url(#clip910)" style="stroke:#000000; stroke-width:4; stroke-opacity:1; fill:none" points="
  192.709,1486.45 2352.76,1486.45 
  "/>
<polyline clip-path="url(#clip910)" style="stroke:#000000; stroke-width:4; stroke-opacity:1; fill:none" points="
  569.882,1486.45 569.882,1469.18 
  "/>
<polyline clip-path="url(#clip910)" style="stroke:#000000; stroke-width:4; stroke-opacity:1; fill:none" points="
  1015,1486.45 1015,1469.18 
  "/>
<polyline clip-path="url(#clip910)" style="stroke:#000000; stroke-width:4; stroke-opacity:1; fill:none" points="
  1460.11,1486.45 1460.11,1469.18 
  "/>
<polyline clip-path="url(#clip910)" style="stroke:#000000; stroke-width:4; stroke-opacity:1; fill:none" points="
  1905.23,1486.45 1905.23,1469.18 
  "/>
<polyline clip-path="url(#clip910)" style="stroke:#000000; stroke-width:4; stroke-opacity:1; fill:none" points="
  2350.34,1486.45 2350.34,1469.18 
  "/>
<path clip-path="url(#clip910)" d="M 0 0 M548.065 1515.64 Q544.454 1515.64 542.625 1519.2 Q540.82 1522.75 540.82 1529.87 Q540.82 1536.98 542.625 1540.55 Q544.454 1544.09 548.065 1544.09 Q551.7 1544.09 553.505 1540.55 Q555.334 1536.98 555.334 1529.87 Q555.334 1522.75 553.505 1519.2 Q551.7 1515.64 548.065 1515.64 M548.065 1511.93 Q553.875 1511.93 556.931 1516.54 Q560.01 1521.12 560.01 1529.87 Q560.01 1538.6 556.931 1543.21 Q553.875 1547.79 548.065 1547.79 Q542.255 1547.79 539.176 1543.21 Q536.121 1538.6 536.121 1529.87 Q536.121 1521.12 539.176 1516.54 Q542.255 1511.93 548.065 1511.93 Z" fill="#000000" fill-rule="evenodd" fill-opacity="1" /><path clip-path="url(#clip910)" d="M 0 0 M568.227 1541.24 L573.111 1541.24 L573.111 1547.12 L568.227 1547.12 L568.227 1541.24 Z" fill="#000000" fill-rule="evenodd" fill-opacity="1" /><path clip-path="url(#clip910)" d="M 0 0 M587.324 1543.18 L603.644 1543.18 L603.644 1547.12 L581.699 1547.12 L581.699 1543.18 Q584.361 1540.43 588.945 1535.8 Q593.551 1531.15 594.732 1529.81 Q596.977 1527.28 597.857 1525.55 Q598.759 1523.79 598.759 1522.1 Q598.759 1519.34 596.815 1517.61 Q594.894 1515.87 591.792 1515.87 Q589.593 1515.87 587.139 1516.63 Q584.709 1517.4 581.931 1518.95 L581.931 1514.23 Q584.755 1513.09 587.209 1512.51 Q589.662 1511.93 591.699 1511.93 Q597.07 1511.93 600.264 1514.62 Q603.458 1517.31 603.458 1521.8 Q603.458 1523.93 602.648 1525.85 Q601.861 1527.74 599.755 1530.34 Q599.176 1531.01 596.074 1534.23 Q592.972 1537.42 587.324 1543.18 Z" fill="#000000" fill-rule="evenodd" fill-opacity="1" /><path clip-path="url(#clip910)" d="M 0 0 M992.138 1515.64 Q988.527 1515.64 986.699 1519.2 Q984.893 1522.75 984.893 1529.87 Q984.893 1536.98 986.699 1540.55 Q988.527 1544.09 992.138 1544.09 Q995.773 1544.09 997.578 1540.55 Q999.407 1536.98 999.407 1529.87 Q999.407 1522.75 997.578 1519.2 Q995.773 1515.64 992.138 1515.64 M992.138 1511.93 Q997.948 1511.93 1001 1516.54 Q1004.08 1521.12 1004.08 1529.87 Q1004.08 1538.6 1001 1543.21 Q997.948 1547.79 992.138 1547.79 Q986.328 1547.79 983.249 1543.21 Q980.194 1538.6 980.194 1529.87 Q980.194 1521.12 983.249 1516.54 Q986.328 1511.93 992.138 1511.93 Z" fill="#000000" fill-rule="evenodd" fill-opacity="1" /><path clip-path="url(#clip910)" d="M 0 0 M1012.3 1541.24 L1017.18 1541.24 L1017.18 1547.12 L1012.3 1547.12 L1012.3 1541.24 Z" fill="#000000" fill-rule="evenodd" fill-opacity="1" /><path clip-path="url(#clip910)" d="M 0 0 M1040.22 1516.63 L1028.41 1535.08 L1040.22 1535.08 L1040.22 1516.63 M1038.99 1512.56 L1044.87 1512.56 L1044.87 1535.08 L1049.8 1535.08 L1049.8 1538.97 L1044.87 1538.97 L1044.87 1547.12 L1040.22 1547.12 L1040.22 1538.97 L1024.61 1538.97 L1024.61 1534.46 L1038.99 1512.56 Z" fill="#000000" fill-rule="evenodd" fill-opacity="1" /><path clip-path="url(#clip910)" d="M 0 0 M1437.42 1515.64 Q1433.8 1515.64 1431.98 1519.2 Q1430.17 1522.75 1430.17 1529.87 Q1430.17 1536.98 1431.98 1540.55 Q1433.8 1544.09 1437.42 1544.09 Q1441.05 1544.09 1442.85 1540.55 Q1444.68 1536.98 1444.68 1529.87 Q1444.68 1522.75 1442.85 1519.2 Q1441.05 1515.64 1437.42 1515.64 M1437.42 1511.93 Q1443.23 1511.93 1446.28 1516.54 Q1449.36 1521.12 1449.36 1529.87 Q1449.36 1538.6 1446.28 1543.21 Q1443.23 1547.79 1437.42 1547.79 Q1431.6 1547.79 1428.53 1543.21 Q1425.47 1538.6 1425.47 1529.87 Q1425.47 1521.12 1428.53 1516.54 Q1431.6 1511.93 1437.42 1511.93 Z" fill="#000000" fill-rule="evenodd" fill-opacity="1" /><path clip-path="url(#clip910)" d="M 0 0 M1457.58 1541.24 L1462.46 1541.24 L1462.46 1547.12 L1457.58 1547.12 L1457.58 1541.24 Z" fill="#000000" fill-rule="evenodd" fill-opacity="1" /><path clip-path="url(#clip910)" d="M 0 0 M1483.22 1527.98 Q1480.08 1527.98 1478.23 1530.13 Q1476.4 1532.28 1476.4 1536.03 Q1476.4 1539.76 1478.23 1541.93 Q1480.08 1544.09 1483.22 1544.09 Q1486.37 1544.09 1488.2 1541.93 Q1490.05 1539.76 1490.05 1536.03 Q1490.05 1532.28 1488.2 1530.13 Q1486.37 1527.98 1483.22 1527.98 M1492.51 1513.32 L1492.51 1517.58 Q1490.75 1516.75 1488.94 1516.31 Q1487.16 1515.87 1485.4 1515.87 Q1480.77 1515.87 1478.32 1519 Q1475.89 1522.12 1475.54 1528.44 Q1476.91 1526.43 1478.97 1525.36 Q1481.03 1524.27 1483.5 1524.27 Q1488.71 1524.27 1491.72 1527.44 Q1494.75 1530.59 1494.75 1536.03 Q1494.75 1541.36 1491.6 1544.57 Q1488.46 1547.79 1483.22 1547.79 Q1477.23 1547.79 1474.06 1543.21 Q1470.89 1538.6 1470.89 1529.87 Q1470.89 1521.68 1474.78 1516.82 Q1478.66 1511.93 1485.22 1511.93 Q1486.97 1511.93 1488.76 1512.28 Q1490.56 1512.63 1492.51 1513.32 Z" fill="#000000" fill-rule="evenodd" fill-opacity="1" /><path clip-path="url(#clip910)" d="M 0 0 M1882.66 1515.64 Q1879.05 1515.64 1877.22 1519.2 Q1875.41 1522.75 1875.41 1529.87 Q1875.41 1536.98 1877.22 1540.55 Q1879.05 1544.09 1882.66 1544.09 Q1886.29 1544.09 1888.1 1540.55 Q1889.93 1536.98 1889.93 1529.87 Q1889.93 1522.75 1888.1 1519.2 Q1886.29 1515.64 1882.66 1515.64 M1882.66 1511.93 Q1888.47 1511.93 1891.52 1516.54 Q1894.6 1521.12 1894.6 1529.87 Q1894.6 1538.6 1891.52 1543.21 Q1888.47 1547.79 1882.66 1547.79 Q1876.85 1547.79 1873.77 1543.21 Q1870.71 1538.6 1870.71 1529.87 Q1870.71 1521.12 1873.77 1516.54 Q1876.85 1511.93 1882.66 1511.93 Z" fill="#000000" fill-rule="evenodd" fill-opacity="1" /><path clip-path="url(#clip910)" d="M 0 0 M1902.82 1541.24 L1907.7 1541.24 L1907.7 1547.12 L1902.82 1547.12 L1902.82 1541.24 Z" fill="#000000" fill-rule="evenodd" fill-opacity="1" /><path clip-path="url(#clip910)" d="M 0 0 M1927.89 1530.71 Q1924.55 1530.71 1922.63 1532.49 Q1920.74 1534.27 1920.74 1537.4 Q1920.74 1540.52 1922.63 1542.31 Q1924.55 1544.09 1927.89 1544.09 Q1931.22 1544.09 1933.14 1542.31 Q1935.06 1540.5 1935.06 1537.4 Q1935.06 1534.27 1933.14 1532.49 Q1931.24 1530.71 1927.89 1530.71 M1923.21 1528.72 Q1920.2 1527.98 1918.51 1525.92 Q1916.85 1523.86 1916.85 1520.89 Q1916.85 1516.75 1919.79 1514.34 Q1922.75 1511.93 1927.89 1511.93 Q1933.05 1511.93 1935.99 1514.34 Q1938.93 1516.75 1938.93 1520.89 Q1938.93 1523.86 1937.24 1525.92 Q1935.57 1527.98 1932.59 1528.72 Q1935.97 1529.5 1937.84 1531.8 Q1939.74 1534.09 1939.74 1537.4 Q1939.74 1542.42 1936.66 1545.11 Q1933.61 1547.79 1927.89 1547.79 Q1922.17 1547.79 1919.09 1545.11 Q1916.04 1542.42 1916.04 1537.4 Q1916.04 1534.09 1917.93 1531.8 Q1919.83 1529.5 1923.21 1528.72 M1921.5 1521.33 Q1921.5 1524.02 1923.17 1525.52 Q1924.86 1527.03 1927.89 1527.03 Q1930.9 1527.03 1932.59 1525.52 Q1934.3 1524.02 1934.3 1521.33 Q1934.3 1518.65 1932.59 1517.14 Q1930.9 1515.64 1927.89 1515.64 Q1924.86 1515.64 1923.17 1517.14 Q1921.5 1518.65 1921.5 1521.33 Z" fill="#000000" fill-rule="evenodd" fill-opacity="1" /><path clip-path="url(#clip910)" d="M 0 0 M2317.49 1543.18 L2325.13 1543.18 L2325.13 1516.82 L2316.82 1518.49 L2316.82 1514.23 L2325.09 1512.56 L2329.76 1512.56 L2329.76 1543.18 L2337.4 1543.18 L2337.4 1547.12 L2317.49 1547.12 L2317.49 1543.18 Z" fill="#000000" fill-rule="evenodd" fill-opacity="1" /><path clip-path="url(#clip910)" d="M 0 0 M2346.85 1541.24 L2351.73 1541.24 L2351.73 1547.12 L2346.85 1547.12 L2346.85 1541.24 Z" fill="#000000" fill-rule="evenodd" fill-opacity="1" /><path clip-path="url(#clip910)" d="M 0 0 M2371.92 1515.64 Q2368.3 1515.64 2366.48 1519.2 Q2364.67 1522.75 2364.67 1529.87 Q2364.67 1536.98 2366.48 1540.55 Q2368.3 1544.09 2371.92 1544.09 Q2375.55 1544.09 2377.35 1540.55 Q2379.18 1536.98 2379.18 1529.87 Q2379.18 1522.75 2377.35 1519.2 Q2375.55 1515.64 2371.92 1515.64 M2371.92 1511.93 Q2377.73 1511.93 2380.78 1516.54 Q2383.86 1521.12 2383.86 1529.87 Q2383.86 1538.6 2380.78 1543.21 Q2377.73 1547.79 2371.92 1547.79 Q2366.1 1547.79 2363.03 1543.21 Q2359.97 1538.6 2359.97 1529.87 Q2359.97 1521.12 2363.03 1516.54 Q2366.1 1511.93 2371.92 1511.93 Z" fill="#000000" fill-rule="evenodd" fill-opacity="1" /><polyline clip-path="url(#clip912)" style="stroke:#000000; stroke-width:2; stroke-opacity:0.1; fill:none" points="
  192.709,1234.23 2352.76,1234.23 
  "/>
<polyline clip-path="url(#clip912)" style="stroke:#000000; stroke-width:2; stroke-opacity:0.1; fill:none" points="
  192.709,921.49 2352.76,921.49 
  "/>
<polyline clip-path="url(#clip912)" style="stroke:#000000; stroke-width:2; stroke-opacity:0.1; fill:none" points="
  192.709,608.753 2352.76,608.753 
  "/>
<polyline clip-path="url(#clip912)" style="stroke:#000000; stroke-width:2; stroke-opacity:0.1; fill:none" points="
  192.709,296.016 2352.76,296.016 
  "/>
<polyline clip-path="url(#clip910)" style="stroke:#000000; stroke-width:4; stroke-opacity:1; fill:none" points="
  192.709,1486.45 192.709,47.2441 
  "/>
<polyline clip-path="url(#clip910)" style="stroke:#000000; stroke-width:4; stroke-opacity:1; fill:none" points="
  192.709,1234.23 218.63,1234.23 
  "/>
<polyline clip-path="url(#clip910)" style="stroke:#000000; stroke-width:4; stroke-opacity:1; fill:none" points="
  192.709,921.49 218.63,921.49 
  "/>
<polyline clip-path="url(#clip910)" style="stroke:#000000; stroke-width:4; stroke-opacity:1; fill:none" points="
  192.709,608.753 218.63,608.753 
  "/>
<polyline clip-path="url(#clip910)" style="stroke:#000000; stroke-width:4; stroke-opacity:1; fill:none" points="
  192.709,296.016 218.63,296.016 
  "/>
<path clip-path="url(#clip910)" d="M 0 0 M51.3625 1234.68 L81.0383 1234.68 L81.0383 1238.61 L51.3625 1238.61 L51.3625 1234.68 Z" fill="#000000" fill-rule="evenodd" fill-opacity="1" /><path clip-path="url(#clip910)" d="M 0 0 M101.131 1220.03 Q97.5197 1220.03 95.691 1223.59 Q93.8854 1227.13 93.8854 1234.26 Q93.8854 1241.37 95.691 1244.93 Q97.5197 1248.47 101.131 1248.47 Q104.765 1248.47 106.571 1244.93 Q108.399 1241.37 108.399 1234.26 Q108.399 1227.13 106.571 1223.59 Q104.765 1220.03 101.131 1220.03 M101.131 1216.32 Q106.941 1216.32 109.996 1220.93 Q113.075 1225.51 113.075 1234.26 Q113.075 1242.99 109.996 1247.6 Q106.941 1252.18 101.131 1252.18 Q95.3206 1252.18 92.2419 1247.6 Q89.1864 1242.99 89.1864 1234.26 Q89.1864 1225.51 92.2419 1220.93 Q95.3206 1216.32 101.131 1216.32 Z" fill="#000000" fill-rule="evenodd" fill-opacity="1" /><path clip-path="url(#clip910)" d="M 0 0 M121.293 1245.63 L126.177 1245.63 L126.177 1251.51 L121.293 1251.51 L121.293 1245.63 Z" fill="#000000" fill-rule="evenodd" fill-opacity="1" /><path clip-path="url(#clip910)" d="M 0 0 M140.39 1247.57 L156.709 1247.57 L156.709 1251.51 L134.765 1251.51 L134.765 1247.57 Q137.427 1244.82 142.01 1240.19 Q146.617 1235.54 147.797 1234.19 Q150.043 1231.67 150.922 1229.93 Q151.825 1228.17 151.825 1226.48 Q151.825 1223.73 149.88 1221.99 Q147.959 1220.26 144.857 1220.26 Q142.658 1220.26 140.205 1221.02 Q137.774 1221.79 134.996 1223.34 L134.996 1218.61 Q137.82 1217.48 140.274 1216.9 Q142.728 1216.32 144.765 1216.32 Q150.135 1216.32 153.33 1219.01 Q156.524 1221.69 156.524 1226.18 Q156.524 1228.31 155.714 1230.23 Q154.927 1232.13 152.82 1234.72 Q152.242 1235.4 149.14 1238.61 Q146.038 1241.81 140.39 1247.57 Z" fill="#000000" fill-rule="evenodd" fill-opacity="1" /><path clip-path="url(#clip910)" d="M 0 0 M50.9921 921.941 L80.6679 921.941 L80.6679 925.877 L50.9921 925.877 L50.9921 921.941 Z" fill="#000000" fill-rule="evenodd" fill-opacity="1" /><path clip-path="url(#clip910)" d="M 0 0 M100.76 907.289 Q97.1493 907.289 95.3206 910.853 Q93.515 914.395 93.515 921.525 Q93.515 928.631 95.3206 932.196 Q97.1493 935.738 100.76 935.738 Q104.395 935.738 106.2 932.196 Q108.029 928.631 108.029 921.525 Q108.029 914.395 106.2 910.853 Q104.395 907.289 100.76 907.289 M100.76 903.585 Q106.571 903.585 109.626 908.191 Q112.705 912.775 112.705 921.525 Q112.705 930.251 109.626 934.858 Q106.571 939.441 100.76 939.441 Q94.9502 939.441 91.8715 934.858 Q88.816 930.251 88.816 921.525 Q88.816 912.775 91.8715 908.191 Q94.9502 903.585 100.76 903.585 Z" fill="#000000" fill-rule="evenodd" fill-opacity="1" /><path clip-path="url(#clip910)" d="M 0 0 M120.922 932.89 L125.807 932.89 L125.807 938.77 L120.922 938.77 L120.922 932.89 Z" fill="#000000" fill-rule="evenodd" fill-opacity="1" /><path clip-path="url(#clip910)" d="M 0 0 M136.802 934.835 L144.441 934.835 L144.441 908.469 L136.131 910.136 L136.131 905.877 L144.394 904.21 L149.07 904.21 L149.07 934.835 L156.709 934.835 L156.709 938.77 L136.802 938.77 L136.802 934.835 Z" fill="#000000" fill-rule="evenodd" fill-opacity="1" /><path clip-path="url(#clip910)" d="M 0 0 M99.5335 594.551 Q95.9224 594.551 94.0937 598.116 Q92.2882 601.658 92.2882 608.787 Q92.2882 615.894 94.0937 619.459 Q95.9224 623 99.5335 623 Q103.168 623 104.973 619.459 Q106.802 615.894 106.802 608.787 Q106.802 601.658 104.973 598.116 Q103.168 594.551 99.5335 594.551 M99.5335 590.848 Q105.344 590.848 108.399 595.454 Q111.478 600.038 111.478 608.787 Q111.478 617.514 108.399 622.121 Q105.344 626.704 99.5335 626.704 Q93.7234 626.704 90.6447 622.121 Q87.5892 617.514 87.5892 608.787 Q87.5892 600.038 90.6447 595.454 Q93.7234 590.848 99.5335 590.848 Z" fill="#000000" fill-rule="evenodd" fill-opacity="1" /><path clip-path="url(#clip910)" d="M 0 0 M119.695 620.153 L124.58 620.153 L124.58 626.033 L119.695 626.033 L119.695 620.153 Z" fill="#000000" fill-rule="evenodd" fill-opacity="1" /><path clip-path="url(#clip910)" d="M 0 0 M144.765 594.551 Q141.154 594.551 139.325 598.116 Q137.519 601.658 137.519 608.787 Q137.519 615.894 139.325 619.459 Q141.154 623 144.765 623 Q148.399 623 150.205 619.459 Q152.033 615.894 152.033 608.787 Q152.033 601.658 150.205 598.116 Q148.399 594.551 144.765 594.551 M144.765 590.848 Q150.575 590.848 153.63 595.454 Q156.709 600.038 156.709 608.787 Q156.709 617.514 153.63 622.121 Q150.575 626.704 144.765 626.704 Q138.955 626.704 135.876 622.121 Q132.82 617.514 132.82 608.787 Q132.82 600.038 135.876 595.454 Q138.955 590.848 144.765 590.848 Z" fill="#000000" fill-rule="evenodd" fill-opacity="1" /><path clip-path="url(#clip910)" d="M 0 0 M100.76 281.814 Q97.1493 281.814 95.3206 285.379 Q93.515 288.921 93.515 296.05 Q93.515 303.157 95.3206 306.721 Q97.1493 310.263 100.76 310.263 Q104.395 310.263 106.2 306.721 Q108.029 303.157 108.029 296.05 Q108.029 288.921 106.2 285.379 Q104.395 281.814 100.76 281.814 M100.76 278.111 Q106.571 278.111 109.626 282.717 Q112.705 287.3 112.705 296.05 Q112.705 304.777 109.626 309.383 Q106.571 313.967 100.76 313.967 Q94.9502 313.967 91.8715 309.383 Q88.816 304.777 88.816 296.05 Q88.816 287.3 91.8715 282.717 Q94.9502 278.111 100.76 278.111 Z" fill="#000000" fill-rule="evenodd" fill-opacity="1" /><path clip-path="url(#clip910)" d="M 0 0 M120.922 307.416 L125.807 307.416 L125.807 313.296 L120.922 313.296 L120.922 307.416 Z" fill="#000000" fill-rule="evenodd" fill-opacity="1" /><path clip-path="url(#clip910)" d="M 0 0 M136.802 309.36 L144.441 309.36 L144.441 282.995 L136.131 284.661 L136.131 280.402 L144.394 278.736 L149.07 278.736 L149.07 309.36 L156.709 309.36 L156.709 313.296 L136.802 313.296 L136.802 309.36 Z" fill="#000000" fill-rule="evenodd" fill-opacity="1" /><polyline clip-path="url(#clip912)" style="stroke:#009af9; stroke-width:4; stroke-opacity:1; fill:none" points="
  253.843,790.129 484.908,668.054 694.599,432.175 886.269,288.869 1114,1216.97 1343.86,87.9763 1554.98,1445.72 1787.1,208.205 2063.95,597.241 2291.62,526.241 
  
  "/>
<circle clip-path="url(#clip912)" cx="253.843" cy="790.129" r="14" fill="#ff0000" fill-rule="evenodd" fill-opacity="1" stroke="#000000" stroke-opacity="1" stroke-width="3.2"/>
<circle clip-path="url(#clip912)" cx="484.908" cy="668.054" r="14" fill="#ff0000" fill-rule="evenodd" fill-opacity="1" stroke="#000000" stroke-opacity="1" stroke-width="3.2"/>
<circle clip-path="url(#clip912)" cx="694.599" cy="432.175" r="14" fill="#ff0000" fill-rule="evenodd" fill-opacity="1" stroke="#000000" stroke-opacity="1" stroke-width="3.2"/>
<circle clip-path="url(#clip912)" cx="886.269" cy="288.869" r="14" fill="#ff0000" fill-rule="evenodd" fill-opacity="1" stroke="#000000" stroke-opacity="1" stroke-width="3.2"/>
<circle clip-path="url(#clip912)" cx="1114" cy="1216.97" r="14" fill="#ff0000" fill-rule="evenodd" fill-opacity="1" stroke="#000000" stroke-opacity="1" stroke-width="3.2"/>
<circle clip-path="url(#clip912)" cx="1343.86" cy="87.9763" r="14" fill="#ff0000" fill-rule="evenodd" fill-opacity="1" stroke="#000000" stroke-opacity="1" stroke-width="3.2"/>
<circle clip-path="url(#clip912)" cx="1554.98" cy="1445.72" r="14" fill="#ff0000" fill-rule="evenodd" fill-opacity="1" stroke="#000000" stroke-opacity="1" stroke-width="3.2"/>
<circle clip-path="url(#clip912)" cx="1787.1" cy="208.205" r="14" fill="#ff0000" fill-rule="evenodd" fill-opacity="1" stroke="#000000" stroke-opacity="1" stroke-width="3.2"/>
<circle clip-path="url(#clip912)" cx="2063.95" cy="597.241" r="14" fill="#ff0000" fill-rule="evenodd" fill-opacity="1" stroke="#000000" stroke-opacity="1" stroke-width="3.2"/>
<circle clip-path="url(#clip912)" cx="2291.62" cy="526.241" r="14" fill="#ff0000" fill-rule="evenodd" fill-opacity="1" stroke="#000000" stroke-opacity="1" stroke-width="3.2"/>
<path clip-path="url(#clip910)" d="
M1988.32 216.178 L2280.75 216.178 L2280.75 95.2176 L1988.32 95.2176  Z
  " fill="#ffffff" fill-rule="evenodd" fill-opacity="1"/>
<polyline clip-path="url(#clip910)" style="stroke:#000000; stroke-width:4; stroke-opacity:1; fill:none" points="
  1988.32,216.178 2280.75,216.178 2280.75,95.2176 1988.32,95.2176 1988.32,216.178 
  "/>
<polyline clip-path="url(#clip910)" style="stroke:#009af9; stroke-width:4; stroke-opacity:1; fill:none" points="
  2012.32,155.698 2156.32,155.698 
  "/>
<circle clip-path="url(#clip910)" cx="2084.32" cy="155.698" r="23" fill="#ff0000" fill-rule="evenodd" fill-opacity="1" stroke="#000000" stroke-opacity="1" stroke-width="5.12"/>
<path clip-path="url(#clip910)" d="M 0 0 M2194.17 175.385 Q2192.36 180.015 2190.65 181.427 Q2188.93 182.839 2186.06 182.839 L2182.66 182.839 L2182.66 179.274 L2185.16 179.274 Q2186.92 179.274 2187.89 178.44 Q2188.86 177.607 2190.05 174.505 L2190.81 172.561 L2180.32 147.052 L2184.84 147.052 L2192.94 167.329 L2201.04 147.052 L2205.55 147.052 L2194.17 175.385 Z" fill="#000000" fill-rule="evenodd" fill-opacity="1" /><path clip-path="url(#clip910)" d="M 0 0 M2212.85 169.042 L2220.48 169.042 L2220.48 142.677 L2212.17 144.343 L2212.17 140.084 L2220.44 138.418 L2225.11 138.418 L2225.11 169.042 L2232.75 169.042 L2232.75 172.978 L2212.85 172.978 L2212.85 169.042 Z" fill="#000000" fill-rule="evenodd" fill-opacity="1" /></svg>
